<?xml version="1.0" encoding="UTF-8"?>
<svg xmlns="http://www.w3.org/2000/svg" width="12.332mm" height="8.525mm" version="1.1" viewBox="0 0 34.956 24.165">
  <!-- Generator: Adobe Illustrator 28.7.4, SVG Export Plug-In . SVG Version: 1.2.0 Build 166)  -->
  <g>
    <g id="Calque_1">
      <rect x="754.756" y="1100.585" width="25.045" height="25.045" fill="#B0283A" fill-opacity=".2" stroke="#B0283A" stroke-linecap="round" stroke-linejoin="round" stroke-width="3"/>
      <path d="M14.674,14.634L27.638,1.669c1.433-1.437,3.768-1.437,5.198,0,.719.713,1.083,1.66,1.083,2.601s-.363,1.886-1.077,2.601l-15.878,15.879c-.743.749-1.754,1.119-2.837,1.049l-.055-.002-.051.002c-1.07.07-2.102-.314-2.836-1.049L1.58,13.148c-1.43-1.433-1.43-3.766.007-5.201,1.432-1.435,3.765-1.435,5.201,0l7.285,7.284.602-.598Z" fill="#B0283A" stroke="#B0283A" stroke-linecap="round" stroke-linejoin="round" stroke-width=".25"/>
    </g>
  </g>
</svg>