<?xml version="1.0" encoding="UTF-8" standalone="no"?>
<svg
   width="34.95mm"
   height="32.4mm"
   version="1.1"
   viewBox="0 0 99.071 91.843"
   id="svg3"
   sodipodi:docname="JournalActif.svg"
   inkscape:version="1.4 (86a8ad7, 2024-10-11)"
   xmlns:inkscape="http://www.inkscape.org/namespaces/inkscape"
   xmlns:sodipodi="http://sodipodi.sourceforge.net/DTD/sodipodi-0.dtd"
   xmlns="http://www.w3.org/2000/svg"
   xmlns:svg="http://www.w3.org/2000/svg">
  <defs
     id="defs3" />
  <sodipodi:namedview
     id="namedview3"
     pagecolor="#ffffff"
     bordercolor="#000000"
     borderopacity="0.25"
     inkscape:showpageshadow="2"
     inkscape:pageopacity="0.0"
     inkscape:pagecheckerboard="0"
     inkscape:deskcolor="#d1d1d1"
     inkscape:document-units="mm"
     inkscape:zoom="10.068865"
     inkscape:cx="66.045178"
     inkscape:cy="45.33778"
     inkscape:window-width="2880"
     inkscape:window-height="1514"
     inkscape:window-x="-11"
     inkscape:window-y="-11"
     inkscape:window-maximized="1"
     inkscape:current-layer="g2" />
  <!-- Generator: Adobe Illustrator 28.7.4, SVG Export Plug-In . SVG Version: 1.2.0 Build 166)  -->
  <g
     id="g3">
    <g
       id="Calque_1">
      <g
         id="g2">
        <path
           d="M50.386,89.658c-23.711,0-43.002-19.289-43.002-42.999S26.675,3.655,50.386,3.655s43.001,19.292,43.001,43.004-19.291,42.999-43.001,42.999ZM28.886,62.863c.458.396,1.146.647,1.793.647.741,0,1.439-.311,1.753-.619.561-.735.781-1.286.781-1.945,0-.829-.328-1.515-.632-1.801l-.13-.123-.106-.144c-.322-.435-1.007-.738-1.666-.738-.665,0-1.336.314-1.753.819l-.065.079-.073.072c-.31.306-.643,1.011-.643,1.835,0,.625.209,1.173.741,1.917ZM28.887,45.678c-.532.742-.741,1.279-.741,1.878,0,.733.277,1.506.706,1.969l.072.082c.417.504,1.091.817,1.756.817.661,0,1.347-.302,1.669-.735l.078-.105.091-.094c.423-.436.696-1.195.696-1.934,0-.615-.21-1.107-.661-1.548l-.601-.588v-.093c-.349-.172-.803-.299-1.273-.299-.645,0-1.333.252-1.792.651ZM28.775,36.328c.467.398,1.223.662,1.904.662.77,0,1.545-.32,1.85-.629.354-.345.685-1.086.685-1.888,0-.616-.213-1.161-.777-1.968-.459-.408-1.217-.812-1.757-.812-.492,0-1.232.36-1.873.905-.404.496-.661,1.22-.661,1.875,0,.758.318,1.505.63,1.854Z"
           fill="#FFFFFF"
           fill-rule="evenodd"
           id="path1" />
        <path
           d="M50.386,5.655c22.644,0,41.002,18.357,41.002,41.004s-18.358,40.999-41.002,40.999S9.384,69.302,9.384,46.659,27.741,5.655,50.386,5.655M30.679,38.99c1.238,0,2.543-.484,3.273-1.224.77-.749,1.261-2.04,1.261-3.293,0-1.236-.491-2.222-1.261-3.287-.73-.726-2.036-1.493-3.273-1.493s-2.484.768-3.296,1.493c-.733.821-1.237,2.051-1.237,3.287,0,1.253.504,2.544,1.237,3.293.812.739,2.06,1.224,3.296,1.224M43.763,35.982h29.544c.737,0,1.5-.772,1.5-1.509,0-.758-.763-1.48-1.5-1.48h-29.544c-.987,0-1.5.722-1.5,1.48,0,.736.513,1.509,1.5,1.509M30.679,52.424c1.238,0,2.543-.56,3.273-1.541.77-.793,1.261-2.031,1.261-3.327,0-1.238-.491-2.224-1.261-2.978v-.232c-.73-.803-2.036-1.319-3.273-1.319s-2.484.517-3.296,1.319c-.733.986-1.237,1.972-1.237,3.21,0,1.296.504,2.534,1.237,3.327.812.981,2.06,1.541,3.296,1.541M43.763,49.103h29.544c.737,0,1.5-.716,1.5-1.547,0-.754-.763-1.238-1.5-1.238h-29.544c-.987,0-1.5.484-1.5,1.238,0,.831.513,1.547,1.5,1.547M30.679,65.51c1.238,0,2.543-.513,3.273-1.315.77-.986,1.261-1.973,1.261-3.249,0-1.287-.491-2.533-1.261-3.258-.73-.986-2.036-1.548-3.273-1.548s-2.484.562-3.296,1.548c-.733.725-1.237,1.971-1.237,3.258,0,1.276.504,2.263,1.237,3.249.812.802,2.06,1.315,3.296,1.315M43.763,62.223h29.544c.737,0,1.5-.503,1.5-1.276,0-.73-.763-1.503-1.5-1.503h-29.544c-.987,0-1.5.773-1.5,1.503,0,.773.513,1.276,1.5,1.276M50.386,1.655C25.572,1.655,5.384,21.844,5.384,46.659s20.188,44.999,45.002,44.999,45.002-20.186,45.002-44.999S75.2,1.655,50.386,1.655h0ZM30.281,33.98c.161-.118.305-.2.407-.248.08.037.175.09.262.148.263.412.263.539.263.594,0,.161-.045.324-.086.427-.112.044-.288.09-.449.09s-.327-.047-.45-.099c-.043-.115-.084-.272-.084-.418,0-.166.065-.359.136-.494h0ZM30.333,47.109c.1-.045.231-.082.346-.082.019,0,.039.001.059.003l.415.407c.035.034.052.057.058.066,0,.004.001.022.001.053,0,.276-.1.498-.146.557l-.182.188-.068.094c-.041.016-.097.029-.138.029-.074,0-.182-.052-.216-.093l-.07-.084-.074-.08c-.057-.07-.174-.33-.174-.611,0-.095.063-.245.188-.447h0ZM30.251,60.478l.089-.088.13-.158c.034-.041.137-.091.209-.091.039,0,.093.013.133.028l.139.187.182.171c.034.077.082.233.082.419,0,.081,0,.194-.202.497-.089.034-.217.067-.333.067-.121,0-.25-.039-.348-.082-.185-.302-.185-.413-.185-.481,0-.207.065-.39.106-.469h0Z"
           fill="#445060"
           id="path2"
           style="fill:#445060;fill-opacity:1" />
      </g>
    </g>
  </g>
</svg>
