<?xml version="1.0" encoding="UTF-8" standalone="no"?>
<svg
   width="10.969mm"
   height="10.991mm"
   version="1.1"
   viewBox="0 0 31.092 31.157"
   id="svg3"
   sodipodi:docname="Sombre_FichierInctif.svg"
   inkscape:version="1.4 (86a8ad7, 2024-10-11)"
   xmlns:inkscape="http://www.inkscape.org/namespaces/inkscape"
   xmlns:sodipodi="http://sodipodi.sourceforge.net/DTD/sodipodi-0.dtd"
   xmlns="http://www.w3.org/2000/svg"
   xmlns:svg="http://www.w3.org/2000/svg">
  <defs
     id="defs3" />
  <sodipodi:namedview
     id="namedview3"
     pagecolor="#ffffff"
     bordercolor="#000000"
     borderopacity="0.25"
     inkscape:showpageshadow="2"
     inkscape:pageopacity="0.0"
     inkscape:pagecheckerboard="0"
     inkscape:deskcolor="#d1d1d1"
     inkscape:document-units="mm"
     inkscape:zoom="19.42669"
     inkscape:cx="20.744656"
     inkscape:cy="20.770394"
     inkscape:window-width="1920"
     inkscape:window-height="1009"
     inkscape:window-x="3832"
     inkscape:window-y="-8"
     inkscape:window-maximized="1"
     inkscape:current-layer="svg3" />
  <!-- Generator: Adobe Illustrator 28.7.4, SVG Export Plug-In . SVG Version: 1.2.0 Build 166)  -->
  <g
     id="g3"
     style="fill:#5d6c83;fill-opacity:1">
    <g
       id="Calque_1"
       style="fill:#5d6c83;fill-opacity:1">
      <rect
         x="754.756"
         y="1107.576"
         width="25.045"
         height="25.045"
         fill="#00d200"
         fill-opacity=".2"
         stroke="#00d200"
         stroke-linecap="round"
         stroke-linejoin="round"
         stroke-width="3"
         id="rect1"
         style="fill:#5d6c83;fill-opacity:1" />
      <g
         id="g2"
         style="fill:#5d6c83;fill-opacity:1">
        <path
           d="M5.164,26.87c-.697,0-1.265-.567-1.265-1.26V3.753c0-.695.567-1.263,1.265-1.263h8.549c.341,0,.655.13.894.367l8.263,8.265c.234.239.369.563.369.891v4.551l.839.837v-5.388c0-.563-.218-1.09-.615-1.485L15.201,2.263c-.397-.392-.924-.612-1.487-.612H5.164c-1.161,0-2.102.941-2.102,2.102v21.857c0,1.159.941,2.102,2.102,2.102h12.599l-.839-.842H5.164Z"
           fill="#fff"
           id="path1"
           style="fill:#5d6c83;fill-opacity:1" />
        <path
           d="M21.979,18.042c-2.785,0-5.045,2.265-5.045,5.048s2.26,5.045,5.045,5.045,5.04-2.258,5.04-5.045-2.253-5.048-5.04-5.048Z"
           fill="#fff"
           id="path2"
           style="fill:#5d6c83;fill-opacity:1" />
      </g>
    </g>
  </g>
</svg>
