<?xml version="1.0" encoding="UTF-8" standalone="no"?>
<svg
   width="1920"
   height="1080"
   version="1.1"
   viewBox="0 0 1920 1080"
   id="svg1"
   sodipodi:docname="MotifHexagonal.svg"
   inkscape:version="1.4 (86a8ad7, 2024-10-11)"
   xmlns:inkscape="http://www.inkscape.org/namespaces/inkscape"
   xmlns:sodipodi="http://sodipodi.sourceforge.net/DTD/sodipodi-0.dtd"
   xmlns="http://www.w3.org/2000/svg"
   xmlns:svg="http://www.w3.org/2000/svg">
  <defs
     id="defs1" />
  <sodipodi:namedview
     id="namedview1"
     pagecolor="#ffffff"
     bordercolor="#000000"
     borderopacity="0.25"
     inkscape:showpageshadow="2"
     inkscape:pageopacity="0.0"
     inkscape:pagecheckerboard="0"
     inkscape:deskcolor="#d1d1d1"
     inkscape:zoom="0.75277778"
     inkscape:cx="960.4428"
     inkscape:cy="540"
     inkscape:window-width="1920"
     inkscape:window-height="1094"
     inkscape:window-x="2869"
     inkscape:window-y="-11"
     inkscape:window-maximized="1"
     inkscape:current-layer="svg1" />
  <!-- Generator: Adobe Illustrator 28.7.4, SVG Export Plug-In . SVG Version: 1.2.0 Build 166)  -->
  <g
     id="g1">
    <g
       id="Calque_4">
      <path
         d="M1913.086,7.59l6.718,3.879v-1.639l-6.01-3.47V-.022h-1.417v6.382l-26.768,15.456-26.68-15.491V.226h-1.417v.042h-.084v6.094l-26.693,15.413-26.924-15.415V-.022h-1.417v6.382l-26.768,15.456-26.68-15.491V.226h-1.417v.042h-.084v6.094l-26.41,15.413-26.924-15.415V-.022h-1.417v6.382l-26.768,15.456-26.68-15.491V.226h-1.417v.042h-.084v6.094l-27.26,15.413-26.641-15.415V-.022h-1.417v6.382l-26.768,15.456-26.68-15.491V.226h-1.417v.042h-.084v6.094l-26.126,15.413-26.925-15.415V-.022h-1.417v6.382l-26.768,15.456-26.68-15.491V.226h-1.417v.042h-.084v6.094l-26.41,15.413-27.775-15.415V-.022h-1.417v6.382l-26.768,15.456-26.68-15.491V.226h-1.417v.042h-.084v6.094l-26.693,15.413-26.924-15.415V-.022h-1.417v6.382l-26.768,15.456-26.68-15.491V.226h-1.417v.042h-.084v6.094l-26.41,15.413-26.924-15.415V-.022h-1.417v6.382l-26.768,15.456-26.68-15.491V.226h-1.417v.042h-.084v6.094l-27.26,15.413-26.641-15.415V-.022h-1.417v6.382l-26.768,15.456-26.68-15.491V.226h-1.417v.042h-.084v6.094l-26.126,15.413-26.925-15.415V-.022h-1.417v6.382l-26.768,15.456-26.68-15.491V.226h-1.417v.042h-.084v6.094l-26.41,15.413-26.357-15.415V-.022h-1.417v6.382l-26.768,15.456-26.68-15.491V.226h-1.417v.042h-.084v6.094l-26.693,15.413-26.924-15.415V-.022h-1.417v6.382l-26.768,15.456-26.68-15.491V.226h-1.417v.042h-.084v6.094l-26.41,15.413-26.924-15.415V-.022h-1.417v6.382l-26.768,15.456-26.68-15.491V.226h-1.417v.042h-.084v6.094l-27.26,15.413-26.641-15.415V-.022h-1.417v6.382l-26.768,15.456-26.68-15.491V.226h-1.417v.042h-.084v6.094l-26.126,15.413-26.925-15.415V-.022h-1.417v6.382l-26.768,15.456-26.68-15.491V.226h-1.417v.042h-.084v6.094l-26.41,15.413-27.775-15.415V-.022h-1.417v6.382l-26.768,15.456-26.68-15.491V.226h-1.417v.042h-.084v6.094l-26.693,15.413-26.924-15.415V-.022h-1.417v6.382l-26.768,15.456-26.68-15.491V.226h-1.417v.042h-.084v6.094l-26.41,15.413-26.924-15.415V-.022h-1.417v6.382l-26.768,15.456L0,11.61v1.693l16.868,9.741v30.911L0,63.695v1.64l17.577-10.15,26.762,15.453.005,30.914-26.765,15.454L0,106.855v1.639l16.869,9.74.008,30.914L0,158.893v1.637l17.585-10.155,26.748,15.449v30.911l-26.748,15.46L0,202.042v1.639l16.878,9.746-.016,30.9L0,254.058v1.639l17.573-10.14,26.765,15.455v30.899s-26.769,15.456-26.769,15.456l-17.569-10.145v1.637l16.861,9.736v30.911l-16.861,9.736v1.64l17.57-10.146,26.762,15.453v30.911l-26.765,15.454-17.567-10.143v1.639l16.859,9.735-.011,30.916-16.848,9.728v1.637l17.556-10.138,26.748,15.449v30.911l-26.748,15.46-17.556-10.137v1.639l16.849,9.729-.016,30.899-16.832,9.74v1.64l17.544-10.149,26.765,15.455-.01,31.319-26.765,15.46-17.534-10.18v1.64l16.823,9.769.008,30.914-16.831,9.718v1.637l17.539-10.128,26.749,15.449v30.911l-26.749,15.46-17.539-10.127v1.639l16.832,9.719-.014,30.899-16.817,9.71v1.637l17.526-10.12,26.765,15.455v30.911l-26.768,15.456-17.522-10.118v1.637l16.814,9.709v30.911l-16.814,9.708v1.64l17.523-10.119,26.762,15.453.006,30.914-26.765,15.454-17.525-10.119v1.639l16.814,9.709.008,30.914-16.822,9.713v1.637l17.531-10.123,26.749,15.449v30.911l-26.749,15.46-17.531-10.122v1.639l16.823,9.714-.016,30.9-16.807,9.7v1.639l17.519-10.108,26.765,15.455v30.898s-26.769,15.456-26.769,15.456l-17.515-10.113v1.637l16.807,9.705v9.792h1.417v-9.792l26.769-15.454,26.849,15.454v9.228h1.42v-9.228l26.481-15.455,26.765,15.455v9.792h1.417v-9.792l26.769-15.454,26.849,15.454v9.228h1.42v-9.228l26.765-15.455,26.765,15.455v9.792h1.417v-9.792l26.769-15.454,27.699,15.454v9.228h1.42v-9.228l26.481-15.455,26.765,15.455v9.792h1.417v-9.792l26.769-15.454,26.849,15.454v9.228h1.42v-9.228l26.198-15.455,26.765,15.455v9.792h1.417v-9.792l26.769-15.454,26.566,15.454v9.228h1.42v-9.228l27.331-15.455,26.765,15.455v9.792h1.417v-9.792l26.769-15.454,26.849,15.454v9.228h1.42v-9.228l26.481-15.455,26.765,15.455v9.792h1.417v-9.792l26.769-15.454,26.849,15.454v9.228h1.42v-9.228l26.765-15.455,26.765,15.455v9.792h1.417v-9.792l26.769-15.454,26.282,15.454v9.228h1.42v-9.228l26.481-15.455,26.765,15.455v9.792h1.417v-9.792l26.769-15.454,26.849,15.454v9.228h1.42v-9.228l26.198-15.455,26.765,15.455v9.792h1.417v-9.792l26.769-15.454,26.566,15.454v9.228h1.42v-9.228l27.331-15.455,26.765,15.455v9.792h1.417v-9.792l26.769-15.454,26.849,15.454v9.228h1.42v-9.228l26.481-15.455,26.765,15.455v9.792h1.417v-9.792l26.769-15.454,26.849,15.454v9.228h1.42v-9.228l26.765-15.455,26.765,15.455v9.792h1.417v-9.792l26.769-15.454,27.699,15.454v9.228h1.42v-9.228l26.481-15.455,26.765,15.455v9.792h1.417v-9.792l26.769-15.454,26.849,15.454v9.228h1.42v-9.228l26.198-15.455,26.765,15.455v9.792h1.417v-9.792l26.769-15.454,26.566,15.454v9.228h1.42v-9.228l27.331-15.455,26.765,15.455v9.792h1.417v-9.792l26.769-15.454,26.849,15.454v9.228h1.42v-9.228l26.481-15.455,26.765,15.455v9.792h1.417v-9.792l26.769-15.454,26.849,15.454v9.228h1.42v-9.228l26.765-15.455,26.765,15.455v9.792h1.417v-9.792l26.769-15.454,6.779,3.915v-1.639l-6.072-3.506v-30.898s6.072-3.506,6.072-3.506v-1.641l-6.781,3.915-26.765-15.454.014-30.9,26.751-15.461,6.781,3.915v-1.639l-6.073-3.506v-30.911l6.073-3.507v-1.637l-6.781,3.915-26.751-15.448-.005-30.914,26.765-15.455,6.773,3.911v-1.637l-6.064-3.502-.006-30.914,6.07-3.505v-1.637l-6.779,3.914-26.762-15.455v-30.911l26.769-15.454,6.772,3.911v-1.639l-6.064-3.502v-30.911l6.064-3.502v-1.637l-6.773,3.911-26.764-15.454.014-30.899,26.752-15.461,6.771,3.91v-1.724l-5.99-3.459v-30.911l5.99-3.459v-1.638l-6.699,3.868-26.825-15.405-.005-30.914,26.765-15.455,6.765,3.906v-1.726l-5.984-3.455-.026-31.276,6.01-3.47v-1.663l-6.741,3.892-26.779-15.446.014-30.899,26.751-15.461,6.755,3.901v-1.639l-6.047-3.492v-30.911l6.047-3.492v-1.637l-6.756,3.901-26.751-15.448.011-30.916,26.764-15.455,6.731,3.887v-1.639l-6.023-3.478v-30.911l6.023-3.478v-1.637l-6.731,3.887-26.762-15.455v-30.911l26.769-15.454,6.725,3.883v-1.639l-6.017-3.474v-30.899s6.017-3.474,6.017-3.474v-1.641l-6.726,3.884-26.765-15.454.014-30.9,26.751-15.461,6.726,3.884v-1.639l-6.018-3.475v-30.911l6.018-3.475v-1.637l-6.727,3.884-26.751-15.448-.005-30.914,26.765-15.455,6.719,3.88v-1.637l-6.01-3.47-.006-30.914,6.016-3.474v-1.637l-6.724,3.882-26.762-15.455v-30.911l26.769-15.454ZM1831.456,23.01l26.693-15.414,26.751,15.448v30.911l-26.765,15.454-26.679-15.488v-30.911ZM183.031,529.889l.003-30.913,26.734-15.45,26.765,15.455-.016,30.899-26.722,15.462-26.764-15.454ZM209.106,577.846l-26.765,15.454-26.853-15.456-.026-31.276,26.86-15.453,26.765,15.455.019,31.275ZM237.229,531.111l26.765,15.455-.01,31.319-26.765,15.46-26.696-15.499-.019-31.275,26.725-15.46ZM237.937,529.881l.014-30.899,26.751-15.461,27.748,15.456v30.913s-27.734,15.438-27.734,15.438l-26.779-15.446ZM293.157,531.116l26.481,15.455.019,31.275-26.481,15.454-27.703-15.456-.026-31.276,27.71-15.453ZM293.866,529.889l.003-30.913,26.451-15.45,26.765,15.455-.017,30.899-26.722,15.462-26.481-15.454ZM347.781,531.111l26.765,15.455-.01,31.319-26.765,15.46-26.696-15.499-.019-31.275,26.725-15.46ZM348.488,529.881l.014-30.899,26.751-15.461,26.897,15.456v30.913s-26.883,15.438-26.883,15.438l-26.779-15.446ZM402.858,531.116l26.198,15.455.019,31.275-26.198,15.454-26.853-15.456-.026-31.276,26.86-15.453ZM403.567,529.889l.003-30.913,26.167-15.45,26.765,15.455-.016,30.899-26.722,15.462-26.197-15.454ZM457.198,531.111l26.765,15.455-.01,31.319-26.765,15.46-26.696-15.499-.019-31.275,26.725-15.46ZM457.906,529.881l.014-30.899,26.751-15.461,26.614,15.456v30.913s-26.6,15.438-26.6,15.438l-26.779-15.446ZM511.992,531.116l27.332,15.455.019,31.275-27.332,15.454-26.569-15.456-.026-31.276,26.576-15.453ZM512.701,529.889l.003-30.913,27.301-15.45,26.765,15.455-.016,30.899-26.722,15.462-27.331-15.454ZM567.466,531.111l26.765,15.455-.01,31.319-26.765,15.46-26.696-15.499-.019-31.275,26.725-15.46ZM568.173,529.881l.014-30.899,26.751-15.461,26.897,15.456v30.913s-26.883,15.438-26.883,15.438l-26.779-15.446ZM622.543,531.116l26.481,15.455.019,31.275-26.481,15.454-26.853-15.456-.026-31.276,26.86-15.453ZM623.252,529.889l.003-30.913,26.451-15.45,26.765,15.455-.016,30.899-26.722,15.462-26.481-15.454ZM677.167,531.111l26.765,15.455-.01,31.319-26.765,15.46-26.696-15.499-.019-31.275,26.725-15.46ZM677.874,529.881l.014-30.899,26.751-15.461,26.897,15.456v30.913s-26.883,15.438-26.883,15.438l-26.779-15.446ZM732.244,531.116l26.765,15.455.019,31.275-26.765,15.454-26.853-15.456-.026-31.276,26.86-15.453ZM732.953,529.889l.003-30.913,26.734-15.45,26.765,15.455-.016,30.899-26.722,15.462-26.764-15.454ZM787.151,531.111l26.765,15.455-.01,31.319-26.765,15.46-26.696-15.499-.019-31.275,26.725-15.46ZM787.859,529.881l.014-30.899,26.751-15.461,26.33,15.456v30.913s-26.316,15.438-26.316,15.438l-26.779-15.446ZM841.661,531.116l26.481,15.455.019,31.275-26.481,15.454-26.286-15.456-.026-31.276,26.293-15.453ZM842.37,529.889l.003-30.913,26.451-15.45,26.765,15.455-.017,30.899-26.722,15.462-26.481-15.454ZM896.285,531.111l26.765,15.455-.01,31.319-26.765,15.46-26.696-15.499-.019-31.275,26.725-15.46ZM896.992,529.881l.014-30.899,26.751-15.461,26.897,15.456v30.913s-26.883,15.438-26.883,15.438l-26.779-15.446ZM951.362,531.116l26.198,15.455.019,31.275-26.198,15.454-26.853-15.456-.026-31.276,26.86-15.453ZM952.071,529.889l.003-30.913,26.167-15.45,26.765,15.455-.016,30.899-26.722,15.462-26.197-15.454ZM1005.702,531.111l26.765,15.455-.01,31.319-26.765,15.46-26.696-15.499-.019-31.275,26.725-15.46ZM1006.41,529.881l.014-30.899,26.751-15.461,26.614,15.456v30.913s-26.6,15.438-26.6,15.438l-26.779-15.446ZM1060.496,531.116l27.332,15.455.019,31.275-27.332,15.454-26.569-15.456-.026-31.276,26.576-15.453ZM1061.204,529.889l.003-30.913,27.301-15.45,26.765,15.455-.016,30.899-26.722,15.462-27.331-15.454ZM1115.97,531.111l26.765,15.455-.01,31.319-26.765,15.46-26.696-15.499-.019-31.275,26.725-15.46ZM1116.677,529.881l.014-30.899,26.751-15.461,26.897,15.456v30.913s-26.883,15.438-26.883,15.438l-26.779-15.446ZM1171.047,531.116l26.481,15.455.019,31.275-26.481,15.454-26.853-15.456-.026-31.276,26.86-15.453ZM1171.756,529.889l.003-30.913,26.451-15.45,26.765,15.455-.016,30.899-26.722,15.462-26.481-15.454ZM1225.67,531.111l26.765,15.455-.01,31.319-26.765,15.46-26.696-15.499-.019-31.275,26.725-15.46ZM1226.378,529.881l.014-30.899,26.751-15.461,26.897,15.456v30.913s-26.883,15.438-26.883,15.438l-26.779-15.446ZM1280.748,531.116l26.765,15.455.019,31.275-26.765,15.454-26.853-15.456-.026-31.276,26.86-15.453ZM1281.456,529.889l.003-30.913,26.734-15.45,26.765,15.455-.016,30.899-26.722,15.462-26.764-15.454ZM1335.655,531.111l26.765,15.455-.01,31.319-26.765,15.46-26.696-15.499-.019-31.275,26.725-15.46ZM1336.362,529.881l.014-30.899,26.751-15.461,27.748,15.456v30.913s-27.734,15.438-27.734,15.438l-26.779-15.446ZM1391.583,531.116l26.481,15.455.019,31.275-26.481,15.454-27.703-15.456-.026-31.276,27.71-15.453ZM1392.291,529.889l.003-30.913,26.451-15.45,26.765,15.455-.017,30.899-26.722,15.462-26.481-15.454ZM1446.206,531.111l26.765,15.455-.01,31.319-26.765,15.46-26.696-15.499-.019-31.275,26.725-15.46ZM1446.914,529.881l.014-30.899,26.751-15.461,26.897,15.456v30.913s-26.883,15.438-26.883,15.438l-26.779-15.446ZM1501.283,531.116l26.198,15.455.019,31.275-26.198,15.454-26.853-15.456-.026-31.276,26.86-15.453ZM1501.992,529.889l.003-30.913,26.167-15.45,26.765,15.455-.016,30.899-26.722,15.462-26.197-15.454ZM1555.623,531.111l26.765,15.455-.01,31.319-26.765,15.46-26.696-15.499-.019-31.275,26.725-15.46ZM1556.331,529.881l.014-30.899,26.751-15.461,26.614,15.456v30.913s-26.6,15.438-26.6,15.438l-26.779-15.446ZM1610.417,531.116l27.332,15.455.019,31.275-27.332,15.454-26.569-15.456-.026-31.276,26.576-15.453ZM1611.126,529.889l.003-30.913,27.301-15.45,26.765,15.455-.016,30.899-26.722,15.462-27.331-15.454ZM1665.891,531.111l26.765,15.455-.01,31.319-26.765,15.46-26.696-15.499-.019-31.275,26.725-15.46ZM1666.599,529.881l.014-30.899,26.751-15.461,26.897,15.456v30.913s-26.883,15.438-26.883,15.438l-26.779-15.446ZM1720.968,531.116l26.481,15.455.019,31.275-26.481,15.454-26.853-15.456-.026-31.276,26.86-15.453ZM1721.677,529.889l.003-30.913,26.451-15.45,26.765,15.455-.016,30.899-26.722,15.462-26.481-15.454ZM1748.13,450.156l-26.435-15.434v-30.911l26.446-15.481,26.765,15.455-.011,30.916-26.765,15.454ZM1747.419,451.385v30.911l-26.448,15.452-26.901-15.458v-30.911l26.917-15.426,26.431,15.432ZM1693.363,450.151l-26.751-15.448.011-30.916,26.764-15.455,26.86,15.463.031,30.929-26.916,15.428ZM1692.651,451.379v30.911l-26.748,15.46-26.765-15.454v-30.911l26.765-15.455,26.748,15.449ZM1665.195,434.702l-26.765,15.454-27.285-15.434v-30.911l27.297-15.481,26.765,15.455-.011,30.916ZM1637.718,451.385v30.911l-27.298,15.452-26.617-15.458v-30.911l26.633-15.426,27.282,15.432ZM1583.095,450.151l-26.751-15.448.011-30.916,26.764-15.455,26.576,15.463.031,30.929-26.632,15.428ZM1582.383,451.379v30.911l-26.748,15.46-26.765-15.454v-30.911l26.765-15.455,26.748,15.449ZM1554.927,434.702l-26.765,15.454-26.151-15.434v-30.911l26.163-15.481,26.765,15.455-.011,30.916ZM1527.451,451.385v30.911l-26.164,15.452-26.901-15.458v-30.911l26.917-15.426,26.148,15.432ZM1473.677,450.151l-26.751-15.448.011-30.916,26.764-15.455,26.86,15.463.031,30.929-26.916,15.428ZM1472.966,451.379v30.911l-26.748,15.46-26.765-15.454v-30.911l26.765-15.455,26.748,15.449ZM1445.51,434.702l-26.765,15.454-26.435-15.434v-30.911l26.447-15.481,26.765,15.455-.011,30.916ZM1418.033,451.385v30.911l-26.448,15.452-27.751-15.458v-30.911l27.767-15.426,26.431,15.432ZM1363.126,450.151l-26.751-15.448.011-30.916,26.764-15.455,27.71,15.463.031,30.929-27.766,15.428ZM1362.415,451.379v30.911l-26.748,15.46-26.765-15.454v-30.911l26.765-15.455,26.748,15.449ZM1334.958,434.702l-26.765,15.454-26.719-15.434v-30.911l26.73-15.481,26.765,15.455-.011,30.916ZM1307.482,451.385v30.911l-26.731,15.452-26.901-15.458v-30.911l26.917-15.426,26.715,15.432ZM1253.142,450.151l-26.751-15.448.011-30.916,26.764-15.455,26.86,15.463.031,30.929-26.916,15.428ZM1252.431,451.379v30.911l-26.748,15.46-26.765-15.454v-30.911l26.765-15.455,26.748,15.449ZM1224.974,434.702l-26.765,15.454-26.435-15.434v-30.911l26.446-15.481,26.765,15.455-.011,30.916ZM1197.498,451.385v30.911l-26.448,15.452-26.901-15.458v-30.911l26.917-15.426,26.431,15.432ZM1143.441,450.151l-26.751-15.448.011-30.916,26.764-15.455,26.86,15.463.031,30.929-26.916,15.428ZM1142.73,451.379v30.911l-26.748,15.46-26.765-15.454v-30.911l26.765-15.455,26.748,15.449ZM1115.273,434.702l-26.765,15.454-27.285-15.434v-30.911l27.297-15.481,26.765,15.455-.011,30.916ZM1087.797,451.385v30.911l-27.298,15.452-26.617-15.458v-30.911l26.633-15.426,27.282,15.432ZM1033.174,450.151l-26.751-15.448.011-30.916,26.764-15.455,26.576,15.463.031,30.929-26.632,15.428ZM1032.462,451.379v30.911l-26.748,15.46-26.765-15.454v-30.911l26.765-15.455,26.748,15.449ZM1005.006,434.702l-26.765,15.454-26.151-15.434v-30.911l26.163-15.481,26.765,15.455-.011,30.916ZM977.529,451.385v30.911l-26.164,15.452-26.901-15.458v-30.911l26.917-15.426,26.148,15.432ZM923.756,450.151l-26.751-15.448.011-30.916,26.764-15.455,26.86,15.463.031,30.929-26.916,15.428ZM923.045,451.379v30.911l-26.748,15.46-26.765-15.454v-30.911l26.765-15.455,26.748,15.449ZM895.588,434.702l-26.765,15.454-26.435-15.434v-30.911l26.446-15.481,26.765,15.455-.011,30.916ZM868.112,451.385v30.911l-26.447,15.452-26.334-15.458v-30.911l26.35-15.426,26.431,15.432ZM814.622,450.151l-26.751-15.448.011-30.916,26.764-15.455,26.293,15.463.031,30.929-26.349,15.428ZM813.911,451.379v30.911l-26.748,15.46-26.765-15.454v-30.911l26.765-15.455,26.748,15.449ZM786.454,434.702l-26.765,15.454-26.719-15.434v-30.911l26.73-15.481,26.765,15.455-.011,30.916ZM758.978,451.385v30.911l-26.731,15.452-26.901-15.458v-30.911l26.917-15.426,26.715,15.432ZM704.638,450.151l-26.751-15.448.011-30.916,26.764-15.455,26.86,15.463.031,30.929-26.916,15.428ZM703.927,451.379v30.911l-26.748,15.46-26.765-15.454v-30.911l26.765-15.455,26.748,15.449ZM676.47,434.702l-26.765,15.454-26.435-15.434v-30.911l26.446-15.481,26.765,15.455-.011,30.916ZM648.994,451.385v30.911l-26.448,15.452-26.901-15.458v-30.911l26.917-15.426,26.431,15.432ZM594.937,450.151l-26.751-15.448.011-30.916,26.764-15.455,26.86,15.463.031,30.929-26.916,15.428ZM594.226,451.379v30.911l-26.748,15.46-26.765-15.454v-30.911l26.765-15.455,26.748,15.449ZM566.769,434.702l-26.765,15.454-27.285-15.434v-30.911l27.297-15.481,26.765,15.455-.011,30.916ZM539.293,451.385v30.911l-27.298,15.452-26.617-15.458v-30.911l26.633-15.426,27.282,15.432ZM484.67,450.151l-26.751-15.448.011-30.916,26.764-15.455,26.576,15.463.031,30.929-26.632,15.428ZM483.958,451.379v30.911l-26.748,15.46-26.765-15.454v-30.911l26.765-15.455,26.748,15.449ZM456.502,434.702l-26.765,15.454-26.151-15.434v-30.911l26.163-15.481,26.765,15.455-.011,30.916ZM429.025,451.385v30.911l-26.164,15.452-26.901-15.458v-30.911l26.917-15.426,26.148,15.432ZM375.252,450.151l-26.751-15.448.011-30.916,26.764-15.455,26.86,15.463.031,30.929-26.916,15.428ZM374.541,451.379v30.911l-26.748,15.46-26.765-15.454v-30.911l26.765-15.455,26.748,15.449ZM347.084,434.702l-26.765,15.454-26.435-15.434v-30.911l26.447-15.481,26.765,15.455-.011,30.916ZM319.608,451.385v30.911l-26.448,15.452-27.751-15.458v-30.911l27.767-15.426,26.431,15.432ZM264.701,450.151l-26.751-15.448.011-30.916,26.764-15.455,27.71,15.463.031,30.929-27.766,15.428ZM263.99,451.379v30.911l-26.748,15.46-26.765-15.454v-30.911l26.765-15.455,26.748,15.449ZM236.533,434.702l-26.765,15.454-26.719-15.434v-30.911l26.73-15.481,26.765,15.455-.011,30.916ZM209.057,451.385v30.911l-26.731,15.452-26.901-15.458v-30.911l26.917-15.426,26.715,15.432ZM154.717,450.151l-26.751-15.448.011-30.916,26.764-15.455,26.86,15.463.031,30.929-26.916,15.428ZM154.718,483.52l26.897,15.456v30.913s-26.883,15.438-26.883,15.438l-26.779-15.446.014-30.899,26.751-15.461ZM181.63,594.529v30.911l-26.856,15.454-26.825-15.405-.005-30.914,26.765-15.455,26.922,15.41ZM155.483,642.123l26.859-15.453,26.698,15.501v30.911l-26.698,15.403-26.859-15.451v-30.911ZM183.05,625.44v-30.911l26.765-15.455,26.693,15.501.008,30.914-26.765,15.454-26.701-15.503ZM210.46,642.171l26.764-15.455,26.749,15.449v30.911l-26.749,15.46-26.764-15.454v-30.911ZM237.933,625.488l-.005-30.914,26.765-15.455,27.773,15.41v30.911l-27.707,15.454-26.825-15.405ZM265.467,642.123l27.71-15.453,26.414,15.501v30.911l-26.414,15.403-27.71-15.451v-30.911ZM293.885,625.44v-30.911l26.481-15.455,26.693,15.501.008,30.914-26.765,15.454-26.418-15.503ZM321.011,642.171l26.764-15.455,26.749,15.449v30.911l-26.749,15.46-26.764-15.454v-30.911ZM348.484,625.488l-.005-30.914,26.764-15.455,26.922,15.41v30.911l-26.856,15.454-26.825-15.405ZM376.018,642.123l26.86-15.453,26.13,15.501v30.911l-26.13,15.403-26.86-15.451v-30.911ZM403.586,625.44v-30.911l26.198-15.455,26.693,15.501.008,30.914-26.765,15.454-26.134-15.503ZM430.428,642.171l26.764-15.455,26.749,15.449v30.911l-26.749,15.46-26.764-15.454v-30.911ZM457.901,625.488l-.005-30.914,26.765-15.455,26.639,15.41v30.911l-26.573,15.454-26.825-15.405ZM485.436,642.123l26.576-15.453,27.264,15.501v30.911l-27.264,15.403-26.576-15.451v-30.911ZM512.719,625.44v-30.911l27.332-15.455,26.693,15.501.008,30.914-26.765,15.454-27.268-15.503ZM540.696,642.171l26.764-15.455,26.749,15.449v30.911l-26.749,15.46-26.764-15.454v-30.911ZM568.169,625.488l-.005-30.914,26.765-15.455,26.922,15.41v30.911l-26.856,15.454-26.825-15.405ZM595.703,642.123l26.859-15.453,26.414,15.501v30.911l-26.414,15.403-26.859-15.451v-30.911ZM623.271,625.44v-30.911l26.481-15.455,26.693,15.501.008,30.914-26.765,15.454-26.418-15.503ZM650.397,642.171l26.764-15.455,26.749,15.449v30.911l-26.749,15.46-26.764-15.454v-30.911ZM677.87,625.488l-.005-30.914,26.765-15.455,26.922,15.41v30.911l-26.856,15.454-26.825-15.405ZM705.404,642.123l26.859-15.453,26.698,15.501v30.911l-26.698,15.403-26.859-15.451v-30.911ZM732.971,625.44v-30.911l26.765-15.455,26.693,15.501.008,30.914-26.765,15.454-26.701-15.503ZM760.381,642.171l26.764-15.455,26.749,15.449v30.911l-26.749,15.46-26.764-15.454v-30.911ZM787.854,625.488l-.005-30.914,26.765-15.455,26.355,15.41v30.911l-26.289,15.454-26.825-15.405ZM815.388,642.123l26.293-15.453,26.414,15.501v30.911l-26.414,15.403-26.293-15.451v-30.911ZM842.389,625.44v-30.911l26.481-15.455,26.693,15.501.008,30.914-26.765,15.454-26.418-15.503ZM869.515,642.171l26.764-15.455,26.749,15.449v30.911l-26.749,15.46-26.764-15.454v-30.911ZM896.988,625.488l-.005-30.914,26.764-15.455,26.922,15.41v30.911l-26.856,15.454-26.825-15.405ZM924.522,642.123l26.86-15.453,26.13,15.501v30.911l-26.13,15.403-26.86-15.451v-30.911ZM952.089,625.44v-30.911l26.198-15.455,26.693,15.501.008,30.914-26.765,15.454-26.134-15.503ZM978.932,642.171l26.764-15.455,26.749,15.449v30.911l-26.749,15.46-26.764-15.454v-30.911ZM1006.405,625.488l-.005-30.914,26.765-15.455,26.639,15.41v30.911l-26.573,15.454-26.825-15.405ZM1033.939,642.123l26.576-15.453,27.264,15.501v30.911l-27.264,15.403-26.576-15.451v-30.911ZM1061.223,625.44v-30.911l27.332-15.455,26.693,15.501.008,30.914-26.765,15.454-27.268-15.503ZM1089.2,642.171l26.764-15.455,26.749,15.449v30.911l-26.749,15.46-26.764-15.454v-30.911ZM1116.673,625.488l-.005-30.914,26.765-15.455,26.922,15.41v30.911l-26.856,15.454-26.825-15.405ZM1144.207,642.123l26.859-15.453,26.414,15.501v30.911l-26.414,15.403-26.859-15.451v-30.911ZM1171.774,625.44v-30.911l26.481-15.455,26.693,15.501.008,30.914-26.765,15.454-26.418-15.503ZM1198.901,642.171l26.764-15.455,26.749,15.449v30.911l-26.749,15.46-26.764-15.454v-30.911ZM1226.374,625.488l-.005-30.914,26.765-15.455,26.922,15.41v30.911l-26.856,15.454-26.825-15.405ZM1253.908,642.123l26.859-15.453,26.698,15.501v30.911l-26.698,15.403-26.859-15.451v-30.911ZM1281.475,625.44v-30.911l26.765-15.455,26.693,15.501.008,30.914-26.765,15.454-26.701-15.503ZM1308.885,642.171l26.764-15.455,26.749,15.449v30.911l-26.749,15.46-26.764-15.454v-30.911ZM1336.358,625.488l-.005-30.914,26.765-15.455,27.773,15.41v30.911l-27.707,15.454-26.825-15.405ZM1363.892,642.123l27.71-15.453,26.414,15.501v30.911l-26.414,15.403-27.71-15.451v-30.911ZM1392.31,625.44v-30.911l26.481-15.455,26.693,15.501.008,30.914-26.765,15.454-26.418-15.503ZM1419.436,642.171l26.764-15.455,26.749,15.449v30.911l-26.749,15.46-26.764-15.454v-30.911ZM1446.909,625.488l-.005-30.914,26.764-15.455,26.922,15.41v30.911l-26.856,15.454-26.825-15.405ZM1474.443,642.123l26.86-15.453,26.13,15.501v30.911l-26.13,15.403-26.86-15.451v-30.911ZM1502.011,625.44v-30.911l26.198-15.455,26.693,15.501.008,30.914-26.765,15.454-26.134-15.503ZM1528.853,642.171l26.764-15.455,26.749,15.449v30.911l-26.749,15.46-26.764-15.454v-30.911ZM1556.327,625.488l-.005-30.914,26.765-15.455,26.639,15.41v30.911l-26.573,15.454-26.825-15.405ZM1583.861,642.123l26.576-15.453,27.264,15.501v30.911l-27.264,15.403-26.576-15.451v-30.911ZM1611.145,625.44v-30.911l27.332-15.455,26.693,15.501.008,30.914-26.765,15.454-27.268-15.503ZM1639.121,642.171l26.764-15.455,26.749,15.449v30.911l-26.749,15.46-26.764-15.454v-30.911ZM1666.594,625.488l-.005-30.914,26.765-15.455,26.922,15.41v30.911l-26.856,15.454-26.825-15.405ZM1694.128,642.123l26.859-15.453,26.414,15.501v30.911l-26.414,15.403-26.859-15.451v-30.911ZM1721.696,625.44v-30.911l26.481-15.455,26.693,15.501.008,30.914-26.765,15.454-26.418-15.503ZM1748.822,642.171l26.764-15.455,26.749,15.449v30.911l-26.749,15.46-26.764-15.454v-30.911ZM1775.581,593.345l-26.696-15.499-.019-31.275,26.725-15.46,26.765,15.455-.01,31.319-26.765,15.46ZM1748.839,482.296v-30.911l26.765-15.455,26.748,15.449v30.911l-26.748,15.46-26.765-15.454ZM1748.85,387.101l.003-30.909,26.764-15.455,26.762,15.453v30.911l-26.765,15.454-26.764-15.454ZM1774.908,339.506l-26.765,15.454-26.481-15.454v-30.911l26.481-15.455,26.765,15.455v30.911ZM1747.436,356.192l-.006,30.909-26.475,15.451-26.859-15.451v-30.911l26.859-15.453,26.481,15.455ZM1720.242,339.506l-26.856,15.455-26.762-15.455v-30.911l26.769-15.454,26.849,15.454v30.911ZM1692.678,356.19v30.911l-26.765,15.454-26.764-15.454.003-30.909,26.764-15.455,26.762,15.453ZM1665.208,339.506l-26.765,15.454-27.332-15.454v-30.911l27.332-15.455,26.765,15.455v30.911ZM1637.735,356.192l-.006,30.909-27.326,15.451-26.576-15.451v-30.911l26.576-15.453,27.332,15.455ZM1609.691,339.506l-26.572,15.455-26.762-15.455v-30.911l26.769-15.454,26.566,15.454v30.911ZM1582.411,356.19v30.911l-26.765,15.454-26.764-15.454.003-30.909,26.764-15.455,26.762,15.453ZM1554.94,339.506l-26.765,15.454-26.198-15.454v-30.911l26.198-15.455,26.765,15.455v30.911ZM1527.467,356.192l-.006,30.909-26.192,15.451-26.859-15.451v-30.911l26.86-15.453,26.198,15.455ZM1500.557,339.506l-26.856,15.455-26.762-15.455v-30.911l26.769-15.454,26.849,15.454v30.911ZM1472.993,356.19v30.911l-26.765,15.454-26.764-15.454.003-30.909,26.764-15.455,26.762,15.453ZM1445.522,339.506l-26.765,15.454-26.481-15.454v-30.911l26.481-15.455,26.765,15.455v30.911ZM1418.05,356.192l-.006,30.909-26.475,15.451-27.71-15.451v-30.911l27.71-15.453,26.481,15.455ZM1390.856,339.506l-27.706,15.455-26.762-15.455v-30.911l26.769-15.454,27.699,15.454v30.911ZM1362.442,356.19v30.911l-26.765,15.454-26.764-15.454.003-30.909,26.764-15.455,26.762,15.453ZM1334.971,339.506l-26.765,15.454-26.765-15.454v-30.911l26.765-15.455,26.765,15.455v30.911ZM1307.499,356.192l-.006,30.909-26.759,15.451-26.859-15.451v-30.911l26.859-15.453,26.765,15.455ZM1280.022,339.506l-26.856,15.455-26.762-15.455v-30.911l26.769-15.454,26.849,15.454v30.911ZM1252.458,356.19v30.911l-26.765,15.454-26.764-15.454.003-30.909,26.764-15.455,26.762,15.453ZM1224.987,339.506l-26.765,15.454-26.481-15.454v-30.911l26.481-15.455,26.765,15.455v30.911ZM1197.515,356.192l-.006,30.909-26.475,15.451-26.859-15.451v-30.911l26.859-15.453,26.481,15.455ZM1170.321,339.506l-26.856,15.455-26.762-15.455v-30.911l26.769-15.454,26.849,15.454v30.911ZM1142.757,356.19v30.911l-26.765,15.454-26.764-15.454.003-30.909,26.764-15.455,26.762,15.453ZM1115.286,339.506l-26.765,15.454-27.332-15.454v-30.911l27.332-15.455,26.765,15.455v30.911ZM1087.814,356.192l-.006,30.909-27.326,15.451-26.576-15.451v-30.911l26.576-15.453,27.332,15.455ZM1059.77,339.506l-26.572,15.455-26.762-15.455v-30.911l26.769-15.454,26.566,15.454v30.911ZM1032.489,356.19v30.911l-26.765,15.454-26.764-15.454.003-30.909,26.764-15.455,26.762,15.453ZM1005.019,339.506l-26.765,15.454-26.198-15.454v-30.911l26.198-15.455,26.765,15.455v30.911ZM977.546,356.192l-.006,30.909-26.192,15.451-26.859-15.451v-30.911l26.86-15.453,26.198,15.455ZM950.636,339.506l-26.856,15.455-26.762-15.455v-30.911l26.769-15.454,26.849,15.454v30.911ZM923.072,356.19v30.911l-26.765,15.454-26.764-15.454.003-30.909,26.764-15.455,26.762,15.453ZM895.601,339.506l-26.765,15.454-26.481-15.454v-30.911l26.481-15.455,26.765,15.455v30.911ZM868.129,356.192l-.006,30.909-26.475,15.451-26.292-15.451v-30.911l26.293-15.453,26.481,15.455ZM840.935,339.506l-26.289,15.455-26.762-15.455v-30.911l26.769-15.454,26.282,15.454v30.911ZM813.938,356.19v30.911l-26.765,15.454-26.764-15.454.003-30.909,26.764-15.455,26.762,15.453ZM786.467,339.506l-26.765,15.454-26.765-15.454v-30.911l26.765-15.455,26.765,15.455v30.911ZM758.995,356.192l-.006,30.909-26.759,15.451-26.859-15.451v-30.911l26.859-15.453,26.765,15.455ZM731.518,339.506l-26.856,15.455-26.762-15.455v-30.911l26.769-15.454,26.849,15.454v30.911ZM703.954,356.19v30.911l-26.765,15.454-26.764-15.454.003-30.909,26.764-15.455,26.762,15.453ZM676.483,339.506l-26.765,15.454-26.481-15.454v-30.911l26.481-15.455,26.765,15.455v30.911ZM649.011,356.192l-.006,30.909-26.475,15.451-26.859-15.451v-30.911l26.859-15.453,26.481,15.455ZM621.817,339.506l-26.856,15.455-26.762-15.455v-30.911l26.769-15.454,26.849,15.454v30.911ZM594.253,356.19v30.911l-26.765,15.454-26.764-15.454.003-30.909,26.764-15.455,26.762,15.453ZM566.782,339.506l-26.765,15.454-27.332-15.454v-30.911l27.332-15.455,26.765,15.455v30.911ZM539.31,356.192l-.006,30.909-27.326,15.451-26.576-15.451v-30.911l26.576-15.453,27.332,15.455ZM511.266,339.506l-26.572,15.455-26.762-15.455v-30.911l26.769-15.454,26.566,15.454v30.911ZM483.985,356.19v30.911l-26.765,15.454-26.764-15.454.003-30.909,26.764-15.455,26.762,15.453ZM456.515,339.506l-26.765,15.454-26.198-15.454v-30.911l26.198-15.455,26.765,15.455v30.911ZM429.042,356.192l-.006,30.909-26.192,15.451-26.859-15.451v-30.911l26.86-15.453,26.198,15.455ZM402.132,339.506l-26.856,15.455-26.762-15.455v-30.911l26.769-15.454,26.849,15.454v30.911ZM374.568,356.19v30.911l-26.765,15.454-26.764-15.454.003-30.909,26.764-15.455,26.762,15.453ZM347.097,339.506l-26.765,15.454-26.481-15.454v-30.911l26.481-15.455,26.765,15.455v30.911ZM319.625,356.192l-.006,30.909-26.475,15.451-27.71-15.451v-30.911l27.71-15.453,26.481,15.455ZM292.431,339.506l-27.706,15.455-26.762-15.455v-30.911l26.769-15.454,27.699,15.454v30.911ZM264.017,356.19v30.911l-26.765,15.454-26.764-15.454.003-30.909,26.764-15.455,26.762,15.453ZM236.546,339.506l-26.765,15.454-26.765-15.454v-30.911l26.765-15.455,26.765,15.455v30.911ZM209.074,356.192l-.006,30.909-26.759,15.451-26.859-15.451v-30.911l26.859-15.453,26.765,15.455ZM181.597,339.506l-26.856,15.455-26.762-15.455v-30.911l26.769-15.454,26.849,15.454v30.911ZM154.033,356.19v30.911l-26.765,15.454-26.764-15.454.003-30.909,26.764-15.455,26.762,15.453ZM154.005,451.379v30.911l-26.748,15.46-26.765-15.454v-30.911l26.765-15.455,26.748,15.449ZM154.01,546.566l-.01,31.319-26.765,15.46-26.696-15.499-.019-31.275,26.725-15.46,26.765,15.455ZM127.24,626.716l26.749,15.449v30.911l-26.749,15.46-26.764-15.454v-30.911l26.764-15.455ZM153.991,737.348v30.911l-26.768,15.456-26.764-15.454.003-30.913,26.765-15.455,26.765,15.455ZM127.935,720.666l.014-30.899,26.752-15.461,26.933,15.41-.074,30.954-26.861,15.45-26.764-15.454ZM155.408,737.348l26.872-15.444,26.746,15.444v30.913s-26.694,15.413-26.694,15.413l-26.924-15.415v-30.911ZM183.061,720.632l-.009-30.916,26.7-15.404,26.765,15.455-.014,30.899-26.765,15.454-26.677-15.488ZM210.446,737.348l26.765-15.455,26.765,15.455v30.911l-26.768,15.456-26.764-15.454.003-30.913ZM237.92,720.666l.014-30.899,26.752-15.461,27.784,15.41-.074,30.954-27.711,15.45-26.764-15.454ZM265.393,737.348l27.723-15.444,26.462,15.444v30.913s-26.41,15.413-26.41,15.413l-27.775-15.415v-30.911ZM293.896,720.632l-.009-30.916,26.417-15.404,26.765,15.455-.014,30.899-26.765,15.454-26.393-15.488ZM320.997,737.348l26.765-15.455,26.765,15.455v30.911l-26.768,15.456-26.764-15.454.003-30.913ZM348.471,720.666l.014-30.899,26.752-15.461,26.933,15.41-.074,30.954-26.861,15.45-26.764-15.454ZM375.944,737.348l26.872-15.444,26.179,15.444v30.913s-26.127,15.413-26.127,15.413l-26.924-15.415v-30.911ZM403.596,720.632l-.009-30.916,26.133-15.404,26.765,15.455-.014,30.899-26.765,15.454-26.11-15.488ZM430.415,737.348l26.765-15.455,26.765,15.455v30.911l-26.768,15.456-26.764-15.454.003-30.913ZM457.888,720.666l.014-30.899,26.752-15.461,26.65,15.41-.074,30.954-26.578,15.45-26.764-15.454ZM485.361,737.348l26.589-15.444,27.313,15.444v30.913s-27.26,15.413-27.26,15.413l-26.641-15.415v-30.911ZM512.73,720.632l-.009-30.916,27.267-15.404,26.765,15.455-.014,30.899-26.765,15.454-27.244-15.488ZM540.682,737.348l26.765-15.455,26.765,15.455v30.911l-26.768,15.456-26.764-15.454.003-30.913ZM568.156,720.666l.014-30.899,26.752-15.461,26.933,15.41-.074,30.954-26.861,15.45-26.764-15.454ZM595.629,737.348l26.872-15.444,26.462,15.444v30.913s-26.41,15.413-26.41,15.413l-26.924-15.415v-30.911ZM623.281,720.632l-.009-30.916,26.417-15.404,26.765,15.455-.014,30.899-26.765,15.454-26.393-15.488ZM650.383,737.348l26.765-15.455,26.765,15.455v30.911l-26.768,15.456-26.764-15.454.003-30.913ZM677.857,720.666l.014-30.899,26.752-15.461,26.933,15.41-.074,30.954-26.861,15.45-26.764-15.454ZM705.33,737.348l26.872-15.444,26.746,15.444v30.913s-26.694,15.413-26.694,15.413l-26.924-15.415v-30.911ZM732.982,720.632l-.009-30.916,26.7-15.404,26.765,15.455-.014,30.899-26.765,15.454-26.677-15.488ZM760.367,737.348l26.765-15.455,26.765,15.455v30.911l-26.768,15.456-26.764-15.454.003-30.913ZM787.841,720.666l.014-30.899,26.752-15.461,26.366,15.41-.074,30.954-26.294,15.45-26.764-15.454ZM815.314,737.348l26.305-15.444,26.462,15.444v30.913s-26.41,15.413-26.41,15.413l-26.357-15.415v-30.911ZM842.399,720.632l-.009-30.916,26.417-15.404,26.765,15.455-.014,30.899-26.765,15.454-26.393-15.488ZM869.501,737.348l26.765-15.455,26.765,15.455v30.911l-26.768,15.456-26.764-15.454.003-30.913ZM896.975,720.666l.014-30.899,26.752-15.461,26.933,15.41-.074,30.954-26.861,15.45-26.764-15.454ZM924.448,737.348l26.872-15.444,26.179,15.444v30.913s-26.127,15.413-26.127,15.413l-26.924-15.415v-30.911ZM952.1,720.632l-.009-30.916,26.133-15.404,26.765,15.455-.014,30.899-26.765,15.454-26.11-15.488ZM978.918,737.348l26.765-15.455,26.765,15.455v30.911l-26.768,15.456-26.764-15.454.003-30.913ZM1006.392,720.666l.014-30.899,26.752-15.461,26.65,15.41-.074,30.954-26.578,15.45-26.764-15.454ZM1033.865,737.348l26.589-15.444,27.313,15.444v30.913s-27.26,15.413-27.26,15.413l-26.641-15.415v-30.911ZM1061.234,720.632l-.009-30.916,27.267-15.404,26.765,15.455-.014,30.899-26.765,15.454-27.244-15.488ZM1089.186,737.348l26.765-15.455,26.765,15.455v30.911l-26.768,15.456-26.764-15.454.003-30.913ZM1116.66,720.666l.014-30.899,26.752-15.461,26.933,15.41-.074,30.954-26.861,15.45-26.764-15.454ZM1144.133,737.348l26.872-15.444,26.462,15.444v30.913s-26.41,15.413-26.41,15.413l-26.924-15.415v-30.911ZM1171.785,720.632l-.009-30.916,26.417-15.404,26.765,15.455-.014,30.899-26.765,15.454-26.393-15.488ZM1198.887,737.348l26.765-15.455,26.765,15.455v30.911l-26.768,15.456-26.764-15.454.003-30.913ZM1226.36,720.666l.014-30.899,26.752-15.461,26.933,15.41-.074,30.954-26.861,15.45-26.764-15.454ZM1253.833,737.348l26.872-15.444,26.746,15.444v30.913s-26.694,15.413-26.694,15.413l-26.924-15.415v-30.911ZM1281.486,720.632l-.009-30.916,26.7-15.404,26.765,15.455-.014,30.899-26.765,15.454-26.677-15.488ZM1308.871,737.348l26.765-15.455,26.765,15.455v30.911l-26.768,15.456-26.764-15.454.003-30.913ZM1336.345,720.666l.014-30.899,26.752-15.461,27.784,15.41-.074,30.954-27.711,15.45-26.764-15.454ZM1363.818,737.348l27.723-15.444,26.462,15.444v30.913s-26.41,15.413-26.41,15.413l-27.775-15.415v-30.911ZM1392.321,720.632l-.009-30.916,26.417-15.404,26.765,15.455-.014,30.899-26.765,15.454-26.393-15.488ZM1419.422,737.348l26.765-15.455,26.765,15.455v30.911l-26.768,15.456-26.764-15.454.003-30.913ZM1446.896,720.666l.014-30.899,26.752-15.461,26.933,15.41-.074,30.954-26.861,15.45-26.764-15.454ZM1474.369,737.348l26.872-15.444,26.179,15.444v30.913s-26.127,15.413-26.127,15.413l-26.924-15.415v-30.911ZM1502.021,720.632l-.009-30.916,26.133-15.404,26.765,15.455-.014,30.899-26.765,15.454-26.11-15.488ZM1528.84,737.348l26.765-15.455,26.765,15.455v30.911l-26.768,15.456-26.764-15.454.003-30.913ZM1556.313,720.666l.014-30.899,26.752-15.461,26.65,15.41-.074,30.954-26.578,15.45-26.764-15.454ZM1583.786,737.348l26.589-15.444,27.313,15.444v30.913s-27.26,15.413-27.26,15.413l-26.641-15.415v-30.911ZM1611.155,720.632l-.009-30.916,27.267-15.404,26.765,15.455-.014,30.899-26.765,15.454-27.244-15.488ZM1639.107,737.348l26.765-15.455,26.765,15.455v30.911l-26.768,15.456-26.764-15.454.003-30.913ZM1666.581,720.666l.014-30.899,26.752-15.461,26.933,15.41-.074,30.954-26.861,15.45-26.764-15.454ZM1694.054,737.348l26.872-15.444,26.462,15.444v30.913s-26.41,15.413-26.41,15.413l-26.924-15.415v-30.911ZM1721.707,720.632l-.009-30.916,26.417-15.404,26.765,15.455-.014,30.899-26.765,15.454-26.393-15.488ZM1748.808,737.348l26.765-15.455,26.765,15.455v30.911l-26.768,15.456-26.764-15.454.003-30.913ZM1776.282,720.666l.014-30.899,26.752-15.461,26.933,15.41-.074,30.954-26.861,15.45-26.764-15.454ZM1776.295,625.488l-.005-30.914,26.765-15.455,26.922,15.41v30.911l-26.856,15.454-26.825-15.405ZM1776.299,529.881l.014-30.899,26.751-15.461,26.897,15.456v30.913s-26.883,15.438-26.883,15.438l-26.779-15.446ZM1803.063,450.151l-26.751-15.448.011-30.916,26.764-15.455,26.86,15.463.031,30.929-26.916,15.428ZM1803.088,354.961l-26.762-15.455v-30.911l26.769-15.454,26.849,15.454v30.911l-26.856,15.455ZM1803.093,259.781l-26.765-15.454.014-30.9,26.751-15.461,26.879,15.459v30.911l-26.879,15.445ZM1802.385,261.013v30.899s-26.769,15.456-26.769,15.456l-26.764-15.454.003-30.913,26.765-15.443,26.765,15.455ZM1774.908,244.327l-26.761,15.445-26.459-15.436v-30.911l26.472-15.453,26.765,15.455-.016,30.9ZM1747.436,261v30.913s-26.482,15.454-26.482,15.454l-26.853-15.456v-30.899s26.879-15.447,26.879-15.447l26.455,15.434ZM1720.271,244.336l-26.879,15.445-26.765-15.454.014-30.9,26.751-15.461,26.879,15.459v30.911ZM1692.684,261.013v30.899s-26.769,15.456-26.769,15.456l-26.764-15.454.003-30.913,26.765-15.443,26.765,15.455ZM1665.208,244.327l-26.761,15.445-27.309-15.436v-30.911l27.322-15.453,26.765,15.455-.016,30.9ZM1637.735,261v30.913s-27.332,15.454-27.332,15.454l-26.569-15.456v-30.899s26.596-15.447,26.596-15.447l27.306,15.434ZM1609.72,244.336l-26.596,15.445-26.765-15.454.014-30.9,26.751-15.461,26.596,15.459v30.911ZM1582.417,261.013v30.899s-26.769,15.456-26.769,15.456l-26.764-15.454.003-30.913,26.765-15.443,26.765,15.455ZM1554.94,244.327l-26.761,15.445-26.176-15.436v-30.911l26.189-15.453,26.765,15.455-.016,30.9ZM1527.467,261v30.913s-26.198,15.454-26.198,15.454l-26.853-15.456v-30.899s26.879-15.447,26.879-15.447l26.172,15.434ZM1500.586,244.336l-26.879,15.445-26.765-15.454.014-30.9,26.751-15.461,26.879,15.459v30.911ZM1472.999,261.013v30.899s-26.769,15.456-26.769,15.456l-26.764-15.454.003-30.913,26.765-15.443,26.765,15.455ZM1445.522,244.327l-26.761,15.445-26.459-15.436v-30.911l26.472-15.453,26.765,15.455-.017,30.9ZM1418.05,261v30.913s-26.482,15.454-26.482,15.454l-27.703-15.456v-30.899s27.73-15.447,27.73-15.447l26.455,15.434ZM1390.885,244.336l-27.73,15.445-26.765-15.454.014-30.9,26.751-15.461,27.73,15.459v30.911ZM1362.448,261.013v30.899s-26.769,15.456-26.769,15.456l-26.764-15.454.003-30.913,26.765-15.443,26.765,15.455ZM1334.971,244.327l-26.761,15.445-26.742-15.436v-30.911l26.755-15.453,26.765,15.455-.016,30.9ZM1307.499,261v30.913s-26.765,15.454-26.765,15.454l-26.853-15.456v-30.899s26.879-15.447,26.879-15.447l26.739,15.434ZM1280.051,244.336l-26.879,15.445-26.765-15.454.014-30.9,26.751-15.461,26.879,15.459v30.911ZM1252.464,261.013v30.899s-26.769,15.456-26.769,15.456l-26.764-15.454.003-30.913,26.765-15.443,26.765,15.455ZM1224.987,244.327l-26.761,15.445-26.459-15.436v-30.911l26.472-15.453,26.765,15.455-.016,30.9ZM1197.514,261v30.913s-26.482,15.454-26.482,15.454l-26.853-15.456v-30.899s26.879-15.447,26.879-15.447l26.455,15.434ZM1170.35,244.336l-26.879,15.445-26.765-15.454.014-30.9,26.751-15.461,26.879,15.459v30.911ZM1142.763,261.013v30.899s-26.769,15.456-26.769,15.456l-26.764-15.454.003-30.913,26.765-15.443,26.765,15.455ZM1115.286,244.327l-26.761,15.445-27.309-15.436v-30.911l27.322-15.453,26.765,15.455-.016,30.9ZM1087.813,261v30.913s-27.332,15.454-27.332,15.454l-26.569-15.456v-30.899s26.596-15.447,26.596-15.447l27.306,15.434ZM1059.799,244.336l-26.596,15.445-26.765-15.454.014-30.9,26.751-15.461,26.596,15.459v30.911ZM1032.495,261.013v30.899s-26.769,15.456-26.769,15.456l-26.764-15.454.003-30.913,26.765-15.443,26.765,15.455ZM1005.019,244.327l-26.761,15.445-26.176-15.436v-30.911l26.189-15.453,26.765,15.455-.016,30.9ZM977.546,261v30.913s-26.198,15.454-26.198,15.454l-26.853-15.456v-30.899s26.879-15.447,26.879-15.447l26.172,15.434ZM950.665,244.336l-26.879,15.445-26.765-15.454.014-30.9,26.751-15.461,26.879,15.459v30.911ZM923.078,261.013v30.899s-26.769,15.456-26.769,15.456l-26.764-15.454.003-30.913,26.765-15.443,26.765,15.455ZM895.601,244.327l-26.761,15.445-26.459-15.436v-30.911l26.472-15.453,26.765,15.455-.017,30.9ZM868.129,261v30.913s-26.482,15.454-26.482,15.454l-26.286-15.456v-30.899s26.312-15.447,26.312-15.447l26.455,15.434ZM840.964,244.336l-26.312,15.445-26.765-15.454.014-30.9,26.751-15.461,26.312,15.459v30.911ZM813.944,261.013v30.899s-26.769,15.456-26.769,15.456l-26.764-15.454.003-30.913,26.765-15.443,26.765,15.455ZM786.467,244.327l-26.761,15.445-26.742-15.436v-30.911l26.755-15.453,26.765,15.455-.016,30.9ZM758.995,261v30.913s-26.765,15.454-26.765,15.454l-26.853-15.456v-30.899s26.879-15.447,26.879-15.447l26.739,15.434ZM731.547,244.336l-26.879,15.445-26.765-15.454.014-30.9,26.751-15.461,26.879,15.459v30.911ZM703.96,261.013v30.899s-26.769,15.456-26.769,15.456l-26.764-15.454.003-30.913,26.765-15.443,26.765,15.455ZM676.483,244.327l-26.761,15.445-26.459-15.436v-30.911l26.472-15.453,26.765,15.455-.016,30.9ZM649.01,261v30.913s-26.482,15.454-26.482,15.454l-26.853-15.456v-30.899s26.879-15.447,26.879-15.447l26.455,15.434ZM621.846,244.336l-26.879,15.445-26.765-15.454.014-30.9,26.751-15.461,26.879,15.459v30.911ZM594.259,261.013v30.899s-26.769,15.456-26.769,15.456l-26.764-15.454.003-30.913,26.765-15.443,26.765,15.455ZM566.782,244.327l-26.761,15.445-27.309-15.436v-30.911l27.322-15.453,26.765,15.455-.016,30.9ZM539.31,261v30.913s-27.332,15.454-27.332,15.454l-26.569-15.456v-30.899s26.596-15.447,26.596-15.447l27.306,15.434ZM511.295,244.336l-26.596,15.445-26.765-15.454.014-30.9,26.751-15.461,26.596,15.459v30.911ZM483.991,261.013v30.899s-26.769,15.456-26.769,15.456l-26.764-15.454.003-30.913,26.765-15.443,26.765,15.455ZM456.515,244.327l-26.761,15.445-26.176-15.436v-30.911l26.189-15.453,26.765,15.455-.016,30.9ZM429.042,261v30.913s-26.198,15.454-26.198,15.454l-26.853-15.456v-30.899s26.879-15.447,26.879-15.447l26.172,15.434ZM402.161,244.336l-26.879,15.445-26.765-15.454.014-30.9,26.751-15.461,26.879,15.459v30.911ZM374.574,261.013v30.899s-26.769,15.456-26.769,15.456l-26.764-15.454.003-30.913,26.765-15.443,26.765,15.455ZM347.097,244.327l-26.761,15.445-26.459-15.436v-30.911l26.472-15.453,26.765,15.455-.017,30.9ZM319.625,261v30.913s-26.482,15.454-26.482,15.454l-27.703-15.456v-30.899s27.73-15.447,27.73-15.447l26.455,15.434ZM292.46,244.336l-27.73,15.445-26.765-15.454.014-30.9,26.751-15.461,27.73,15.459v30.911ZM264.023,261.013v30.899s-26.769,15.456-26.769,15.456l-26.764-15.454.003-30.913,26.765-15.443,26.765,15.455ZM236.546,244.327l-26.761,15.445-26.742-15.436v-30.911l26.755-15.453,26.765,15.455-.016,30.9ZM209.073,261v30.913s-26.765,15.454-26.765,15.454l-26.853-15.456v-30.899s26.879-15.447,26.879-15.447l26.739,15.434ZM181.626,244.336l-26.879,15.445-26.765-15.454.014-30.9,26.751-15.461,26.879,15.459v30.911ZM154.039,261.013v30.899s-26.769,15.456-26.769,15.456l-26.764-15.454.003-30.913,26.765-15.443,26.765,15.455ZM126.562,244.327l-26.761,15.445-26.459-15.436v-30.911l26.472-15.453,26.765,15.455-.016,30.9ZM126.562,308.596v30.911l-26.765,15.454-26.481-15.454v-30.911l26.481-15.455,26.765,15.455ZM126.56,403.786l-.011,30.916-26.765,15.454-26.435-15.434v-30.911l26.446-15.481,26.765,15.455ZM99.785,483.526l26.765,15.455-.016,30.899-26.722,15.462-26.481-15.454.003-30.913,26.451-15.45ZM99.831,579.073l26.693,15.501.008,30.914-26.765,15.454-26.418-15.503v-30.911l26.481-15.455ZM99.768,674.312l26.765,15.455-.014,30.899-26.765,15.454-26.393-15.488-.009-30.916,26.417-15.404ZM126.515,784.944v30.911l-26.765,15.454-26.396-15.488v-30.911l26.396-15.422,26.765,15.455ZM100.459,832.54l26.764-15.455,26.762,15.453.006,30.914-26.765,15.454-26.77-15.457.003-30.909ZM127.932,815.855v-30.911l26.769-15.454,26.849,15.454v30.911l-26.856,15.455-26.762-15.455ZM182.276,817.093l26.751,15.447-.006,30.909-26.735,15.458-26.877-15.456-.006-30.914,26.874-15.445ZM183.055,815.821v-30.911l26.679-15.422,26.765,15.455v30.911l-26.765,15.454-26.679-15.488ZM210.443,832.54l26.764-15.455,26.762,15.453.006,30.914-26.765,15.454-26.77-15.457.003-30.909ZM237.916,815.855v-30.911l26.769-15.454,27.699,15.454v30.911l-27.706,15.455-26.762-15.455ZM293.11,817.093l26.467,15.447-.006,30.909-26.452,15.458-27.728-15.456-.006-30.914,27.724-15.445ZM293.89,815.821v-30.911l26.396-15.422,26.765,15.455v30.911l-26.765,15.454-26.396-15.488ZM320.995,832.54l26.764-15.455,26.762,15.453.006,30.914-26.765,15.454-26.77-15.457.003-30.909ZM348.467,815.855v-30.911l26.769-15.454,26.849,15.454v30.911l-26.856,15.455-26.762-15.455ZM402.811,817.093l26.184,15.447-.006,30.909-26.168,15.458-26.877-15.456-.006-30.914,26.874-15.445ZM403.59,815.821v-30.911l26.112-15.422,26.765,15.455v30.911l-26.765,15.454-26.112-15.488ZM430.412,832.54l26.764-15.455,26.762,15.453.006,30.914-26.765,15.454-26.77-15.457.003-30.909ZM457.884,815.855v-30.911l26.769-15.454,26.566,15.454v30.911l-26.572,15.455-26.762-15.455ZM511.945,817.093l27.318,15.447-.006,30.909-27.302,15.458-26.594-15.456-.006-30.914,26.59-15.445ZM512.724,815.821v-30.911l27.246-15.422,26.765,15.455v30.911l-26.765,15.454-27.246-15.488ZM540.68,832.54l26.764-15.455,26.762,15.453.006,30.914-26.765,15.454-26.77-15.457.003-30.909ZM568.152,815.855v-30.911l26.769-15.454,26.849,15.454v30.911l-26.856,15.455-26.762-15.455ZM622.496,817.093l26.467,15.447-.006,30.909-26.452,15.458-26.877-15.456-.006-30.914,26.874-15.445ZM623.275,815.821v-30.911l26.396-15.422,26.765,15.455v30.911l-26.765,15.454-26.396-15.488ZM650.38,832.54l26.764-15.455,26.762,15.453.006,30.914-26.765,15.454-26.77-15.457.003-30.909ZM677.853,815.855v-30.911l26.769-15.454,26.849,15.454v30.911l-26.856,15.455-26.762-15.455ZM732.197,817.093l26.751,15.447-.006,30.909-26.735,15.458-26.877-15.456-.006-30.914,26.874-15.445ZM732.976,815.821v-30.911l26.679-15.422,26.765,15.455v30.911l-26.765,15.454-26.679-15.488ZM760.365,832.54l26.764-15.455,26.762,15.453.006,30.914-26.765,15.454-26.77-15.457.003-30.909ZM787.837,815.855v-30.911l26.769-15.454,26.282,15.454v30.911l-26.289,15.455-26.762-15.455ZM841.614,817.093l26.467,15.447-.006,30.909-26.452,15.458-26.31-15.456-.006-30.914,26.307-15.445ZM861.531,827.118l-19.137-11.296v-30.911l26.396-15.422,26.765,15.455v30.911l-26.765,15.454-7.259-4.191ZM869.499,832.54l26.764-15.455,26.762,15.453.006,30.914-26.765,15.454-26.77-15.457.003-30.909ZM896.971,815.855v-30.911l26.769-15.454,26.849,15.454v30.911l-26.856,15.455-26.762-15.455ZM951.315,817.093l26.184,15.447-.006,30.909-26.168,15.458-26.877-15.456-.006-30.914,26.874-15.445ZM952.094,815.821v-30.911l26.112-15.422,26.765,15.455v30.911l-26.765,15.454-26.112-15.488ZM978.916,832.54l26.764-15.455,26.762,15.453.006,30.914-26.765,15.454-26.77-15.457.003-30.909ZM1006.388,815.855v-30.911l26.769-15.454,26.566,15.454v30.911l-26.572,15.455-26.762-15.455ZM1060.449,817.093l27.318,15.447-.006,30.909-27.302,15.458-26.594-15.456-.006-30.914,26.59-15.445ZM1061.228,815.821v-30.911l27.246-15.422,26.765,15.455v30.911l-26.765,15.454-27.246-15.488ZM1089.184,832.54l26.764-15.455,26.762,15.453.006,30.914-26.765,15.454-26.77-15.457.003-30.909ZM1116.656,815.855v-30.911l26.769-15.454,26.849,15.454v30.911l-26.856,15.455-26.762-15.455ZM1171,817.093l26.467,15.447-.006,30.909-26.452,15.458-26.877-15.456-.006-30.914,26.874-15.445ZM1171.779,815.821v-30.911l26.396-15.422,26.765,15.455v30.911l-26.765,15.454-26.396-15.488ZM1198.884,832.54l26.764-15.455,26.762,15.453.006,30.914-26.765,15.454-26.77-15.457.003-30.909ZM1226.357,815.855v-30.911l26.769-15.454,26.849,15.454v30.911l-26.856,15.455-26.762-15.455ZM1280.701,817.093l26.751,15.447-.006,30.909-26.735,15.458-26.877-15.456-.006-30.914,26.874-15.445ZM1281.48,815.821v-30.911l26.679-15.422,26.765,15.455v30.911l-26.765,15.454-26.679-15.488ZM1308.869,832.54l26.764-15.455,26.762,15.453.006,30.914-26.765,15.454-26.77-15.457.003-30.909ZM1336.341,815.855v-30.911l26.769-15.454,27.699,15.454v30.911l-27.706,15.455-26.762-15.455ZM1391.536,817.093l26.467,15.447-.006,30.909-26.452,15.458-27.728-15.456-.006-30.914,27.724-15.445ZM1392.315,815.821v-30.911l26.396-15.422,26.765,15.455v30.911l-26.765,15.454-26.396-15.488ZM1419.42,832.54l26.764-15.455,26.762,15.453.006,30.914-26.765,15.454-26.77-15.457.003-30.909ZM1446.892,815.855v-30.911l26.769-15.454,26.849,15.454v30.911l-26.856,15.455-26.762-15.455ZM1501.236,817.093l26.184,15.447-.006,30.909-26.168,15.458-26.877-15.456-.006-30.914,26.874-15.445ZM1502.015,815.821v-30.911l26.112-15.422,26.765,15.455v30.911l-26.765,15.454-26.112-15.488ZM1528.837,832.54l26.764-15.455,26.762,15.453.006,30.914-26.765,15.454-26.77-15.457.003-30.909ZM1556.309,815.855v-30.911l26.769-15.454,26.566,15.454v30.911l-26.572,15.455-26.762-15.455ZM1610.37,817.093l27.318,15.447-.006,30.909-27.302,15.458-26.594-15.456-.006-30.914,26.59-15.445ZM1611.149,815.821v-30.911l27.246-15.422,26.765,15.455v30.911l-26.765,15.454-27.246-15.488ZM1639.105,832.54l26.764-15.455,26.762,15.453.006,30.914-26.765,15.454-26.77-15.457.003-30.909ZM1666.577,815.855v-30.911l26.769-15.454,26.849,15.454v30.911l-26.856,15.455-26.762-15.455ZM1720.921,817.093l26.467,15.447-.006,30.909-26.452,15.458-26.877-15.456-.006-30.914,26.874-15.445ZM1721.7,815.821v-30.911l26.396-15.422,26.765,15.455v30.911l-26.765,15.454-26.396-15.488ZM1748.806,832.54l26.764-15.455,26.762,15.453.006,30.914-26.765,15.454-26.77-15.457.003-30.909ZM1776.278,815.855v-30.911l26.769-15.454,26.849,15.454v30.911l-26.856,15.455-26.762-15.455ZM1830.622,817.093l26.751,15.447-.006,30.909-26.735,15.458-26.877-15.456-.006-30.914,26.874-15.445ZM1803.755,768.259v-30.911l26.872-15.444,26.746,15.444v30.913s-26.694,15.413-26.694,15.413l-26.924-15.415ZM1803.829,673.033v-30.911l26.859-15.453,26.698,15.501v30.911l-26.698,15.403-26.859-15.451ZM1830.688,593.3l-26.853-15.456-.026-31.276,26.86-15.453,26.765,15.455.019,31.275-26.765,15.454ZM1803.772,482.29v-30.911l26.917-15.426,26.715,15.432v30.911l-26.731,15.452-26.901-15.458ZM1830.655,402.551l-26.859-15.451v-30.911l26.859-15.453,26.765,15.455-.006,30.909-26.759,15.451ZM1830.655,307.367l-26.853-15.456v-30.899s26.879-15.447,26.879-15.447l26.739,15.434v30.913s-26.765,15.454-26.765,15.454ZM1830.68,212.197l-26.88-15.46v-30.911l26.886-15.448,26.745,15.454v30.911l-26.752,15.455ZM1829.978,149.146l-26.885,15.45-26.751-15.448-.005-30.914,26.765-15.455,26.877,15.457v30.911ZM1802.381,165.825v30.911l-26.748,15.46-26.765-15.454v-30.911l26.765-15.455,26.748,15.449ZM1748.159,164.603l-26.465-15.456v-30.911l26.455-15.457,26.767,15.455.008,30.914-26.765,15.454ZM1747.448,165.831v30.911l-26.468,15.455-26.88-15.46v-30.911l26.886-15.448,26.462,15.454ZM1720.277,149.146l-26.885,15.45-26.751-15.448-.005-30.914,26.765-15.455,26.877,15.457v30.911ZM1692.68,165.825v30.911l-26.748,15.46-26.765-15.454v-30.911l26.765-15.455,26.748,15.449ZM1638.458,164.603l-27.316-15.456v-30.911l27.305-15.457,26.767,15.455.008,30.914-26.765,15.454ZM1637.747,165.831v30.911l-27.319,15.455-26.596-15.46v-30.911l26.603-15.448,27.312,15.454ZM1609.726,149.146l-26.602,15.45-26.751-15.448-.005-30.914,26.765-15.455,26.594,15.457v30.911ZM1582.412,165.825v30.911l-26.748,15.46-26.765-15.454v-30.911l26.765-15.455,26.748,15.449ZM1528.191,164.603l-26.182-15.456v-30.911l26.172-15.457,26.767,15.455.008,30.914-26.765,15.454ZM1527.479,165.831v30.911l-26.185,15.455-26.88-15.46v-30.911l26.886-15.448,26.178,15.454ZM1500.592,149.146l-26.885,15.45-26.751-15.448-.005-30.914,26.764-15.455,26.877,15.457v30.911ZM1472.995,165.825v30.911l-26.748,15.46-26.765-15.454v-30.911l26.765-15.455,26.748,15.449ZM1418.773,164.603l-26.465-15.456v-30.911l26.455-15.457,26.767,15.455.008,30.914-26.765,15.454ZM1418.062,165.831v30.911l-26.468,15.455-27.73-15.46v-30.911l27.737-15.448,26.462,15.454ZM1390.891,149.146l-27.736,15.45-26.751-15.448-.005-30.914,26.765-15.455,27.728,15.457v30.911ZM1362.444,165.825v30.911l-26.748,15.46-26.765-15.454v-30.911l26.765-15.455,26.748,15.449ZM1308.222,164.603l-26.749-15.456v-30.911l26.739-15.457,26.767,15.455.008,30.914-26.765,15.454ZM1307.511,165.831v30.911l-26.752,15.455-26.88-15.46v-30.911l26.886-15.448,26.745,15.454ZM1280.056,149.146l-26.885,15.45-26.751-15.448-.005-30.914,26.765-15.455,26.877,15.457v30.911ZM1252.459,165.825v30.911l-26.748,15.46-26.765-15.454v-30.911l26.765-15.455,26.748,15.449ZM1198.238,164.603l-26.465-15.456v-30.911l26.455-15.457,26.767,15.455.008,30.914-26.765,15.454ZM1197.527,165.831v30.911l-26.468,15.455-26.88-15.46v-30.911l26.886-15.448,26.462,15.454ZM1170.356,149.146l-26.885,15.45-26.751-15.448-.005-30.914,26.765-15.455,26.877,15.457v30.911ZM1142.759,165.825v30.911l-26.748,15.46-26.765-15.454v-30.911l26.765-15.455,26.748,15.449ZM1088.537,164.603l-27.316-15.456v-30.911l27.305-15.457,26.767,15.455.008,30.914-26.765,15.454ZM1087.826,165.831v30.911l-27.319,15.455-26.596-15.46v-30.911l26.603-15.448,27.312,15.454ZM1059.804,149.146l-26.602,15.45-26.751-15.448-.005-30.914,26.765-15.455,26.594,15.457v30.911ZM1032.491,165.825v30.911l-26.748,15.46-26.765-15.454v-30.911l26.765-15.455,26.748,15.449ZM978.27,164.603l-26.182-15.456v-30.911l26.172-15.457,26.767,15.455.008,30.914-26.765,15.454ZM977.558,165.831v30.911l-26.185,15.455-26.88-15.46v-30.911l26.886-15.448,26.178,15.454ZM950.671,149.146l-26.885,15.45-26.751-15.448-.005-30.914,26.764-15.455,26.877,15.457v30.911ZM923.074,165.825v30.911l-26.748,15.46-26.765-15.454v-30.911l26.765-15.455,26.748,15.449ZM868.852,164.603l-26.465-15.456v-30.911l26.455-15.457,26.767,15.455.008,30.914-26.765,15.454ZM868.141,165.831v30.911l-26.468,15.455-26.313-15.46v-30.911l26.319-15.448,26.462,15.454ZM840.97,149.146l-26.319,15.45-26.751-15.448-.005-30.914,26.765-15.455,26.31,15.457v30.911ZM813.94,165.825v30.911l-26.748,15.46-26.765-15.454v-30.911l26.765-15.455,26.748,15.449ZM759.718,164.603l-26.749-15.456v-30.911l26.739-15.457,26.767,15.455.008,30.914-26.765,15.454ZM759.007,165.831v30.911l-26.752,15.455-26.88-15.46v-30.911l26.886-15.448,26.745,15.454ZM731.552,149.146l-26.885,15.45-26.751-15.448-.005-30.914,26.765-15.455,26.877,15.457v30.911ZM703.956,165.825v30.911l-26.748,15.46-26.765-15.454v-30.911l26.765-15.455,26.748,15.449ZM649.734,164.603l-26.465-15.456v-30.911l26.455-15.457,26.767,15.455.008,30.914-26.765,15.454ZM649.023,165.831v30.911l-26.468,15.455-26.88-15.46v-30.911l26.886-15.448,26.462,15.454ZM621.852,149.146l-26.885,15.45-26.751-15.448-.005-30.914,26.765-15.455,26.877,15.457v30.911ZM594.255,165.825v30.911l-26.748,15.46-26.765-15.454v-30.911l26.765-15.455,26.748,15.449ZM540.033,164.603l-27.316-15.456v-30.911l27.305-15.457,26.767,15.455.008,30.914-26.765,15.454ZM539.322,165.831v30.911l-27.319,15.455-26.596-15.46v-30.911l26.603-15.448,27.312,15.454ZM511.301,149.146l-26.602,15.45-26.751-15.448-.005-30.914,26.765-15.455,26.594,15.457v30.911ZM483.987,165.825v30.911l-26.748,15.46-26.765-15.454v-30.911l26.765-15.455,26.748,15.449ZM429.766,164.603l-26.182-15.456v-30.911l26.172-15.457,26.767,15.455.008,30.914-26.765,15.454ZM429.054,165.831v30.911l-26.185,15.455-26.88-15.46v-30.911l26.886-15.448,26.178,15.454ZM402.167,149.146l-26.885,15.45-26.751-15.448-.005-30.914,26.764-15.455,26.877,15.457v30.911ZM374.57,165.825v30.911l-26.748,15.46-26.765-15.454v-30.911l26.765-15.455,26.748,15.449ZM320.348,164.603l-26.465-15.456v-30.911l26.455-15.457,26.767,15.455.008,30.914-26.765,15.454ZM319.637,165.831v30.911l-26.468,15.455-27.73-15.46v-30.911l27.737-15.448,26.462,15.454ZM292.466,149.146l-27.736,15.45-26.751-15.448-.005-30.914,26.765-15.455,27.728,15.457v30.911ZM264.019,165.825v30.911l-26.748,15.46-26.765-15.454v-30.911l26.765-15.455,26.748,15.449ZM209.797,164.603l-26.749-15.456v-30.911l26.739-15.457,26.767,15.455.008,30.914-26.765,15.454ZM209.086,165.831v30.911l-26.752,15.455-26.88-15.46v-30.911l26.886-15.448,26.745,15.454ZM181.631,149.146l-26.885,15.45-26.751-15.448-.005-30.914,26.765-15.455,26.877,15.457v30.911ZM154.034,165.825v30.911l-26.748,15.46-26.765-15.454v-30.911l26.765-15.455,26.748,15.449ZM99.813,164.603l-26.465-15.456v-30.911l26.455-15.457,26.767,15.455.008,30.914-26.765,15.454ZM99.101,165.831v30.911l-26.468,15.455-26.88-15.46v-30.911l26.886-15.448,26.462,15.454ZM72.634,245.566l26.455,15.434v30.913s-26.482,15.454-26.482,15.454l-26.853-15.456v-30.899s26.879-15.447,26.879-15.447ZM72.608,340.737l26.481,15.455-.006,30.909-26.475,15.451-26.859-15.451v-30.911l26.859-15.453ZM72.641,435.953l26.431,15.432v30.911l-26.448,15.452-26.901-15.458v-30.911l26.917-15.426ZM99.103,546.571l.019,31.275-26.481,15.454-26.853-15.456-.026-31.276,26.86-15.453,26.481,15.455ZM72.641,626.669l26.414,15.501v30.911l-26.414,15.403-26.859-15.451v-30.911l26.859-15.453ZM99.042,737.348v30.913s-26.41,15.413-26.41,15.413l-26.924-15.415v-30.911l26.872-15.444,26.462,15.444ZM99.042,832.54l-.006,30.909-26.452,15.458-26.877-15.456-.006-30.914,26.874-15.445,26.467,15.447ZM72.585,912.276l26.462,15.454v30.911l-26.468,15.455-26.88-15.46v-30.911l26.886-15.448ZM73.293,911.046v-30.911l26.455-15.457,26.767,15.455.008,30.914-26.765,15.454-26.465-15.456ZM100.467,927.731l26.764-15.455,26.749,15.449v30.911l-26.749,15.46-26.764-15.454v-30.911ZM127.94,911.048l-.005-30.914,26.765-15.455,26.877,15.457v30.911l-26.885,15.45-26.751-15.448ZM155.4,927.725l26.886-15.448,26.745,15.454v30.911l-26.752,15.455-26.88-15.46v-30.911ZM182.994,911.046v-30.911l26.739-15.457,26.767,15.455.008,30.914-26.765,15.454-26.749-15.456ZM210.451,927.731l26.764-15.455,26.749,15.449v30.911l-26.749,15.46-26.764-15.454v-30.911ZM237.924,911.048l-.005-30.914,26.765-15.455,27.728,15.457v30.911l-27.736,15.45-26.751-15.448ZM265.384,927.725l27.737-15.448,26.462,15.454v30.911l-26.468,15.455-27.73-15.46v-30.911ZM293.828,911.046v-30.911l26.455-15.457,26.767,15.455.008,30.914-26.765,15.454-26.465-15.456ZM321.002,927.731l26.764-15.455,26.749,15.449v30.911l-26.749,15.46-26.764-15.454v-30.911ZM348.475,911.048l-.005-30.914,26.765-15.455,26.877,15.457v30.911l-26.885,15.45-26.751-15.448ZM375.935,927.725l26.886-15.448,26.178,15.454v30.911l-26.185,15.455-26.88-15.46v-30.911ZM403.529,911.046v-30.911l26.172-15.457,26.767,15.455.008,30.914-26.765,15.454-26.182-15.456ZM430.42,927.731l26.764-15.455,26.749,15.449v30.911l-26.749,15.46-26.764-15.454v-30.911ZM457.893,911.048l-.005-30.914,26.765-15.455,26.594,15.457v30.911l-26.602,15.45-26.751-15.448ZM485.353,927.725l26.603-15.448,27.312,15.454v30.911l-27.319,15.455-26.596-15.46v-30.911ZM512.663,911.046v-30.911l27.305-15.457,26.767,15.455.008,30.914-26.765,15.454-27.316-15.456ZM540.687,927.731l26.764-15.455,26.749,15.449v30.911l-26.749,15.46-26.764-15.454v-30.911ZM568.161,911.048l-.005-30.914,26.765-15.455,26.877,15.457v30.911l-26.885,15.45-26.751-15.448ZM595.62,927.725l26.886-15.448,26.462,15.454v30.911l-26.468,15.455-26.88-15.46v-30.911ZM623.214,911.046v-30.911l26.455-15.457,26.767,15.455.008,30.914-26.765,15.454-26.465-15.456ZM650.388,927.731l26.764-15.455,26.749,15.449v30.911l-26.749,15.46-26.764-15.454v-30.911ZM677.861,911.048l-.005-30.914,26.765-15.455,26.877,15.457v30.911l-26.885,15.45-26.751-15.448ZM705.321,927.725l26.886-15.448,26.745,15.454v30.911l-26.752,15.455-26.88-15.46v-30.911ZM732.915,911.046v-30.911l26.739-15.457,26.767,15.455.008,30.914-26.765,15.454-26.749-15.456ZM760.372,927.731l26.764-15.455,26.749,15.449v30.911l-26.749,15.46-26.764-15.454v-30.911ZM787.846,911.048l-.005-30.914,26.765-15.455,16.388,9.678-.021.037,9.943,5.742v30.911l-23.053,13.562v.002s-3.266,1.886-3.266,1.886l-26.751-15.448ZM815.305,927.725l26.319-15.448,26.462,15.454v30.911l-26.468,15.455-26.313-15.46v-30.911ZM842.332,911.046v-30.911l16.481-9.752.024.041,9.95-5.746,26.767,15.455.008,30.914-26.765,15.454-26.465-15.456ZM869.506,927.731l26.764-15.455,26.749,15.449v30.911l-26.749,15.46-26.764-15.454v-30.911ZM896.979,911.048l-.005-30.914,26.765-15.455,26.877,15.457v30.911l-26.885,15.45-26.751-15.448ZM924.439,927.725l26.886-15.448,26.178,15.454v30.911l-26.185,15.455-26.88-15.46v-30.911ZM952.033,911.046v-30.911l26.172-15.457,26.767,15.455.008,30.914-26.765,15.454-26.182-15.456ZM978.924,927.731l26.764-15.455,26.749,15.449v30.911l-26.749,15.46-26.764-15.454v-30.911ZM1006.397,911.048l-.005-30.914,26.765-15.455,26.594,15.457v30.911l-26.602,15.45-26.751-15.448ZM1033.856,927.725l26.603-15.448,27.312,15.454v30.911l-27.319,15.455-26.596-15.46v-30.911ZM1061.167,911.046v-30.911l27.305-15.457,26.767,15.455.008,30.914-26.765,15.454-27.316-15.456ZM1089.191,927.731l26.764-15.455,26.749,15.449v30.911l-26.749,15.46-26.764-15.454v-30.911ZM1116.664,911.048l-.005-30.914,26.765-15.455,26.877,15.457v30.911l-26.885,15.45-26.751-15.448ZM1144.124,927.725l26.886-15.448,26.462,15.454v30.911l-26.468,15.455-26.88-15.46v-30.911ZM1171.718,911.046v-30.911l26.455-15.457,26.767,15.455.008,30.914-26.765,15.454-26.465-15.456ZM1198.892,927.731l26.764-15.455,26.749,15.449v30.911l-26.749,15.46-26.764-15.454v-30.911ZM1226.365,911.048l-.005-30.914,26.765-15.455,26.877,15.457v30.911l-26.885,15.45-26.751-15.448ZM1253.825,927.725l26.886-15.448,26.745,15.454v30.911l-26.752,15.455-26.88-15.46v-30.911ZM1281.419,911.046v-30.911l26.739-15.457,26.767,15.455.008,30.914-26.765,15.454-26.749-15.456ZM1308.876,927.731l26.764-15.455,26.749,15.449v30.911l-26.749,15.46-26.764-15.454v-30.911ZM1336.349,911.048l-.005-30.914,26.765-15.455,27.728,15.457v30.911l-27.736,15.45-26.751-15.448ZM1363.809,927.725l27.737-15.448,26.462,15.454v30.911l-26.468,15.455-27.73-15.46v-30.911ZM1392.254,911.046v-30.911l26.455-15.457,26.767,15.455.008,30.914-26.765,15.454-26.465-15.456ZM1419.427,927.731l26.764-15.455,26.749,15.449v30.911l-26.749,15.46-26.764-15.454v-30.911ZM1446.901,911.048l-.005-30.914,26.765-15.455,26.877,15.457v30.911l-26.885,15.45-26.751-15.448ZM1474.36,927.725l26.886-15.448,26.178,15.454v30.911l-26.185,15.455-26.88-15.46v-30.911ZM1501.955,911.046v-30.911l26.172-15.457,26.767,15.455.008,30.914-26.765,15.454-26.182-15.456ZM1528.845,927.731l26.764-15.455,26.749,15.449v30.911l-26.749,15.46-26.764-15.454v-30.911ZM1556.318,911.048l-.005-30.914,26.765-15.455,26.594,15.457v30.911l-26.602,15.45-26.751-15.448ZM1583.778,927.725l26.603-15.448,27.312,15.454v30.911l-27.319,15.455-26.596-15.46v-30.911ZM1611.088,911.046v-30.911l27.305-15.457,26.767,15.455.008,30.914-26.765,15.454-27.316-15.456ZM1639.113,927.731l26.764-15.455,26.749,15.449v30.911l-26.749,15.46-26.764-15.454v-30.911ZM1666.586,911.048l-.005-30.914,26.765-15.455,26.877,15.457v30.911l-26.885,15.45-26.751-15.448ZM1694.045,927.725l26.886-15.448,26.462,15.454v30.911l-26.468,15.455-26.88-15.46v-30.911ZM1721.64,911.046v-30.911l26.455-15.457,26.767,15.455.008,30.914-26.765,15.454-26.465-15.456ZM1748.813,927.731l26.764-15.455,26.749,15.449v30.911l-26.749,15.46-26.764-15.454v-30.911ZM1776.286,911.048l-.005-30.914,26.765-15.455,26.877,15.457v30.911l-26.885,15.45-26.751-15.448ZM1803.746,927.725l26.886-15.448,26.745,15.454v30.911l-26.752,15.455-26.88-15.46v-30.911ZM1831.34,911.046v-30.911l26.739-15.457,26.767,15.455.008,30.914-26.765,15.454-26.749-15.456ZM1831.401,815.821v-30.911l26.679-15.422,26.765,15.455v30.911l-26.765,15.454-26.679-15.488ZM1831.407,720.632l-.009-30.916,26.7-15.404,26.765,15.455-.014,30.899-26.765,15.454-26.677-15.488ZM1858.098,640.942l-26.701-15.503v-30.911l26.765-15.455,26.693,15.501.008,30.914-26.765,15.454ZM1858.142,545.343l-26.764-15.454.003-30.913,26.734-15.45,26.765,15.455-.016,30.899-26.722,15.462ZM1858.115,450.156l-26.719-15.434v-30.911l26.73-15.481,26.765,15.455-.011,30.916-26.765,15.454ZM1831.363,339.506v-30.911l26.765-15.455,26.765,15.455v30.911l-26.765,15.454-26.765-15.454ZM1831.389,244.336v-30.911l26.755-15.453,26.765,15.455-.016,30.9-26.761,15.445-26.742-15.436ZM1858.144,164.603l-26.749-15.456v-30.911l26.739-15.457,26.767,15.455.008,30.914-26.765,15.454ZM1857.427,70.64l-.006,30.909-26.735,15.458-26.877-15.456-.006-30.914,26.874-15.445,26.751,15.447ZM1776.332,23.044l26.769-15.454,26.849,15.454v30.911l-26.856,15.455-26.762-15.455v-30.911ZM1775.625,55.185l26.762,15.453.005,30.914-26.765,15.454-26.77-15.457.003-30.909,26.764-15.455ZM1721.755,23.01l26.409-15.414,26.751,15.448v30.911l-26.765,15.454-26.396-15.488v-30.911ZM1747.443,70.64l-.006,30.909-26.452,15.458-26.877-15.456-.006-30.914,26.874-15.445,26.467,15.447ZM1666.632,23.044l26.769-15.454,26.849,15.454v30.911l-26.856,15.455-26.762-15.455v-30.911ZM1665.924,55.185l26.762,15.453.005,30.914-26.765,15.454-26.77-15.457.003-30.909,26.764-15.455ZM1611.204,23.01l27.26-15.414,26.751,15.448v30.911l-26.765,15.454-27.246-15.488v-30.911ZM1637.742,70.64l-.006,30.909-27.302,15.458-26.594-15.456-.006-30.914,26.59-15.445,27.318,15.447ZM1556.364,23.044l26.769-15.454,26.566,15.454v30.911l-26.572,15.455-26.762-15.455v-30.911ZM1555.656,55.185l26.762,15.453.005,30.914-26.765,15.454-26.77-15.457.003-30.909,26.764-15.455ZM1502.07,23.01l26.126-15.414,26.751,15.448v30.911l-26.765,15.454-26.112-15.488v-30.911ZM1527.475,70.64l-.006,30.909-26.168,15.458-26.877-15.456-.006-30.914,26.874-15.445,26.184,15.447ZM1446.947,23.044l26.769-15.454,26.849,15.454v30.911l-26.856,15.455-26.762-15.455v-30.911ZM1446.239,55.185l26.762,15.453.005,30.914-26.765,15.454-26.77-15.457.003-30.909,26.764-15.455ZM1392.369,23.01l26.409-15.414,26.751,15.448v30.911l-26.765,15.454-26.396-15.488v-30.911ZM1418.057,70.64l-.006,30.909-26.452,15.458-27.728-15.456-.006-30.914,27.724-15.445,26.467,15.447ZM1336.395,23.044l26.769-15.454,27.699,15.454v30.911l-27.706,15.455-26.762-15.455v-30.911ZM1335.688,55.185l26.762,15.453.005,30.914-26.765,15.454-26.77-15.457.003-30.909,26.764-15.455ZM1281.535,23.01l26.693-15.414,26.751,15.448v30.911l-26.765,15.454-26.679-15.488v-30.911ZM1307.506,70.64l-.006,30.909-26.735,15.458-26.877-15.456-.006-30.914,26.874-15.445,26.751,15.447ZM1226.411,23.044l26.769-15.454,26.849,15.454v30.911l-26.856,15.455-26.762-15.455v-30.911ZM1225.703,55.185l26.762,15.453.005,30.914-26.765,15.454-26.77-15.457.003-30.909,26.764-15.455ZM1171.834,23.01l26.409-15.414,26.751,15.448v30.911l-26.765,15.454-26.396-15.488v-30.911ZM1197.522,70.64l-.006,30.909-26.452,15.458-26.877-15.456-.006-30.914,26.874-15.445,26.467,15.447ZM1116.71,23.044l26.769-15.454,26.849,15.454v30.911l-26.856,15.455-26.762-15.455v-30.911ZM1116.003,55.185l26.762,15.453.005,30.914-26.765,15.454-26.77-15.457.003-30.909,26.764-15.455ZM1061.283,23.01l27.26-15.414,26.751,15.448v30.911l-26.765,15.454-27.246-15.488v-30.911ZM1087.821,70.64l-.006,30.909-27.302,15.458-26.594-15.456-.006-30.914,26.59-15.445,27.318,15.447ZM1006.443,23.044l26.769-15.454,26.566,15.454v30.911l-26.572,15.455-26.762-15.455v-30.911ZM1005.735,55.185l26.762,15.453.005,30.914-26.765,15.454-26.77-15.457.003-30.909,26.764-15.455ZM952.149,23.01l26.126-15.414,26.751,15.448v30.911l-26.765,15.454-26.112-15.488v-30.911ZM977.553,70.64l-.006,30.909-26.168,15.458-26.877-15.456-.006-30.914,26.874-15.445,26.184,15.447ZM897.025,23.044l26.769-15.454,26.849,15.454v30.911l-26.856,15.455-26.762-15.455v-30.911ZM896.318,55.185l26.762,15.453.005,30.914-26.765,15.454-26.77-15.457.003-30.909,26.764-15.455ZM842.448,23.01l26.409-15.414,26.751,15.448v30.911l-26.765,15.454-26.396-15.488v-30.911ZM868.136,70.64l-.006,30.909-26.452,15.458-26.31-15.456-.006-30.914,26.307-15.445,26.467,15.447ZM787.891,23.044l26.769-15.454,26.282,15.454v30.911l-26.289,15.455-26.762-15.455v-30.911ZM787.184,55.185l26.762,15.453.005,30.914-26.765,15.454-26.77-15.457.003-30.909,26.764-15.455ZM733.031,23.01l26.693-15.414,26.751,15.448v30.911l-26.765,15.454-26.679-15.488v-30.911ZM759.002,70.64l-.006,30.909-26.735,15.458-26.877-15.456-.006-30.914,26.874-15.445,26.751,15.447ZM677.907,23.044l26.769-15.454,26.849,15.454v30.911l-26.856,15.455-26.762-15.455v-30.911ZM677.199,55.185l26.762,15.453.005,30.914-26.765,15.454-26.77-15.457.003-30.909,26.764-15.455ZM623.33,23.01l26.409-15.414,26.751,15.448v30.911l-26.765,15.454-26.396-15.488v-30.911ZM649.018,70.64l-.006,30.909-26.452,15.458-26.877-15.456-.006-30.914,26.874-15.445,26.467,15.447ZM568.206,23.044l26.769-15.454,26.849,15.454v30.911l-26.856,15.455-26.762-15.455v-30.911ZM567.499,55.185l26.762,15.453.005,30.914-26.765,15.454-26.77-15.457.003-30.909,26.764-15.455ZM512.779,23.01l27.26-15.414,26.751,15.448v30.911l-26.765,15.454-27.246-15.488v-30.911ZM539.317,70.64l-.006,30.909-27.302,15.458-26.594-15.456-.006-30.914,26.59-15.445,27.318,15.447ZM457.939,23.044l26.769-15.454,26.566,15.454v30.911l-26.572,15.455-26.762-15.455v-30.911ZM457.231,55.185l26.762,15.453.005,30.914-26.765,15.454-26.77-15.457.003-30.909,26.764-15.455ZM403.645,23.01l26.126-15.414,26.751,15.448v30.911l-26.765,15.454-26.112-15.488v-30.911ZM429.05,70.64l-.006,30.909-26.168,15.458-26.877-15.456-.006-30.914,26.874-15.445,26.184,15.447ZM348.521,23.044l26.769-15.454,26.849,15.454v30.911l-26.856,15.455-26.762-15.455v-30.911ZM347.814,55.185l26.762,15.453.005,30.914-26.765,15.454-26.77-15.457.003-30.909,26.764-15.455ZM293.944,23.01l26.409-15.414,26.751,15.448v30.911l-26.765,15.454-26.396-15.488v-30.911ZM319.632,70.64l-.006,30.909-26.452,15.458-27.728-15.456-.006-30.914,27.724-15.445,26.467,15.447ZM237.97,23.044l26.769-15.454,27.699,15.454v30.911l-27.706,15.455-26.762-15.455v-30.911ZM237.262,55.185l26.762,15.453.005,30.914-26.765,15.454-26.77-15.457.003-30.909,26.764-15.455ZM183.109,23.01l26.693-15.414,26.751,15.448v30.911l-26.765,15.454-26.679-15.488v-30.911ZM209.081,70.64l-.006,30.909-26.735,15.458-26.877-15.456-.006-30.914,26.874-15.445,26.751,15.447ZM127.986,23.044l26.769-15.454,26.849,15.454v30.911l-26.856,15.455-26.762-15.455v-30.911ZM127.278,55.185l26.762,15.453.005,30.914-26.765,15.454-26.77-15.457.003-30.909,26.764-15.455ZM73.409,23.01l26.409-15.414,26.751,15.448v30.911l-26.765,15.454-26.396-15.488v-30.911ZM99.097,70.64l-.006,30.909-26.452,15.458-26.877-15.456-.006-30.914,26.874-15.445,26.467,15.447ZM18.285,53.955v-30.911l26.769-15.454,26.849,15.454v30.911l-26.856,15.455-26.762-15.455ZM18.294,149.149l-.005-30.914,26.765-15.455,26.877,15.457v30.911l-26.885,15.45-26.751-15.448ZM18.281,244.327l.014-30.9,26.751-15.461,26.879,15.459v30.911l-26.879,15.445-26.765-15.454ZM18.278,339.506v-30.911l26.769-15.454,26.849,15.454v30.911l-26.856,15.455-26.762-15.455ZM18.265,434.702l.011-30.916,26.764-15.455,26.86,15.463.031,30.929-26.916,15.428-26.751-15.448ZM18.252,529.881l.014-30.899,26.751-15.461,26.897,15.456v30.913s-26.883,15.438-26.883,15.438l-26.779-15.446ZM18.248,625.488l-.005-30.914,26.765-15.455,26.922,15.41v30.911l-26.856,15.454-26.825-15.405ZM18.234,720.666l.014-30.899,26.752-15.461,26.933,15.41-.074,30.954-26.861,15.45-26.764-15.454ZM18.231,815.855v-30.911l26.769-15.454,26.849,15.454v30.911l-26.856,15.455-26.762-15.455ZM18.239,911.048l-.005-30.914,26.765-15.455,26.877,15.457v30.911l-26.885,15.45-26.751-15.448ZM44.991,1021.681l-26.765-15.454.014-30.9,26.751-15.461,26.879,15.459v30.911l-26.879,15.445ZM99.034,1053.813l-26.481,15.454-26.853-15.456v-30.898s26.879-15.447,26.879-15.447l26.455,15.434v30.913ZM73.287,1006.236v-30.911l26.472-15.453,26.765,15.455-.016,30.9-26.761,15.445-26.459-15.436ZM153.984,1053.811l-26.768,15.456-26.765-15.454.003-30.913,26.765-15.443,26.765,15.455v30.898ZM154.692,1021.681l-26.765-15.454.014-30.9,26.751-15.461,26.879,15.459v30.911l-26.879,15.445ZM209.019,1053.813l-26.765,15.454-26.853-15.456v-30.898s26.879-15.447,26.879-15.447l26.739,15.434v30.913ZM182.988,1006.236v-30.911l26.755-15.453,26.765,15.455-.016,30.9-26.761,15.445-26.742-15.436ZM263.968,1053.811l-26.768,15.456-26.765-15.454.003-30.913,26.765-15.443,26.765,15.455v30.898ZM264.676,1021.681l-26.765-15.454.014-30.9,26.751-15.461,27.73,15.459v30.911l-27.73,15.445ZM319.57,1053.813l-26.481,15.454-27.703-15.456v-30.898s27.729-15.447,27.729-15.447l26.455,15.434v30.913ZM293.822,1006.236v-30.911l26.472-15.453,26.765,15.455-.016,30.9-26.761,15.445-26.459-15.436ZM374.519,1053.811l-26.768,15.456-26.764-15.454.003-30.913,26.765-15.443,26.765,15.455v30.898ZM375.227,1021.681l-26.764-15.454.013-30.9,26.751-15.461,26.879,15.459v30.911l-26.879,15.445ZM428.987,1053.813l-26.198,15.454-26.853-15.456v-30.898s26.879-15.447,26.879-15.447l26.172,15.434v30.913ZM403.523,1006.236v-30.911l26.188-15.453,26.765,15.455-.016,30.9-26.761,15.445-26.175-15.436ZM483.937,1053.811l-26.768,15.456-26.765-15.454.003-30.913,26.765-15.443,26.765,15.455v30.898ZM484.645,1021.681l-26.765-15.454.014-30.9,26.751-15.461,26.596,15.459v30.911l-26.596,15.445ZM539.255,1053.813l-27.332,15.454-26.569-15.456v-30.898s26.596-15.447,26.596-15.447l27.306,15.434v30.913ZM512.657,1006.236v-30.911l27.322-15.453,26.765,15.455-.016,30.9-26.761,15.445-27.309-15.436ZM594.204,1053.811l-26.768,15.456-26.765-15.454.003-30.913,26.765-15.443,26.765,15.455v30.898ZM594.912,1021.681l-26.765-15.454.014-30.9,26.751-15.461,26.879,15.459v30.911l-26.879,15.445ZM648.956,1053.813l-26.481,15.454-26.853-15.456v-30.898s26.879-15.447,26.879-15.447l26.455,15.434v30.913ZM623.208,1006.236v-30.911l26.472-15.453,26.765,15.455-.016,30.9-26.761,15.445-26.459-15.436ZM703.905,1053.811l-26.768,15.456-26.765-15.454.003-30.913,26.765-15.443,26.765,15.455v30.898ZM704.613,1021.681l-26.765-15.454.014-30.9,26.751-15.461,26.879,15.459v30.911l-26.879,15.445ZM758.94,1053.813l-26.765,15.454-26.853-15.456v-30.898s26.879-15.447,26.879-15.447l26.739,15.434v30.913ZM732.909,1006.236v-30.911l26.755-15.453,26.765,15.455-.016,30.9-26.761,15.445-26.742-15.436ZM813.889,1053.811l-26.768,15.456-26.765-15.454.003-30.913,26.765-15.443,26.765,15.455v30.898ZM814.597,1021.681l-26.765-15.454.014-30.9,26.751-15.461,26.312,15.459v30.911l-26.312,15.445ZM868.074,1053.813l-26.481,15.454-26.286-15.456v-30.898s26.312-15.447,26.312-15.447l26.455,15.434v30.913ZM861.689,1017.574h0s-19.363-11.339-19.363-11.339v-30.911l26.472-15.453,26.765,15.455-.016,30.9-26.761,15.445-7.096-4.097ZM923.023,1053.811l-26.768,15.456-26.764-15.454.003-30.913,26.765-15.443,26.765,15.455v30.898ZM923.731,1021.681l-26.764-15.454.013-30.9,26.751-15.461,26.879,15.459v30.911l-26.879,15.445ZM977.491,1053.813l-26.198,15.454-26.853-15.456v-30.898s26.879-15.447,26.879-15.447l26.172,15.434v30.913ZM952.027,1006.236v-30.911l26.188-15.453,26.765,15.455-.016,30.9-26.761,15.445-26.175-15.436ZM1032.44,1053.811l-26.768,15.456-26.765-15.454.003-30.913,26.765-15.443,26.765,15.455v30.898ZM1033.148,1021.681l-26.765-15.454.014-30.9,26.751-15.461,26.596,15.459v30.911l-26.596,15.445ZM1087.759,1053.813l-27.332,15.454-26.569-15.456v-30.898s26.596-15.447,26.596-15.447l27.306,15.434v30.913ZM1061.161,1006.236v-30.911l27.322-15.453,26.765,15.455-.016,30.9-26.761,15.445-27.309-15.436ZM1142.708,1053.811l-26.768,15.456-26.765-15.454.003-30.913,26.765-15.443,26.765,15.455v30.898ZM1143.416,1021.681l-26.765-15.454.014-30.9,26.751-15.461,26.879,15.459v30.911l-26.879,15.445ZM1197.459,1053.813l-26.481,15.454-26.853-15.456v-30.898s26.879-15.447,26.879-15.447l26.455,15.434v30.913ZM1171.712,1006.236v-30.911l26.472-15.453,26.765,15.455-.016,30.9-26.761,15.445-26.459-15.436ZM1252.409,1053.811l-26.768,15.456-26.765-15.454.003-30.913,26.765-15.443,26.765,15.455v30.898ZM1253.117,1021.681l-26.765-15.454.014-30.9,26.751-15.461,26.879,15.459v30.911l-26.879,15.445ZM1307.444,1053.813l-26.765,15.454-26.853-15.456v-30.898s26.879-15.447,26.879-15.447l26.739,15.434v30.913ZM1281.413,1006.236v-30.911l26.755-15.453,26.765,15.455-.016,30.9-26.761,15.445-26.742-15.436ZM1362.393,1053.811l-26.768,15.456-26.765-15.454.003-30.913,26.765-15.443,26.765,15.455v30.898ZM1363.101,1021.681l-26.765-15.454.014-30.9,26.751-15.461,27.73,15.459v30.911l-27.73,15.445ZM1417.995,1053.813l-26.481,15.454-27.703-15.456v-30.898s27.729-15.447,27.729-15.447l26.455,15.434v30.913ZM1392.248,1006.236v-30.911l26.472-15.453,26.765,15.455-.016,30.9-26.761,15.445-26.459-15.436ZM1472.944,1053.811l-26.768,15.456-26.764-15.454.003-30.913,26.765-15.443,26.765,15.455v30.898ZM1473.652,1021.681l-26.764-15.454.013-30.9,26.751-15.461,26.879,15.459v30.911l-26.879,15.445ZM1527.412,1053.813l-26.198,15.454-26.853-15.456v-30.898s26.879-15.447,26.879-15.447l26.172,15.434v30.913ZM1501.948,1006.236v-30.911l26.188-15.453,26.765,15.455-.016,30.9-26.761,15.445-26.175-15.436ZM1582.362,1053.811l-26.768,15.456-26.765-15.454.003-30.913,26.765-15.443,26.765,15.455v30.898ZM1583.07,1021.681l-26.765-15.454.014-30.9,26.751-15.461,26.596,15.459v30.911l-26.596,15.445ZM1637.68,1053.813l-27.332,15.454-26.569-15.456v-30.898s26.596-15.447,26.596-15.447l27.306,15.434v30.913ZM1611.082,1006.236v-30.911l27.322-15.453,26.765,15.455-.016,30.9-26.761,15.445-27.309-15.436ZM1692.629,1053.811l-26.768,15.456-26.765-15.454.003-30.913,26.765-15.443,26.765,15.455v30.898ZM1693.337,1021.681l-26.765-15.454.014-30.9,26.751-15.461,26.879,15.459v30.911l-26.879,15.445ZM1747.381,1053.813l-26.481,15.454-26.853-15.456v-30.898s26.879-15.447,26.879-15.447l26.455,15.434v30.913ZM1721.633,1006.236v-30.911l26.472-15.453,26.765,15.455-.016,30.9-26.761,15.445-26.459-15.436ZM1802.33,1053.811l-26.768,15.456-26.765-15.454.003-30.913,26.765-15.443,26.765,15.455v30.898ZM1803.038,1021.681l-26.765-15.454.014-30.9,26.751-15.461,26.879,15.459v30.911l-26.879,15.445ZM1857.365,1053.813l-26.765,15.454-26.853-15.456v-30.898s26.879-15.447,26.879-15.447l26.739,15.434v30.913ZM1831.334,1006.236v-30.911l26.755-15.453,26.765,15.455-.016,30.9-26.761,15.445-26.742-15.436ZM1912.315,1022.912v30.898s-26.769,15.456-26.769,15.456l-26.765-15.454.003-30.913,26.765-15.443,26.765,15.455ZM1912.311,927.725v30.911l-26.749,15.46-26.764-15.454v-30.911l26.764-15.455,26.749,15.449ZM1912.316,832.538l.006,30.914-26.765,15.454-26.77-15.457.003-30.909,26.764-15.455,26.762,15.453ZM1912.322,737.348v30.911l-26.768,15.456-26.764-15.454.003-30.913,26.765-15.455,26.765,15.455ZM1912.319,642.165v30.911l-26.749,15.46-26.764-15.454v-30.911l26.764-15.455,26.749,15.449ZM1912.341,546.566l-.01,31.319-26.765,15.46-26.696-15.499-.019-31.275,26.725-15.46,26.765,15.455ZM1912.336,451.379v30.911l-26.748,15.46-26.765-15.454v-30.911l26.765-15.455,26.748,15.449ZM1912.363,356.19v30.911l-26.765,15.454-26.764-15.454.003-30.909,26.764-15.455,26.762,15.453ZM1912.369,261.013v30.899s-26.769,15.456-26.769,15.456l-26.764-15.454.003-30.913,26.765-15.443,26.765,15.455ZM1912.365,165.825v30.911l-26.748,15.46-26.765-15.454v-30.911l26.765-15.455,26.748,15.449ZM1912.371,70.638l.005,30.914-26.765,15.454-26.77-15.457.003-30.909,26.764-15.455,26.762,15.453Z"
         fill="#536072"
         id="path1" />
    </g>
  </g>
</svg>
