<?xml version="1.0" encoding="UTF-8" standalone="no"?>
<svg
   width="21.733mm"
   height="22.65mm"
   version="1.1"
   viewBox="0 0 61.606 64.205"
   id="svg3"
   sodipodi:docname="RedemarrerInactif.svg"
   inkscape:version="1.4 (86a8ad7, 2024-10-11)"
   xmlns:inkscape="http://www.inkscape.org/namespaces/inkscape"
   xmlns:sodipodi="http://sodipodi.sourceforge.net/DTD/sodipodi-0.dtd"
   xmlns="http://www.w3.org/2000/svg"
   xmlns:svg="http://www.w3.org/2000/svg">
  <defs
     id="defs3" />
  <sodipodi:namedview
     id="namedview3"
     pagecolor="#ffffff"
     bordercolor="#000000"
     borderopacity="0.25"
     inkscape:showpageshadow="2"
     inkscape:pageopacity="0.0"
     inkscape:pagecheckerboard="0"
     inkscape:deskcolor="#d1d1d1"
     inkscape:document-units="mm"
     inkscape:zoom="14.403146"
     inkscape:cx="41.102132"
     inkscape:cy="42.803149"
     inkscape:window-width="2880"
     inkscape:window-height="1514"
     inkscape:window-x="-11"
     inkscape:window-y="-11"
     inkscape:window-maximized="1"
     inkscape:current-layer="g2" />
  <!-- Generator: Adobe Illustrator 28.7.4, SVG Export Plug-In . SVG Version: 1.2.0 Build 166)  -->
  <g
     id="g3">
    <g
       id="Calque_1">
      <g
         id="g2">
        <path
           d="M30.898,61.699c-7.7,0-15.065-3.289-20.206-9.022l-1.335-1.489,5.956-5.34,1.335,1.489c3.626,4.043,8.821,6.362,14.252,6.362,2.042,0,4.064-.326,6.008-.969,10.011-3.314,15.46-14.156,12.146-24.167-2.597-7.846-9.899-13.118-18.171-13.118-1.581,0-3.152.198-4.688.589l2.938.213L5.644,35.92,7.944,5.368l6.418,7.704c2.416-1.862,5.104-3.289,8.014-4.251,2.758-.913,5.62-1.376,8.504-1.376,11.73,0,22.085,7.477,25.769,18.605,4.699,14.199-3.03,29.574-17.229,34.274-2.757.913-5.624,1.376-8.522,1.376Z"
           fill="#fff"
           id="path1" />
        <path
           d="M30.88,9.444c10.539,0,20.381,6.692,23.87,17.233,4.353,13.151-2.806,27.394-15.959,31.747-2.592.858-5.256,1.274-7.894,1.274-7.021,0-13.865-2.946-18.717-8.357l2.978-2.67c4.081,4.55,9.837,7.026,15.741,7.026,2.218,0,4.457-.35,6.636-1.07,11.058-3.661,17.078-15.636,13.417-26.694-2.934-8.864-11.206-14.489-20.07-14.489-2.195,0-4.428.346-6.623,1.072-2.075.686-4.013,1.695-5.763,2.963l5.566.404L7.994,31.343l1.574-20.901,4.537,5.446c2.567-2.306,5.593-4.074,8.899-5.167,2.612-.865,5.264-1.275,7.876-1.275M6.32.295l-.741,9.846-1.574,20.901-.712,9.455,7.269-6.089,16.068-13.459,4.185-3.506c.022,0,.044,0,.067,0,7.408,0,13.947,4.72,16.272,11.746,2.967,8.964-1.913,18.672-10.877,21.64-1.74.575-3.55.867-5.379.867-4.864,0-9.515-2.077-12.763-5.697l-2.67-2.977-2.978,2.67-2.978,2.67-2.978,2.67,2.67,2.978c5.52,6.156,13.427,9.687,21.695,9.687,3.112,0,6.191-.497,9.151-1.477,15.246-5.046,23.544-21.555,18.499-36.801-3.955-11.949-15.074-19.977-27.668-19.977-3.099,0-6.172.497-9.134,1.478-2.51.83-4.866,1.982-7.039,3.439l-2.066-2.48L6.32.295h0Z"
           fill="#445060"
           id="path2"
           style="fill:#5d6c83;fill-opacity:1" />
      </g>
    </g>
  </g>
</svg>
