<?xml version="1.0" encoding="UTF-8" standalone="no"?>
<svg
   width="64.9mm"
   height="14.2mm"
   version="1.1"
   viewBox="0 0 183.969 40.252"
   id="svg14"
   sodipodi:docname="TexteSAPHIR.svg"
   inkscape:version="1.4 (86a8ad7, 2024-10-11)"
   xmlns:inkscape="http://www.inkscape.org/namespaces/inkscape"
   xmlns:sodipodi="http://sodipodi.sourceforge.net/DTD/sodipodi-0.dtd"
   xmlns="http://www.w3.org/2000/svg"
   xmlns:svg="http://www.w3.org/2000/svg">
  <defs
     id="defs14" />
  <sodipodi:namedview
     id="namedview14"
     pagecolor="#ffffff"
     bordercolor="#000000"
     borderopacity="0.25"
     inkscape:showpageshadow="2"
     inkscape:pageopacity="0.0"
     inkscape:pagecheckerboard="true"
     inkscape:deskcolor="#d1d1d1"
     inkscape:document-units="mm"
     inkscape:zoom="5.6545004"
     inkscape:cx="104.51852"
     inkscape:cy="37.050135"
     inkscape:window-width="2880"
     inkscape:window-height="1514"
     inkscape:window-x="-11"
     inkscape:window-y="-11"
     inkscape:window-maximized="1"
     inkscape:current-layer="svg14" />
  <!-- Generator: Adobe Illustrator 28.7.4, SVG Export Plug-In . SVG Version: 1.2.0 Build 166)  -->
  <g
     id="g14">
    <g
       id="Calque_1">
      <g
         id="g13">
        <g
           id="g2">
          <path
             d="M20.574,38.648c-.73,0-1.363-.262-1.882-.78-.518-.519-.78-1.151-.78-1.881s.261-1.364.776-1.891c.519-.528,1.153-.796,1.886-.796s1.367.268,1.885.796c.515.525.776,1.162.776,1.891s-.262,1.364-.779,1.881c-.519.518-1.152.78-1.882.78ZM15.233,38.648c-.731,0-1.365-.263-1.882-.78-.486-.486-.748-1.074-.777-1.749-.03.677-.297,1.266-.792,1.752-.527.516-1.163.777-1.891.777s-1.364-.263-1.881-.78c-.518-.517-.78-1.15-.78-1.881s.261-1.366.777-1.891c.517-.528,1.151-.796,1.884-.796s1.367.267,1.894.792c.494.494.759,1.086.79,1.762.03-.674.29-1.265.774-1.758.517-.528,1.151-.796,1.885-.796s1.367.268,1.885.796c.515.525.776,1.161.776,1.891s-.263,1.364-.78,1.881c-.517.518-1.15.78-1.881.78ZM25.916,33.43c-.729,0-1.365-.261-1.89-.777-.528-.517-.796-1.151-.796-1.885s.268-1.368.797-1.886c.389-.381.838-.623,1.341-.723-.503-.1-.952-.342-1.341-.724-.528-.517-.796-1.151-.796-1.885s.268-1.368.797-1.886c.525-.515,1.161-.776,1.89-.776s1.363.262,1.882.78c.518.519.78,1.152.78,1.882s-.262,1.363-.78,1.881c-.384.384-.831.627-1.334.728.503.1.95.344,1.334.727.518.519.78,1.152.78,1.882s-.262,1.363-.78,1.881c-.519.518-1.151.78-1.882.78ZM4.572,33.43c-.729,0-1.365-.261-1.89-.777-.528-.518-.796-1.152-.796-1.885s.268-1.367.796-1.885c.525-.515,1.161-.776,1.89-.776s1.365.262,1.882.78c.518.517.78,1.15.78,1.882s-.263,1.364-.78,1.881c-.517.518-1.15.78-1.882.78ZM20.574,22.994c-.73,0-1.364-.262-1.882-.78-.518-.519-.78-1.151-.78-1.882s.262-1.363.78-1.881c.519-.518,1.152-.78,1.882-.78s1.363.262,1.882.78c.517.518.779,1.15.779,1.881s-.262,1.364-.779,1.882c-.519.518-1.151.78-1.882.78ZM15.233,22.994c-.732,0-1.365-.262-1.882-.78-.486-.486-.748-1.074-.777-1.75-.03.678-.297,1.267-.792,1.753-.526.515-1.163.776-1.891.776s-1.364-.262-1.881-.78c-.518-.517-.78-1.15-.78-1.882s.263-1.364.78-1.881c.517-.518,1.15-.78,1.881-.78s1.364.261,1.891.776c.496.487.763,1.076.793,1.753.03-.675.291-1.264.777-1.749.517-.518,1.15-.78,1.882-.78s1.364.263,1.881.78c.518.517.78,1.15.78,1.881s-.263,1.365-.78,1.882c-.517.518-1.149.78-1.881.78ZM4.572,17.802c-.731,0-1.369-.267-1.894-.792-.526-.526-.793-1.164-.793-1.894s.268-1.367.796-1.885c.374-.367.804-.605,1.283-.711-.479-.107-.909-.345-1.283-.712-.528-.518-.796-1.152-.796-1.885s.267-1.368.793-1.894c.526-.526,1.163-.792,1.894-.792s1.368.268,1.885.796c.516.525.777,1.161.777,1.891s-.263,1.364-.78,1.881c-.368.369-.795.608-1.274.715.479.107.906.346,1.274.715.518.517.78,1.15.78,1.881s-.261,1.366-.777,1.891c-.517.528-1.151.796-1.885.796ZM25.916,12.584c-.729,0-1.365-.261-1.89-.777-.528-.517-.796-1.151-.796-1.885s.267-1.369.793-1.895c.525-.525,1.163-.792,1.893-.792s1.367.268,1.885.796c.516.526.777,1.162.777,1.891s-.262,1.363-.78,1.881c-.519.518-1.151.78-1.882.78ZM20.574,7.366c-.73,0-1.363-.262-1.882-.78-.518-.519-.78-1.151-.78-1.881s.261-1.364.776-1.891c.519-.528,1.153-.796,1.886-.796s1.367.268,1.885.796c.515.525.776,1.162.776,1.891s-.262,1.364-.779,1.881c-.519.518-1.152.78-1.882.78ZM15.233,7.366c-.731,0-1.365-.263-1.882-.78-.486-.486-.748-1.074-.777-1.749-.03.677-.297,1.266-.792,1.752-.527.516-1.163.777-1.891.777s-1.364-.263-1.881-.78-.78-1.15-.78-1.881.261-1.366.777-1.891c.517-.528,1.151-.796,1.884-.796s1.367.267,1.894.792c.494.494.759,1.086.79,1.762.03-.674.29-1.265.774-1.758.517-.528,1.151-.796,1.885-.796s1.367.268,1.885.796c.515.525.776,1.161.776,1.891s-.263,1.364-.78,1.881c-.517.518-1.15.78-1.881.78Z"
             fill="#1a77ff"
             id="path1" />
          <path
             d="M20.575,2.518c.597,0,1.105.215,1.528.646.422.431.633.944.633,1.541s-.211,1.105-.633,1.528c-.423.422-.932.634-1.528.634s-1.105-.211-1.528-.634c-.422-.422-.634-.932-.634-1.528s.212-1.11.634-1.541c.423-.431.932-.646,1.528-.646M15.233,2.518c.596,0,1.105.215,1.527.646.423.431.634.944.634,1.541s-.211,1.105-.634,1.528c-.422.422-.932.634-1.527.634s-1.106-.211-1.528-.634c-.423-.422-.634-.932-.634-1.528s.211-1.11.634-1.541c.422-.431.932-.646,1.528-.646M9.89,2.518c.597,0,1.109.215,1.541.646.431.431.646.944.646,1.541s-.215,1.105-.646,1.528c-.432.422-.944.634-1.541.634s-1.105-.211-1.527-.634c-.423-.422-.634-.932-.634-1.528s.211-1.11.634-1.541c.422-.431.932-.646,1.527-.646M25.916,7.736c.597,0,1.105.215,1.528.646.422.431.634.944.634,1.541s-.212,1.105-.634,1.528c-.423.422-.932.634-1.528.634s-1.109-.211-1.54-.634c-.432-.422-.646-.932-.646-1.528s.215-1.11.646-1.541c.431-.431.944-.646,1.54-.646M4.573,7.736c.597,0,1.106.215,1.528.646.423.431.634.944.634,1.541s-.211,1.105-.634,1.528c-.422.422-.932.634-1.528.634s-1.109-.211-1.54-.634c-.431-.422-.646-.932-.646-1.528s.216-1.11.646-1.541c.431-.431.944-.646,1.54-.646M4.573,12.954c.597,0,1.106.211,1.528.634.423.422.634.932.634,1.528s-.211,1.11-.634,1.541c-.422.431-.932.646-1.528.646s-1.109-.215-1.54-.646c-.431-.431-.646-.944-.646-1.541s.216-1.105.646-1.528c.431-.422.944-.634,1.54-.634M20.575,18.171c.597,0,1.105.211,1.528.634.422.422.633.932.633,1.528s-.211,1.106-.633,1.528c-.423.422-.932.633-1.528.633s-1.105-.211-1.528-.633c-.422-.422-.634-.932-.634-1.528s.212-1.105.634-1.528c.423-.422.932-.634,1.528-.634M15.233,18.171c.596,0,1.105.211,1.527.634.423.422.634.932.634,1.528s-.211,1.106-.634,1.528c-.422.422-.932.633-1.527.633s-1.106-.211-1.528-.633c-.423-.422-.634-.932-.634-1.528s.211-1.105.634-1.528c.422-.422.932-.634,1.528-.634M9.89,18.171c.597,0,1.109.211,1.541.634.431.422.646.932.646,1.528s-.215,1.106-.646,1.528c-.432.422-.944.633-1.541.633s-1.105-.211-1.527-.633c-.423-.422-.634-.932-.634-1.528s.211-1.105.634-1.528c.422-.422.932-.634,1.527-.634M25.916,23.389c.597,0,1.105.211,1.528.634.422.422.634.932.634,1.528s-.212,1.105-.634,1.528c-.423.422-.932.634-1.528.634s-1.109-.211-1.54-.634c-.432-.422-.646-.932-.646-1.528s.215-1.106.646-1.528c.431-.422.944-.634,1.54-.634M25.916,28.607c.597,0,1.105.211,1.528.633.422.422.634.932.634,1.528s-.212,1.105-.634,1.528c-.423.422-.932.634-1.528.634s-1.109-.211-1.54-.634c-.432-.422-.646-.932-.646-1.528s.215-1.106.646-1.528c.431-.422.944-.633,1.54-.633M4.573,28.607c.597,0,1.106.211,1.528.633.423.422.634.932.634,1.528s-.211,1.105-.634,1.528c-.422.422-.932.634-1.528.634s-1.109-.211-1.54-.634c-.431-.422-.646-.932-.646-1.528s.216-1.106.646-1.528c.431-.422.944-.633,1.54-.633M20.575,33.8c.597,0,1.105.215,1.528.646.422.431.633.944.633,1.541s-.211,1.105-.633,1.528c-.423.422-.932.634-1.528.634s-1.105-.211-1.528-.634c-.422-.422-.634-.932-.634-1.528s.212-1.11.634-1.541c.423-.431.932-.646,1.528-.646M15.233,33.8c.596,0,1.105.215,1.527.646.423.431.634.944.634,1.541s-.211,1.105-.634,1.528c-.422.422-.932.634-1.527.634s-1.106-.211-1.528-.634c-.423-.422-.634-.932-.634-1.528s.211-1.11.634-1.541c.422-.431.932-.646,1.528-.646M9.89,33.8c.597,0,1.109.215,1.541.646.431.431.646.944.646,1.541s-.215,1.105-.646,1.528c-.432.422-.944.634-1.541.634s-1.105-.211-1.527-.634c-.423-.422-.634-.932-.634-1.528s.211-1.11.634-1.541c.422-.431.932-.646,1.527-.646M20.575,1.518c-.859,0-1.635.327-2.242.945-.165.168-.308.348-.429.538-.122-.19-.265-.37-.43-.538-.606-.618-1.381-.945-2.241-.945s-1.636.327-2.243.946c-.16.163-.3.338-.42.523-.123-.187-.267-.365-.432-.53-.616-.615-1.393-.939-2.248-.939-.86,0-1.635.327-2.242.946-.601.612-.919,1.387-.919,2.24s.321,1.63.927,2.235c.605.606,1.378.926,2.234.926.863,0,1.617-.309,2.24-.919.169-.165.315-.343.44-.532.121.186.264.361.427.524.605.606,1.378.926,2.235.926s1.629-.321,2.235-.927c.167-.167.313-.347.436-.538.123.191.268.371.435.538.608.607,1.38.927,2.236.927s1.628-.32,2.235-.926c.606-.607.926-1.38.926-2.235s-.318-1.627-.918-2.24c-.608-.619-1.383-.946-2.243-.946h0ZM25.916,6.736c-.856,0-1.633.325-2.247.939-.614.613-.939,1.39-.939,2.248s.327,1.636.947,2.243c.613.601,1.387.919,2.239.919s1.628-.32,2.235-.926c.607-.607.927-1.38.927-2.235s-.318-1.626-.919-2.24c-.608-.619-1.383-.946-2.243-.946h0ZM4.573,6.736c-.856,0-1.633.325-2.247.939-.615.615-.939,1.392-.939,2.248s.327,1.635.946,2.242c.135.132.277.25.426.355-.149.104-.292.223-.426.355-.619.607-.946,1.382-.946,2.242s.325,1.633.939,2.248c.613.614,1.391.939,2.247.939.861,0,1.637-.327,2.243-.947.601-.612.919-1.387.919-2.24s-.321-1.63-.927-2.235c-.134-.135-.277-.255-.427-.361.15-.106.293-.227.428-.362.606-.605.926-1.378.926-2.235s-.318-1.628-.92-2.241c-.606-.618-1.381-.945-2.242-.945h0ZM20.575,17.171c-.855,0-1.628.32-2.235.926-.167.168-.313.348-.436.539-.123-.191-.269-.371-.437-.539-.605-.606-1.378-.926-2.234-.926s-1.63.321-2.236.927c-.163.163-.305.338-.426.523-.124-.188-.271-.366-.439-.531-.624-.611-1.378-.92-2.241-.92-.856,0-1.629.321-2.235.927-.606.605-.926,1.378-.926,2.235s.321,1.63.927,2.236c.605.605,1.377.926,2.234.926.864,0,1.618-.309,2.24-.919.169-.165.316-.343.44-.532.121.186.264.361.427.524.605.605,1.378.926,2.235.926s1.629-.32,2.235-.927c.167-.167.313-.347.436-.538.123.191.268.371.435.538.607.606,1.38.927,2.236.927s1.629-.32,2.235-.926c.606-.607.926-1.38.926-2.236s-.32-1.628-.925-2.235c-.608-.607-1.38-.927-2.236-.927h0ZM25.916,22.389c-.852,0-1.627.318-2.24.92-.619.605-.946,1.381-.946,2.242s.327,1.636.947,2.243c.14.137.288.259.443.366-.156.107-.304.23-.444.367-.619.605-.946,1.381-.946,2.242s.327,1.636.947,2.243c.613.601,1.387.919,2.239.919s1.628-.32,2.235-.926c.607-.607.927-1.38.927-2.235s-.32-1.628-.926-2.235c-.14-.14-.289-.265-.446-.374.157-.109.305-.234.445-.373.607-.607.927-1.38.927-2.235s-.32-1.628-.926-2.235c-.607-.607-1.38-.927-2.236-.927h0ZM4.573,27.607c-.852,0-1.627.318-2.24.919-.619.607-.946,1.383-.946,2.242s.327,1.635.946,2.242c.614.602,1.388.92,2.24.92.857,0,1.63-.321,2.236-.927.606-.605.926-1.378.926-2.235s-.321-1.63-.927-2.236c-.605-.605-1.378-.926-2.235-.926h0ZM20.575,32.8c-.859,0-1.635.327-2.242.945-.165.168-.308.348-.429.538-.122-.19-.265-.37-.43-.538-.606-.618-1.381-.945-2.241-.945s-1.636.327-2.243.946c-.16.163-.3.338-.42.523-.123-.187-.267-.365-.432-.53-.616-.615-1.393-.939-2.248-.939-.86,0-1.635.327-2.242.946-.601.612-.919,1.387-.919,2.24s.321,1.63.927,2.235c.605.606,1.378.926,2.234.926.863,0,1.617-.309,2.24-.919.169-.165.316-.343.44-.532.121.186.264.361.427.524.605.606,1.378.926,2.235.926s1.629-.321,2.235-.927c.167-.167.313-.347.436-.538.123.191.268.371.435.538.608.607,1.38.927,2.236.927s1.628-.32,2.235-.926c.606-.607.926-1.38.926-2.235s-.318-1.627-.918-2.24c-.608-.619-1.383-.946-2.243-.946h0Z"
             fill="#445060"
             id="path2" />
        </g>
        <g
           id="g4">
          <path
             d="M37.337,38.647c-.316,0-.663-.071-1.001-.21-.668-.264-1.155-.749-1.44-1.44-.139-.319-.211-.662-.211-1.01,0-.344.071-.691.211-1.034.241-.663.72-1.154,1.416-1.441.132-.058.27-.104.413-.138-.129-.034-.259-.077-.388-.13-.662-.241-1.153-.719-1.44-1.414-.139-.32-.211-.671-.211-1.036,0-.343.071-.691.211-1.034.24-.678.719-1.179,1.416-1.466.139-.057.279-.103.419-.137-.132-.034-.264-.077-.395-.131-.662-.241-1.153-.719-1.44-1.414-.139-.32-.211-.672-.211-1.036,0-.344.071-.691.211-1.034.239-.678.719-1.178,1.416-1.465.139-.057.279-.103.42-.137-.132-.033-.265-.077-.396-.131-.662-.241-1.153-.719-1.44-1.415-.139-.319-.211-.67-.211-1.035,0-.344.071-.692.211-1.034.239-.678.719-1.178,1.416-1.465.135-.059.276-.104.423-.136-.134-.034-.267-.078-.398-.132-.662-.241-1.153-.719-1.44-1.415-.139-.319-.211-.67-.211-1.035,0-.344.071-.691.211-1.034.239-.677.718-1.178,1.416-1.466.134-.059.276-.104.422-.136-.133-.033-.266-.077-.398-.131-.662-.241-1.153-.719-1.44-1.415-.139-.319-.211-.67-.211-1.035,0-.344.071-.691.211-1.034.239-.677.718-1.178,1.416-1.466.284-.125.599-.189.924-.189,0,0,.142.004.144.004.315,0,.662.071,1.001.21.684.261,1.181.748,1.465,1.44.143.326.208.68.186,1.039,0,.315-.07.663-.21,1.005-.264.669-.75,1.156-1.44,1.441-.145.063-.295.113-.449.148.148.035.299.083.448.144.684.261,1.181.748,1.465,1.44.143.326.208.68.186,1.039,0,.315-.07.663-.21,1.005-.264.669-.75,1.156-1.44,1.441-.145.063-.295.113-.449.148.148.035.299.083.448.144.685.262,1.181.748,1.465,1.44.112.256.176.528.188.808.044-.646.304-1.21.773-1.679.517-.518,1.15-.78,1.881-.78s1.364.261,1.891.776c.496.487.763,1.076.793,1.753.03-.675.291-1.264.777-1.749.517-.518,1.15-.78,1.882-.78s1.364.263,1.881.78c.491.49.752,1.085.778,1.769.016-.301.086-.603.208-.897.239-.676.718-1.177,1.415-1.464.285-.125.6-.19.927-.19,0,0,.139.003.14.003.317,0,.664.071,1.004.211.683.262,1.179.748,1.465,1.439.1.245.165.489.194.73.06-.616.323-1.155.783-1.605.374-.367.804-.605,1.284-.711-.482-.109-.914-.352-1.288-.727-.526-.525-.793-1.162-.793-1.894s.268-1.368.797-1.885c.374-.366.803-.604,1.282-.711-.479-.106-.909-.345-1.283-.711-.528-.517-.796-1.151-.796-1.885s.267-1.369.793-1.895c.525-.525,1.163-.792,1.893-.792s1.367.268,1.885.796c.516.526.777,1.162.777,1.891s-.262,1.363-.78,1.881c-.369.369-.796.608-1.275.715.479.107.906.347,1.275.715.518.519.78,1.152.78,1.882s-.261,1.364-.777,1.891c-.37.377-.799.621-1.281.73.48.107.908.346,1.277.715.518.519.78,1.151.78,1.881s-.262,1.363-.78,1.882c-.384.383-.831.627-1.334.727.503.101.95.344,1.334.727.518.519.78,1.152.78,1.882s-.262,1.363-.78,1.881c-.384.384-.831.627-1.334.728.503.1.95.344,1.334.727.518.519.78,1.152.78,1.882s-.262,1.363-.78,1.881c-.37.369-.797.608-1.277.715.481.109.911.354,1.281.73.516.526.777,1.162.777,1.891s-.262,1.363-.78,1.881c-.519.518-1.151.78-1.882.78s-1.365-.261-1.89-.777c-.528-.517-.796-1.151-.796-1.885s.267-1.369.793-1.895c.375-.375.806-.618,1.288-.727-.48-.106-.91-.345-1.285-.712-.528-.517-.796-1.151-.796-1.885s.268-1.368.797-1.886c.389-.381.838-.623,1.341-.723-.503-.1-.952-.342-1.341-.724-.528-.517-.796-1.151-.796-1.885s.268-1.368.797-1.886c.389-.381.838-.624,1.341-.724-.503-.1-.953-.342-1.341-.724-.457-.447-.719-.981-.782-1.591-.028.245-.093.493-.194.74-.264.669-.75,1.156-1.44,1.441-.341.14-.689.211-1.035.211h-.051l-.895-.184c-.753-.268-1.244-.747-1.53-1.443-.124-.282-.195-.592-.209-.917-.032.672-.293,1.256-.777,1.74-.517.518-1.149.78-1.881.78s-1.365-.262-1.882-.78c-.486-.486-.748-1.074-.777-1.75-.03.678-.297,1.267-.792,1.753-.526.515-1.163.776-1.891.776s-1.364-.262-1.881-.78c-.487-.486-.748-1.075-.777-1.751-.013.287-.083.598-.208.903-.264.669-.75,1.156-1.44,1.441-.129.057-.262.102-.399.136.133.034.266.078.398.132.678.238,1.178.717,1.465,1.415.143.327.207.688.186,1.063,0,.316-.07.664-.21,1.006-.262.684-.748,1.181-1.44,1.465-.136.056-.271.101-.407.134.136.034.272.078.406.134.678.239,1.179.718,1.465,1.416.143.326.207.687.186,1.062,0,.316-.07.664-.21,1.006-.262.684-.748,1.18-1.44,1.465-.136.056-.271.101-.407.134.136.034.272.078.406.134.678.239,1.179.718,1.465,1.416.143.326.207.687.186,1.062,0,.316-.07.665-.21,1.006-.262.684-.748,1.18-1.44,1.466-.284.125-.593.189-.907.189,0,0-.136-.004-.137-.004ZM53.321,7.366l-.895-.184c-.753-.269-1.244-.747-1.53-1.443-.122-.278-.193-.584-.208-.905-.029.677-.291,1.265-.777,1.751-.517.518-1.15.78-1.881.78s-1.365-.263-1.882-.78c-.486-.486-.748-1.074-.777-1.749-.03.677-.297,1.266-.792,1.752-.527.516-1.163.777-1.891.777s-1.364-.263-1.881-.78-.78-1.15-.78-1.881.261-1.366.777-1.891c.517-.528,1.151-.796,1.884-.796s1.367.267,1.894.792c.494.494.759,1.086.79,1.762.03-.674.29-1.265.774-1.758.517-.528,1.151-.796,1.885-.796s1.367.268,1.885.796c.485.494.745,1.087.774,1.764.015-.305.085-.609.208-.908.239-.677.718-1.177,1.415-1.465.284-.125.599-.189.924-.189,0,0,.142.004.144.004.316,0,.663.071,1.003.21.682.261,1.179.747,1.465,1.439.141.344.211.688.211,1.023s-.071.679-.211,1.022c-.265.669-.75,1.156-1.44,1.441-.342.14-.69.211-1.035.211h-.051Z"
             fill="#1a77ff"
             id="path3" />
          <path
             d="M53.236,2.515c.037,0,.074.001.111.003.282,0,.563.058.846.174.562.215.96.605,1.192,1.168.115.282.174.559.174.832s-.059.551-.174.833c-.216.546-.605.936-1.168,1.168-.282.116-.563.174-.845.174l-.845-.174c-.547-.199-.937-.58-1.168-1.143-.116-.265-.174-.547-.174-.845,0-.282.058-.563.174-.845.199-.563.58-.961,1.143-1.193.232-.101.477-.152.734-.152M48.031,2.518c.596,0,1.105.215,1.527.646.423.431.634.944.634,1.541s-.211,1.105-.634,1.528c-.422.422-.932.634-1.527.634s-1.106-.211-1.528-.634c-.423-.422-.634-.932-.634-1.528s.211-1.11.634-1.541c.422-.431.932-.646,1.528-.646M42.688,2.518c.597,0,1.109.215,1.541.646.431.431.646.944.646,1.541s-.215,1.105-.646,1.528c-.432.422-.944.634-1.541.634s-1.105-.211-1.527-.634c-.423-.422-.634-.932-.634-1.528s.211-1.11.634-1.541c.422-.431.932-.646,1.527-.646M37.235,7.733c.037,0,.074.001.111.003.281,0,.562.058.845.174.562.215.961.605,1.192,1.168.116.265.166.539.149.82,0,.282-.059.563-.174.845-.216.547-.605.936-1.168,1.168-.265.116-.538.174-.82.174s-.562-.058-.845-.174c-.546-.199-.936-.58-1.168-1.143-.115-.265-.174-.547-.174-.845,0-.282.059-.563.174-.845.199-.563.58-.96,1.144-1.193.232-.101.477-.152.734-.152M58.714,7.736c.597,0,1.105.215,1.528.646.422.431.634.944.634,1.541s-.212,1.105-.634,1.528c-.423.422-.932.634-1.528.634s-1.109-.211-1.54-.634c-.432-.422-.646-.932-.646-1.528s.215-1.11.646-1.541c.431-.431.944-.646,1.54-.646M37.237,12.951c.036,0,.073,0,.109.003.281,0,.562.058.845.174.562.215.961.605,1.192,1.168.116.265.166.539.149.82,0,.282-.059.563-.174.845-.216.547-.605.936-1.168,1.168-.265.116-.538.174-.82.174s-.562-.058-.845-.174c-.546-.199-.936-.58-1.168-1.143-.115-.265-.174-.546-.174-.845,0-.281.059-.563.174-.845.199-.563.58-.96,1.144-1.193.232-.101.478-.152.735-.152M58.714,12.954c.597,0,1.105.211,1.528.634.422.422.634.932.634,1.528s-.212,1.11-.634,1.541c-.423.431-.932.646-1.528.646s-1.109-.215-1.54-.646c-.432-.431-.646-.944-.646-1.541s.215-1.105.646-1.528c.431-.422.944-.634,1.54-.634M53.239,18.168c.036,0,.072,0,.108.003.282,0,.563.058.846.174.562.216.96.605,1.192,1.168.115.282.174.559.174.833s-.059.551-.174.832c-.216.547-.605.936-1.168,1.168-.282.116-.563.174-.845.174l-.845-.174c-.547-.199-.937-.58-1.168-1.143-.116-.265-.174-.546-.174-.845,0-.281.058-.563.174-.845.199-.563.58-.96,1.143-1.192.232-.102.478-.152.736-.152M37.238,18.168c.036,0,.072,0,.109.003.281,0,.562.058.845.174.562.216.961.605,1.192,1.168.116.265.166.539.149.82,0,.282-.059.563-.174.845-.216.547-.605.936-1.168,1.168-.265.116-.538.174-.82.174s-.562-.058-.845-.174c-.546-.199-.936-.58-1.168-1.143-.115-.265-.174-.546-.174-.845,0-.281.059-.563.174-.845.199-.563.58-.96,1.144-1.192.232-.102.478-.152.736-.152M58.714,18.171c.597,0,1.105.211,1.528.634.422.422.634.932.634,1.528s-.212,1.106-.634,1.528c-.423.422-.932.633-1.528.633s-1.109-.211-1.54-.633c-.432-.422-.646-.932-.646-1.528s.215-1.105.646-1.528c.431-.422.944-.634,1.54-.634M48.031,18.171c.596,0,1.105.211,1.527.634.423.422.634.932.634,1.528s-.211,1.106-.634,1.528c-.422.422-.932.633-1.527.633s-1.106-.211-1.528-.633c-.423-.422-.634-.932-.634-1.528s.211-1.105.634-1.528c.422-.422.932-.634,1.528-.634M42.688,18.171c.597,0,1.109.211,1.541.634.431.422.646.932.646,1.528s-.215,1.106-.646,1.528c-.432.422-.944.633-1.541.633s-1.105-.211-1.527-.633c-.423-.422-.634-.932-.634-1.528s.211-1.105.634-1.528c.422-.422.932-.634,1.527-.634M37.346,23.364c.281,0,.562.059.845.174.562.199.961.58,1.192,1.143.116.266.166.547.149.845,0,.282-.059.563-.174.845-.216.563-.605.961-1.168,1.192-.282.116-.559.174-.832.174s-.551-.058-.833-.174c-.546-.199-.936-.58-1.168-1.143-.115-.265-.174-.547-.174-.845,0-.281.059-.563.174-.845.199-.563.58-.96,1.144-1.192.281-.116.562-.174.845-.174M58.714,23.389c.597,0,1.105.211,1.528.634.422.422.634.932.634,1.528s-.212,1.105-.634,1.528c-.423.422-.932.634-1.528.634s-1.109-.211-1.54-.634c-.432-.422-.646-.932-.646-1.528s.215-1.106.646-1.528c.431-.422.944-.634,1.54-.634M37.346,28.582c.281,0,.562.058.845.174.562.199.961.58,1.192,1.143.116.265.166.546.149.845,0,.282-.059.563-.174.845-.216.563-.605.961-1.168,1.192-.282.116-.559.174-.832.174s-.551-.058-.833-.174c-.546-.199-.936-.58-1.168-1.143-.115-.265-.174-.547-.174-.845,0-.282.059-.563.174-.845.199-.562.58-.96,1.144-1.192.281-.116.562-.174.845-.174M58.714,28.607c.597,0,1.105.211,1.528.633.422.422.634.932.634,1.528s-.212,1.105-.634,1.528c-.423.422-.932.634-1.528.634s-1.109-.211-1.54-.634c-.432-.422-.646-.932-.646-1.528s.215-1.106.646-1.528c.431-.422.944-.633,1.54-.633M58.714,33.8c.597,0,1.105.215,1.528.646.422.431.634.944.634,1.541s-.212,1.105-.634,1.528c-.423.422-.932.634-1.528.634s-1.109-.211-1.54-.634c-.432-.422-.646-.932-.646-1.528s.215-1.11.646-1.541c.431-.431.944-.646,1.54-.646M37.346,33.8c.281,0,.562.058.845.174.562.199.961.58,1.192,1.143.116.265.166.546.149.845,0,.282-.059.563-.174.845-.216.563-.605.961-1.168,1.193-.232.101-.471.152-.717.152-.034,0-.069,0-.104-.003-.281,0-.562-.058-.845-.174-.546-.215-.936-.604-1.168-1.168-.115-.265-.174-.538-.174-.82s.059-.563.174-.845c.199-.547.58-.936,1.144-1.168.265-.116.547-.174.845-.174M53.236,1.515c-.395,0-.777.079-1.134.236-.609.251-1.096.667-1.423,1.216-.117-.177-.253-.346-.407-.503-.606-.618-1.381-.945-2.241-.945s-1.636.327-2.243.946c-.16.163-.3.338-.42.523-.123-.187-.267-.365-.432-.53-.616-.615-1.393-.939-2.248-.939-.86,0-1.635.327-2.242.946-.601.612-.919,1.387-.919,2.24s.321,1.63.927,2.235c.605.606,1.378.926,2.234.926.863,0,1.617-.309,2.24-.919.169-.165.315-.343.44-.532.121.186.264.361.427.524.605.606,1.378.926,2.235.926s1.629-.321,2.235-.927c.16-.16.301-.332.421-.514.348.558.86.975,1.499,1.207l.069.025.072.015.845.174.1.021h.102c.41,0,.822-.084,1.224-.249.811-.334,1.405-.931,1.719-1.726.16-.392.244-.799.244-1.2s-.084-.808-.248-1.211c-.337-.816-.945-1.411-1.76-1.723-.372-.153-.774-.236-1.175-.24-.047-.002-.093-.003-.139-.003h0ZM37.235,6.733c-.395,0-.777.079-1.134.236-.803.331-1.393.948-1.686,1.776-.148.358-.231.769-.231,1.178,0,.434.086.852.257,1.244.231.56.596,1.016,1.07,1.34-.504.351-.881.846-1.096,1.455-.148.358-.231.769-.231,1.178,0,.434.086.852.257,1.244.231.56.596,1.016,1.071,1.34-.504.351-.881.846-1.096,1.455-.148.358-.231.769-.231,1.178,0,.434.086.852.257,1.244.231.561.597,1.017,1.072,1.341-.509.354-.883.847-1.098,1.454-.148.358-.231.769-.231,1.178,0,.433.086.852.257,1.244.231.561.597,1.017,1.072,1.341-.509.354-.883.847-1.098,1.454-.148.359-.231.77-.231,1.179,0,.433.086.851.257,1.243.231.56.596,1.016,1.07,1.34-.501.346-.876.83-1.092,1.423-.151.366-.234.778-.234,1.187,0,.417.086.827.257,1.219.326.792.923,1.385,1.718,1.699.379.156.781.24,1.183.243.044.002.088.003.132.003.384,0,.76-.079,1.117-.236.794-.327,1.389-.935,1.701-1.751.153-.372.236-.774.24-1.174.021-.445-.058-.873-.233-1.274-.233-.566-.608-1.026-1.101-1.351.496-.348.869-.829,1.094-1.418.153-.373.236-.775.24-1.174.021-.445-.058-.873-.233-1.274-.233-.566-.608-1.026-1.101-1.351.496-.348.868-.829,1.094-1.418.153-.373.236-.775.24-1.175.021-.445-.058-.873-.233-1.274-.232-.565-.607-1.025-1.098-1.35.335-.233.616-.528.832-.876.12.182.26.354.421.514.605.605,1.377.926,2.234.926.864,0,1.618-.309,2.24-.919.169-.165.316-.343.44-.532.121.186.264.361.427.524.605.605,1.378.926,2.235.926s1.629-.32,2.235-.927c.157-.157.295-.325.413-.503.349.565.864.986,1.508,1.22l.069.025.071.015.845.174.1.021h.102c.412,0,.824-.084,1.225-.249.621-.256,1.114-.666,1.452-1.202.121.18.263.349.424.507.14.137.287.259.443.366-.156.107-.304.23-.444.367-.619.605-.946,1.381-.946,2.242s.328,1.636.947,2.243c.14.137.288.259.443.366-.156.107-.304.23-.444.367-.619.605-.946,1.381-.946,2.242s.328,1.636.947,2.243c.136.133.28.253.43.358-.154.108-.3.232-.438.37-.614.613-.939,1.39-.939,2.248s.328,1.636.947,2.243c.613.601,1.387.919,2.239.919s1.628-.32,2.235-.926c.607-.607.927-1.38.927-2.235s-.318-1.626-.919-2.24c-.139-.141-.286-.267-.441-.377.152-.107.297-.229.433-.365.607-.608.927-1.38.927-2.235s-.32-1.628-.926-2.235c-.14-.14-.289-.265-.446-.374.157-.109.305-.234.445-.373.607-.607.927-1.38.927-2.235s-.32-1.628-.926-2.235c-.14-.14-.289-.265-.446-.374.157-.109.305-.234.445-.373.607-.607.927-1.38.927-2.236s-.32-1.628-.926-2.235c-.137-.136-.281-.258-.434-.365.155-.11.302-.236.44-.377.602-.614.92-1.389.92-2.241s-.32-1.628-.926-2.235c-.135-.135-.278-.256-.429-.362.15-.106.293-.227.428-.361.607-.608.927-1.38.927-2.235s-.318-1.626-.919-2.24c-.608-.619-1.383-.946-2.243-.946s-1.633.325-2.247.939c-.614.613-.939,1.39-.939,2.248s.328,1.636.947,2.243c.134.132.276.25.425.354-.149.104-.291.223-.426.355-.619.606-.946,1.381-.946,2.242s.325,1.635.94,2.248c.138.138.284.261.437.369-.151.105-.295.225-.431.358-.166.162-.311.337-.434.522-.353-.55-.859-.96-1.489-1.202-.373-.153-.775-.236-1.177-.24-.045-.002-.091-.003-.136-.003-.396,0-.779.079-1.137.236-.606.25-1.09.662-1.417,1.206-.12-.182-.26-.353-.42-.513-.605-.606-1.378-.926-2.234-.926s-1.63.321-2.236.927c-.163.163-.305.338-.426.523-.124-.188-.271-.366-.439-.531-.624-.611-1.378-.92-2.241-.92-.856,0-1.629.321-2.235.927-.159.158-.298.328-.417.508-.224-.349-.515-.644-.863-.875.501-.341.884-.819,1.116-1.405.156-.381.24-.783.243-1.183.021-.429-.058-.85-.233-1.25-.236-.574-.621-1.045-1.125-1.38.501-.341.884-.819,1.115-1.405.156-.381.24-.783.244-1.183.021-.429-.058-.85-.233-1.25-.326-.792-.934-1.388-1.751-1.7-.372-.153-.774-.236-1.174-.24-.047-.002-.093-.003-.139-.003h0Z"
             fill="#445060"
             id="path4" />
        </g>
        <g
           id="g6">
          <path
             d="M70.168,38.648c-.729,0-1.365-.261-1.89-.777-.528-.518-.796-1.152-.796-1.885s.267-1.368.793-1.894c.375-.375.807-.618,1.288-.727-.48-.106-.91-.345-1.285-.712-.528-.518-.796-1.152-.796-1.885s.268-1.367.796-1.885c.389-.381.838-.624,1.341-.724-.502-.1-.952-.342-1.341-.724-.528-.518-.796-1.152-.796-1.885s.268-1.367.796-1.885c.389-.382.839-.624,1.341-.724-.503-.1-.953-.342-1.341-.724-.528-.518-.796-1.152-.796-1.885s.268-1.367.796-1.885c.375-.367.805-.605,1.285-.712-.482-.109-.914-.352-1.288-.727-.526-.526-.793-1.164-.793-1.894s.268-1.367.796-1.885c.374-.367.804-.605,1.283-.711-.479-.107-.909-.345-1.283-.712-.528-.518-.796-1.152-.796-1.885s.267-1.368.793-1.894c.375-.375.807-.618,1.288-.727-.48-.106-.91-.345-1.285-.712-.528-.518-.796-1.152-.796-1.885s.267-1.368.793-1.894c.526-.526,1.163-.792,1.894-.792s1.368.268,1.885.796c.484.493.744,1.083.774,1.758.03-.674.29-1.265.774-1.758.517-.528,1.151-.796,1.884-.796s1.367.267,1.894.792c.494.494.759,1.086.79,1.762.03-.674.29-1.265.774-1.758.517-.528,1.151-.796,1.885-.796s1.367.268,1.885.796c.515.525.776,1.161.776,1.891s-.263,1.364-.78,1.881c-.517.518-1.15.78-1.881.78s-1.365-.263-1.882-.78c-.486-.486-.748-1.074-.777-1.749-.03.677-.297,1.266-.792,1.752-.527.516-1.163.777-1.891.777s-1.364-.263-1.881-.78c-.486-.485-.747-1.073-.777-1.749-.03.675-.291,1.263-.777,1.749-.369.369-.796.608-1.277.715.482.109.911.354,1.28.73.516.525.777,1.161.777,1.891s-.263,1.364-.78,1.881c-.368.369-.795.608-1.274.715.479.107.906.346,1.274.715.518.517.78,1.15.78,1.881s-.261,1.366-.777,1.891c-.369.377-.797.621-1.28.73.48.107.908.346,1.276.715.486.485.747,1.073.777,1.749.03-.675.291-1.263.777-1.749.517-.518,1.15-.78,1.881-.78s1.364.261,1.891.776c.496.487.763,1.076.793,1.753.03-.675.291-1.264.777-1.749.517-.518,1.15-.78,1.882-.78s1.364.263,1.881.78c.518.517.78,1.15.78,1.881s-.263,1.365-.78,1.882c-.517.518-1.149.78-1.881.78s-1.365-.262-1.882-.78c-.486-.486-.748-1.074-.777-1.75-.03.678-.297,1.267-.792,1.753-.526.515-1.163.776-1.891.776s-1.364-.262-1.881-.78c-.486-.485-.747-1.073-.777-1.749-.03.676-.291,1.264-.777,1.749-.383.383-.83.627-1.333.727.503.101.95.344,1.333.728.518.517.78,1.15.78,1.882s-.263,1.364-.78,1.881c-.383.384-.83.627-1.333.728.503.1.95.344,1.333.727.518.517.78,1.15.78,1.882s-.263,1.364-.78,1.881c-.369.369-.796.608-1.277.715.482.109.911.354,1.28.73.516.525.777,1.161.777,1.891s-.263,1.364-.78,1.881c-.517.518-1.15.78-1.882.78ZM86.17,22.994c-.73,0-1.364-.262-1.882-.78-.518-.519-.78-1.151-.78-1.882s.262-1.363.78-1.881c.519-.518,1.152-.78,1.882-.78s1.363.262,1.882.78c.517.518.779,1.15.779,1.881s-.262,1.364-.779,1.882c-.519.518-1.151.78-1.882.78ZM91.512,17.802c-.731,0-1.369-.267-1.894-.792-.526-.525-.793-1.162-.793-1.894s.268-1.368.797-1.885c.374-.366.803-.604,1.282-.711-.479-.106-.909-.345-1.283-.711-.528-.517-.796-1.151-.796-1.885s.267-1.369.793-1.895c.525-.525,1.163-.792,1.893-.792s1.367.268,1.885.796c.516.526.777,1.162.777,1.891s-.262,1.363-.78,1.881c-.369.369-.796.608-1.275.715.479.107.906.347,1.275.715.518.519.78,1.152.78,1.882s-.261,1.364-.777,1.891c-.518.528-1.152.796-1.885.796ZM86.17,7.366c-.73,0-1.363-.262-1.882-.78-.518-.519-.78-1.151-.78-1.881s.261-1.364.776-1.891c.519-.528,1.153-.796,1.886-.796s1.367.268,1.885.796c.515.525.776,1.162.776,1.891s-.262,1.364-.779,1.881c-.519.518-1.152.78-1.882.78Z"
             fill="#1a77ff"
             id="path5" />
          <path
             d="M86.17,2.518c.597,0,1.105.215,1.528.646.422.431.633.944.633,1.541s-.211,1.105-.633,1.528c-.423.422-.932.634-1.528.634s-1.105-.211-1.528-.634c-.422-.422-.634-.932-.634-1.528s.212-1.11.634-1.541c.423-.431.932-.646,1.528-.646M80.829,2.518c.596,0,1.105.215,1.527.646.423.431.634.944.634,1.541s-.211,1.105-.634,1.528c-.422.422-.932.634-1.527.634s-1.106-.211-1.528-.634c-.423-.422-.634-.932-.634-1.528s.211-1.11.634-1.541c.422-.431.932-.646,1.528-.646M75.486,2.518c.597,0,1.109.215,1.541.646.431.431.646.944.646,1.541s-.215,1.105-.646,1.528c-.432.422-.944.634-1.541.634s-1.105-.211-1.527-.634c-.423-.422-.634-.932-.634-1.528s.211-1.11.634-1.541c.422-.431.932-.646,1.527-.646M70.168,2.518c.597,0,1.106.215,1.528.646.423.431.634.944.634,1.541s-.211,1.105-.634,1.528c-.422.422-.932.634-1.528.634s-1.109-.211-1.54-.634c-.431-.422-.646-.932-.646-1.528s.216-1.11.646-1.541c.431-.431.944-.646,1.54-.646M91.512,7.736c.597,0,1.105.215,1.528.646.422.431.634.944.634,1.541s-.212,1.105-.634,1.528c-.423.422-.932.634-1.528.634s-1.109-.211-1.54-.634c-.432-.422-.646-.932-.646-1.528s.215-1.11.646-1.541c.431-.431.944-.646,1.54-.646M70.168,7.736c.597,0,1.106.215,1.528.646.423.431.634.944.634,1.541s-.211,1.105-.634,1.528c-.422.422-.932.634-1.528.634s-1.109-.211-1.54-.634c-.431-.422-.646-.932-.646-1.528s.216-1.11.646-1.541c.431-.431.944-.646,1.54-.646M91.512,12.954c.597,0,1.105.211,1.528.634.422.422.634.932.634,1.528s-.212,1.11-.634,1.541c-.423.431-.932.646-1.528.646s-1.109-.215-1.54-.646c-.432-.431-.646-.944-.646-1.541s.215-1.105.646-1.528c.431-.422.944-.634,1.54-.634M70.168,12.954c.597,0,1.106.211,1.528.634.423.422.634.932.634,1.528s-.211,1.11-.634,1.541c-.422.431-.932.646-1.528.646s-1.109-.215-1.54-.646c-.431-.431-.646-.944-.646-1.541s.216-1.105.646-1.528c.431-.422.944-.634,1.54-.634M86.17,18.171c.597,0,1.105.211,1.528.634.422.422.633.932.633,1.528s-.211,1.106-.633,1.528c-.423.422-.932.633-1.528.633s-1.105-.211-1.528-.633c-.422-.422-.634-.932-.634-1.528s.212-1.105.634-1.528c.423-.422.932-.634,1.528-.634M80.829,18.171c.596,0,1.105.211,1.527.634.423.422.634.932.634,1.528s-.211,1.106-.634,1.528c-.422.422-.932.633-1.527.633s-1.106-.211-1.528-.633c-.423-.422-.634-.932-.634-1.528s.211-1.105.634-1.528c.422-.422.932-.634,1.528-.634M75.486,18.171c.597,0,1.109.211,1.541.634.431.422.646.932.646,1.528s-.215,1.106-.646,1.528c-.432.422-.944.633-1.541.633s-1.105-.211-1.527-.633c-.423-.422-.634-.932-.634-1.528s.211-1.105.634-1.528c.422-.422.932-.634,1.527-.634M70.168,18.171c.597,0,1.106.211,1.528.634.423.422.634.932.634,1.528s-.211,1.106-.634,1.528c-.422.422-.932.633-1.528.633s-1.109-.211-1.54-.633c-.431-.422-.646-.932-.646-1.528s.216-1.105.646-1.528c.431-.422.944-.634,1.54-.634M70.168,23.389c.597,0,1.106.211,1.528.634.423.422.634.932.634,1.528s-.211,1.105-.634,1.528c-.422.422-.932.634-1.528.634s-1.109-.211-1.54-.634c-.431-.422-.646-.932-.646-1.528s.216-1.106.646-1.528c.431-.422.944-.634,1.54-.634M70.168,28.607c.597,0,1.106.211,1.528.633.423.422.634.932.634,1.528s-.211,1.105-.634,1.528c-.422.422-.932.634-1.528.634s-1.109-.211-1.54-.634c-.431-.422-.646-.932-.646-1.528s.216-1.106.646-1.528c.431-.422.944-.633,1.54-.633M70.168,33.8c.597,0,1.106.215,1.528.646.423.431.634.944.634,1.541s-.211,1.105-.634,1.528c-.422.422-.932.634-1.528.634s-1.109-.211-1.54-.634c-.431-.422-.646-.932-.646-1.528s.216-1.11.646-1.541.944-.646,1.54-.646M86.17,1.518c-.859,0-1.635.327-2.242.945-.165.168-.308.348-.429.538-.122-.19-.265-.37-.43-.538-.606-.618-1.381-.945-2.241-.945s-1.636.327-2.243.946c-.16.163-.3.338-.42.523-.123-.187-.267-.365-.432-.53-.616-.615-1.393-.939-2.248-.939-.86,0-1.635.327-2.242.946-.159.162-.298.335-.417.518-.119-.183-.258-.356-.417-.519-.606-.618-1.381-.945-2.242-.945-.856,0-1.633.325-2.247.939-.615.615-.939,1.392-.939,2.248s.327,1.635.946,2.242c.136.134.28.253.431.358-.154.108-.3.232-.438.37-.615.615-.939,1.392-.939,2.248s.327,1.635.946,2.242c.135.132.277.25.426.355-.149.104-.292.223-.426.355-.619.607-.946,1.382-.946,2.242s.325,1.633.939,2.248c.138.138.284.262.438.37-.151.105-.295.225-.431.358-.619.607-.946,1.382-.946,2.242s.327,1.635.946,2.242c.14.137.288.26.444.367-.156.107-.304.23-.444.367-.619.607-.946,1.382-.946,2.242s.327,1.635.946,2.242c.14.137.288.26.444.367-.156.107-.304.23-.444.367-.619.607-.946,1.383-.946,2.242s.327,1.635.946,2.242c.136.134.28.253.431.358-.154.108-.3.232-.438.37-.615.615-.939,1.392-.939,2.248s.327,1.635.946,2.242c.614.602,1.388.92,2.24.92.857,0,1.63-.321,2.236-.927.606-.605.926-1.378.926-2.235s-.318-1.628-.92-2.241c-.138-.141-.285-.266-.439-.377.152-.107.297-.229.433-.365.606-.605.926-1.378.926-2.235s-.321-1.63-.927-2.236c-.14-.14-.288-.264-.445-.373.157-.109.306-.234.446-.374.606-.605.926-1.378.926-2.235s-.321-1.63-.927-2.236c-.14-.14-.288-.264-.445-.373.157-.109.306-.234.446-.374.162-.161.303-.335.423-.519.121.184.262.358.424.52.605.605,1.377.926,2.234.926.864,0,1.618-.309,2.24-.919.169-.165.316-.343.44-.532.121.186.264.361.427.524.605.605,1.378.926,2.235.926s1.629-.32,2.235-.927c.167-.167.313-.347.436-.538.123.191.268.371.435.538.607.606,1.38.927,2.236.927s1.629-.32,2.235-.926c.606-.607.926-1.38.926-2.236s-.32-1.628-.925-2.235c-.607-.607-1.38-.927-2.236-.927s-1.628.32-2.235.926c-.167.168-.313.348-.436.539-.123-.191-.269-.371-.437-.539-.605-.606-1.378-.926-2.234-.926s-1.63.321-2.236.927c-.163.163-.305.338-.426.523-.124-.188-.271-.366-.439-.531-.624-.611-1.378-.92-2.241-.92-.856,0-1.629.321-2.235.927-.162.161-.303.335-.423.519-.121-.184-.262-.358-.424-.52-.136-.136-.28-.258-.432-.365.155-.11.302-.237.44-.378.601-.612.919-1.387.919-2.24s-.321-1.63-.927-2.235c-.134-.135-.277-.255-.427-.361.15-.106.293-.227.428-.362.606-.605.926-1.378.926-2.235s-.318-1.628-.92-2.241c-.138-.141-.285-.266-.439-.377.152-.107.297-.229.433-.365.162-.161.303-.335.423-.519.121.184.262.358.424.52.605.606,1.378.926,2.234.926.863,0,1.617-.309,2.24-.919.169-.165.316-.343.44-.532.121.186.264.361.427.524.605.606,1.378.926,2.235.926s1.629-.321,2.235-.927c.167-.167.313-.347.436-.538.123.191.268.371.435.538.608.607,1.38.927,2.236.927s1.628-.32,2.235-.926c.606-.607.926-1.38.926-2.235s-.318-1.627-.918-2.24c-.608-.619-1.383-.946-2.243-.946h0ZM91.512,6.736c-.856,0-1.633.325-2.247.939-.614.613-.939,1.39-.939,2.248s.327,1.636.947,2.243c.134.132.276.25.425.354-.149.104-.291.223-.426.355-.619.605-.946,1.381-.946,2.242s.325,1.635.94,2.248c.613.613,1.39.938,2.246.938s1.635-.327,2.242-.946c.602-.614.92-1.389.92-2.241s-.32-1.628-.926-2.235c-.135-.135-.278-.256-.429-.362.15-.106.293-.227.428-.361.607-.607.927-1.38.927-2.235s-.318-1.626-.919-2.24c-.608-.619-1.383-.946-2.243-.946h0Z"
             fill="#445060"
             id="path6" />
        </g>
        <g
           id="g8">
          <path
             d="M124.26,38.648c-.554,0-1.063-.166-1.512-.494-.586-.424-.947-1.009-1.068-1.738-.022-.173-.031-.326-.031-.48,0-.554.166-1.063.494-1.512.384-.549.906-.906,1.551-1.056-.337-.075-.654-.22-.945-.432-.586-.424-.947-1.009-1.068-1.738-.022-.173-.031-.326-.031-.48,0-.554.166-1.062.493-1.512.399-.551.94-.902,1.607-1.043-.359-.072-.694-.221-1.001-.445-.586-.423-.947-1.009-1.068-1.737-.022-.173-.031-.326-.031-.48,0-.554.166-1.062.493-1.512.4-.552.941-.903,1.608-1.044-.359-.071-.694-.22-1.002-.444-.586-.423-.947-1.009-1.068-1.737-.022-.173-.031-.327-.031-.48,0-.554.166-1.062.493-1.512.4-.552.941-.903,1.608-1.044-.359-.071-.694-.22-1.002-.444-.586-.423-.947-1.009-1.068-1.737-.022-.174-.031-.327-.031-.48,0-.554.166-1.062.493-1.512.4-.552.94-.903,1.608-1.044-.359-.071-.694-.22-1.002-.444-.586-.424-.947-1.009-1.068-1.738-.022-.173-.031-.326-.031-.48,0-.554.166-1.063.494-1.512.394-.544.925-.893,1.58-1.038-.15-.035-.299-.083-.447-.144-.677-.239-1.178-.718-1.464-1.416-.143-.325-.207-.686-.186-1.062,0-.319.07-.667.21-1.007.262-.683.748-1.18,1.44-1.465.284-.125.592-.189.905-.189,0,0,.139.004.141.004.313,0,.66.071.999.21.668.263,1.155.748,1.441,1.439.139.32.211.663.211,1.011,0,.344-.071.691-.211,1.034-.242.664-.721,1.155-1.416,1.441-.136.06-.278.106-.425.141.339.075.657.22.951.433.589.426.949,1.011,1.069,1.74l.053.417c.004.621-.173,1.133-.522,1.585-.393.542-.934.892-1.602,1.033.358.071.693.22,1.002.443.589.427.949,1.012,1.069,1.74l.053.417c.004.621-.173,1.133-.522,1.585-.393.542-.933.892-1.601,1.033.358.071.693.22,1.002.443.589.427.949,1.012,1.069,1.74l.052.407c.005.63-.172,1.143-.521,1.595-.393.541-.933.892-1.601,1.033.358.071.693.22,1.001.443.588.426.948,1.011,1.068,1.739l.053.417c.004.621-.173,1.133-.522,1.585-.393.542-.934.892-1.602,1.033.358.071.694.22,1.002.443.588.426.948,1.011,1.068,1.739l.053.417c.004.621-.173,1.133-.522,1.585-.391.538-.927.888-1.589,1.03.349.081.675.228.981.439.601.456.958,1.038,1.077,1.743l.053.42c.004.62-.173,1.133-.522,1.585-.418.577-1.004.937-1.731,1.057-.173.022-.326.032-.479.032ZM102.966,38.648c-.729,0-1.365-.261-1.89-.777-.528-.518-.796-1.152-.796-1.885s.267-1.368.793-1.894c.375-.375.807-.618,1.288-.727-.48-.106-.91-.345-1.285-.712-.528-.518-.796-1.152-.796-1.885s.268-1.367.796-1.885c.389-.381.838-.624,1.341-.724-.502-.1-.952-.342-1.341-.724-.528-.518-.796-1.152-.796-1.885s.268-1.367.796-1.885c.389-.382.839-.624,1.341-.724-.503-.1-.953-.342-1.341-.724-.528-.518-.796-1.152-.796-1.885s.268-1.367.796-1.885c.375-.367.805-.605,1.285-.712-.482-.109-.914-.352-1.288-.727-.526-.526-.793-1.164-.793-1.894s.268-1.367.796-1.885c.374-.367.804-.605,1.283-.711-.479-.107-.909-.345-1.283-.712-.528-.518-.796-1.152-.796-1.885s.267-1.368.793-1.894c.375-.375.807-.618,1.288-.727-.48-.106-.91-.345-1.285-.712-.528-.518-.796-1.152-.796-1.885s.267-1.368.793-1.894c.526-.526,1.163-.792,1.894-.792s1.368.268,1.886.796c.515.525.776,1.161.776,1.891s-.263,1.364-.78,1.881c-.369.369-.796.608-1.277.715.482.109.911.354,1.281.73.515.525.776,1.161.776,1.891s-.263,1.364-.78,1.882c-.368.368-.795.607-1.274.715.479.107.906.346,1.275.715.517.517.78,1.15.78,1.881s-.261,1.366-.777,1.891c-.369.377-.797.621-1.28.73.48.107.908.346,1.276.715.484.483.745,1.068.777,1.739.022-.506.185-.98.485-1.411.454-.6,1.045-.957,1.769-1.077.174-.021.327-.032.48-.032.552,0,1.061.166,1.511.493.588.426.948,1.011,1.069,1.738l.031.246c.041-.654.301-1.224.774-1.698.517-.517,1.15-.78,1.882-.78s1.364.263,1.881.78c.518.517.78,1.15.78,1.881s-.263,1.365-.78,1.882c-.517.518-1.149.78-1.881.78s-1.365-.262-1.882-.78c-.449-.449-.706-.985-.766-1.598-.046.493-.218.912-.509,1.289-.417.576-1.001.936-1.729,1.057-.174.022-.328.031-.48.031-.57,0-1.087-.166-1.537-.493-.605-.423-.968-1.015-1.071-1.751-.013-.104-.021-.203-.026-.295-.028.68-.289,1.272-.778,1.76-.383.383-.83.627-1.333.727.503.101.95.344,1.333.728.518.517.78,1.15.78,1.882s-.263,1.364-.78,1.881c-.383.384-.83.627-1.333.728.503.1.95.344,1.333.727.517.517.78,1.15.78,1.882s-.263,1.364-.78,1.882c-.369.369-.796.608-1.277.715.482.109.911.354,1.281.73.515.525.776,1.161.776,1.891s-.263,1.364-.78,1.881c-.517.518-1.15.78-1.882.78ZM118.968,22.994c-.731,0-1.364-.262-1.882-.78-.518-.519-.78-1.151-.78-1.882s.262-1.363.78-1.881c.519-.518,1.151-.78,1.882-.78s1.363.262,1.882.78c.517.518.779,1.151.779,1.882s-.262,1.364-.779,1.882c-.519.518-1.151.78-1.882.78Z"
             fill="#1a77ff"
             id="path7" />
          <path
             d="M124.18,2.515c.035,0,.07.001.106.003.281,0,.562.058.845.174.547.215.936.605,1.168,1.168.115.265.174.538.174.82s-.059.563-.174.845c-.199.546-.58.936-1.144,1.168-.265.116-.546.174-.845.174-.281,0-.563-.058-.845-.174-.563-.199-.961-.58-1.192-1.143-.116-.265-.166-.547-.149-.845,0-.282.058-.563.174-.845.216-.563.604-.961,1.168-1.193.232-.101.47-.152.715-.152M102.966,2.518c.597,0,1.106.215,1.528.646.423.431.634.944.634,1.541s-.211,1.105-.634,1.528c-.422.422-.932.634-1.528.634s-1.109-.211-1.54-.634c-.431-.422-.646-.932-.646-1.528s.216-1.11.646-1.541.944-.646,1.54-.646M124.36,7.736c.447,0,.853.133,1.218.397.48.348.771.82.869,1.416.017.132.033.265.05.397,0,.447-.141.853-.422,1.217-.349.481-.82.771-1.417.87-.133.017-.265.025-.397.025-.447,0-.854-.132-1.217-.397-.481-.348-.771-.82-.87-1.417-.017-.132-.024-.265-.024-.397,0-.447.132-.853.397-1.217.348-.48.819-.771,1.416-.87.133-.017.265-.025.397-.025M102.966,7.736c.597,0,1.106.215,1.528.646.423.431.634.944.634,1.541s-.211,1.105-.634,1.528c-.422.422-.932.634-1.528.634s-1.109-.211-1.54-.634c-.431-.422-.646-.932-.646-1.528s.216-1.11.646-1.541c.431-.431.944-.646,1.54-.646M124.36,12.954c.447,0,.853.133,1.218.397.48.348.771.82.869,1.417.017.133.033.265.05.397,0,.447-.141.854-.422,1.217-.349.481-.82.771-1.417.87-.133.017-.265.025-.397.025-.447,0-.854-.132-1.217-.397-.481-.348-.771-.82-.87-1.416-.017-.133-.024-.265-.024-.398,0-.447.132-.853.397-1.217.348-.48.819-.771,1.416-.87.133-.017.265-.025.397-.025M102.966,12.954c.597,0,1.106.211,1.528.634.423.422.634.932.634,1.528s-.211,1.11-.634,1.541c-.422.431-.932.646-1.528.646s-1.109-.215-1.54-.646c-.431-.431-.646-.944-.646-1.541s.216-1.105.646-1.528c.431-.422.944-.634,1.54-.634M124.36,18.171c.447,0,.853.133,1.218.397.48.348.771.82.869,1.417.017.133.033.265.05.397,0,.447-.141.854-.422,1.218-.349.48-.82.77-1.417.87-.133.017-.265.024-.397.024-.447,0-.854-.132-1.217-.397-.481-.348-.771-.82-.87-1.416-.017-.132-.024-.265-.024-.397,0-.447.132-.853.397-1.218.348-.48.819-.77,1.416-.87.133-.016.265-.025.397-.025M118.968,18.171c.597,0,1.105.211,1.528.634.422.422.633.932.633,1.528s-.211,1.106-.633,1.528c-.423.422-.932.633-1.528.633s-1.105-.211-1.528-.633c-.422-.422-.634-.932-.634-1.528s.212-1.105.634-1.528c.423-.422.932-.634,1.528-.634M113.626,18.171c.596,0,1.105.211,1.527.634.423.422.634.932.634,1.528s-.211,1.106-.634,1.528c-.422.422-.932.633-1.527.633s-1.106-.211-1.528-.633c-.423-.422-.634-.932-.634-1.528s.211-1.105.634-1.528c.422-.422.932-.634,1.528-.634M108.359,18.171c.447,0,.853.133,1.217.397.48.348.771.82.87,1.417.017.133.033.265.05.397,0,.447-.142.854-.423,1.218-.348.48-.819.77-1.416.87-.133.017-.266.024-.397.024-.464,0-.878-.132-1.242-.397-.497-.348-.787-.82-.87-1.416-.017-.132-.024-.257-.024-.373,0-.447.132-.861.397-1.242.364-.48.845-.77,1.441-.87.132-.016.265-.025.397-.025M102.966,18.171c.597,0,1.106.211,1.528.634.423.422.634.932.634,1.528s-.211,1.106-.634,1.528c-.422.422-.932.633-1.528.633s-1.109-.211-1.54-.633c-.431-.422-.646-.932-.646-1.528s.216-1.105.646-1.528c.431-.422.944-.634,1.54-.634M124.36,23.389c.447,0,.853.133,1.218.398.48.348.771.82.869,1.416.017.133.033.265.05.397,0,.447-.141.854-.422,1.218-.349.48-.82.77-1.417.87-.133.017-.265.025-.397.025-.447,0-.854-.132-1.217-.398-.481-.348-.771-.82-.87-1.416-.017-.132-.024-.265-.024-.397,0-.447.132-.853.397-1.218.348-.48.819-.77,1.416-.87.133-.016.265-.025.397-.025M102.966,23.389c.597,0,1.106.211,1.528.634.423.422.634.932.634,1.528s-.211,1.105-.634,1.528c-.422.422-.932.634-1.528.634s-1.109-.211-1.54-.634c-.431-.422-.646-.932-.646-1.528s.216-1.106.646-1.528c.431-.422.944-.634,1.54-.634M124.36,28.607c.447,0,.853.132,1.218.397.48.348.771.82.869,1.416.017.133.033.265.05.397,0,.447-.141.854-.422,1.218-.349.48-.82.77-1.417.87-.133.017-.265.025-.397.025-.447,0-.854-.132-1.217-.397-.481-.348-.771-.82-.87-1.417-.017-.132-.024-.265-.024-.397,0-.447.132-.853.397-1.218.348-.48.819-.77,1.416-.87.133-.016.265-.024.397-.024M102.966,28.607c.597,0,1.106.211,1.528.633.423.422.634.932.634,1.528s-.211,1.105-.634,1.528c-.422.422-.932.634-1.528.634s-1.109-.211-1.54-.634c-.431-.422-.646-.932-.646-1.528s.216-1.106.646-1.528c.431-.422.944-.633,1.54-.633M124.335,33.8c.447.017.86.158,1.242.422.48.365.771.836.869,1.416.017.133.033.266.05.398,0,.447-.141.853-.422,1.217-.349.48-.82.77-1.417.87-.133.017-.265.025-.397.025-.447,0-.854-.132-1.217-.397-.481-.348-.771-.82-.87-1.417-.017-.132-.024-.265-.024-.397,0-.447.132-.853.397-1.217.348-.497.819-.795,1.416-.895.133-.017.257-.025.373-.025M102.966,33.8c.597,0,1.106.215,1.528.646.423.431.634.944.634,1.541s-.211,1.105-.634,1.528c-.422.422-.932.634-1.528.634s-1.109-.211-1.54-.634c-.431-.422-.646-.932-.646-1.528s.216-1.11.646-1.541c.431-.431.944-.646,1.54-.646M124.18,1.515h0c-.382,0-.758.079-1.115.236-.793.326-1.388.935-1.701,1.751-.153.369-.236.772-.24,1.175-.021.445.058.874.234,1.275.235.572.616,1.035,1.116,1.361-.282.198-.528.443-.737.732-.389.533-.587,1.141-.587,1.803,0,.174.01.348.032.522.15.903.577,1.597,1.276,2.102.016.012.033.024.049.035-.295.202-.553.455-.77.755-.389.534-.587,1.142-.587,1.803,0,.174.01.348.032.522.148.892.588,1.605,1.277,2.103.016.012.033.024.049.035-.296.202-.553.454-.771.754-.036.049-.07.099-.102.149-.122-.188-.265-.365-.43-.53-.607-.607-1.38-.927-2.236-.927s-1.628.32-2.235.926c-.167.168-.313.348-.436.539-.123-.191-.269-.371-.437-.539-.605-.606-1.378-.926-2.234-.926s-1.63.321-2.236.927c-.16.16-.3.331-.42.513-.21-.33-.481-.615-.808-.853-.536-.39-1.144-.588-1.804-.588-.173,0-.347.011-.519.032-.897.149-1.595.57-2.117,1.258-.035.05-.069.101-.101.152-.12-.183-.261-.355-.421-.515-.136-.136-.28-.258-.432-.365.155-.11.302-.237.44-.378.601-.612.919-1.387.919-2.24s-.321-1.63-.927-2.235c-.134-.135-.277-.255-.427-.361.15-.106.293-.227.428-.362.606-.605.926-1.378.926-2.235s-.318-1.628-.92-2.241c-.138-.141-.285-.266-.439-.377.152-.107.297-.229.433-.365.606-.605.926-1.378.926-2.235s-.318-1.628-.92-2.241c-.606-.618-1.381-.945-2.242-.945-.856,0-1.633.325-2.247.939-.615.615-.939,1.392-.939,2.248s.327,1.635.946,2.242c.136.134.28.253.431.358-.154.108-.3.232-.438.37-.615.615-.939,1.392-.939,2.248s.327,1.635.946,2.242c.135.132.277.25.426.355-.149.104-.291.223-.426.355-.619.607-.946,1.382-.946,2.242s.325,1.633.939,2.248c.138.138.284.262.438.37-.151.105-.295.225-.431.358-.619.607-.946,1.382-.946,2.242s.327,1.635.946,2.242c.14.137.288.26.444.367-.156.107-.304.23-.444.367-.619.607-.946,1.382-.946,2.242s.327,1.635.946,2.242c.14.137.288.26.444.367-.156.107-.304.23-.444.367-.619.607-.946,1.382-.946,2.242s.327,1.635.946,2.242c.136.134.28.253.431.358-.154.108-.3.232-.438.37-.615.615-.939,1.392-.939,2.248s.327,1.635.946,2.242c.614.602,1.388.92,2.24.92.857,0,1.63-.321,2.236-.927.606-.605.926-1.378.926-2.235s-.318-1.628-.92-2.241c-.138-.141-.285-.266-.439-.377.152-.107.297-.229.433-.365.606-.605.926-1.378.926-2.235s-.321-1.63-.927-2.236c-.14-.14-.288-.264-.445-.373.157-.109.306-.234.446-.374.606-.605.926-1.378.926-2.235s-.321-1.63-.927-2.236c-.14-.14-.288-.264-.445-.373.157-.109.306-.234.446-.374.157-.157.295-.325.413-.502.212.328.49.614.829.851.522.38,1.137.578,1.815.578.173,0,.347-.01.522-.032.891-.148,1.604-.587,2.102-1.276.032-.041.063-.083.092-.126.119.18.258.349.416.508.605.605,1.378.926,2.235.926s1.629-.32,2.235-.927c.167-.167.313-.347.436-.538.123.191.268.371.435.538.607.606,1.38.927,2.236.927s1.629-.32,2.235-.926c.166-.166.31-.344.432-.534.212.339.488.631.822.873.016.012.033.024.049.035-.296.202-.553.454-.771.754-.389.535-.588,1.142-.588,1.804,0,.174.01.348.032.522.148.891.588,1.605,1.277,2.102.016.012.033.024.049.035-.296.202-.553.454-.77.754-.389.535-.588,1.142-.588,1.804,0,.174.01.348.032.522.148.891.587,1.604,1.276,2.102.012.009.025.018.037.027-.295.208-.551.467-.768.776-.38.52-.578,1.128-.578,1.79,0,.174.01.348.032.522.15.903.577,1.597,1.276,2.102.533.389,1.14.587,1.803.587.174,0,.347-.011.522-.033.889-.147,1.602-.586,2.102-1.275.4-.518.613-1.133.613-1.805v-.062l-.008-.062-.042-.337-.008-.061c-.149-.878-.569-1.566-1.257-2.088-.022-.016-.045-.031-.068-.046.293-.201.549-.453.769-.757.4-.518.612-1.133.612-1.805v-.062l-.008-.062-.05-.397c-.146-.89-.585-1.603-1.275-2.102-.016-.011-.031-.023-.047-.034.292-.2.547-.452.767-.755.4-.518.612-1.133.612-1.805v-.062l-.008-.062-.05-.397c-.146-.89-.585-1.603-1.275-2.102-.016-.011-.031-.023-.047-.034.292-.2.548-.452.767-.755.4-.518.612-1.133.612-1.805v-.062l-.008-.062-.05-.397c-.146-.889-.585-1.603-1.275-2.102-.017-.012-.033-.024-.05-.036.295-.202.553-.454.77-.754.4-.517.612-1.132.612-1.804v-.062l-.008-.062-.05-.397c-.146-.889-.585-1.602-1.275-2.102-.017-.012-.034-.024-.05-.036.295-.202.553-.454.77-.754.4-.517.612-1.133.612-1.804v-.062l-.008-.062-.023-.185-.027-.212c-.146-.889-.585-1.603-1.275-2.102-.011-.008-.022-.016-.033-.023.508-.346.888-.834,1.107-1.433.151-.367.234-.778.234-1.187,0-.417-.086-.826-.257-1.218-.327-.793-.924-1.387-1.719-1.7-.38-.156-.782-.239-1.182-.243-.045-.002-.09-.003-.135-.003h0Z"
             fill="#445060"
             id="path8" />
        </g>
        <g
           id="g10">
          <path
             d="M146.425,38.648c-.731,0-1.365-.263-1.882-.78-.486-.486-.748-1.074-.777-1.749-.03.677-.297,1.266-.792,1.752-.527.516-1.163.777-1.891.777s-1.364-.263-1.881-.78c-.449-.449-.707-.985-.767-1.597-.046.49-.218.91-.509,1.288-.417.576-1.002.936-1.73,1.057-.173.022-.327.032-.479.032-.554,0-1.062-.166-1.512-.493-.587-.426-.947-1.011-1.069-1.738-.022-.173-.031-.326-.031-.48,0-.554.166-1.063.494-1.512.42-.601,1.007-.972,1.738-1.093,0,0,.401-.052.409-.052.62,0,1.134.186,1.596.549.577.438.934,1.02,1.055,1.725l.031.251c.04-.654.299-1.229.771-1.709.369-.377.798-.621,1.28-.73-.48-.107-.908-.346-1.276-.715-.518-.517-.78-1.15-.78-1.881s.263-1.365.78-1.882c.383-.383.83-.627,1.333-.727-.503-.101-.95-.344-1.333-.728-.517-.517-.78-1.15-.78-1.881s.263-1.365.78-1.882c.383-.383.83-.626,1.333-.727-.503-.1-.95-.344-1.333-.727-.518-.517-.78-1.15-.78-1.882s.263-1.364.78-1.881c.369-.369.796-.608,1.276-.715-.482-.109-.911-.354-1.28-.731-.515-.524-.776-1.161-.776-1.89s.263-1.364.78-1.881c.368-.369.795-.608,1.274-.715-.479-.107-.906-.346-1.274-.715-.518-.517-.78-1.15-.78-1.881s.261-1.366.777-1.891c.369-.377.798-.621,1.28-.73-.48-.107-.908-.346-1.277-.715-.449-.449-.706-.985-.766-1.597-.046.491-.218.911-.509,1.289-.417.576-1.001.936-1.729,1.057-.175.022-.321.032-.456.032h-.019c-.543-.021-1.051-.193-1.509-.512-.599-.454-.956-1.036-1.077-1.742-.022-.175-.032-.328-.032-.482,0-.554.166-1.063.494-1.512.425-.587,1.01-.947,1.738-1.068.175-.022.319-.032.455-.032.549,0,1.062.164,1.527.487.6.455.957,1.045,1.078,1.769l.031.249c.04-.654.299-1.228.771-1.709.517-.528,1.151-.796,1.884-.796s1.367.267,1.894.792c.494.494.759,1.086.79,1.762.03-.674.29-1.265.774-1.758.517-.528,1.151-.796,1.885-.796s1.367.268,1.885.796c.515.525.776,1.161.776,1.891s-.263,1.364-.78,1.881c-.517.518-1.15.78-1.881.78s-1.365-.263-1.882-.78c-.486-.486-.748-1.074-.777-1.749-.03.677-.297,1.266-.792,1.752-.375.367-.806.605-1.286.712.482.109.914.352,1.289.727.526.526.792,1.163.792,1.895s-.268,1.367-.795,1.885c-.375.367-.805.605-1.284.711.479.107.909.345,1.283.711.528.518.796,1.152.796,1.885s-.267,1.369-.792,1.894c-.375.375-.807.618-1.289.727.479.106.91.345,1.285.711.528.518.796,1.152.796,1.885s-.268,1.368-.795,1.885c-.39.381-.84.624-1.343.724.503.1.953.342,1.342.724.528.518.796,1.152.796,1.886s-.268,1.367-.795,1.885c-.39.382-.84.624-1.343.724.503.1.953.342,1.342.723.528.518.796,1.152.796,1.886s-.268,1.367-.795,1.885c-.375.367-.806.605-1.286.712.482.109.914.352,1.289.727.494.494.759,1.086.79,1.762.03-.674.29-1.265.774-1.758.517-.528,1.151-.796,1.885-.796s1.367.268,1.885.796c.515.525.776,1.161.776,1.891s-.263,1.364-.78,1.881c-.517.518-1.15.78-1.881.78Z"
             fill="#1a77ff"
             id="path9" />
          <path
             d="M146.425,2.518c.596,0,1.105.215,1.527.646.423.431.634.944.634,1.541s-.211,1.105-.634,1.528c-.422.422-.932.634-1.527.634s-1.106-.211-1.528-.634c-.423-.422-.634-.932-.634-1.528s.211-1.11.634-1.541c.422-.431.932-.646,1.528-.646M141.082,2.518c.597,0,1.109.215,1.541.646.431.431.646.944.646,1.541s-.215,1.105-.646,1.528c-.432.422-.944.634-1.541.634s-1.105-.211-1.527-.634c-.423-.422-.634-.932-.634-1.528s.211-1.11.634-1.541c.422-.431.932-.646,1.527-.646M135.79,2.518c.447,0,.861.133,1.242.397.48.364.771.845.87,1.441.016.133.032.265.049.397,0,.447-.141.854-.422,1.218-.348.48-.82.77-1.416.87-.133.017-.258.025-.373.025-.447-.017-.861-.157-1.242-.422-.48-.364-.771-.836-.87-1.417-.017-.132-.024-.265-.024-.397,0-.447.132-.853.397-1.217.348-.48.82-.771,1.416-.87.133-.017.257-.025.373-.025M141.082,7.736c.597,0,1.109.215,1.541.646.431.431.646.944.646,1.541s-.215,1.105-.646,1.528c-.432.422-.944.634-1.541.634s-1.105-.211-1.527-.634c-.423-.422-.634-.932-.634-1.528s.211-1.11.634-1.541c.422-.431.932-.646,1.527-.646M141.082,12.954c.597,0,1.109.211,1.541.634.431.422.646.932.646,1.528s-.215,1.11-.646,1.541c-.432.431-.944.646-1.541.646s-1.105-.215-1.527-.646c-.423-.431-.634-.944-.634-1.541s.211-1.105.634-1.528c.422-.422.932-.634,1.527-.634M141.082,18.171c.597,0,1.109.211,1.541.634.431.422.646.932.646,1.528s-.215,1.106-.646,1.528c-.432.422-.944.633-1.541.633s-1.105-.211-1.527-.633c-.423-.422-.634-.932-.634-1.528s.211-1.105.634-1.528c.422-.422.932-.634,1.527-.634M141.082,23.389c.597,0,1.109.211,1.541.634.431.422.646.932.646,1.528s-.215,1.105-.646,1.528c-.432.422-.944.634-1.541.634s-1.105-.211-1.527-.634c-.423-.422-.634-.932-.634-1.528s.211-1.106.634-1.528c.422-.422.932-.634,1.527-.634M141.082,28.607c.597,0,1.109.211,1.541.633.431.422.646.932.646,1.528s-.215,1.105-.646,1.528c-.432.422-.944.634-1.541.634s-1.105-.211-1.527-.634c-.423-.422-.634-.932-.634-1.528s.211-1.106.634-1.528c.422-.422.932-.633,1.527-.633M135.79,33.775c.447,0,.861.149,1.242.447.48.365.771.836.87,1.416.016.133.032.266.049.398,0,.447-.141.853-.422,1.217-.348.48-.82.771-1.416.87-.133.017-.266.025-.397.025-.447,0-.854-.132-1.218-.397-.48-.348-.771-.82-.87-1.417-.017-.132-.024-.265-.024-.397,0-.447.132-.853.397-1.217.348-.497.82-.795,1.416-.895.133-.017.257-.033.373-.05M146.425,33.8c.596,0,1.105.215,1.527.646.423.431.634.944.634,1.541s-.211,1.105-.634,1.528c-.422.422-.932.634-1.527.634s-1.106-.211-1.528-.634c-.423-.422-.634-.932-.634-1.528s.211-1.11.634-1.541c.422-.431.932-.646,1.528-.646M141.082,33.8c.597,0,1.109.215,1.541.646.431.431.646.944.646,1.541s-.215,1.105-.646,1.528c-.432.422-.944.634-1.541.634s-1.105-.211-1.527-.634c-.423-.422-.634-.932-.634-1.528s.211-1.11.634-1.541c.422-.431.932-.646,1.527-.646M146.425,1.518c-.861,0-1.636.327-2.243.946-.16.163-.3.338-.42.523-.123-.187-.267-.365-.432-.53-.616-.615-1.393-.939-2.248-.939-.86,0-1.635.327-2.242.946-.156.159-.294.329-.411.509-.205-.326-.47-.61-.793-.855-.584-.407-1.194-.601-1.846-.601-.155,0-.32.011-.497.033-.89.147-1.603.586-2.102,1.276-.389.533-.587,1.141-.587,1.803,0,.174.01.348.032.522.15.88.571,1.568,1.258,2.089.572.399,1.169.601,1.809.625.006,0,.012,0,.018,0,.183,0,.345-.011.517-.032.891-.148,1.604-.587,2.102-1.276.032-.041.063-.083.092-.126.119.18.258.349.416.508.136.136.28.258.432.365-.155.11-.302.236-.44.377-.601.612-.919,1.387-.919,2.24s.321,1.63.927,2.235c.134.135.277.255.427.361-.15.106-.293.227-.428.362-.606.605-.926,1.378-.926,2.235s.318,1.628.92,2.241c.138.141.284.267.439.377-.152.107-.297.229-.433.365-.606.605-.926,1.378-.926,2.235s.321,1.63.927,2.236c.14.14.288.264.445.373-.157.109-.306.234-.446.374-.606.605-.926,1.378-.926,2.235s.321,1.63.927,2.235c.14.14.288.264.445.373-.157.109-.306.234-.446.374-.606.605-.926,1.378-.926,2.235s.321,1.63.927,2.235c.136.136.28.258.432.365-.155.11-.302.236-.44.377-.159.162-.298.335-.416.517-.204-.314-.466-.594-.787-.838-.547-.429-1.173-.651-1.847-.651h-.071l-.07.01c-.111.016-.229.032-.356.047-.896.148-1.613.601-2.111,1.314-.38.52-.578,1.128-.578,1.79,0,.174.01.348.032.522.148.89.587,1.603,1.276,2.102.535.39,1.143.588,1.805.588.173,0,.347-.011.521-.033.89-.147,1.603-.586,2.102-1.276.032-.041.063-.083.092-.126.119.18.258.349.416.508.605.606,1.378.926,2.234.926.863,0,1.617-.309,2.24-.919.169-.165.316-.343.44-.532.121.186.264.361.427.524.605.606,1.378.926,2.235.926s1.629-.321,2.235-.927c.606-.605.926-1.378.926-2.235s-.318-1.628-.92-2.241c-.606-.618-1.381-.945-2.241-.945s-1.636.327-2.243.946c-.16.163-.3.338-.42.523-.123-.187-.267-.365-.432-.53-.138-.138-.284-.261-.437-.369.149-.105.293-.224.43-.359.619-.607.946-1.382.946-2.243s-.327-1.636-.945-2.242c-.141-.138-.288-.26-.441-.367.153-.107.3-.229.441-.366.619-.607.946-1.383.946-2.243s-.327-1.636-.945-2.242c-.141-.138-.288-.26-.441-.367.153-.107.3-.229.441-.366.619-.607.946-1.383.946-2.243s-.327-1.635-.945-2.242c-.137-.134-.281-.254-.43-.359.153-.108.299-.231.437-.369.614-.614.939-1.392.939-2.248s-.327-1.635-.945-2.242c-.135-.132-.277-.251-.424-.355.147-.104.288-.222.423-.354.619-.607.946-1.382.946-2.243s-.324-1.634-.938-2.248c-.138-.138-.284-.261-.437-.369.149-.105.293-.224.43-.359.169-.165.316-.343.44-.532.121.186.264.361.427.524.605.606,1.378.926,2.235.926s1.629-.321,2.235-.927c.606-.605.926-1.378.926-2.235s-.318-1.628-.92-2.241c-.606-.618-1.381-.945-2.241-.945h0Z"
             fill="#445060"
             id="path10" />
        </g>
        <g
           id="g12">
          <path
             d="M179.222,38.648c-.729,0-1.365-.261-1.89-.777-.528-.517-.796-1.151-.796-1.885s.267-1.369.793-1.895c.525-.525,1.163-.792,1.893-.792s1.367.268,1.885.796c.516.526.777,1.162.777,1.891s-.262,1.363-.78,1.881c-.519.518-1.151.78-1.882.78ZM157.878,38.648c-.729,0-1.365-.261-1.89-.777-.528-.518-.796-1.152-.796-1.885s.267-1.368.793-1.894c.375-.375.807-.618,1.288-.727-.48-.106-.91-.345-1.285-.712-.528-.518-.796-1.152-.796-1.885s.268-1.367.796-1.885c.389-.381.838-.624,1.341-.724-.502-.1-.952-.342-1.341-.724-.528-.518-.796-1.152-.796-1.885s.268-1.367.796-1.885c.389-.382.839-.624,1.341-.724-.503-.1-.953-.342-1.341-.724-.528-.518-.796-1.152-.796-1.885s.268-1.367.796-1.885c.375-.367.805-.605,1.285-.712-.482-.109-.914-.352-1.288-.727-.526-.526-.793-1.164-.793-1.894s.268-1.367.796-1.885c.374-.367.804-.605,1.283-.711-.479-.107-.909-.345-1.283-.712-.528-.518-.796-1.152-.796-1.885s.267-1.368.793-1.894c.375-.375.807-.618,1.288-.727-.48-.106-.91-.345-1.285-.712-.528-.518-.796-1.152-.796-1.885s.267-1.368.793-1.894c.526-.526,1.163-.792,1.894-.792s1.368.268,1.885.796c.484.493.744,1.083.774,1.758.03-.674.29-1.265.774-1.758.517-.528,1.151-.796,1.884-.796s1.367.267,1.894.792c.494.494.759,1.086.79,1.762.03-.674.29-1.265.774-1.758.517-.528,1.151-.796,1.885-.796s1.367.268,1.885.796c.515.525.776,1.161.776,1.891s-.263,1.364-.78,1.881c-.517.518-1.15.78-1.881.78s-1.365-.263-1.882-.78c-.486-.486-.748-1.074-.777-1.749-.03.677-.297,1.266-.792,1.752-.527.516-1.163.777-1.891.777s-1.364-.263-1.881-.78c-.486-.485-.747-1.073-.777-1.749-.03.675-.291,1.263-.777,1.749-.369.369-.796.608-1.277.715.482.109.911.354,1.28.73.516.525.777,1.161.777,1.891s-.263,1.364-.78,1.881c-.368.369-.795.608-1.274.715.479.107.906.346,1.274.715.518.517.78,1.15.78,1.881s-.261,1.366-.777,1.891c-.369.377-.797.621-1.28.73.48.107.908.346,1.276.715.486.485.747,1.073.777,1.749.03-.675.291-1.263.777-1.749.517-.518,1.15-.78,1.881-.78s1.364.261,1.891.776c.496.487.763,1.076.793,1.753.03-.675.291-1.264.777-1.749.517-.518,1.15-.78,1.882-.78s1.364.263,1.881.78c.518.517.78,1.15.78,1.881s-.263,1.365-.78,1.882c-.383.383-.83.627-1.333.727.503.101.95.344,1.333.728.518.517.78,1.15.78,1.882s-.263,1.364-.78,1.881c-.517.518-1.15.78-1.881.78s-1.365-.263-1.882-.78c-.518-.517-.78-1.15-.78-1.881s.263-1.365.78-1.882c.383-.383.83-.626,1.333-.727-.503-.1-.95-.344-1.333-.727-.486-.486-.748-1.074-.777-1.75-.03.678-.297,1.267-.792,1.753-.526.515-1.163.776-1.891.776s-1.364-.262-1.881-.78c-.486-.485-.747-1.073-.777-1.749-.03.676-.291,1.264-.777,1.749-.383.383-.83.627-1.333.727.503.101.95.344,1.333.728.518.517.78,1.15.78,1.882s-.263,1.364-.78,1.881c-.383.384-.83.627-1.333.728.503.1.95.344,1.333.727.518.517.78,1.15.78,1.882s-.263,1.364-.78,1.881c-.369.369-.796.608-1.277.715.482.109.911.354,1.28.73.516.525.777,1.161.777,1.891s-.263,1.364-.78,1.881c-.517.518-1.15.78-1.882.78ZM173.88,33.43c-.73,0-1.363-.262-1.882-.78-.518-.519-.78-1.152-.78-1.882s.262-1.363.78-1.882c.519-.518,1.152-.78,1.882-.78s1.364.262,1.882.779c.517.518.779,1.151.779,1.882s-.262,1.364-.779,1.881c-.519.518-1.152.78-1.882.78ZM173.88,22.994c-.73,0-1.364-.262-1.882-.78-.518-.519-.78-1.151-.78-1.882s.262-1.363.78-1.881c.519-.518,1.152-.78,1.882-.78s1.363.262,1.882.78c.517.518.779,1.15.779,1.881s-.262,1.364-.779,1.882c-.519.518-1.151.78-1.882.78ZM179.222,17.802c-.731,0-1.369-.267-1.894-.792-.526-.525-.793-1.162-.793-1.894s.268-1.368.797-1.885c.374-.366.803-.604,1.282-.711-.479-.106-.909-.345-1.283-.711-.528-.517-.796-1.151-.796-1.885s.267-1.369.793-1.895c.525-.525,1.163-.792,1.893-.792s1.367.268,1.885.796c.516.526.777,1.162.777,1.891s-.262,1.363-.78,1.881c-.369.369-.796.608-1.275.715.479.107.906.347,1.275.715.518.519.78,1.152.78,1.882s-.261,1.364-.777,1.891c-.518.528-1.152.796-1.885.796ZM173.88,7.366c-.73,0-1.363-.262-1.882-.78-.518-.519-.78-1.151-.78-1.881s.261-1.364.776-1.891c.519-.528,1.153-.796,1.886-.796s1.367.268,1.885.796c.515.525.776,1.162.776,1.891s-.262,1.364-.779,1.881c-.519.518-1.152.78-1.882.78Z"
             fill="#1a77ff"
             id="path11" />
          <path
             d="M173.88,2.518c.597,0,1.105.215,1.528.646.422.431.633.944.633,1.541s-.211,1.105-.633,1.528c-.423.422-.932.634-1.528.634s-1.105-.211-1.528-.634c-.422-.422-.634-.932-.634-1.528s.212-1.11.634-1.541c.423-.431.932-.646,1.528-.646M168.538,2.518c.596,0,1.105.215,1.527.646.423.431.634.944.634,1.541s-.211,1.105-.634,1.528c-.422.422-.932.634-1.527.634s-1.106-.211-1.528-.634c-.423-.422-.634-.932-.634-1.528s.211-1.11.634-1.541c.422-.431.932-.646,1.528-.646M163.196,2.518c.597,0,1.109.215,1.541.646.431.431.646.944.646,1.541s-.215,1.105-.646,1.528c-.432.422-.944.634-1.541.634s-1.105-.211-1.527-.634c-.423-.422-.634-.932-.634-1.528s.211-1.11.634-1.541c.422-.431.932-.646,1.527-.646M157.878,2.518c.597,0,1.106.215,1.528.646.423.431.634.944.634,1.541s-.211,1.105-.634,1.528c-.422.422-.932.634-1.528.634s-1.109-.211-1.54-.634-.646-.932-.646-1.528.216-1.11.646-1.541c.431-.431.944-.646,1.54-.646M179.222,7.736c.597,0,1.105.215,1.528.646.422.431.634.944.634,1.541s-.212,1.105-.634,1.528c-.423.422-.932.634-1.528.634s-1.109-.211-1.54-.634c-.432-.422-.646-.932-.646-1.528s.215-1.11.646-1.541c.431-.431.944-.646,1.54-.646M157.878,7.736c.597,0,1.106.215,1.528.646.423.431.634.944.634,1.541s-.211,1.105-.634,1.528c-.422.422-.932.634-1.528.634s-1.109-.211-1.54-.634c-.431-.422-.646-.932-.646-1.528s.216-1.11.646-1.541c.431-.431.944-.646,1.54-.646M179.222,12.954c.597,0,1.105.211,1.528.634.422.422.634.932.634,1.528s-.212,1.11-.634,1.541c-.423.431-.932.646-1.528.646s-1.109-.215-1.54-.646c-.432-.431-.646-.944-.646-1.541s.215-1.105.646-1.528c.431-.422.944-.634,1.54-.634M157.878,12.954c.597,0,1.106.211,1.528.634.423.422.634.932.634,1.528s-.211,1.11-.634,1.541c-.422.431-.932.646-1.528.646s-1.109-.215-1.54-.646c-.431-.431-.646-.944-.646-1.541s.216-1.105.646-1.528c.431-.422.944-.634,1.54-.634M173.88,18.171c.597,0,1.105.211,1.528.634.422.422.633.932.633,1.528s-.211,1.106-.633,1.528c-.423.422-.932.633-1.528.633s-1.105-.211-1.528-.633c-.422-.422-.634-.932-.634-1.528s.212-1.105.634-1.528c.423-.422.932-.634,1.528-.634M168.538,18.171c.596,0,1.105.211,1.527.634.423.422.634.932.634,1.528s-.211,1.106-.634,1.528c-.422.422-.932.633-1.527.633s-1.106-.211-1.528-.633c-.423-.422-.634-.932-.634-1.528s.211-1.105.634-1.528c.422-.422.932-.634,1.528-.634M163.196,18.171c.597,0,1.109.211,1.541.634.431.422.646.932.646,1.528s-.215,1.106-.646,1.528c-.432.422-.944.633-1.541.633s-1.105-.211-1.527-.633c-.423-.422-.634-.932-.634-1.528s.211-1.105.634-1.528c.422-.422.932-.634,1.527-.634M157.878,18.171c.597,0,1.106.211,1.528.634.423.422.634.932.634,1.528s-.211,1.106-.634,1.528c-.422.422-.932.633-1.528.633s-1.109-.211-1.54-.633c-.431-.422-.646-.932-.646-1.528s.216-1.105.646-1.528c.431-.422.944-.634,1.54-.634M168.538,23.389c.596,0,1.105.211,1.527.634.423.422.634.932.634,1.528s-.211,1.105-.634,1.528c-.422.422-.932.634-1.527.634s-1.106-.211-1.528-.634c-.423-.422-.634-.932-.634-1.528s.211-1.106.634-1.528c.422-.422.932-.634,1.528-.634M157.878,23.389c.597,0,1.106.211,1.528.634.423.422.634.932.634,1.528s-.211,1.105-.634,1.528c-.422.422-.932.634-1.528.634s-1.109-.211-1.54-.634-.646-.932-.646-1.528.216-1.106.646-1.528c.431-.422.944-.634,1.54-.634M173.88,28.607c.597,0,1.105.211,1.528.633.422.422.633.932.633,1.528s-.211,1.105-.633,1.528c-.423.422-.932.634-1.528.634s-1.105-.211-1.528-.634c-.422-.422-.634-.932-.634-1.528s.212-1.106.634-1.528c.423-.422.932-.633,1.528-.633M157.878,28.607c.597,0,1.106.211,1.528.633.423.422.634.932.634,1.528s-.211,1.105-.634,1.528c-.422.422-.932.634-1.528.634s-1.109-.211-1.54-.634c-.431-.422-.646-.932-.646-1.528s.216-1.106.646-1.528c.431-.422.944-.633,1.54-.633M179.222,33.8c.597,0,1.105.215,1.528.646.422.431.634.944.634,1.541s-.212,1.105-.634,1.528c-.423.422-.932.634-1.528.634s-1.109-.211-1.54-.634c-.432-.422-.646-.932-.646-1.528s.215-1.11.646-1.541c.431-.431.944-.646,1.54-.646M157.878,33.8c.597,0,1.106.215,1.528.646.423.431.634.944.634,1.541s-.211,1.105-.634,1.528c-.422.422-.932.634-1.528.634s-1.109-.211-1.54-.634c-.431-.422-.646-.932-.646-1.528s.216-1.11.646-1.541c.431-.431.944-.646,1.54-.646M173.88,1.518c-.859,0-1.635.327-2.242.945-.165.168-.308.348-.429.538-.122-.19-.265-.37-.43-.538-.606-.618-1.381-.945-2.241-.945s-1.636.327-2.243.946c-.16.163-.3.338-.42.523-.123-.187-.267-.365-.432-.53-.616-.615-1.393-.939-2.248-.939-.86,0-1.635.327-2.242.946-.159.162-.298.335-.417.518-.119-.183-.258-.356-.417-.519-.606-.618-1.381-.945-2.242-.945-.856,0-1.633.325-2.247.939-.615.615-.939,1.392-.939,2.248s.327,1.635.946,2.242c.136.134.28.253.431.358-.154.108-.3.232-.438.37-.615.615-.939,1.392-.939,2.248s.327,1.635.946,2.242c.135.132.277.25.426.355-.149.104-.292.223-.426.355-.619.607-.946,1.382-.946,2.242s.325,1.633.939,2.248c.138.138.284.262.438.37-.151.105-.295.225-.431.358-.619.607-.946,1.382-.946,2.242s.327,1.635.946,2.242c.14.137.288.26.444.367-.156.107-.304.23-.444.367-.619.607-.946,1.382-.946,2.242s.327,1.635.946,2.242c.14.137.288.26.444.367-.156.107-.304.23-.444.367-.619.607-.946,1.383-.946,2.242s.327,1.635.946,2.242c.136.134.28.253.431.358-.154.108-.3.232-.438.37-.615.615-.939,1.392-.939,2.248s.327,1.635.946,2.242c.614.602,1.388.92,2.24.92.857,0,1.63-.321,2.236-.927.606-.605.926-1.378.926-2.235s-.318-1.628-.92-2.241c-.138-.141-.285-.266-.439-.377.152-.107.297-.229.433-.365.606-.605.926-1.378.926-2.235s-.321-1.63-.927-2.236c-.14-.14-.288-.264-.445-.373.157-.109.306-.234.446-.374.606-.605.926-1.378.926-2.235s-.321-1.63-.927-2.236c-.14-.14-.288-.264-.445-.373.157-.109.306-.234.446-.374.162-.161.303-.335.423-.519.121.184.262.358.424.52.605.605,1.377.926,2.234.926.864,0,1.618-.309,2.24-.919.169-.165.316-.343.44-.532.121.186.264.361.427.524.14.14.288.264.445.373-.157.109-.306.234-.446.374-.606.605-.926,1.378-.926,2.235s.321,1.63.927,2.235c.605.606,1.378.926,2.235.926s1.629-.321,2.235-.927c.606-.605.926-1.378.926-2.235s-.321-1.63-.927-2.236c-.14-.14-.288-.264-.445-.373.157-.109.306-.234.446-.374.167-.167.313-.347.436-.538.123.191.268.371.435.538.607.606,1.38.927,2.236.927s1.629-.32,2.235-.926c.606-.607.926-1.38.926-2.236s-.32-1.628-.925-2.235c-.608-.607-1.38-.927-2.236-.927s-1.628.32-2.235.926c-.167.168-.313.348-.436.539-.123-.191-.269-.371-.437-.539-.605-.606-1.378-.926-2.234-.926s-1.63.321-2.236.927c-.163.163-.305.338-.426.523-.124-.188-.271-.366-.439-.531-.624-.611-1.378-.92-2.241-.92-.856,0-1.629.321-2.235.927-.162.161-.303.335-.423.519-.121-.184-.262-.358-.424-.52-.136-.136-.28-.258-.432-.365.155-.11.302-.237.44-.378.601-.612.919-1.387.919-2.24s-.321-1.63-.927-2.235c-.134-.135-.277-.255-.427-.361.15-.106.293-.227.428-.362.606-.605.926-1.378.926-2.235s-.318-1.628-.92-2.241c-.138-.141-.285-.266-.439-.377.152-.107.297-.229.433-.365.162-.161.303-.335.423-.519.121.184.262.358.424.52.605.606,1.378.926,2.234.926.863,0,1.617-.309,2.24-.919.169-.165.315-.343.44-.532.121.186.264.361.427.524.605.606,1.378.926,2.235.926s1.629-.321,2.235-.927c.167-.167.313-.347.436-.538.123.191.268.371.435.538.608.607,1.38.927,2.236.927s1.628-.32,2.235-.926c.606-.607.926-1.38.926-2.235s-.318-1.627-.918-2.24c-.608-.619-1.383-.946-2.243-.946h0ZM179.222,6.736c-.856,0-1.633.325-2.247.939-.614.613-.939,1.39-.939,2.248s.327,1.636.947,2.243c.134.132.276.25.425.354-.149.104-.291.223-.426.355-.619.605-.946,1.381-.946,2.242s.325,1.635.94,2.248c.613.613,1.39.938,2.246.938s1.635-.327,2.242-.946c.602-.614.92-1.389.92-2.241s-.32-1.628-.926-2.235c-.135-.135-.278-.256-.429-.362.15-.106.293-.227.428-.361.607-.607.927-1.38.927-2.235s-.318-1.626-.919-2.24c-.608-.619-1.383-.946-2.243-.946h0ZM173.88,27.607c-.856,0-1.629.32-2.235.926-.607.607-.927,1.38-.927,2.236s.32,1.628.926,2.235c.608.607,1.38.927,2.236.927s1.628-.32,2.235-.926c.606-.607.926-1.38.926-2.235s-.32-1.629-.925-2.235c-.607-.606-1.38-.927-2.236-.927h0ZM179.222,32.8c-.856,0-1.633.325-2.247.939-.614.613-.939,1.39-.939,2.248s.327,1.636.947,2.243c.613.601,1.387.919,2.239.919s1.628-.32,2.235-.926c.607-.608.927-1.38.927-2.235s-.318-1.626-.919-2.24c-.608-.619-1.383-.946-2.243-.946h0Z"
             fill="#445060"
             id="path12" />
        </g>
      </g>
    </g>
  </g>
</svg>
