<?xml version="1.0" encoding="UTF-8"?>
<svg xmlns="http://www.w3.org/2000/svg" width="84.549mm" height="19.6mm" version="1.1" viewBox="0 0 239.668 55.559">
  <!-- Generator: Adobe Illustrator 28.7.4, SVG Export Plug-In . SVG Version: 1.2.0 Build 166)  -->
  <g>
    <g id="Calque_1">
      <g>
        <g>
          <path d="M28.978,52.395v-20.505h7.677c7.062,0,8.116,4.435,8.116,7.078,0,2.208-.815,4.026-2.422,5.405-1.538,1.321-3.573,1.991-6.048,1.991h-.38v6.03h-6.943ZM35.971,40.374c1.649,0,1.649-.612,1.649-1.26,0-.615,0-1.197-1.649-1.197h-.05v2.457h.05Z" fill="#70839c"/>
          <path d="M36.655,33.39c4.411,0,6.616,1.859,6.616,5.578,0,1.758-.633,3.181-1.898,4.267-1.265,1.087-2.956,1.63-5.072,1.63h-1.88v6.03h-3.943v-17.505h6.177M34.421,41.874h1.55c2.1,0,3.149-.92,3.149-2.76,0-1.798-1.05-2.697-3.149-2.697h-1.55v5.457M36.655,30.39h-9.177v23.505h9.943v-6.073c2.349-.184,4.333-.959,5.907-2.312,1.925-1.652,2.943-3.914,2.943-6.542,0-5.371-3.595-8.578-9.616-8.578h0Z" fill="#445060"/>
        </g>
        <g>
          <path d="M56.394,52.395l-3.16-5.229c-.188-.316-.365-.591-.533-.833-.059-.085-.117-.163-.174-.234v6.297h-6.943v-20.505h7.75c6.85,0,7.872,3.923,7.872,6.261,0,.781-.125,1.522-.37,2.201-.245.675-.596,1.293-1.045,1.84-.354.43-.766.812-1.228,1.144.184.211.363.434.535.666.231.314.44.616.628.912l4.781,7.481h-8.114ZM52.736,39.714c.6,0,.86-.182,1.004-.318.224-.214.316-.434.316-.757,0-.462,0-.795-1.247-.795h-.282v1.87h.209Z" fill="#70839c"/>
          <path d="M53.334,33.39c4.248,0,6.372,1.587,6.372,4.761,0,.61-.094,1.174-.281,1.69-.188.518-.452.982-.793,1.398-.342.414-.755.773-1.239,1.074-.484.301-1.023.537-1.617.707v.049c.26.082.513.214.757.397.244.183.48.396.708.641.228.244.445.507.653.787.207.281.396.556.567.824l3.308,5.176h-4.529l-2.722-4.505c-.204-.342-.399-.646-.586-.915-.188-.269-.376-.499-.568-.689-.191-.191-.391-.338-.598-.439-.208-.103-.434-.153-.678-.153h-1.062v6.702h-3.943v-17.505h6.25M51.027,41.214h1.709c.846,0,1.526-.244,2.039-.732.521-.496.781-1.11.781-1.843,0-1.53-.916-2.295-2.747-2.295h-1.782v4.87M53.334,30.39h-9.25v23.505h9.943v-2.517l.646,1.069.875,1.448h11.699l-2.95-4.616-3.308-5.176c-.117-.184-.245-.376-.381-.571.117-.124.23-.252.338-.383.562-.684.998-1.451,1.3-2.286.305-.844.46-1.756.46-2.712,0-1.821-.676-7.761-9.372-7.761h0Z" fill="#445060"/>
        </g>
        <g>
          <path d="M72.052,52.7c-2.917,0-5.341-.978-7.206-2.905-1.851-1.913-2.79-4.41-2.79-7.421,0-3.148.946-5.752,2.811-7.74,1.89-2.016,4.402-3.037,7.466-3.037,2.915,0,5.322.983,7.152,2.924,1.807,1.917,2.722,4.44,2.722,7.5,0,3.135-.946,5.721-2.811,7.686-1.886,1.986-4.356,2.994-7.344,2.994ZM72.223,37.99c-.918,0-1.59.312-2.115.981-.598.763-.901,1.838-.901,3.195,0,1.374.299,2.441.888,3.171.525.652,1.17.956,2.031.956.904,0,1.562-.292,2.071-.917.57-.702.86-1.758.86-3.138,0-1.469-.286-2.587-.85-3.323-.491-.64-1.103-.926-1.983-.926Z" fill="#70839c"/>
          <path d="M72.333,33.097c2.498,0,4.519.818,6.061,2.453,1.542,1.637,2.313,3.793,2.313,6.471,0,2.75-.799,4.968-2.399,6.652-1.599,1.685-3.685,2.527-6.256,2.527-2.507,0-4.549-.816-6.128-2.448-1.579-1.632-2.368-3.757-2.368-6.378,0-2.767.801-5.005,2.405-6.714,1.603-1.709,3.727-2.563,6.372-2.563M72.126,47.794c1.359,0,2.437-.49,3.235-1.471.797-.98,1.196-2.342,1.196-4.084,0-1.814-.387-3.227-1.16-4.235-.773-1.009-1.831-1.514-3.174-1.514-1.384,0-2.482.519-3.296,1.557-.814,1.037-1.221,2.411-1.221,4.12,0,1.732.407,3.104,1.221,4.113.813,1.01,1.88,1.514,3.198,1.514M72.333,30.097c-3.495,0-6.375,1.181-8.56,3.511-2.134,2.275-3.217,5.224-3.217,8.766,0,3.414,1.081,6.261,3.212,8.464,2.158,2.231,4.945,3.362,8.284,3.362,3.415,0,6.252-1.165,8.432-3.462,2.138-2.252,3.223-5.185,3.223-8.717,0-3.455-1.053-6.324-3.129-8.528-2.127-2.254-4.9-3.396-8.245-3.396h0ZM72.126,44.794c-.459,0-.651-.133-.862-.396-.461-.571-.557-1.528-.557-2.231,0-1.014.195-1.777.581-2.268.213-.272.416-.409.936-.409.495,0,.641.141.793.339.348.455.54,1.311.54,2.41,0,1.012-.181,1.77-.524,2.191-.162.199-.342.364-.907.364h0Z" fill="#445060"/>
        </g>
        <g>
          <path d="M92.858,52.7c-3.204,0-5.793-.927-7.698-2.756-1.922-1.845-2.896-4.375-2.896-7.521s1.047-5.78,3.113-7.799c2.057-2.009,4.792-3.027,8.128-3.027,2.023,0,3.847.289,5.419.859l.988.358v6.606h.818v11.168l-.751.434c-1.931,1.113-4.327,1.678-7.121,1.678ZM90.58,45.572c.613.552,1.421.82,2.461.82.292,0,.538-.015.746-.039v-.781h-3.207ZM93.456,37.893c-1.224,0-2.179.372-2.921,1.138-.754.777-1.121,1.828-1.121,3.209,0,1.316.292,2.333.87,3.025v-5.844h8.342l-.965-.558c-1.113-.645-2.528-.971-4.205-.971Z" fill="#70839c"/>
          <path d="M93.505,33.097c1.855,0,3.491.256,4.907.77v3.698c-1.351-.781-3.003-1.172-4.956-1.172-1.636,0-2.968.531-3.998,1.593-1.029,1.062-1.544,2.48-1.544,4.254,0,1.799.462,3.191,1.386,4.176.923.984,2.17,1.477,3.741,1.477.944,0,1.692-.135,2.246-.402v-3.418h-3.503v-3.15h7.446v8.802c-1.709.985-3.833,1.478-6.372,1.478-2.816,0-5.036-.779-6.659-2.338-1.624-1.559-2.436-3.705-2.436-6.439,0-2.75.887-4.992,2.661-6.727,1.774-1.732,4.134-2.6,7.08-2.6M93.505,30.097c-3.742,0-6.83,1.162-9.176,3.453-2.366,2.312-3.565,5.297-3.565,8.873s1.13,6.465,3.358,8.604c2.193,2.106,5.132,3.173,8.736,3.173,3.061,0,5.709-.632,7.871-1.879l1.502-.866v-13.535h-.818v-6.158l-1.977-.717c-1.737-.63-3.732-.949-5.93-.949h0Z" fill="#445060"/>
        </g>
        <g>
          <path d="M113.196,52.395l-3.16-5.229c-.188-.316-.365-.591-.533-.833-.059-.085-.117-.163-.174-.234v6.297h-6.943v-20.505h7.75c6.85,0,7.872,3.923,7.872,6.261,0,.781-.125,1.522-.37,2.201-.245.675-.596,1.293-1.045,1.84-.354.43-.766.812-1.228,1.144.184.211.363.434.535.666.231.314.44.616.628.912l4.781,7.481h-8.114ZM109.538,39.714c.6,0,.86-.182,1.004-.318.224-.214.316-.434.316-.757,0-.462,0-.795-1.247-.795h-.282v1.87h.209Z" fill="#70839c"/>
          <path d="M110.136,33.39c4.248,0,6.372,1.587,6.372,4.761,0,.61-.094,1.174-.281,1.69-.188.518-.452.982-.793,1.398-.342.414-.755.773-1.239,1.074-.484.301-1.023.537-1.617.707v.049c.26.082.513.214.757.397.244.183.48.396.708.641.228.244.445.507.653.787.207.281.396.556.567.824l3.308,5.176h-4.529l-2.722-4.505c-.204-.342-.399-.646-.586-.915-.188-.269-.376-.499-.568-.689-.191-.191-.391-.338-.598-.439-.208-.103-.434-.153-.678-.153h-1.062v6.702h-3.943v-17.505h6.25M107.829,41.214h1.709c.846,0,1.526-.244,2.039-.732.521-.496.781-1.11.781-1.843,0-1.53-.916-2.295-2.747-2.295h-1.782v4.87M110.136,30.39h-9.25v23.505h9.943v-2.517l.646,1.069.875,1.448h11.699l-2.95-4.616-3.308-5.176c-.117-.184-.245-.376-.381-.571.117-.124.23-.252.338-.383.562-.684.998-1.451,1.3-2.286.305-.844.46-1.756.46-2.712,0-1.821-.676-7.761-9.372-7.761h0Z" fill="#445060"/>
        </g>
        <g>
          <polygon points="119.957 52.395 119.957 31.89 133.052 31.89 133.052 38.101 126.9 38.101 126.9 38.994 132.625 38.994 132.625 45.193 126.9 45.193 126.9 46.197 133.455 46.197 133.455 52.395 119.957 52.395" fill="#70839c"/>
          <path d="M131.552,33.39v3.211h-6.152v3.894h5.725v3.198h-5.725v4.004h6.555v3.198h-10.498v-17.505h10.095M134.552,30.39h-16.095v23.505h16.498v-9.198h-.83v-5.096h.427v-9.211h0Z" fill="#445060"/>
        </g>
        <g>
          <path d="M140.199,52.7c-1.044,0-2.059-.091-3.016-.27-1.006-.189-1.901-.482-2.661-.872l-.816-.418v-8.039l2.464,2.066c.568.477,1.19.838,1.849,1.073.664.237,1.339.357,2.009.357.377,0,.696-.031.947-.092.257-.062.4-.132.476-.18-.051-.154-.199-.287-.389-.416-.266-.179-.598-.36-.985-.537-.447-.204-.93-.411-1.448-.624-1.596-.664-2.822-1.513-3.649-2.525-.893-1.093-1.345-2.414-1.345-3.928,0-1.166.249-2.203.74-3.081.48-.859,1.143-1.577,1.969-2.132.781-.522,1.681-.908,2.677-1.147.941-.226,1.946-.34,2.987-.34.987,0,1.88.062,2.656.184.803.124,1.562.322,2.253.588l.961.37v7.545l-2.354-1.633c-.215-.148-.457-.283-.718-.401-.273-.121-.562-.226-.858-.309-.295-.082-.596-.144-.889-.184-.294-.039-.574-.06-.831-.06-.33,0-.627.03-.882.089-.257.061-.405.131-.483.179-.016.01-.03.02-.042.027.047.053.122.124.24.21.215.156.489.316.813.475.382.188.813.379,1.293.577.765.32,1.461.665,2.076,1.028.674.399,1.263.859,1.753,1.37.531.554.944,1.194,1.228,1.906.282.71.424,1.522.424,2.417,0,1.231-.251,2.305-.746,3.19-.488.877-1.163,1.597-2.003,2.14-.787.51-1.703.878-2.719,1.093-.939.2-1.941.302-2.978.302Z" fill="#70839c"/>
          <path d="M142.006,33.097c.911,0,1.719.055,2.423.165.704.109,1.353.278,1.947.507v3.649c-.293-.203-.612-.382-.958-.537-.346-.154-.702-.282-1.068-.385-.366-.102-.73-.177-1.092-.226-.362-.049-.707-.073-1.032-.073-.448,0-.854.043-1.221.128-.366.086-.676.206-.928.36-.252.155-.448.34-.586.556-.139.215-.208.457-.208.727,0,.293.077.555.232.787.154.231.374.451.659.659.285.207.63.411,1.038.61.407.199.867.404,1.379.616.7.293,1.329.604,1.886.934.557.33,1.035.702,1.434,1.117.398.415.704.89.916,1.422.211.533.317,1.153.317,1.862,0,.977-.185,1.796-.556,2.459-.37.664-.873,1.201-1.507,1.611-.635.411-1.374.707-2.215.885-.843.18-1.732.27-2.667.27-.96,0-1.874-.082-2.741-.244-.866-.163-1.617-.407-2.252-.732v-3.906c.708.594,1.477,1.039,2.307,1.336s1.668.445,2.515.445c.496,0,.93-.044,1.3-.134.37-.089.679-.214.928-.372.248-.159.433-.346.555-.562s.183-.45.183-.702c0-.342-.098-.646-.293-.916-.195-.268-.462-.516-.8-.744-.337-.228-.738-.447-1.202-.659s-.964-.427-1.501-.647c-1.367-.568-2.386-1.265-3.058-2.087-.671-.821-1.007-1.814-1.007-2.979,0-.911.183-1.694.549-2.35s.865-1.194,1.496-1.618c.63-.422,1.361-.734,2.191-.934s1.709-.299,2.637-.299M142.006,30.097c-1.159,0-2.282.128-3.337.382-1.17.281-2.233.738-3.159,1.358-1.028.691-1.849,1.58-2.446,2.648-.617,1.105-.931,2.388-.931,3.813,0,.577.054,1.131.161,1.663l-.088-.074v12.171l1.632.836c.888.455,1.919.795,3.065,1.011,1.052.197,2.159.296,3.296.296s2.249-.113,3.293-.335c1.191-.252,2.277-.69,3.221-1.301,1.046-.676,1.887-1.574,2.497-2.669.62-1.109.935-2.429.935-3.919,0-1.085-.178-2.083-.529-2.968-.073-.184-.154-.365-.24-.541v-10.758l-1.923-.74c-.79-.304-1.652-.53-2.563-.671-.848-.133-1.82-.201-2.884-.201h0Z" fill="#445060"/>
        </g>
        <g>
          <path d="M155.463,52.7c-1.044,0-2.059-.091-3.016-.27-1.006-.189-1.901-.482-2.661-.872l-.816-.418v-8.039l2.464,2.066c.568.477,1.19.838,1.849,1.073.664.237,1.339.357,2.009.357.377,0,.696-.031.947-.092.257-.062.4-.132.476-.18-.051-.154-.199-.287-.389-.416-.266-.179-.598-.36-.985-.537-.447-.204-.93-.411-1.448-.624-1.596-.664-2.822-1.513-3.649-2.525-.893-1.093-1.345-2.414-1.345-3.928,0-1.166.249-2.203.74-3.081.48-.859,1.143-1.577,1.969-2.132.781-.522,1.681-.908,2.677-1.147.941-.226,1.946-.34,2.987-.34.987,0,1.88.062,2.656.184.803.124,1.562.322,2.253.588l.961.37v7.545l-2.354-1.633c-.215-.148-.457-.283-.718-.401-.273-.121-.562-.226-.858-.309-.295-.082-.596-.144-.889-.184-.294-.039-.574-.06-.831-.06-.33,0-.627.03-.882.089-.257.061-.405.131-.483.179-.016.01-.03.02-.042.027.047.053.122.124.24.21.215.156.489.316.813.475.382.188.813.379,1.293.577.765.32,1.461.665,2.076,1.028.674.399,1.263.859,1.753,1.37.531.554.944,1.194,1.228,1.906.282.71.424,1.522.424,2.417,0,1.231-.251,2.305-.746,3.19-.488.877-1.163,1.597-2.003,2.14-.787.51-1.703.878-2.719,1.093-.939.2-1.941.302-2.978.302Z" fill="#70839c"/>
          <path d="M157.27,33.097c.911,0,1.719.055,2.423.165.704.109,1.353.278,1.947.507v3.649c-.293-.203-.612-.382-.958-.537-.346-.154-.702-.282-1.068-.385-.366-.102-.73-.177-1.092-.226-.362-.049-.707-.073-1.032-.073-.448,0-.854.043-1.221.128-.366.086-.676.206-.928.36-.252.155-.448.34-.586.556-.139.215-.208.457-.208.727,0,.293.077.555.232.787.154.231.374.451.659.659.285.207.63.411,1.038.61.407.199.867.404,1.379.616.7.293,1.329.604,1.886.934.557.33,1.035.702,1.434,1.117.398.415.704.89.916,1.422.211.533.317,1.153.317,1.862,0,.977-.185,1.796-.556,2.459-.37.664-.873,1.201-1.507,1.611-.635.411-1.374.707-2.215.885-.843.18-1.732.27-2.667.27-.96,0-1.874-.082-2.741-.244-.866-.163-1.617-.407-2.252-.732v-3.906c.708.594,1.477,1.039,2.307,1.336s1.668.445,2.515.445c.496,0,.93-.044,1.3-.134.37-.089.679-.214.928-.372.248-.159.433-.346.555-.562s.183-.45.183-.702c0-.342-.098-.646-.293-.916-.195-.268-.462-.516-.8-.744-.337-.228-.738-.447-1.202-.659s-.964-.427-1.501-.647c-1.367-.568-2.386-1.265-3.058-2.087-.671-.821-1.007-1.814-1.007-2.979,0-.911.183-1.694.549-2.35s.865-1.194,1.496-1.618c.63-.422,1.361-.734,2.191-.934s1.709-.299,2.637-.299M157.27,30.097c-1.159,0-2.282.128-3.337.382-1.17.281-2.233.738-3.159,1.358-1.028.691-1.849,1.58-2.446,2.648-.617,1.105-.931,2.388-.931,3.813,0,.577.054,1.131.161,1.663l-.088-.074v12.171l1.632.836c.888.455,1.919.795,3.065,1.011,1.052.197,2.159.296,3.296.296s2.249-.113,3.293-.335c1.191-.252,2.277-.69,3.221-1.301,1.046-.676,1.887-1.574,2.497-2.669.62-1.109.935-2.429.935-3.919,0-1.085-.178-2.083-.529-2.968-.073-.184-.154-.365-.24-.541v-10.758l-1.923-.74c-.79-.304-1.652-.53-2.563-.671-.848-.133-1.82-.201-2.884-.201h0Z" fill="#445060"/>
        </g>
        <g>
          <polygon points="163.575 52.395 163.575 46.343 165.04 46.343 165.04 37.942 163.575 37.942 163.575 31.89 173.447 31.89 173.447 37.942 171.983 37.942 171.983 46.343 173.447 46.343 173.447 52.395 163.575 52.395" fill="#70839c"/>
          <path d="M171.947,33.39v3.052h-1.465v11.401h1.465v3.052h-6.873v-3.052h1.465v-11.401h-1.465v-3.052h6.873M174.947,30.39h-12.873v9.052h1.465v5.401h-1.465v9.052h12.873v-9.052h-1.465v-5.401h1.465v-9.052h0Z" fill="#445060"/>
        </g>
        <g>
          <path d="M183.11,52.7c-2.917,0-5.341-.978-7.206-2.905-1.851-1.913-2.79-4.41-2.79-7.421,0-3.148.946-5.752,2.811-7.74,1.89-2.016,4.402-3.037,7.466-3.037,2.915,0,5.321.983,7.152,2.924,1.807,1.917,2.722,4.44,2.722,7.5,0,3.135-.946,5.721-2.811,7.686-1.886,1.986-4.356,2.994-7.344,2.994ZM183.28,37.99c-.918,0-1.59.312-2.115.981-.598.763-.901,1.837-.901,3.195,0,1.374.299,2.441.888,3.171.525.652,1.17.956,2.031.956.904,0,1.562-.292,2.071-.917.57-.702.86-1.758.86-3.138,0-1.469-.286-2.587-.85-3.323-.491-.64-1.103-.926-1.983-.926Z" fill="#70839c"/>
          <path d="M183.39,33.097c2.498,0,4.519.818,6.061,2.453,1.542,1.637,2.313,3.793,2.313,6.471,0,2.75-.799,4.968-2.399,6.652-1.599,1.685-3.685,2.527-6.256,2.527-2.507,0-4.549-.816-6.128-2.448-1.579-1.632-2.368-3.757-2.368-6.378,0-2.767.801-5.005,2.405-6.714,1.603-1.709,3.727-2.563,6.372-2.563M183.183,47.794c1.359,0,2.437-.49,3.235-1.471.797-.98,1.196-2.342,1.196-4.084,0-1.814-.387-3.227-1.16-4.235-.773-1.009-1.831-1.514-3.174-1.514-1.384,0-2.482.519-3.296,1.557-.814,1.037-1.221,2.411-1.221,4.12,0,1.732.407,3.104,1.221,4.113.813,1.01,1.88,1.514,3.198,1.514M183.39,30.097c-3.495,0-6.375,1.181-8.56,3.511-2.134,2.275-3.217,5.224-3.217,8.766,0,3.414,1.081,6.261,3.212,8.464,2.158,2.231,4.945,3.362,8.284,3.362,3.415,0,6.252-1.165,8.432-3.462,2.138-2.252,3.223-5.185,3.223-8.717,0-3.455-1.053-6.324-3.129-8.528-2.127-2.254-4.9-3.396-8.245-3.396h0ZM183.183,44.794c-.459,0-.651-.133-.862-.396-.461-.571-.557-1.528-.557-2.231,0-1.014.195-1.777.581-2.268.213-.272.416-.409.936-.409.495,0,.641.141.793.339.348.455.54,1.311.54,2.41,0,1.012-.181,1.77-.524,2.191-.162.199-.342.364-.907.364h0Z" fill="#445060"/>
        </g>
        <g>
          <polygon points="206.877 52.395 201.143 43.652 201.143 52.395 194.42 52.395 194.42 31.89 200.981 31.89 206.444 40.272 206.444 31.89 213.167 31.89 213.167 52.395 206.877 52.395" fill="#70839c"/>
          <path d="M211.667,33.39v17.505h-3.979l-7.214-10.999c-.423-.643-.716-1.127-.879-1.452h-.049c.065.618.098,1.562.098,2.832v9.619h-3.723v-17.505h4.248l6.946,10.656c.317.48.61.957.879,1.429h.049c-.065-.407-.098-1.208-.098-2.405v-9.68h3.723M214.667,30.39h-9.723v4.833l-2.263-3.471-.888-1.362h-8.874v23.505h9.723v-5.221l2.536,3.866.889,1.355h8.6v-23.505h0Z" fill="#445060"/>
        </g>
      </g>
      <g>
        <polygon points="2.748 29.859 2.748 2.859 8.748 2.859 8.748 23.859 231.248 23.859 231.248 2.859 237.248 2.859 237.248 29.859 2.748 29.859" fill="#70839c"/>
        <path d="M235.748,4.359v24H4.248V4.359h3v21h225.5V4.359h3M238.748,1.359h-9v21H10.248V1.359H1.248v30h237.5V1.359h0Z" fill="#445060"/>
      </g>
    </g>
  </g>
</svg>