<?xml version="1.0" encoding="UTF-8" standalone="no"?>
<svg
   width="51.1mm"
   height="23mm"
   version="1.1"
   viewBox="0 0 144.85 65.197"
   id="svg6"
   sodipodi:docname="Sombre_BoutonScanAutoActive.svg"
   inkscape:version="1.3 (0e150ed, 2023-07-21)"
   xmlns:inkscape="http://www.inkscape.org/namespaces/inkscape"
   xmlns:sodipodi="http://sodipodi.sourceforge.net/DTD/sodipodi-0.dtd"
   xmlns="http://www.w3.org/2000/svg"
   xmlns:svg="http://www.w3.org/2000/svg">
  <defs
     id="defs6" />
  <sodipodi:namedview
     id="namedview6"
     pagecolor="#ffffff"
     bordercolor="#000000"
     borderopacity="0.25"
     inkscape:showpageshadow="2"
     inkscape:pageopacity="0.0"
     inkscape:pagecheckerboard="0"
     inkscape:deskcolor="#d1d1d1"
     inkscape:document-units="mm"
     inkscape:zoom="3.2511691"
     inkscape:cx="82.124304"
     inkscape:cy="46.444831"
     inkscape:window-width="1472"
     inkscape:window-height="449"
     inkscape:window-x="0"
     inkscape:window-y="38"
     inkscape:window-maximized="0"
     inkscape:current-layer="Calque_1" />
  <!-- Generator: Adobe Illustrator 28.7.4, SVG Export Plug-In . SVG Version: 1.2.0 Build 166)  -->
  <g
     id="g6">
    <g
       id="Calque_1">
      <path
         d="M112.739,3.415c6.793.003,12.885,2.121,18.187,6.343,6.365,5.066,10.065,11.686,11.057,19.774.497,4.062.123,8.052-1.047,11.986-1.615,5.44-4.582,10.01-8.81,13.743-4.495,3.973-9.771,6.316-15.719,7.107-1.166.156-82.004.234-83.892.237-7.206.009-13.633-2.211-19.166-6.839-5.878-4.92-9.381-11.203-10.41-18.816-.836-6.173.149-12.066,3.04-17.585,3.572-6.821,9.018-11.573,16.249-14.23,3.208-1.179,6.533-1.739,9.968-1.734,16.82.02,63.722.003,80.542.014Z"
         fill="#445060"
         fill-rule="evenodd"
         stroke="#70839c"
         stroke-miterlimit="10"
         stroke-width="3"
         id="path1"
         style="fill:#5d6b84;fill-opacity:1;stroke:#5d6b84;stroke-opacity:1" />
      <text
         xml:space="preserve"
         style="font-size:22.1145px;fill:none;stroke-width:1.84287"
         x="50.809097"
         y="40.133083"
         id="text1"
         transform="scale(0.96074658,1.0408572)"><tspan
           sodipodi:role="line"
           id="tspan1"
           style="font-style:normal;font-variant:normal;font-weight:bold;font-stretch:normal;font-family:sans-serif;-inkscape-font-specification:'sans-serif Bold';fill:#ffffff;stroke-width:1.84287"
           x="50.809097"
           y="40.133083">FULL</tspan></text>
    </g>
  </g>
</svg>
