<?xml version="1.0" encoding="UTF-8"?>
<svg id="Calque_1" xmlns="http://www.w3.org/2000/svg" width="564.4mm" height="282mm" version="1.1" viewBox="0 0 1600 799.5">
  <!-- Generator: Adobe Illustrator 29.3.0, SVG Export Plug-In . SVG Version: 2.1.0 Build 146)  -->
  <defs>
    <style>
      .st0 {
        fill: #4D5A6F;
      }

      .st1 {
        fill: #5D6C83;
      }
    </style>
  </defs>
  <path class="st1" d="M153.6,794.8c-27.5,0-50.4-20.5-53.7-47.4h-38.3c-21.1,0-38.3-17.2-38.3-38.3V43.5c0-21.1,17.2-38.3,38.3-38.3h1493.9c21.1,0,38.3,17.2,38.3,38.3v665.7c0,21.1-17.2,38.3-38.3,38.3H207.3c-3.4,26.8-26.3,47.4-53.7,47.4Z"/>
  <path class="st0" d="M1555.5,9.2c19,0,34.3,15.4,34.3,34.3v665.7c0,19-15.4,34.3-34.3,34.3H203.7c-1.4,26.4-23.3,47.4-50.1,47.4s-48.6-21-50.1-47.4h-42c-19,0-34.3-15.4-34.3-34.3V43.5c0-19,15.4-34.3,34.3-34.3h1493.9M1555.5,1.2H61.5c-23.3,0-42.3,19-42.3,42.3v665.7c0,23.3,19,42.3,42.3,42.3h34.9c5.1,27.1,28.9,47.4,57.1,47.4s52.1-20.3,57.1-47.4h1344.7c23.3,0,42.3-19,42.3-42.3V43.5c0-23.3-19-42.3-42.3-42.3h0Z"/>
</svg>