<?xml version="1.0" encoding="UTF-8" standalone="no"?>
<svg
   width="116.916mm"
   height="35.2mm"
   version="1.1"
   viewBox="0 0 331.417 99.78"
   id="svg3"
   sodipodi:docname="Sombre_ConfirmerQuitter.svg"
   inkscape:version="1.3 (0e150ed, 2023-07-21)"
   xmlns:inkscape="http://www.inkscape.org/namespaces/inkscape"
   xmlns:sodipodi="http://sodipodi.sourceforge.net/DTD/sodipodi-0.dtd"
   xmlns="http://www.w3.org/2000/svg"
   xmlns:svg="http://www.w3.org/2000/svg">
  <defs
     id="defs3" />
  <sodipodi:namedview
     id="namedview3"
     pagecolor="#ffffff"
     bordercolor="#000000"
     borderopacity="0.25"
     inkscape:showpageshadow="2"
     inkscape:pageopacity="0.0"
     inkscape:pagecheckerboard="0"
     inkscape:deskcolor="#d1d1d1"
     inkscape:document-units="mm"
     inkscape:zoom="1.5694049"
     inkscape:cx="273.9892"
     inkscape:cy="64.355604"
     inkscape:window-width="1472"
     inkscape:window-height="449"
     inkscape:window-x="0"
     inkscape:window-y="38"
     inkscape:window-maximized="0"
     inkscape:current-layer="Calque_1" />
  <!-- Generator: Adobe Illustrator 28.7.4, SVG Export Plug-In . SVG Version: 1.2.0 Build 166)  -->
  <g
     id="g3">
    <g
       id="Calque_1">
      <rect
         x="950.364"
         y="1145.372"
         width="25.045"
         height="25.045"
         fill="#00d200"
         fill-opacity=".2"
         stroke="#00d200"
         stroke-linecap="round"
         stroke-linejoin="round"
         stroke-width="3"
         id="rect1" />
      <path
         d="M39.772,92.499h-.504c-8.075-.32-15.706-8.305-15.706-19.59V26.739c0-11.53,7.941-19.6,16.21-19.6h268.101c8.259,0,16.21,8.08,16.21,19.6v46.16c0,11.53-7.942,19.6-16.21,19.6H39.772Z"
         fill="#5d6c82"
         stroke="#445060"
         stroke-width="10"
         id="path1" />
      <path
         d="M41.651,42.45l-2.249-1.295v.006l-22.44-12.96h-.001c-5.667-3.265-12.749.811-12.749,7.359v28.51c0,6.543,7.079,10.637,12.75,7.359,0,0,0,0,0,0l20.527-11.856h0s4.162-2.404,4.162-2.404c5.67-3.268,5.67-11.452-.002-14.719Z"
         fill="#087bf9"
         stroke="#fff"
         stroke-width="3"
         id="path2"
         style="fill:#087bf8;fill-opacity:1" />
      <text
         xml:space="preserve"
         style="font-size:22.0001px;font-family:'Arial Rounded MT Bold';-inkscape-font-specification:'Arial Rounded MT Bold, ';fill:#ffffff;stroke-width:0.750004"
         x="66.426773"
         y="57.824738"
         id="text1"><tspan
           sodipodi:role="line"
           id="tspan1"
           style="stroke-width:0.750004"
           x="66.426773"
           y="57.824738">Eteindre le système</tspan></text>
    </g>
  </g>
</svg>
