<?xml version="1.0" encoding="UTF-8" standalone="no"?>
<svg
   width="245.2mm"
   height="202.9mm"
   version="1.1"
   viewBox="0 0 695.055 575.15"
   id="svg2"
   sodipodi:docname="ContainerSupportSortie.svg"
   inkscape:version="1.4 (86a8ad7, 2024-10-11)"
   xmlns:inkscape="http://www.inkscape.org/namespaces/inkscape"
   xmlns:sodipodi="http://sodipodi.sourceforge.net/DTD/sodipodi-0.dtd"
   xmlns="http://www.w3.org/2000/svg"
   xmlns:svg="http://www.w3.org/2000/svg">
  <defs
     id="defs2" />
  <sodipodi:namedview
     id="namedview2"
     pagecolor="#ffffff"
     bordercolor="#000000"
     borderopacity="0.25"
     inkscape:showpageshadow="2"
     inkscape:pageopacity="0.0"
     inkscape:pagecheckerboard="0"
     inkscape:deskcolor="#d1d1d1"
     inkscape:document-units="mm"
     inkscape:zoom="1.6078426"
     inkscape:cx="463.35382"
     inkscape:cy="383.43306"
     inkscape:window-width="2880"
     inkscape:window-height="1514"
     inkscape:window-x="-11"
     inkscape:window-y="-11"
     inkscape:window-maximized="1"
     inkscape:current-layer="g1" />
  <!-- Generator: Adobe Illustrator 28.7.4, SVG Export Plug-In . SVG Version: 1.2.0 Build 166)  -->
  <g
     id="g2">
    <g
       id="Calque_1">
      <g
         id="g1">
        <rect
           x="4.977"
           y="4.753"
           width="685.48"
           height="565.926"
           rx="24.219"
           ry="24.219"
           fill="#70839c"
           id="rect1"
           style="fill:#5d6c83;fill-opacity:1" />
        <path
           d="M666.237,8.753c11.121,0,20.219,9.099,20.219,20.219v517.488c0,11.121-9.099,20.219-20.219,20.219H29.196c-11.121,0-20.219-9.099-20.219-20.219V28.973c0-11.121,9.099-20.219,20.219-20.219h637.042M666.237.753H29.196C13.636.753.976,13.413.976,28.973v517.488c0,15.56,12.659,28.219,28.219,28.219h637.042c15.56,0,28.219-12.659,28.219-28.219V28.973c0-15.56-12.659-28.219-28.219-28.219h0Z"
           fill="#445060"
           id="path1" />
      </g>
    </g>
  </g>
</svg>
