<?xml version="1.0" encoding="UTF-8" standalone="no"?>
<svg
   width="19.849mm"
   height="19.6mm"
   version="1.1"
   viewBox="0 0 56.266 55.559"
   id="svg3"
   sodipodi:docname="PauseActif.svg"
   inkscape:version="1.4 (86a8ad7, 2024-10-11)"
   xmlns:inkscape="http://www.inkscape.org/namespaces/inkscape"
   xmlns:sodipodi="http://sodipodi.sourceforge.net/DTD/sodipodi-0.dtd"
   xmlns="http://www.w3.org/2000/svg"
   xmlns:svg="http://www.w3.org/2000/svg">
  <defs
     id="defs3" />
  <sodipodi:namedview
     id="namedview3"
     pagecolor="#ffffff"
     bordercolor="#000000"
     borderopacity="0.25"
     inkscape:showpageshadow="2"
     inkscape:pageopacity="0.0"
     inkscape:pagecheckerboard="0"
     inkscape:deskcolor="#d1d1d1"
     inkscape:document-units="mm"
     inkscape:zoom="16.644451"
     inkscape:cx="37.489971"
     inkscape:cy="37.039371"
     inkscape:window-width="2880"
     inkscape:window-height="1514"
     inkscape:window-x="-11"
     inkscape:window-y="-11"
     inkscape:window-maximized="1"
     inkscape:current-layer="svg3" />
  <!-- Generator: Adobe Illustrator 28.7.4, SVG Export Plug-In . SVG Version: 1.2.0 Build 166)  -->
  <g
     id="g3"
     style="fill:#ffffff;fill-opacity:1">
    <g
       id="Calque_1"
       style="fill:#ffffff;fill-opacity:1">
      <g
         id="g2"
         style="fill:#ffffff;fill-opacity:1">
        <path
           d="M27.941,53.763c-14.328,0-25.984-11.656-25.984-25.983S13.614,1.796,27.941,1.796s25.983,11.656,25.983,25.983-11.656,25.983-25.983,25.983ZM38.974,39.319v-23.079h-7.042v23.079h7.042ZM23.95,39.319v-23.079h-7.042v23.079h7.042Z"
           fill="#70839c"
           fill-rule="evenodd"
           id="path1"
           style="fill:#ffffff;fill-opacity:1" />
        <path
           d="M27.941,3.296c13.522,0,24.483,10.962,24.483,24.483s-10.962,24.483-24.483,24.483S3.458,41.301,3.458,27.78,14.419,3.296,27.941,3.296M30.432,40.819h10.042V14.74h-10.042v26.079M15.408,40.819h10.042V14.74h-10.042v26.079M27.941.296C12.787.296.458,12.625.458,27.78s12.329,27.483,27.484,27.483,27.483-12.329,27.483-27.483S43.096.296,27.941.296h0ZM33.432,17.74h4.042v20.079h-4.042v-20.079h0ZM18.408,17.74h4.042v20.079h-4.042v-20.079h0Z"
           fill="#445060"
           id="path2"
           style="fill:#ffffff;fill-opacity:1" />
      </g>
    </g>
  </g>
</svg>
