<?xml version="1.0" encoding="UTF-8"?>
<svg id="Calque_1" xmlns="http://www.w3.org/2000/svg" width="15.9mm" height="7.9mm" version="1.1" viewBox="0 0 45.1 22.3">
  <!-- Generator: Adobe Illustrator 29.3.0, SVG Export Plug-In . SVG Version: 2.1.0 Build 146)  -->
  <defs>
    <style>
      .st0 {
        fill: #FFFFFF;
        fill-rule: evenodd;
      }
    </style>
  </defs>
  <path class="st0" d="M45.1,8.2c0-.8-.7-1.5-1.6-1.5s-1.9,0-1.9,0c0,0,0-3.9,0-4.3,0-.2,0-.3,0-.5,0,0,0,0,0-.1,0-.1,0-.2,0-.3-.4-.9-1.2-1.5-2.2-1.5s0,0,0,0c0,0,0,0,0,0H2.4s0,0,0,0c0,0,0,0,0,0C1,0,0,1,0,2.3s0,0,0,0,0,0,0,0v17.5s0,0,0,0c0,0,0,0,0,0H0c0,.1,0,.1,0,.1,0,1.2,1,2.1,2.2,2.2,0,0,0,0,0,0h36.8s0,0,0,0c1.3,0,2.4-1.1,2.4-2.4s0-4.3,0-4.3c0,0,1.8,0,1.8,0,0,0,0,0,.1,0,.8,0,1.5-.7,1.6-1.5,0,0,0,0,0,0v-5.8s0,0,0,0ZM38.9,19c0,.6,0,.6-.6.6-5.7,0-12.5,0-18.1,0s-11.3,0-16.9,0q-.6,0-.6-.6V3.2q0-.6.6-.6c11.3,0,23.8,0,35.1,0,.6,0,.6,0,.6.6v15.8Z"/>
  <path class="st0" d="M5.4,17h8.3V5.3H5.4v11.7Z"/>
  <path class="st0" d="M16.5,17h8.5V5.3h-8.5v11.7Z"/>
  <path class="st0" d="M27.6,17h8.5V5.3h-8.5v11.7Z"/>
</svg>