<?xml version="1.0" encoding="UTF-8" standalone="no"?>
<svg
   width="51.1mm"
   height="23mm"
   version="1.1"
   viewBox="0 0 144.85 65.197"
   id="svg6"
   sodipodi:docname="Sombre_BoutonScanAutoInactif.svg"
   inkscape:version="1.4 (86a8ad7, 2024-10-11)"
   xmlns:inkscape="http://www.inkscape.org/namespaces/inkscape"
   xmlns:sodipodi="http://sodipodi.sourceforge.net/DTD/sodipodi-0.dtd"
   xmlns="http://www.w3.org/2000/svg"
   xmlns:svg="http://www.w3.org/2000/svg">
  <defs
     id="defs6" />
  <sodipodi:namedview
     id="namedview6"
     pagecolor="#ffffff"
     bordercolor="#000000"
     borderopacity="0.25"
     inkscape:showpageshadow="2"
     inkscape:pageopacity="0.0"
     inkscape:pagecheckerboard="0"
     inkscape:deskcolor="#d1d1d1"
     inkscape:document-units="mm"
     inkscape:zoom="3.2511691"
     inkscape:cx="49.520648"
     inkscape:cy="24.452742"
     inkscape:window-width="1920"
     inkscape:window-height="1009"
     inkscape:window-x="3832"
     inkscape:window-y="-8"
     inkscape:window-maximized="1"
     inkscape:current-layer="Calque_1" />
  <!-- Generator: Adobe Illustrator 28.7.4, SVG Export Plug-In . SVG Version: 1.2.0 Build 166)  -->
  <g
     id="g6">
    <g
       id="Calque_1">
      <path
         d="M112.739,3.415c6.793.003,12.885,2.121,18.187,6.343,6.365,5.066,10.065,11.686,11.057,19.774.497,4.062.123,8.052-1.047,11.986-1.615,5.44-4.582,10.01-8.81,13.743-4.495,3.973-9.771,6.316-15.719,7.107-1.166.156-82.004.234-83.892.237-7.206.009-13.633-2.211-19.166-6.839-5.878-4.92-9.381-11.203-10.41-18.816-.836-6.173.149-12.066,3.04-17.585,3.572-6.821,9.018-11.573,16.249-14.23,3.208-1.179,6.533-1.739,9.968-1.734,16.82.02,63.722.003,80.542.014Z"
         fill="#445060"
         fill-rule="evenodd"
         stroke="#70839c"
         stroke-miterlimit="10"
         stroke-width="3"
         id="path1"
         style="fill:#445060;fill-opacity:1;stroke:#5d6c83;stroke-opacity:1" />
      <g
         id="g5"
         style="fill:#5d6c83;fill-opacity:1">
        <path
           d="M52.713,41.604l-1.25-3.7h-6.7l-1.225,3.7h-3.575l5.825-17.2h4.775l5.825,17.2h-3.675ZM48.163,27.754h-.125l-2.325,7.05h4.8l-2.35-7.05Z"
           fill="#70839c"
           id="path2"
           style="fill:#5d6c83;fill-opacity:1" />
        <path
           d="M72.238,24.404v9.5c0,2.284-.146,3.955-.438,5.013-.292,1.059-.904,1.804-1.837,2.237-.934.434-2.434.65-4.5.65s-3.567-.217-4.5-.65c-.934-.433-1.55-1.179-1.85-2.237-.3-1.058-.45-2.729-.45-5.013v-9.5h3.55v10.4c0,1.283.058,2.175.175,2.675.116.5.392.842.825,1.025.433.184,1.183.275,2.25.275,1.083,0,1.837-.091,2.262-.275.425-.183.691-.525.8-1.025.108-.5.162-1.392.162-2.675v-10.4h3.55Z"
           fill="#70839c"
           id="path3"
           style="fill:#5d6c83;fill-opacity:1" />
        <path
           d="M79.663,41.604v-13.975h-5v-3.225h13.55v3.225h-5v13.975h-3.55Z"
           fill="#70839c"
           id="path4"
           style="fill:#5d6c83;fill-opacity:1" />
        <path
           d="M92.538,41.054c-1-.5-1.629-1.316-1.888-2.45-.259-1.133-.388-3-.388-5.6s.129-4.466.388-5.6c.258-1.133.888-1.95,1.888-2.45s2.675-.75,5.025-.75,4.029.25,5.038.75c1.008.5,1.641,1.317,1.9,2.45.258,1.134.387,3,.387,5.6s-.129,4.467-.387,5.6c-.259,1.134-.892,1.95-1.9,2.45-1.009.5-2.688.75-5.038.75s-4.025-.25-5.025-.75ZM100.225,38.454c.458-.183.75-.629.875-1.337s.188-2.079.188-4.113-.062-3.404-.188-4.112-.417-1.154-.875-1.337c-.459-.184-1.346-.275-2.663-.275s-2.2.092-2.65.275c-.45.184-.742.633-.875,1.35-.134.717-.2,2.084-.2,4.1s.066,3.384.2,4.1c.133.717.425,1.167.875,1.35.45.184,1.333.275,2.65.275s2.204-.091,2.663-.275Z"
           fill="#70839c"
           id="path5"
           style="fill:#5d6c83;fill-opacity:1" />
      </g>
    </g>
  </g>
</svg>
