<?xml version="1.0" encoding="UTF-8" standalone="no"?>
<svg
   width="11.067mm"
   height="202.583mm"
   version="1.1"
   viewBox="0 0 31.37 574.252"
   id="svg48"
   sodipodi:docname="Sombre_MasqueBarreLateraleDroite.svg"
   inkscape:version="1.4 (86a8ad7, 2024-10-11)"
   xmlns:inkscape="http://www.inkscape.org/namespaces/inkscape"
   xmlns:sodipodi="http://sodipodi.sourceforge.net/DTD/sodipodi-0.dtd"
   xmlns="http://www.w3.org/2000/svg"
   xmlns:svg="http://www.w3.org/2000/svg">
  <defs
     id="defs48" />
  <sodipodi:namedview
     id="namedview48"
     pagecolor="#ffffff"
     bordercolor="#000000"
     borderopacity="0.25"
     inkscape:showpageshadow="2"
     inkscape:pageopacity="0.0"
     inkscape:pagecheckerboard="0"
     inkscape:deskcolor="#d1d1d1"
     inkscape:document-units="mm"
     inkscape:zoom="1.0539816"
     inkscape:cx="20.873229"
     inkscape:cy="382.834"
     inkscape:window-width="1920"
     inkscape:window-height="1009"
     inkscape:window-x="3832"
     inkscape:window-y="-8"
     inkscape:window-maximized="1"
     inkscape:current-layer="svg48" />
  <!-- Generator: Adobe Illustrator 28.7.4, SVG Export Plug-In . SVG Version: 1.2.0 Build 166)  -->
  <g
     id="g48"
     style="fill:#5d6c81;fill-opacity:1">
    <g
       id="Calque_1"
       style="fill:#5d6c81;fill-opacity:1">
      <g
         id="g47"
         style="fill:#5d6c81;fill-opacity:1">
        <polygon
           points="29.695 59.838 1.4 88.136 1.402 90.301 29.695 62.005 29.695 59.838"
           fill="#fff"
           id="polygon1"
           style="fill:#5d6c81;fill-opacity:1" />
        <polygon
           points="29.695 .708 1.304 29.102 1.304 31.262 29.695 2.87 29.695 .708"
           fill="#fff"
           id="polygon2"
           style="fill:#5d6c81;fill-opacity:1" />
        <polygon
           points="29.695 12.531 1.321 40.909 1.324 43.073 29.695 14.698 29.695 12.531"
           fill="#fff"
           id="polygon3"
           style="fill:#5d6c81;fill-opacity:1" />
        <polygon
           points="29.695 24.358 1.34 52.718 1.347 54.881 29.695 26.528 29.695 24.358"
           fill="#fff"
           id="polygon4"
           style="fill:#5d6c81;fill-opacity:1" />
        <polygon
           points="29.695 36.183 1.359 64.523 1.365 66.684 29.695 38.351 29.695 36.183"
           fill="#fff"
           id="polygon5"
           style="fill:#5d6c81;fill-opacity:1" />
        <polygon
           points="29.695 48.011 1.383 76.327 1.385 78.49 29.695 50.177 29.695 48.011"
           fill="#fff"
           id="polygon6"
           style="fill:#5d6c81;fill-opacity:1" />
        <polygon
           points="29.695 71.662 1.416 99.942 1.419 102.108 29.695 73.829 29.695 71.662"
           fill="#fff"
           id="polygon7"
           style="fill:#5d6c81;fill-opacity:1" />
        <polygon
           points="29.695 83.488 1.436 111.748 1.437 113.912 29.695 85.652 29.695 83.488"
           fill="#fff"
           id="polygon8"
           style="fill:#5d6c81;fill-opacity:1" />
        <polygon
           points="29.695 95.317 1.457 123.557 1.457 125.715 29.695 97.476 29.695 95.317"
           fill="#fff"
           id="polygon9"
           style="fill:#5d6c81;fill-opacity:1" />
        <polygon
           points="29.695 107.137 1.472 135.363 1.483 137.523 29.695 109.309 29.695 107.137"
           fill="#fff"
           id="polygon10"
           style="fill:#5d6c81;fill-opacity:1" />
        <polygon
           points="29.695 118.967 1.493 147.171 1.493 149.332 29.695 121.129 29.695 118.967"
           fill="#fff"
           id="polygon11"
           style="fill:#5d6c81;fill-opacity:1" />
        <polygon
           points="29.695 130.794 1.514 158.976 1.521 161.137 29.695 132.961 29.695 130.794"
           fill="#fff"
           id="polygon12"
           style="fill:#5d6c81;fill-opacity:1" />
        <polygon
           points="29.695 142.615 1.528 170.783 1.534 172.946 29.695 144.785 29.695 142.615"
           fill="#fff"
           id="polygon13"
           style="fill:#5d6c81;fill-opacity:1" />
        <polygon
           points="29.695 154.445 1.552 182.59 1.554 184.755 29.695 156.612 29.695 154.445"
           fill="#fff"
           id="polygon14"
           style="fill:#5d6c81;fill-opacity:1" />
        <polygon
           points="29.695 166.269 1.569 194.396 1.574 196.563 29.695 168.44 29.695 166.269"
           fill="#fff"
           id="polygon15"
           style="fill:#5d6c81;fill-opacity:1" />
        <polygon
           points="29.695 178.093 1.589 206.201 1.589 208.371 29.695 180.263 29.695 178.093"
           fill="#fff"
           id="polygon16"
           style="fill:#5d6c81;fill-opacity:1" />
        <polygon
           points="29.695 189.926 1.611 218.013 1.614 220.171 29.695 192.089 29.695 189.926"
           fill="#fff"
           id="polygon17"
           style="fill:#5d6c81;fill-opacity:1" />
        <polygon
           points="29.695 201.749 1.629 229.816 1.629 231.983 29.695 203.916 29.695 201.749"
           fill="#fff"
           id="polygon18"
           style="fill:#5d6c81;fill-opacity:1" />
        <polygon
           points="29.695 213.582 1.65 241.628 1.655 243.786 29.695 215.744 29.695 213.582"
           fill="#fff"
           id="polygon19"
           style="fill:#5d6c81;fill-opacity:1" />
        <polygon
           points="29.695 227.572 29.695 225.398 1.667 253.426 1.673 255.596 29.695 227.572"
           fill="#fff"
           id="polygon20"
           style="fill:#5d6c81;fill-opacity:1" />
        <polygon
           points="14.715 254.373 29.695 239.392 29.695 237.225 1.686 265.236 1.686 265.248 1.144 265.789 1.151 267.951 14.723 254.378 14.715 254.373"
           fill="#fff"
           id="polygon21"
           style="fill:#5d6c81;fill-opacity:1" />
        <polygon
           points="26.543 254.373 29.695 251.22 29.695 249.05 7.084 271.662 7.092 271.669 1.165 277.596 1.165 279.758 26.548 254.378 26.543 254.373"
           fill="#fff"
           id="polygon22"
           style="fill:#5d6c81;fill-opacity:1" />
        <polygon
           points="29.695 260.88 18.915 271.662 18.919 271.669 1.181 289.408 1.187 291.572 29.695 263.059 29.695 260.88"
           fill="#fff"
           id="polygon23"
           style="fill:#5d6c81;fill-opacity:1" />
        <polygon
           points="29.695 272.716 1.201 301.213 1.206 303.374 29.695 274.883 29.695 272.716"
           fill="#fff"
           id="polygon24"
           style="fill:#5d6c81;fill-opacity:1" />
        <polygon
           points="29.695 284.543 1.225 313.019 1.225 315.183 29.695 286.713 29.695 284.543"
           fill="#fff"
           id="polygon25"
           style="fill:#5d6c81;fill-opacity:1" />
        <polygon
           points="29.695 296.373 1.237 324.829 1.241 326.991 29.695 298.537 29.695 296.373"
           fill="#fff"
           id="polygon26"
           style="fill:#5d6c81;fill-opacity:1" />
        <polygon
           points="29.695 308.195 1.26 336.63 1.262 338.79 29.695 310.36 29.695 308.195"
           fill="#fff"
           id="polygon27"
           style="fill:#5d6c81;fill-opacity:1" />
        <polygon
           points="29.695 320.024 1.283 348.437 1.289 350.6 29.695 322.19 29.695 320.024"
           fill="#fff"
           id="polygon28"
           style="fill:#5d6c81;fill-opacity:1" />
        <polygon
           points="29.695 331.852 1.304 360.248 1.304 362.406 29.695 334.012 29.695 331.852"
           fill="#fff"
           id="polygon29"
           style="fill:#5d6c81;fill-opacity:1" />
        <polygon
           points="29.695 343.675 1.321 372.052 1.324 374.216 29.695 345.841 29.695 343.675"
           fill="#fff"
           id="polygon30"
           style="fill:#5d6c81;fill-opacity:1" />
        <polygon
           points="29.695 355.501 1.34 383.86 1.347 386.023 29.695 357.67 29.695 355.501"
           fill="#fff"
           id="polygon31"
           style="fill:#5d6c81;fill-opacity:1" />
        <polygon
           points="29.695 367.326 1.359 395.666 1.365 397.827 29.695 369.494 29.695 367.326"
           fill="#fff"
           id="polygon32"
           style="fill:#5d6c81;fill-opacity:1" />
        <polygon
           points="29.695 379.156 1.383 407.473 1.385 409.636 29.695 381.323 29.695 379.156"
           fill="#fff"
           id="polygon33"
           style="fill:#5d6c81;fill-opacity:1" />
        <polygon
           points="29.695 390.98 1.4 419.279 1.402 421.443 29.695 393.147 29.695 390.98"
           fill="#fff"
           id="polygon34"
           style="fill:#5d6c81;fill-opacity:1" />
        <polygon
           points="29.695 402.803 1.416 431.084 1.419 433.252 29.695 404.973 29.695 402.803"
           fill="#fff"
           id="polygon35"
           style="fill:#5d6c81;fill-opacity:1" />
        <polygon
           points="29.695 414.63 1.436 442.892 1.437 445.056 29.695 416.796 29.695 414.63"
           fill="#fff"
           id="polygon36"
           style="fill:#5d6c81;fill-opacity:1" />
        <polygon
           points="29.695 426.458 1.457 454.698 1.457 456.863 29.695 428.624 29.695 426.458"
           fill="#fff"
           id="polygon37"
           style="fill:#5d6c81;fill-opacity:1" />
        <polygon
           points="29.695 438.284 1.472 466.51 1.483 468.67 29.695 440.455 29.695 438.284"
           fill="#fff"
           id="polygon38"
           style="fill:#5d6c81;fill-opacity:1" />
        <polygon
           points="29.695 450.11 1.493 478.314 1.493 480.478 29.695 452.275 29.695 450.11"
           fill="#fff"
           id="polygon39"
           style="fill:#5d6c81;fill-opacity:1" />
        <polygon
           points="29.695 461.939 1.514 490.123 1.521 492.281 29.695 464.104 29.695 461.939"
           fill="#fff"
           id="polygon40"
           style="fill:#5d6c81;fill-opacity:1" />
        <polygon
           points="29.695 473.764 1.528 501.933 1.534 504.091 29.695 475.929 29.695 473.764"
           fill="#fff"
           id="polygon41"
           style="fill:#5d6c81;fill-opacity:1" />
        <polygon
           points="29.695 485.586 1.552 513.731 1.554 515.9 29.695 487.757 29.695 485.586"
           fill="#fff"
           id="polygon42"
           style="fill:#5d6c81;fill-opacity:1" />
        <path
           d="M1.569,525.538l.006,2.168,2.811-2.812c.009-.771.048-1.535.116-2.29l-2.934,2.934Z"
           fill="#fff"
           id="path42"
           style="fill:#5d6c81;fill-opacity:1" />
        <path
           d="M1.589,537.345v2.168l4.477-4.478c-.192-.539-.366-1.087-.527-1.641l-3.95,3.951Z"
           fill="#fff"
           id="path43"
           style="fill:#5d6c81;fill-opacity:1" />
        <path
           d="M1.611,549.154l.004,2.166,8.585-8.586c-.311-.415-.61-.839-.899-1.271l-7.69,7.69Z"
           fill="#fff"
           id="path44"
           style="fill:#5d6c81;fill-opacity:1" />
        <path
           d="M5.796,556.794c.198.161.395.323.599.479l.627.463,9.091-9.091c-.412-.308-.814-.629-1.209-.958l-9.107,9.108Z"
           fill="#fff"
           id="path45"
           style="fill:#5d6c81;fill-opacity:1" />
        <path
           d="M12.581,561.836l1.249.921,9.988-9.989c-.529-.188-1.052-.386-1.567-.603l-9.67,9.671Z"
           fill="#fff"
           id="path46"
           style="fill:#5d6c81;fill-opacity:1" />
        <polygon
           points="20.634 567.776 29.695 558.713 29.695 556.549 19.389 566.857 20.634 567.776"
           fill="#fff"
           id="polygon46"
           style="fill:#5d6c81;fill-opacity:1" />
        <polygon
           points="27.437 572.794 29.695 570.535 29.695 568.373 26.193 571.876 27.437 572.794"
           fill="#fff"
           id="polygon47"
           style="fill:#5d6c81;fill-opacity:1" />
      </g>
    </g>
  </g>
</svg>
