<?xml version="1.0" encoding="UTF-8"?>
<svg xmlns="http://www.w3.org/2000/svg" width="41.55mm" height="32.4mm" version="1.1" viewBox="0 0 117.78 91.843">
  <!-- Generator: Adobe Illustrator 28.7.4, SVG Export Plug-In . SVG Version: 1.2.0 Build 166)  -->
  <g>
    <g id="Calque_1">
      <g>
        <g>
          <path d="M93.098,82.29c-5.527,0-10.272-3.986-11.342-9.294l-1.544-.086-.059-.47-4.206-.075-.153.426-11.443.153c-1.04,5.319-5.737,9.345-11.356,9.345-5.352,0-9.868-3.65-11.186-8.591-1.318,4.941-5.833,8.591-11.184,8.591-6.07,0-11.063-4.697-11.534-10.647l-2.057.028-1.842-1.944-.04-.746-1.083-.048-8.665-8.512-1.013-7.479.609-13.889,6.696-.204.851-.984,2.133-.064-.033-3.043,3.389-.24-.046-2.883-.769-.126.135-1.578-.557-.215.705-4.509.494.053.131-.56,1.025.099.096-2.008,1.237-2.343,3.704.388.596,2.552v1.779l1.913.103.052-8.718.26-.15.14-10.601,4.449,3.341.029,7.742.198.198-.081,19.143,15.807.454.04-18.008.252-.126-.121-8.899,4.612.961.082,8.768.136.236.143,14.719,4.022.118v-.038s-.972-.097-.972-.097v-4.712l.375-.035v-.562l.375-.102v-.598l2.428-2.775,2.242.065-.109-9.131h5.569l.074,17.894.232.14-.04.652h1.03l-.056,1.508,1.62.04v-2.14h-.746v-6.378h2.152l.116-.504,3.871.136.769-.229.81.709,1.165-.031-.03-.095,3.01-1.499,8.656.279.399,2.061,1.829.011v-.125h5.728l-.221,5.256h-5.539v-.271h-1.483l-.032.648-.234.292v.347l.366.82.566-.141,5.756.485.634,4.899-5.72,1.11-2.86.657-.112,1.677,2.146,3.886.687-.014,10.272,2.547.03.783,8.512,1.597,1.142,1.486,2.625.952-3.918,12.233-.208,1.791-4.981,1.58c-.407,6.012-5.431,10.78-11.547,10.78ZM85.97,70.775c.028,3.901,3.226,7.075,7.128,7.075,3.934,0,7.134-3.198,7.134-7.129,0-.215-.011-.422-.029-.629l-.166-1.777,5.654-1.793,2.567-8.015-.758-.986-10.327-1.938-.038-.986-6.462-1.602-2.779.057-4.459-8.074.071-.423-2.345-.209.107-.98-.75-.206.998-3.288-7.068,1.39-6.141-.151.062,1.606-1.929.061-.249.501-1.342-.111-.351,1.069-5.475.26.066-2.69-5.054-.068-.031-2.925-2.012-.059v4.169s-4.12-.643-4.12-.643l-.598-1.164-13.98-.402-.064,2.879-4.035-.735-.396-.427-2.343.719-.951.153-5.359-.125.059-4.359-1.075.076.034,3.215-4.536.138-.852.984-4.523.137-.412,9.375.756,5.578,6.366,6.254,3.405.152.112,2.092.427-.64,4.159.976-.427,2.11c-.098.486-.148.977-.148,1.458,0,3.931,3.199,7.129,7.131,7.129s7.132-3.198,7.132-7.129c0-1.859-.711-3.618-2.001-4.952l-3.488-3.609,9.592-.294.466,1.143.628-.802,8.036.089-3.296,3.653c-1.182,1.308-1.833,3.002-1.833,4.772,0,3.931,3.2,7.129,7.134,7.129s7.131-3.198,7.131-7.129c0-1.709-.616-3.365-1.735-4.661l-3.217-3.726,8.856.098,2.092,1.672.08,4.374,6.455-.09.187-.519,11.231.201.062.483,1.817-.079.017,2.301ZM41.81,67.733c.019-.072.039-.143.06-.214l-.121-.008c.021.074.042.148.062.223ZM82.622,39.077l1.629-.038.09-2.121,1.065-.5-.138-.308v-2.851l.311-.388.062-1.27-.064-.333-2.385-.077.421,1.348-7.844.213.377,1.708-.505,1.09,6.981,3.527ZM25.204,38.852l.291-.047.638-.198.064-3.254.444-.101.018-2.988-1.67-.057-.037.674-.225.024-.081,5.934.557.013ZM71.351,36.742l-.038-.106-.983.082,1.021.025Z" fill="#fff"/>
          <path d="M28.613,8.775l1.49,1.12.029,7.613.193.193-.088,20.69.153-.703,18.663.536v-1.703l.038-16.92.267-.133-.109-7.971,1.599.333.075,7.953.136.236.153,15.768,5.703.167.03,2.88,1.171.016.138-5.796-1.005-.1v-1.989l.374-.035v-.78l.375-.101v-1.182l1.591-1.819,1.871.054,1.189,1.811-.087,1.218.162.107-.147-12.276h2.557l.07,17.243.177.107-.082,1.336h1.068l-.054,1.47,7.883.194.284-.056-1.211-.612-.934-2.599-1.348.111v-1.63l.382-.192.008-.086-.253-.006v-.186h-.883v-3.378h1.847l.106-.462,1.983.069.061.153h.224c.053,0,.105.005.155.014l.668-.199.629.551,3.733-.102-.24-.767,1.528-.761,7.081.229.405,2.093,4.567.027v-.134h2.663l-.095,2.256h-2.6v-.271h-4.411l-.079,1.59-.26.325v1.193l.729,1.633-.073.715,1.898-.473,4.302.362.298,2.302-4.337.841-4.642,1.066-.411.01,1.004.622-.095,1.409-.318.118-.061.363,3.105,5.623,1.394-.028,8.985,2.228.033.852,9.125,1.712,1.06,1.378,1.678.609-3.522,10.998-.113.972-5.082,1.612c.004.104.005.208.005.315,0,5.552-4.52,10.069-10.074,10.069-5.261,0-9.616-4.085-10.036-9.25l-.271.011-1.247-.069-.065-.518-6.581-.117-.165.459-11.416.152-.109-5.919-.223-.178-1.476-.017c1.011,1.601,1.556,3.464,1.556,5.376,0,5.552-4.518,10.069-10.071,10.069s-10.074-4.517-10.074-10.069c0-1.993.585-3.919,1.669-5.556l-.217-.003-.763.973-3.277-.228-.424-1.041-1.062.032c1.202,1.691,1.851,3.71,1.851,5.821,0,5.552-4.519,10.069-10.073,10.069s-10.071-4.517-10.071-10.069c0-.199.006-.399.018-.599l-2.901.04-1.011-1.067-.083-1.552-1.867-.083-7.888-7.75-.926-6.836.542-12.364,5.962-.181.851-.984,2.944-.089-.033-3.101,3.396-.24-.064-4.035.688-.445v-.822l-.062-.147-1.285-.211.112-1.317-.478-.185.297-1.9.39.042.135-.574,1.287.125.156-3.248.607-1.15,1.633.171.314,1.344v2.846l.458.065.078.146,1.947.104v.788l.155.096.076,1.913h-.257l.071,1.215-2.091-.071-.143-.194-.058,1.055-.278.03-.119,8.749,2.18.05.531-.085,1.634-.507.217-.423-.07-.028.055-2.756.46-.105.113-19.029.254-.147.112-8.5M20.489,28.622l-.06-.118-.047.545.756.124.483,1.149v1.895l-.675.438.074,4.6-3.403.241.034,3.157-3.724.113-.851.984-5.257.159-.479,10.9.843,6.22,7.143,7.017,2.621.117.124,2.327.212.224,1.754-.024.544-.814,1.73.406-.139.685c-.118.581-.178,1.171-.178,1.755,0,4.758,3.872,8.629,8.631,8.629s8.633-3.871,8.633-8.629c0-2.25-.861-4.379-2.423-5.995l-1.131-1.17,5.161-.158.463,1.136,1.62.113.73-.931,3.971.044-1.07,1.185c-1.431,1.584-2.218,3.635-2.218,5.777,0,4.758,3.873,8.629,8.634,8.629s8.631-3.871,8.631-8.629c0-2.069-.746-4.073-2.1-5.641l-1.043-1.208,5.015.056,1.139.91.095,5.163,8.988-.126.174-.485,8.858.158.072.566,1.643-.072.005.745c.034,4.723,3.904,8.564,8.628,8.564,4.761,0,8.634-3.871,8.634-8.629,0-.262-.013-.513-.036-.765l-.053-.577,5.284-1.676.043-.253,3.121-9.744-.77-.279-.979-1.274-9.714-1.823-.035-.917-7.75-1.921-2.072.042-3.769-6.823.252-1.505-2.436-.217.08-.731-.497-.136.47-1.547,3.406-.08,4.449-1.036,2.354-.457-2.2-.186-5.172,1.29.094-2.213,1.574-.739-.607-1.36v-2.005l.285-.355.096-1.936-.327-1.688-5.569-.179-.104.052.441,1.413-6.2.168-.163-.143h-1.967l.136-.239h-.107l-.055.239h-1.552v.498h.883v.219l1.409.033.142,1.071.145-.066.312,1.414-.451.969-.154.072.463,1.29,4.438,2.243-4.55.895-7.574-.187.066,1.693-1.316.042-.195.394-1.507-.125-.398,1.212-2.833.134.274-11.167h.697l-.119-.653-.35-.232.112-1.57-.51-.776-.441-.013-.789.901v1.743l-.374.102v.434l.663.065-.204,8.557-4.002-.054-.031-2.902-4.998-.147v3.962s-1.634-.255-1.634-.255l-.654-1.274-16.375-.47-.059,2.631-1.814-.33-.789-.85-.031-.947-.66,1.287-2.36.725-.712.114-3.737-.087.146-10.763h-.068v-2.754l1.337.096-.263-.495-.971-.138v-.312l-1.358,1.275M25.691,2.827l-.078,5.908-.089,6.794-.267.154-.01,1.72-.012,2.034-1.949-.204-1.633-.171-2.018-.211-.947,1.794-.607,1.15-.312.59-.032.667-.005.102-.763-.074-.128.546-.598-.064-.442,2.826-.297,1.9-.373,2.391.635.245-.157,1.839.901.148.003.21-.563.04-2.819.199.03,2.825.002.16h-.004s-1.317.04-1.317.04l-.851.984-4.645.141-2.784.085-.122,2.782-.542,12.364-.012.268.036.266.926,6.836.138,1.018.733.72,7.888,7.75.82.806.356.016.698.737,1.011,1.066.904.954,1.315-.018h.07c1.146,6.044,6.469,10.628,12.842,10.628,4.735,0,8.89-2.53,11.184-6.309,2.294,3.779,6.45,6.309,11.185,6.309,5.919,0,10.932-3.955,12.535-9.361l9.243-.123,2.08-.028.141-.394,1.833.033.053.421,1.689.094c1.62,5.417,6.687,9.358,12.528,9.358,6.555,0,11.999-4.848,12.933-11.145l3.125-.991,1.848-.586.224-1.926.08-.682,3.433-10.72.881-2.75-2.715-.985-.856-.311-.527-.685-.699-.908-1.126-.211-6.772-1.271-.027-.714-2.189-.543-8.985-2.228-.362-.09-1.498-2.713.008-.125,1.774-.408,4.286-.832,2.765-.536-.361-2.794-.298-2.302-.218-1.688h.612l.121-2.874.095-2.256.132-3.127h-7.906l-.369-1.908-2.393-.077-7.081-.229-.756-.024-.677.337-1.528.761-1.051.523h-.013s-.991-.868-.991-.868l-1.327.395-.406-.014-1.983-.069-2.472-.086-.126.546h-1.532l-.036-8.728-.012-2.988h-8.581l.036,3.036.073,6.051-1.386-.04-.931,1.064-1.591,1.819-.742.848v.014l-.375.102v.344l-.374.035v4.64l-.065-.002-.125-12.883-.008-.787-.136-.236-.067-7.166-.023-2.416-2.365-.493-1.599-.333-3.663-.763.051,3.741.083,6.087-.238.119-.004,1.851-.035,15.542-12.804-.368.072-17.055.005-1.248-.203-.203-.024-6.379-.006-1.491-1.192-.896-1.49-1.12-4.724-3.549h0ZM77.626,34.201l4.045-.11,2.097-.057v1.495l-.888.417-.065,1.547-2.592-1.31-2.61-1.319.108-.233-.095-.431h0ZM74.575,42.764l.323-.064,4.455-.876-.721,2.373,1.005.275-.134,1.23,2.755.246.117.211,3.769,6.823.876,1.586,1.812-.037,1.674-.034,5.174,1.283.04,1.055,2.353.442,8.493,1.594-2.067,6.454-3.764,1.194-2.302.73.222,2.405.053.577c.016.17.023.33.023.489,0,3.104-2.527,5.629-5.634,5.629-3.081,0-5.606-2.506-5.628-5.586l-.005-.745-.023-3.111-1.993.087-.051-.402-2.594-.046-8.858-.158-2.15-.038-.199.553-3.922.055-.04-2.176-.026-1.409-1.101-.88-1.139-.91-.807-.645-1.033-.011-5.015-.056-6.651-.074.007.008-4.189-.046-3.971-.044-.704-.008-.152-.373-2.083.064-5.161.158-6.778.208,4.713,4.876,1.131,1.17c1.019,1.054,1.58,2.443,1.58,3.91,0,3.104-2.527,5.629-5.633,5.629s-5.631-2.525-5.631-5.629c0-.383.04-.773.118-1.16l.139-.685.578-2.852-2.833-.664-1.73-.406-.384-.09-.084-1.577-2.717-.121-1.472-.066-5.59-5.492-.669-4.937.345-7.849,2.473-.075,1.317-.04.851-.985,2.408-.073.9-.027-.014,1.017,2.97.069,3.737.087.274.006.271-.043.712-.114.206-.033.199-.061,1.343-.412.095.103.983.179,1.814.33,3.459.63.07-3.127,11.584.333.541,1.055,1.509.235,1.635.255,3.463.54v-1.444s1.986.027,1.986.027l2.073.028-.068,2.786,3.22-.153,2.833-.134,2.064-.098.304-.926,1.177.097.302-.609,2.542-.08-.06-1.518,4.377.108.33.008h0ZM52.994,76.35c-3.107,0-5.634-2.525-5.634-5.629,0-1.397.513-2.735,1.445-3.766l1.07-1.186,3.211-3.557,3.125,3.619,1.043,1.208c.884,1.024,1.371,2.331,1.371,3.681,0,3.104-2.526,5.629-5.631,5.629h0Z" fill="#5D6C83"/>
        </g>
        <g>
          <path d="M68.147,65.138l-.895-22.981,13.029.333,5.648,10.731.313,11.917h-18.096ZM81.685,60.698l-.167-6.325-3.953-7.51-5.692-.146.545,13.981h9.266Z" fill="#fff"/>
          <path d="M68.814,43.697l10.55.27,5.075,9.643.264,10.027h-15.113l-.776-19.94M70.976,62.198h12.249l-.216-8.214-4.525-8.598-8.171-.21.663,17.022M65.692,40.616l.124,3.198.776,19.94.112,2.883h21.078l-.081-3.079-.264-10.027-.018-.699-.326-.619-5.075-9.643-.819-1.557-1.759-.045-10.55-.27-3.199-.082h0ZM73.861,59.198l-.426-10.941,3.213.083,3.38,6.422.117,4.436h-6.284Z" fill="#5D6C83"/>
        </g>
        <g>
          <rect x="39.501" y="35.616" width="4.44" height="44.763" transform="translate(-16.532 99.361) rotate(-89.647)" fill="#fff"/>
          <path d="M20.845,57.157l41.762.24-.008,1.44-41.763-.24.009-1.44M17.863,54.14l-.018,2.999-.009,1.44-.018,3.001,3.001.017,41.763.24,3,.017.017-3,.008-1.44.017-3-3-.017-41.762-.24-2.999-.017h0Z" fill="#5D6C83"/>
        </g>
      </g>
    </g>
  </g>
</svg>