<?xml version="1.0" encoding="UTF-8" standalone="no"?>
<svg
   width="14.531mm"
   height="14.431mm"
   version="1.1"
   viewBox="0 0 41.189 40.906"
   id="svg1"
   sodipodi:docname="LuminositeFurtifActif.svg"
   inkscape:version="1.4 (86a8ad7, 2024-10-11)"
   xmlns:inkscape="http://www.inkscape.org/namespaces/inkscape"
   xmlns:sodipodi="http://sodipodi.sourceforge.net/DTD/sodipodi-0.dtd"
   xmlns="http://www.w3.org/2000/svg"
   xmlns:svg="http://www.w3.org/2000/svg">
  <defs
     id="defs1" />
  <sodipodi:namedview
     id="namedview1"
     pagecolor="#ffffff"
     bordercolor="#000000"
     borderopacity="0.25"
     inkscape:showpageshadow="2"
     inkscape:pageopacity="0.0"
     inkscape:pagecheckerboard="0"
     inkscape:deskcolor="#d1d1d1"
     inkscape:document-units="mm"
     inkscape:zoom="22.606282"
     inkscape:cx="27.47024"
     inkscape:cy="27.271181"
     inkscape:window-width="2880"
     inkscape:window-height="1514"
     inkscape:window-x="-11"
     inkscape:window-y="-11"
     inkscape:window-maximized="1"
     inkscape:current-layer="svg1" />
  <!-- Generator: Adobe Illustrator 28.7.4, SVG Export Plug-In . SVG Version: 1.2.0 Build 166)  -->
  <g
     id="g1"
     style="fill:#ffffff;fill-opacity:1">
    <g
       id="Calque_1"
       style="fill:#ffffff;fill-opacity:1">
      <path
         d="M15.602,3.401c-1.174,1.358-2.318,2.654-3.097,4.201-.787,1.561-1.367,3.189-1.628,4.93-.257,1.709-.255,3.41.045,5.106.303,1.723.862,3.364,1.73,4.892.866,1.525,1.93,2.893,3.236,4.064,3.203,2.866,6.958,4.269,11.252,4.092,4.247-.175,7.838-1.903,10.785-4.907.376.263.201.481.118.683-.596,1.426-1.416,2.723-2.397,3.906-2.588,3.124-5.834,5.236-9.834,6.024-6.23,1.228-11.723-.32-16.209-4.844-3.338-3.365-5.069-7.514-4.959-12.293.165-7.242,3.6-12.462,10.021-15.752.348-.178.353-.169.937-.102Z"
         fill="#70839c"
         fill-rule="evenodd"
         id="path1"
         style="fill:#ffffff;fill-opacity:1" />
    </g>
  </g>
</svg>
