<?xml version="1.0" encoding="UTF-8" standalone="no"?>
<svg
   width="14.531mm"
   height="14.431mm"
   version="1.1"
   viewBox="0 0 41.189 40.906"
   id="svg10"
   sodipodi:docname="LuminositeClairInactif.svg"
   inkscape:version="1.4 (86a8ad7, 2024-10-11)"
   xmlns:inkscape="http://www.inkscape.org/namespaces/inkscape"
   xmlns:sodipodi="http://sodipodi.sourceforge.net/DTD/sodipodi-0.dtd"
   xmlns="http://www.w3.org/2000/svg"
   xmlns:svg="http://www.w3.org/2000/svg">
  <defs
     id="defs10" />
  <sodipodi:namedview
     id="namedview10"
     pagecolor="#ffffff"
     bordercolor="#000000"
     borderopacity="0.25"
     inkscape:showpageshadow="2"
     inkscape:pageopacity="0.0"
     inkscape:pagecheckerboard="0"
     inkscape:deskcolor="#d1d1d1"
     inkscape:document-units="mm"
     inkscape:zoom="22.606282"
     inkscape:cx="27.47024"
     inkscape:cy="27.271181"
     inkscape:window-width="2880"
     inkscape:window-height="1514"
     inkscape:window-x="-11"
     inkscape:window-y="-11"
     inkscape:window-maximized="1"
     inkscape:current-layer="svg10" />
  <!-- Generator: Adobe Illustrator 28.7.4, SVG Export Plug-In . SVG Version: 1.2.0 Build 166)  -->
  <g
     id="g10"
     style="fill:#5d6c83;fill-opacity:1">
    <g
       id="Calque_1"
       style="fill:#5d6c83;fill-opacity:1">
      <g
         id="g9"
         style="fill:#5d6c83;fill-opacity:1">
        <path
           d="M20.586,8.399c-6.351-.15-11.986,5.116-11.965,11.945.025,6.836,5.652,11.902,11.951,11.904,6.352.002,11.974-5.235,11.927-12.021-.044-6.513-5.409-11.929-11.913-11.828Z"
           fill="#70839c"
           fill-rule="evenodd"
           id="path1"
           style="fill:#5d6c83;fill-opacity:1" />
        <path
           d="M39.287,19.176c-1.236-.033-2.473-.038-3.707.001-.822.027-1.222.477-1.207,1.215.012.694.48,1.129,1.28,1.155.589.019,3.002.023,3.62,0,.794-.029,1.273-.486,1.273-1.174,0-.673-.485-1.177-1.26-1.198Z"
           fill="#70839c"
           fill-rule="evenodd"
           id="path2"
           style="fill:#5d6c83;fill-opacity:1" />
        <path
           d="M32.032,30.181c-.571-.55-1.235-.571-1.73-.111-.517.48-.554,1.131.003,1.726.863.923,1.766,1.81,2.684,2.68.216.205.558.279.723.356.598-.042.967-.225,1.146-.636.235-.529.16-1.037-.263-1.461-.851-.854-1.693-1.717-2.562-2.553Z"
           fill="#70839c"
           fill-rule="evenodd"
           id="path3"
           style="fill:#5d6c83;fill-opacity:1" />
        <path
           d="M20.612,6.518c.704-.003,1.175-.51,1.213-1.352.024-.587.024-3.065-.017-3.709-.032-.499-.288-.898-.794-1.07-.466-.159-.924-.034-1.211.31-.225.267-.364.677-.38,1.031-.047,1.147-.036,2.297-.019,3.445.014.818.514,1.349,1.208,1.346Z"
           fill="#70839c"
           fill-rule="evenodd"
           id="path4"
           style="fill:#5d6c83;fill-opacity:1" />
        <path
           d="M6.705,8.098c.725.729,1.448,1.459,2.181,2.18.166.164.35.325.553.429.827.422,1.757-.15,1.736-1.27-.081-.132-.222-.453-.442-.706-.384-.442-.812-.846-1.229-1.261-.458-.456-.907-.922-1.389-1.352-.476-.426-1.172-.413-1.606-.018-.447.41-.515,1.057-.15,1.602.097.144.223.271.347.396Z"
           fill="#70839c"
           fill-rule="evenodd"
           id="path5"
           style="fill:#5d6c83;fill-opacity:1" />
        <path
           d="M32.139,10.5c.849-.817,1.68-1.651,2.489-2.506.229-.242.358-.581.479-.787-.062-.649-.293-1.034-.765-1.252-.527-.243-.987-.077-1.371.297-.864.843-1.725,1.69-2.556,2.564-.521.546-.53,1.291-.091,1.754.468.494,1.234.485,1.814-.071Z"
           fill="#70839c"
           fill-rule="evenodd"
           id="path6"
           style="fill:#5d6c83;fill-opacity:1" />
        <path
           d="M10.288,29.746c-.522-.142-.976.012-1.36.406-.779.797-1.575,1.58-2.354,2.377-.162.165-.318.354-.413.561-.361.797.232,1.672,1.255,1.648.133-.066.439-.142.638-.332.931-.894,1.862-1.792,2.733-2.743.612-.667.317-1.697-.498-1.918Z"
           fill="#70839c"
           fill-rule="evenodd"
           id="path7"
           style="fill:#5d6c83;fill-opacity:1" />
        <path
           d="M6.779,20.216c-.023-.581-.453-1.099-1.054-1.114-1.355-.035-2.715-.041-4.069.005-.655.023-1.068.571-1.042,1.195.031.691.396,1.081,1.108,1.114.618.028,1.239.006,1.858.006,0,.001.709.005,1.062.002.353-.002.711.02,1.061-.019.646-.07,1.097-.59,1.074-1.19Z"
           fill="#70839c"
           fill-rule="evenodd"
           id="path8"
           style="fill:#5d6c83;fill-opacity:1" />
        <path
           d="M20.518,34.123c-.743-.007-1.152.404-1.18,1.226-.02.617-.004,1.235-.003,1.853,0,.588-.01,1.177.003,1.765.02.802.534,1.372,1.192,1.347.638-.024,1.137-.57,1.147-1.313.016-1.206.016-2.412-.003-3.618-.012-.808-.443-1.253-1.156-1.26Z"
           fill="#70839c"
           fill-rule="evenodd"
           id="path9"
           style="fill:#5d6c83;fill-opacity:1" />
      </g>
    </g>
  </g>
</svg>
