<?xml version="1.0" encoding="UTF-8" standalone="no"?>
<svg
   width="22.368389mm"
   height="17.917608mm"
   version="1.1"
   viewBox="0 0 63.407619 50.789236"
   id="svg1"
   sodipodi:docname="Clair_IconeRepertoiresMultiples.svg"
   inkscape:version="1.4 (86a8ad7, 2024-10-11)"
   xmlns:inkscape="http://www.inkscape.org/namespaces/inkscape"
   xmlns:sodipodi="http://sodipodi.sourceforge.net/DTD/sodipodi-0.dtd"
   xmlns="http://www.w3.org/2000/svg"
   xmlns:svg="http://www.w3.org/2000/svg">
  <defs
     id="defs1" />
  <sodipodi:namedview
     id="namedview1"
     pagecolor="#ffffff"
     bordercolor="#000000"
     borderopacity="0.25"
     inkscape:showpageshadow="2"
     inkscape:pageopacity="0.0"
     inkscape:pagecheckerboard="0"
     inkscape:deskcolor="#d1d1d1"
     inkscape:document-units="mm"
     inkscape:zoom="11.499906"
     inkscape:cx="42.261215"
     inkscape:cy="33.782885"
     inkscape:window-width="1920"
     inkscape:window-height="1009"
     inkscape:window-x="3832"
     inkscape:window-y="-8"
     inkscape:window-maximized="1"
     inkscape:current-layer="svg1" />
  <!-- Generator: Adobe Illustrator 28.7.4, SVG Export Plug-In . SVG Version: 1.2.0 Build 166)  -->
  <g
     id="g1"
     transform="translate(-1.3823832,-0.97888106)"
     style="fill:#918f90;fill-opacity:1">
    <g
       id="Calque_1"
       style="fill:#918f90;fill-opacity:1">
      <path
         d="M 58.296,9.064 H 40.44 L 32.353,0.978 H 16.092 C 13.25,0.978 10.769,2.832 9.92,5.514 8.639,5.75 7.459,6.363 6.519,7.304 5.723,8.1 5.164,9.067 4.866,10.122 c -2.055,0.95 -3.483,3.024 -3.483,5.436 0,0.028 0,0.057 0,0.085 v 30.049 c -0.047,3.309 2.598,6.03 5.908,6.077 0.028,0 0.057,0 0.085,0 h 42.203 c 2.373,0 4.417,-1.382 5.389,-3.382 1.101,-0.288 2.112,-0.857 2.938,-1.682 0.747,-0.747 1.286,-1.646 1.596,-2.644 3.069,-0.577 5.288,-3.234 5.288,-6.456 V 15.558 c 0,-3.581 -2.913,-6.493 -6.493,-6.493 z m -1.098,36.932 c -0.524,0.524 -1.136,0.927 -1.802,1.2 0.111,-0.456 0.176,-0.93 0.176,-1.42 0,-0.028 0,-0.057 0,-0.085 V 23.645 c 0,-3.31 -2.683,-5.993 -5.993,-5.993 H 31.516 L 23.429,9.565 H 7.375 C 6.928,9.565 6.494,9.618 6.075,9.71 6.346,9.085 6.729,8.507 7.225,8.01 8.263,6.973 9.642,6.402 11.108,6.402 h 15.847 l 8.087,8.087 h 18.27 c 3.029,0 5.493,2.464 5.493,5.493 v 22.131 c 0,1.467 -0.571,2.847 -1.608,3.884 z m 6.591,-8.308 c 0,2.508 -1.68,4.637 -4.052,5.279 0.041,-0.308 0.069,-0.62 0.069,-0.94 V 19.981 c 0,-3.581 -2.913,-6.493 -6.493,-6.493 H 35.457 L 27.37,5.401 H 11.109 c -0.032,0 -0.063,0.004 -0.095,0.005 0.83,-2.046 2.819,-3.428 5.078,-3.428 h 15.847 l 8.087,8.087 h 18.27 c 3.029,0 5.493,2.464 5.493,5.493 v 22.131 z"
         fill="#ffffff"
         id="path1"
         style="fill:#918f90;fill-opacity:1" />
    </g>
  </g>
</svg>
