<?xml version="1.0" encoding="UTF-8" standalone="no"?>
<svg
   width="21.733mm"
   height="22.65mm"
   version="1.1"
   viewBox="0 0 61.606 64.205"
   id="svg3"
   sodipodi:docname="QuitterInactif.svg"
   inkscape:version="1.4 (86a8ad7, 2024-10-11)"
   xmlns:inkscape="http://www.inkscape.org/namespaces/inkscape"
   xmlns:sodipodi="http://sodipodi.sourceforge.net/DTD/sodipodi-0.dtd"
   xmlns="http://www.w3.org/2000/svg"
   xmlns:svg="http://www.w3.org/2000/svg">
  <defs
     id="defs3" />
  <sodipodi:namedview
     id="namedview3"
     pagecolor="#ffffff"
     bordercolor="#000000"
     borderopacity="0.25"
     inkscape:showpageshadow="2"
     inkscape:pageopacity="0.0"
     inkscape:pagecheckerboard="0"
     inkscape:deskcolor="#d1d1d1"
     inkscape:document-units="mm"
     inkscape:zoom="14.403146"
     inkscape:cx="41.102132"
     inkscape:cy="42.803149"
     inkscape:window-width="2880"
     inkscape:window-height="1514"
     inkscape:window-x="-11"
     inkscape:window-y="-11"
     inkscape:window-maximized="1"
     inkscape:current-layer="g2" />
  <!-- Generator: Adobe Illustrator 28.7.4, SVG Export Plug-In . SVG Version: 1.2.0 Build 166)  -->
  <g
     id="g3">
    <g
       id="Calque_1">
      <g
         id="g2">
        <path
           d="M10.461,61.493c-4.126,0-7.483-3.359-7.483-7.488V10.389c0-4.126,3.357-7.483,7.483-7.483h40.398c4.128,0,7.486,3.357,7.486,7.483v43.615c0,4.129-3.358,7.488-7.486,7.488H10.461ZM38.137,51.918v-15.812h-1.995v10.816l-20.704-15.455,20.704-15.453v10.814h1.995v-14.93H11.543v40.02h26.595Z"
           fill="#fff"
           id="path1" />
        <path
           d="M50.859,4.906c3.031,0,5.486,2.454,5.486,5.483v43.615c0,3.03-2.455,5.488-5.486,5.488H10.461c-3.025,0-5.483-2.458-5.483-5.488V10.389c0-3.029,2.458-5.483,5.483-5.483h40.398M9.543,53.918h30.595v-19.812h-5.995v8.827l-15.36-11.466,15.36-11.465v8.826h5.995V9.899H9.543v44.02M50.859.906H10.461C5.232.906.978,5.16.978,10.389v43.615c0,5.232,4.254,9.488,9.483,9.488h40.398c5.231,0,9.486-4.256,9.486-9.488V10.389c0-5.229-4.256-9.483-9.486-9.483h0ZM13.543,13.899h22.09l-3.883,2.898-15.36,11.465-2.847,2.125V13.899h0ZM13.543,49.918v-17.371l2.847,2.125,15.36,11.466,4.388,3.275v.505H13.543Z"
           fill="#445060"
           id="path2"
           style="fill:#e5e5e5;fill-opacity:1" />
      </g>
    </g>
  </g>
</svg>
