<?xml version="1.0" encoding="UTF-8" standalone="no"?>
<svg
   width="630.15mm"
   height="305.067mm"
   version="1.1"
   viewBox="0 0 1786.252 864.756"
   id="svg8"
   sodipodi:docname="Clair_LigneContour.svg"
   inkscape:version="1.4 (86a8ad7, 2024-10-11)"
   xmlns:inkscape="http://www.inkscape.org/namespaces/inkscape"
   xmlns:sodipodi="http://sodipodi.sourceforge.net/DTD/sodipodi-0.dtd"
   xmlns="http://www.w3.org/2000/svg"
   xmlns:svg="http://www.w3.org/2000/svg">
  <defs
     id="defs8" />
  <sodipodi:namedview
     id="namedview8"
     pagecolor="#ffffff"
     bordercolor="#000000"
     borderopacity="0.25"
     inkscape:showpageshadow="2"
     inkscape:pageopacity="0.0"
     inkscape:pagecheckerboard="true"
     inkscape:deskcolor="#d1d1d1"
     inkscape:document-units="mm"
     inkscape:zoom="2.8204462"
     inkscape:cx="541.22641"
     inkscape:cy="188.44536"
     inkscape:window-width="2880"
     inkscape:window-height="1514"
     inkscape:window-x="-11"
     inkscape:window-y="-11"
     inkscape:window-maximized="1"
     inkscape:current-layer="g2" />
  <!-- Generator: Adobe Illustrator 28.7.4, SVG Export Plug-In . SVG Version: 1.2.0 Build 166)  -->
  <g
     id="g8">
    <g
       id="Calque_1">
      <g
         id="g2"
         transform="matrix(1.1011113,0,0,1,-44.052368,0)">
        <polygon
           points="375.407,14.821 369.532,1.446 366.632,1.446 366.632,16.647 78.012,16.647 78.012,18.647 366.874,18.647 366.874,18.646 368.657,18.646 368.657,5.121 368.757,5.121 374.632,18.646 376.207,18.646 382.107,5.121 382.207,5.121 382.207,18.646 384.307,18.646 384.307,1.446 381.407,1.446 375.532,14.821 "
           fill="#ff001e"
           id="polygon1"
           style="fill:#525051;fill-opacity:1" />
        <path
           d="m 400.619,1.921 c -0.958,-0.45 -2.571,-0.675 -4.837,-0.675 -2.284,0 -3.9,0.225 -4.85,0.675 -0.95,0.45 -1.554,1.238 -1.812,2.363 -0.259,1.125 -0.388,3.046 -0.388,5.762 0,2.716 0.129,4.638 0.388,5.763 0.258,1.125 0.862,1.913 1.812,2.362 0.95,0.45 2.566,0.675 4.85,0.675 2.266,0 3.879,-0.225 4.837,-0.675 0.958,-0.45 1.566,-1.237 1.825,-2.362 0.258,-1.125 0.387,-3.046 0.387,-5.763 0,-2.717 -0.129,-4.637 -0.387,-5.762 -0.259,-1.125 -0.867,-1.913 -1.825,-2.363 z m -0.212,12.975 c -0.184,0.867 -0.575,1.409 -1.175,1.625 -0.6,0.217 -1.75,0.325 -3.45,0.325 -1.7,0 -2.854,-0.108 -3.462,-0.325 -0.609,-0.216 -1.004,-0.758 -1.188,-1.625 -0.184,-0.866 -0.275,-2.483 -0.275,-4.85 0,-2.367 0.092,-3.983 0.275,-4.85 0.183,-0.866 0.579,-1.408 1.188,-1.625 0.608,-0.216 1.762,-0.325 3.462,-0.325 1.7,0 2.85,0.108 3.45,0.325 0.6,0.217 0.992,0.759 1.175,1.625 0.183,0.867 0.275,2.484 0.275,4.85 0,2.366 -0.092,3.984 -0.275,4.85 z"
           fill="#ff001e"
           id="path1"
           style="fill:#525051;fill-opacity:1" />
        <path
           d="m 417.781,2.083 c -0.983,-0.425 -2.667,-0.638 -5.05,-0.638 h -5.475 v 17.2 h 5.475 c 2.383,0 4.066,-0.212 5.05,-0.638 0.983,-0.425 1.608,-1.188 1.875,-2.287 0.267,-1.1 0.4,-2.992 0.4,-5.675 0,-2.683 -0.133,-4.575 -0.4,-5.675 -0.267,-1.1 -0.892,-1.863 -1.875,-2.288 z m -0.15,12.7 c -0.2,0.825 -0.638,1.342 -1.312,1.55 -0.675,0.208 -1.987,0.312 -3.938,0.312 h -2.975 V 3.446 h 2.975 c 1.933,0 3.237,0.104 3.913,0.312 0.675,0.209 1.116,0.729 1.325,1.562 0.208,0.834 0.312,2.409 0.312,4.725 0,2.333 -0.1,3.913 -0.3,4.738 z"
           fill="#ff001e"
           id="path2"
           style="fill:#525051;fill-opacity:1" />
        <polygon
           points="435.682,1.446 424.481,1.446 424.481,18.646 435.682,18.646 435.682,16.646 426.631,16.646 426.631,10.971 434.481,10.971 434.481,8.971 426.631,8.971 426.631,3.446 435.682,3.446 "
           fill="#ff001e"
           id="polygon2"
           style="fill:#525051;fill-opacity:1" />
      </g>
      <g
         id="g7"
         style="fill:#525051;fill-opacity:1">
        <polygon
           points="1372.69 16.556 1364.665 16.556 1364.665 1.431 1362.515 1.431 1362.515 18.631 1372.69 18.631 1372.69 16.556"
           fill="#ff001e"
           id="polygon3"
           style="fill:#525051;fill-opacity:1" />
        <path
           d="M1377.99,18.193c.899.425,2.35.638,4.35.638s3.45-.208,4.351-.625c.899-.417,1.491-1.146,1.774-2.188s.425-2.679.425-4.913V1.431h-2.149v10.5c0,1.517-.079,2.588-.237,3.213-.159.625-.534,1.062-1.125,1.312-.592.25-1.604.375-3.038.375s-2.45-.125-3.05-.375-.983-.691-1.15-1.325c-.166-.633-.25-1.7-.25-3.2V1.431h-2.125v9.675c0,2.233.146,3.867.438,4.9.292,1.034.888,1.763,1.788,2.188Z"
           fill="#ff001e"
           id="path3"
           style="fill:#525051;fill-opacity:1" />
        <polygon
           points="1395.714 5.106 1395.815 5.106 1401.69 18.631 1403.265 18.631 1409.165 5.106 1409.265 5.106 1409.265 18.631 1411.365 18.631 1411.365 1.431 1408.464 1.431 1402.589 14.806 1402.464 14.806 1396.589 1.431 1393.69 1.431 1393.69 18.631 1395.714 18.631 1395.714 5.106"
           fill="#ff001e"
           id="polygon4"
           style="fill:#525051;fill-opacity:1" />
        <rect
           x="1416.365"
           y="1.431"
           width="2.149"
           height="17.2"
           fill="#ff001e"
           id="rect4"
           style="fill:#525051;fill-opacity:1" />
        <polygon
           points="1425.589 5.481 1425.689 5.481 1434.764 18.631 1436.814 18.631 1436.814 1.431 1434.764 1.431 1434.764 14.281 1434.665 14.281 1425.714 1.431 1423.514 1.431 1423.514 18.631 1425.589 18.631 1425.589 5.481"
           fill="#ff001e"
           id="polygon5"
           style="fill:#525051;fill-opacity:1" />
        <path
           d="M1443.439,18.156c.95.45,2.566.675,4.851.675,2.266,0,3.879-.225,4.837-.675.958-.45,1.566-1.237,1.825-2.362.258-1.125.388-3.046.388-5.763s-.13-4.637-.388-5.762c-.259-1.125-.867-1.913-1.825-2.363-.958-.45-2.571-.675-4.837-.675-2.284,0-3.9.225-4.851.675-.95.45-1.554,1.238-1.812,2.363s-.388,3.046-.388,5.762.129,4.638.388,5.763.862,1.913,1.812,2.362ZM1443.639,5.181c.184-.866.579-1.408,1.188-1.625.608-.216,1.763-.325,3.463-.325s2.85.108,3.449.325c.601.217.992.759,1.176,1.625.183.867.274,2.484.274,4.85s-.092,3.984-.274,4.85c-.184.867-.575,1.409-1.176,1.625-.6.217-1.75.325-3.449.325s-2.854-.108-3.463-.325c-.608-.216-1.004-.758-1.188-1.625-.184-.866-.275-2.483-.275-4.85s.092-3.983.275-4.85Z"
           fill="#ff001e"
           id="path5"
           style="fill:#525051;fill-opacity:1" />
        <path
           d="M1460.252,9.943c.525.375,1.304.621,2.338.737l4.25.475c.75.067,1.278.175,1.587.325s.504.387.588.712c.083.325.125.879.125,1.663,0,.65-.05,1.171-.15,1.562-.1.392-.316.688-.649.887-.367.2-.812.338-1.338.413-.525.075-1.237.113-2.138.113-1.45,0-3.259-.108-5.425-.325v1.975c.866.1,1.862.183,2.987.25,1.125.066,2.146.1,3.062.1,1.366,0,2.441-.104,3.226-.312.783-.208,1.408-.684,1.875-1.425.466-.741.699-1.871.699-3.387,0-1.316-.116-2.275-.35-2.875-.25-.65-.65-1.1-1.2-1.35s-1.325-.425-2.325-.525l-4.199-.475c-.65-.066-1.117-.171-1.4-.312s-.475-.367-.575-.675c-.1-.308-.149-.804-.149-1.487,0-.616.05-1.091.149-1.425.101-.333.325-.6.675-.8.316-.2.759-.341,1.325-.425s1.316-.125,2.25-.125c.8,0,1.667.029,2.601.087.933.059,1.716.138,2.35.237v-1.9c-.584-.116-1.375-.216-2.375-.3s-1.983-.125-2.95-.125c-1.45,0-2.604.117-3.462.35-.859.233-1.525.7-2,1.4-.476.7-.713,1.733-.713,3.1,0,.983.088,1.779.263,2.387.175.609.524,1.1,1.05,1.475Z"
           fill="#ff001e"
           id="path6"
           style="fill:#525051;fill-opacity:1" />
        <rect
           x="1475.489"
           y="1.431"
           width="2.15"
           height="17.2"
           fill="#ff001e"
           id="rect6"
           style="fill:#525051;fill-opacity:1" />
        <polygon
           points="1486.339 18.631 1488.489 18.631 1488.489 3.506 1493.914 3.506 1493.914 1.431 1480.889 1.431 1480.889 3.506 1486.339 3.506 1486.339 18.631"
           fill="#ff001e"
           id="polygon6"
           style="fill:#525051;fill-opacity:1" />
        <path
           d="M1762.133,16.647l-262.794-.016v-5.675h7.851v-2h-7.851V3.431h9.051V1.431h-11.2v17.2l264.944.016c11.579,0,21,9.42,21,21v24.661l-.846,135.931v12.739c0,5.164-2.293,9.986-6.4,13.533l-21.188,15.734c-5.252,3.981-8.264,9.811-8.264,15.994l-.004,521.534c0,6.18,3.014,12.007,8.278,15.995l21.102,15.562c4.166,3.593,6.46,8.414,6.46,13.574l-.039,16.188c0,11.579-9.421,21-21,21H25.395c-11.579,0-21-9.421-21-21v-152.226h-2v152.226c0,12.683,10.318,23,23,23h1735.838c12.683,0,23-10.317,23-22.998l.039-16.188c0-5.752-2.54-11.111-7.213-15.138l-21.151-15.602c-4.751-3.6-7.476-8.846-7.476-14.394l.004-521.534c0-5.552,2.724-10.8,7.465-14.395l21.235-15.774c4.611-3.979,7.151-9.338,7.151-15.093v-12.733l.846-135.931v-24.667c0-12.682-10.317-23-23-23Z"
           fill="#ff001e"
           id="path7"
           style="fill:#525051;fill-opacity:1" />
      </g>
      <rect
         x="2.395"
         y="598.838"
         width="2"
         height="17.75"
         fill="#ff001e"
         id="rect7"
         style="fill:#525051;fill-opacity:1" />
      <path
         d="M4.395,530.338h-2v-70.108l1.045.048c.797.036,1.598.061,2.405.061,28.259,0,51.25-22.99,51.25-51.25s-22.991-51.25-51.25-51.25c-.807,0-1.607.024-2.405.061l-1.045.048v-52.992l1.045.048c.797.037,1.598.061,2.405.061,28.259,0,51.25-22.991,51.25-51.25s-22.991-51.25-51.25-51.25c-.807,0-1.607.024-2.405.061l-1.045.048V39.647c0-12.682,10.318-23,23-23h19.117v2h-19.117c-11.58,0-21,9.42-21,21v160.938c.482-.014.965-.022,1.45-.022,29.362,0,53.25,23.888,53.25,53.25s-23.888,53.25-53.25,53.25c-.485,0-.968-.008-1.45-.022v48.82c.482-.014.965-.022,1.45-.022,29.362,0,53.25,23.888,53.25,53.25s-23.888,53.25-53.25,53.25c-.485,0-.968-.009-1.45-.022v68.022Z"
         fill="#ff001e"
         id="path8"
         style="fill:#525051;fill-opacity:1" />
    </g>
  </g>
</svg>
