<?xml version="1.0" encoding="UTF-8" standalone="no"?>
<svg
   width="89mm"
   height="22mm"
   version="1.1"
   viewBox="0 0 252.283 62.362"
   id="svg1"
   sodipodi:docname="EncartSelectionLuminosite.svg"
   inkscape:version="1.4 (86a8ad7, 2024-10-11)"
   xmlns:inkscape="http://www.inkscape.org/namespaces/inkscape"
   xmlns:sodipodi="http://sodipodi.sourceforge.net/DTD/sodipodi-0.dtd"
   xmlns="http://www.w3.org/2000/svg"
   xmlns:svg="http://www.w3.org/2000/svg">
  <defs
     id="defs1" />
  <sodipodi:namedview
     id="namedview1"
     pagecolor="#ffffff"
     bordercolor="#000000"
     borderopacity="0.25"
     inkscape:showpageshadow="2"
     inkscape:pageopacity="0.0"
     inkscape:pagecheckerboard="0"
     inkscape:deskcolor="#d1d1d1"
     inkscape:document-units="mm"
     inkscape:zoom="5.8312805"
     inkscape:cx="230.13813"
     inkscape:cy="94.40465"
     inkscape:window-width="2880"
     inkscape:window-height="1514"
     inkscape:window-x="-11"
     inkscape:window-y="-11"
     inkscape:window-maximized="1"
     inkscape:current-layer="Calque_1" />
  <!-- Generator: Adobe Illustrator 28.7.4, SVG Export Plug-In . SVG Version: 1.2.0 Build 166)  -->
  <g
     id="g1">
    <g
       id="Calque_1">
      <path
         d="M114.424,1.565c16.819,0,89.64-.006,106.46.004,6.793.003,12.885,2.121,18.188,6.343,6.365,5.066,10.065,11.686,11.057,19.774.497,4.061.123,8.052-1.047,11.986-1.615,5.44-4.582,10.01-8.809,13.743-4.495,3.973-9.772,6.316-15.719,7.108-1.166.155-2.352.224-3.529.225-31.692.012-152.006.011-183.698.011-1.888,0-3.776-.001-5.664.001-7.206.009-13.633-2.211-19.166-6.839-5.878-4.919-9.381-11.203-10.41-18.816-.836-6.173.149-12.067,3.04-17.586,3.572-6.821,9.017-11.574,16.249-14.23,3.208-1.179,6.533-1.739,9.968-1.734,16.82.021,66.262.01,83.082.01Z"
         fill="#445060"
         fill-rule="evenodd"
         stroke="#70839c"
         stroke-miterlimit="10"
         stroke-width="2"
         id="path1"
         style="fill:#ffffff;fill-opacity:1;stroke:#636363;stroke-opacity:1" />
    </g>
  </g>
</svg>
