<?xml version="1.0" encoding="UTF-8" standalone="no"?>
<svg
   width="116.916mm"
   height="35.2mm"
   version="1.1"
   viewBox="0 0 331.417 99.78"
   id="svg3"
   sodipodi:docname="Clair_ConfirmerQuitter.svg"
   inkscape:version="1.3 (0e150ed, 2023-07-21)"
   xmlns:inkscape="http://www.inkscape.org/namespaces/inkscape"
   xmlns:sodipodi="http://sodipodi.sourceforge.net/DTD/sodipodi-0.dtd"
   xmlns="http://www.w3.org/2000/svg"
   xmlns:svg="http://www.w3.org/2000/svg">
  <defs
     id="defs3" />
  <sodipodi:namedview
     id="namedview3"
     pagecolor="#ffffff"
     bordercolor="#000000"
     borderopacity="0.25"
     inkscape:showpageshadow="2"
     inkscape:pageopacity="0.0"
     inkscape:pagecheckerboard="0"
     inkscape:deskcolor="#d1d1d1"
     inkscape:document-units="mm"
     inkscape:zoom="1.5694049"
     inkscape:cx="216.00544"
     inkscape:cy="116.60471"
     inkscape:window-width="1472"
     inkscape:window-height="449"
     inkscape:window-x="0"
     inkscape:window-y="38"
     inkscape:window-maximized="0"
     inkscape:current-layer="Calque_1" />
  <!-- Generator: Adobe Illustrator 28.7.4, SVG Export Plug-In . SVG Version: 1.2.0 Build 166)  -->
  <g
     id="g3">
    <g
       id="Calque_1">
      <rect
         x="950.364"
         y="1145.372"
         width="25.045"
         height="25.045"
         fill="#00d200"
         fill-opacity=".2"
         stroke="#00d200"
         stroke-linecap="round"
         stroke-linejoin="round"
         stroke-width="3"
         id="rect1" />
      <path
         d="M 39.772,92.499 H 39.268 C 31.193,92.179 23.562,84.194 23.562,72.909 v -46.17 c 0,-11.53 7.941,-19.6 16.21,-19.6 H 88.409728 307.873 c 8.259,0 16.21,8.08 16.21,19.6 v 46.16 c 0,11.53 -7.942,19.6 -16.21,19.6 z"
         fill="#5d6c82"
         stroke="#445060"
         stroke-width="10"
         id="path1"
         sodipodi:nodetypes="ccssscssssc"
         style="fill:#f4f4f6;fill-opacity:1;stroke:#e5e5e5;stroke-opacity:1" />
      <path
         d="m 41.651,42.45 -2.249,-1.295 v 0.006 L 16.962,28.201 H 16.961 C 11.294,24.936 4.212,29.012 4.212,35.56 v 28.51 c 0,6.543 7.079,10.637 12.75,7.359 v 0 L 37.489,59.573 v 0 l 4.162,-2.404 c 5.67,-3.268 5.67,-11.452 -0.002,-14.719 z"
         fill="#087bf9"
         stroke="#ffffff"
         stroke-width="3"
         id="path2"
         sodipodi:nodetypes="cccccssscccccc"
         style="fill:#087bf8;fill-opacity:1" />
      <text
         xml:space="preserve"
         style="font-size:22.0001px;font-family:'Arial Rounded MT Bold';-inkscape-font-specification:'Arial Rounded MT Bold, ';fill:#525051;fill-opacity:1;stroke-width:0.750004"
         x="66.711624"
         y="57.465881"
         id="text1"><tspan
           sodipodi:role="line"
           id="tspan1"
           style="fill:#525051;fill-opacity:1;stroke-width:0.750004"
           x="66.711624"
           y="57.465881">Eteindre le système</tspan></text>
    </g>
  </g>
</svg>
