<?xml version="1.0" encoding="UTF-8" standalone="no"?>
<svg
   width="34.95mm"
   height="32.4mm"
   version="1.1"
   viewBox="0 0 99.071 91.843"
   id="svg3"
   sodipodi:docname="EtatSystemeActif.svg"
   inkscape:version="1.4 (86a8ad7, 2024-10-11)"
   xmlns:inkscape="http://www.inkscape.org/namespaces/inkscape"
   xmlns:sodipodi="http://sodipodi.sourceforge.net/DTD/sodipodi-0.dtd"
   xmlns="http://www.w3.org/2000/svg"
   xmlns:svg="http://www.w3.org/2000/svg">
  <defs
     id="defs3" />
  <sodipodi:namedview
     id="namedview3"
     pagecolor="#ffffff"
     bordercolor="#000000"
     borderopacity="0.25"
     inkscape:showpageshadow="2"
     inkscape:pageopacity="0.0"
     inkscape:pagecheckerboard="0"
     inkscape:deskcolor="#d1d1d1"
     inkscape:document-units="mm"
     inkscape:zoom="10.068865"
     inkscape:cx="66.045178"
     inkscape:cy="61.228349"
     inkscape:window-width="2880"
     inkscape:window-height="1514"
     inkscape:window-x="-11"
     inkscape:window-y="-11"
     inkscape:window-maximized="1"
     inkscape:current-layer="svg3" />
  <!-- Generator: Adobe Illustrator 28.7.4, SVG Export Plug-In . SVG Version: 1.2.0 Build 166)  -->
  <g
     id="g3"
     style="fill:#525051;fill-opacity:1">
    <g
       id="Calque_1"
       style="fill:#525051;fill-opacity:1">
      <g
         id="g2"
         style="fill:#525051;fill-opacity:1">
        <path
           d="M51.52,5.165C28.874,5.165,10.518,23.522,10.518,46.169s18.357,40.999,41.002,40.999,41.002-18.356,41.002-40.999S74.164,5.165,51.52,5.165ZM83.183,57.262c-.453.777-.895,1.56-1.335,2.341-.313.556-.626,1.111-.943,1.664-1.058,1.837-2.121,3.667-3.183,5.498l-.618,1.064c-.419.716-.95,1.213-1.623,1.521-1.088.494-2.233.409-3.406-.255-.506-.287-1.005-.582-1.508-.879l-.211-.125c-2.763,2.352-5.893,4.161-9.311,5.384l.002.527c.003.645.007,1.271-.007,1.902-.039,1.56-1.196,2.88-2.752,3.142-.022.005-.068.025-.102.041l-.22.091-12.987-.041c-.042-.018-.084-.04-.126-.062-.734-.122-1.337-.409-1.808-.873-.721-.718-1.061-1.497-1.042-2.384.013-.595.009-1.188.006-1.794l-.002-.546c-1.986-.751-3.498-1.451-4.866-2.252-1.647-.965-3.104-1.994-4.44-3.14l-.487.273c-.457.255-.909.507-1.355.771-1.769,1.046-3.826.521-4.889-1.245-.583-.968-1.142-1.953-1.701-2.939-.284-.501-.568-1.002-.855-1.5l-.737-1.274c-.493-.851-.986-1.701-1.473-2.554l-.295-.513c-.383-.664-.779-1.351-1.13-2.051-.459-.891-.464-1.88-.012-2.857.435-.952,1.236-1.482,1.801-1.799.466-.261.928-.526,1.384-.789l.156-.09c-.146-1.036-.26-1.887-.344-2.642v-.017s-.15-1.961-.186-2.965c-.037-1.035.183-2.411.192-2.47.081-.724.19-1.576.331-2.603l-.616-.366c-.476-.276-.953-.552-1.418-.842-1.353-.841-2.199-2.816-1.207-4.541.161-.28.317-.562.474-.845.171-.309.342-.617.518-.922.458-.797.92-1.592,1.382-2.388l1.084-1.871c.355-.614.707-1.229,1.058-1.845.526-.922,1.053-1.844,1.591-2.758.233-.391.553-.757.903-1.033,1.227-.951,2.605-1.009,4.1-.176.502.282.997.575,1.495.871l.223.132c1.399-1.184,2.839-2.204,4.39-3.113,1.382-.811,2.953-1.537,4.92-2.271l-.002-.507c-.004-.652-.007-1.289.009-1.925.034-1.604,1.216-2.913,2.823-3.14l.204-.13,13.017.034.133.057c.036.016.085.039.103.042.748.129,1.342.439,1.819.946.643.688.951,1.433.942,2.277-.007.586-.004,1.17-.002,1.768v.58c1.942.732,3.493,1.451,4.86,2.251,1.614.941,3.07,1.968,4.44,3.133l.396-.221c.487-.27.969-.538,1.442-.82,1.737-1.043,3.842-.51,4.892,1.239.585.977,1.146,1.968,1.707,2.96.311.55.623,1.101.938,1.649l.961,1.657c.388.667.775,1.334,1.159,2.003l.262.456c.399.694.799,1.391,1.164,2.104.456.894.458,1.882.009,2.86-.437.962-1.235,1.488-1.798,1.802-.441.248-.88.5-1.328.757l-.234.134c.169.888.295,1.772.376,2.636.002.033.051,1.888.051,3.026s-.041,2.354-.041,2.354c-.082.878-.208,1.765-.379,2.659l2.045,1.208c1.362.806,2.197,2.874,1.216,4.554Z"
           fill="#fff"
           fill-rule="evenodd"
           id="path1"
           style="fill:#525051;fill-opacity:1" />
        <path
           d="M81.458,53.569l-2.123-1.246c-.052-.028-.112-.072-.179-.124l-.268-.188-.013-.378c.197-.974.34-1.935.427-2.855,0,0,.039-1.179.039-2.291,0-1.128-.049-2.965-.049-2.966-.086-.91-.231-1.881-.429-2.852l-.072-.354.858-.491c.45-.259.892-.512,1.338-.763.709-.395,1.133-.809,1.376-1.345.322-.701.325-1.37.01-1.989-.357-.699-.749-1.381-1.14-2.061l-.263-.458c-.382-.667-.769-1.332-1.156-1.998l-.962-1.66c-.317-.551-.629-1.103-.942-1.655-.557-.985-1.113-1.97-1.694-2.939-.769-1.28-2.25-1.657-3.521-.896-.483.289-.974.562-1.47.837l-1.005.562-.266-.232c-1.399-1.218-2.889-2.283-4.555-3.253-1.392-.815-2.989-1.545-5.027-2.299l-.327-.121-.002-1.271c-.002-.603-.004-1.192.002-1.782.006-.583-.208-1.086-.672-1.583-.322-.342-.734-.554-1.259-.645-.142-.024-.255-.076-.347-.118h0s-12.443,0-12.443,0c-.079.049-.171.095-.287.111-1.16.136-2.009,1.054-2.033,2.183-.017.628-.013,1.254-.009,1.896l.003,1.21-.328.12c-2.065.755-3.682,1.492-5.087,2.317-1.6.938-3.076,1.997-4.515,3.241l-.272.234-.841-.497c-.492-.292-.979-.581-1.473-.858-1.141-.636-2.093-.608-2.996.091-.252.2-.488.469-.658.755-.535.908-1.059,1.826-1.583,2.744-.353.617-.705,1.234-1.061,1.85l-1.085,1.872c-.461.795-.922,1.589-1.381,2.386-.174.301-.342.604-.509.906-.159.287-.318.575-.482.859-.695,1.207-.09,2.598.868,3.192.458.285.925.556,1.392.826l.718.418c.058.033.115.074.169.115l.238.177.024.341c-.161,1.159-.284,2.104-.375,2.919-.005.037-.217,1.362-.184,2.299.034.952.171,2.777.182,2.916.091.823.219,1.763.386,2.937l.048.335-.742.427c-.459.265-.925.533-1.395.796-.713.398-1.139.812-1.381,1.344-.323.699-.325,1.366-.005,1.987.34.679.729,1.352,1.104,2.003l.297.517c.486.851.978,1.699,1.47,2.549l.738,1.275c.289.501.574,1.004.859,1.507.555.979,1.109,1.956,1.688,2.917.779,1.295,2.227,1.665,3.523.899.453-.268.912-.524,1.376-.783l1.099-.619.268.235c1.361,1.197,2.851,2.264,4.553,3.26,1.39.813,2.943,1.522,5.034,2.299l.326.121.004,1.234c.003.615.007,1.219-.006,1.822-.014.607.223,1.132.745,1.651.318.313.721.503,1.231.576.131.019.235.068.315.11h12.473c.13-.058.237-.101.363-.119,1.094-.184,1.883-1.08,1.91-2.179.014-.619.011-1.237.007-1.872l-.003-1.243.337-.116c3.542-1.221,6.77-3.087,9.592-5.547l.271-.236.832.489c.498.294.992.587,1.493.871.901.512,1.697.58,2.498.214.479-.219.863-.583,1.173-1.114l.617-1.062c1.062-1.83,2.124-3.66,3.181-5.495.315-.55.627-1.103.939-1.655.443-.786.887-1.573,1.343-2.354.655-1.122.074-2.635-.862-3.188ZM64.754,25.226c1.034-.711,2.359-.082,2.317,1.214-3.256,7.25-6.959,14.355-10.395,21.544-1.157,1.934-2.885,3.24-5.232,2.929-4.232-.56-5.637-5.813-2.712-8.725l16.022-16.963ZM51.521,65.692c-10.924,0-19.811-8.89-19.811-19.813s8.887-19.812,19.811-19.812c3.066,0,5.959.72,8.552,1.968l-6.067,6.723c-.506-.213-.867-.278-2.485-.278-6.285,0-11.399,5.113-11.399,11.399s5.114,11.401,11.399,11.401,11.4-5.114,11.4-11.401c0-2.826-.528-4.327-1.11-5.446.2-.414,3.847-7.419,4.157-8.068,3.317,3.543,5.365,8.289,5.365,13.514,0,10.924-8.887,19.813-19.812,19.813Z"
           fill="#fff"
           fill-rule="evenodd"
           id="path2"
           style="fill:#525051;fill-opacity:1" />
      </g>
    </g>
  </g>
</svg>
