<?xml version="1.0" encoding="UTF-8" standalone="no"?>
<svg
   width="84.549mm"
   height="19.6mm"
   version="1.1"
   viewBox="0 0 239.668 55.559"
   id="svg22"
   sodipodi:docname="Clair_LibelleProgression.svg"
   inkscape:version="1.4 (86a8ad7, 2024-10-11)"
   xmlns:inkscape="http://www.inkscape.org/namespaces/inkscape"
   xmlns:sodipodi="http://sodipodi.sourceforge.net/DTD/sodipodi-0.dtd"
   xmlns="http://www.w3.org/2000/svg"
   xmlns:svg="http://www.w3.org/2000/svg">
  <defs
     id="defs22" />
  <sodipodi:namedview
     id="namedview22"
     pagecolor="#ffffff"
     bordercolor="#000000"
     borderopacity="0.25"
     inkscape:showpageshadow="2"
     inkscape:pageopacity="0.0"
     inkscape:pagecheckerboard="0"
     inkscape:deskcolor="#d1d1d1"
     inkscape:document-units="mm"
     inkscape:zoom="1.3894309"
     inkscape:cx="213.03686"
     inkscape:cy="-104.71913"
     inkscape:window-width="1920"
     inkscape:window-height="1009"
     inkscape:window-x="3832"
     inkscape:window-y="-8"
     inkscape:window-maximized="1"
     inkscape:current-layer="Calque_1" />
  <!-- Generator: Adobe Illustrator 28.7.4, SVG Export Plug-In . SVG Version: 1.2.0 Build 166)  -->
  <g
     id="g22"
     style="fill:#525051;fill-opacity:1">
    <g
       id="Calque_1"
       style="fill:#525051;fill-opacity:1">
      <path
         d="M 30.477733,33.389656 V 50.89465 h 3.943385 v -6.029335 h 1.879406 c 0.529,0 1.031401,-0.03461 1.507334,-0.10254 0.475933,-0.06793 0.924879,-0.168829 1.347665,-0.30469 0.422786,-0.13586 0.819902,-0.305967 1.189461,-0.509768 0.369558,-0.203802 0.712076,-0.441634 1.028326,-0.713384 0.31625,-0.2715 0.593433,-0.563842 0.830572,-0.877447 0.237139,-0.313605 0.43374,-0.647785 0.591801,-1.003424 0.15806,-0.35564 0.276945,-0.733262 0.355959,-1.130867 0.07901,-0.397605 0.118653,-0.815879 0.118653,-1.255379 0,-0.464875 -0.03512,-0.901357 -0.104004,-1.308114 -0.06889,-0.406756 -0.171298,-0.783691 -0.309084,-1.132331 -0.137787,-0.34864 -0.3104,-0.668952 -0.517094,-0.959479 -0.206693,-0.290527 -0.448026,-0.55128 -0.723637,-0.783696 -0.275611,-0.232417 -0.585644,-0.436536 -0.930182,-0.610844 -0.344537,-0.174308 -0.723252,-0.318859 -1.136726,-0.435061 -0.413474,-0.116203 -0.86085,-0.204109 -1.34327,-0.262209 -0.48242,-0.0581 -0.999904,-0.08643 -1.551279,-0.08643 z m 3.943385,3.027851 h 1.549814 c 0.262375,0 0.508683,0.01439 0.738286,0.04248 0.229604,0.02809 0.441851,0.0698 0.638676,0.125977 0.196825,0.05618 0.377957,0.12667 0.541996,0.210939 0.164039,0.08427 0.31114,0.182073 0.442385,0.294435 0.131246,0.112362 0.24726,0.238941 0.345706,0.379397 0.09844,0.140457 0.180458,0.295806 0.246095,0.464359 0.06564,0.168553 0.113663,0.349739 0.146485,0.54639 0.03282,0.19665 0.0498,0.408066 0.0498,0.632816 0,0.23 -0.01701,0.446221 -0.0498,0.647465 -0.0328,0.201245 -0.08089,0.387084 -0.146485,0.559574 -0.0656,0.17249 -0.147691,0.330875 -0.246095,0.474613 -0.0984,0.143737 -0.213026,0.273199 -0.344241,0.388186 -0.131214,0.114986 -0.279821,0.215522 -0.44385,0.30176 -0.16403,0.08624 -0.343683,0.157843 -0.540531,0.215333 -0.196848,0.05749 -0.410469,0.101628 -0.640141,0.130372 -0.229672,0.02874 -0.475786,0.04248 -0.738286,0.04248 h -1.549814 z"
         style="baseline-shift:baseline;display:inline;overflow:visible;vector-effect:none;enable-background:accumulate;stop-color:#000000;stop-opacity:1"
         id="path88" />
      <path
         d="m 27.477714,30.389636 v 23.505033 h 9.943423 v -6.073281 c 2.349,-0.184 4.332287,-0.958538 5.906287,-2.311538 0.270426,-0.232074 0.52155,-0.476951 0.755865,-0.732427 V 33.013188 c -1.652686,-1.694237 -4.18886,-2.623552 -7.42827,-2.623552 z m 3.000019,3.00002 h 6.177286 c 4.411,0 6.615276,1.85916 6.615276,5.57816 0,1.758 -0.631985,3.181117 -1.896985,4.267117 -1.265,1.087 -2.956786,1.630382 -5.072786,1.630382 h -1.879406 v 6.029335 h -3.943385 z m 3.943385,3.027851 v 5.456578 h 1.549814 c 2.1,0 3.149434,-0.919784 3.149434,-2.759784 0,-1.798 -1.050434,-2.696794 -3.149434,-2.696794 z"
         style="baseline-shift:baseline;display:inline;overflow:visible;vector-effect:none;enable-background:accumulate;stop-color:#000000;stop-opacity:1;fill:none"
         id="path87" />
      <path
         d="M 47.083308,33.389656 V 50.89465 h 3.943384 v -6.701703 h 1.062019 c 0.244,0 0.468762,0.04935 0.676762,0.152345 0.207,0.101 0.408125,0.248456 0.599125,0.439456 0.192,0.19 0.378898,0.420945 0.566898,0.689945 0.187,0.269 0.381941,0.572069 0.585941,0.914069 l 2.723162,4.505888 h 4.527861 l -3.307638,-5.176791 c -0.171,-0.268 -0.359899,-0.542247 -0.566899,-0.823247 -0.208,-0.28 -0.425324,-0.544091 -0.653324,-0.788091 -0.228,-0.245 -0.463524,-0.457141 -0.707524,-0.640141 -0.244,-0.183 -0.497329,-0.314975 -0.757329,-0.396975 V 43.0196 c 0.297,-0.085 0.580065,-0.185585 0.849615,-0.303225 0.269549,-0.11764 0.525583,-0.252334 0.767583,-0.402834 0.242,-0.1505 0.465801,-0.315695 0.672367,-0.495121 0.206567,-0.179425 0.395898,-0.373082 0.566898,-0.580082 0.1705,-0.208 0.322108,-0.428031 0.454105,-0.660648 0.131996,-0.232618 0.244381,-0.477821 0.338381,-0.736821 0.0935,-0.258 0.164001,-0.528204 0.210939,-0.810064 0.04694,-0.28186 0.07031,-0.575377 0.07031,-0.880377 0,-0.39675 -0.03323,-0.769068 -0.09961,-1.116218 -0.06638,-0.34715 -0.166075,-0.669251 -0.29883,-0.966803 -0.132756,-0.297552 -0.298919,-0.570897 -0.49805,-0.818853 -0.199132,-0.247955 -0.431764,-0.471077 -0.69727,-0.669438 -0.265507,-0.198361 -0.563144,-0.371255 -0.895026,-0.520023 -0.331881,-0.148768 -0.697455,-0.272895 -1.09571,-0.372072 -0.398255,-0.09918 -0.828837,-0.17307 -1.293465,-0.222658 -0.464628,-0.04959 -0.96315,-0.07471 -1.49415,-0.07471 h -0.0015 z m 3.943384,2.954608 h 1.782726 c 0.45775,0 0.857858,0.04789 1.20118,0.143556 0.171661,0.04783 0.330095,0.106968 0.473147,0.178712 0.143053,0.07174 0.270813,0.156303 0.385257,0.251955 0.114444,0.09565 0.214461,0.202711 0.300295,0.322267 0.08583,0.119556 0.15811,0.252053 0.215333,0.395511 0.05722,0.143457 0.100295,0.298468 0.128907,0.465823 0.02861,0.167355 0.04248,0.346351 0.04248,0.537601 0,0.18325 -0.01585,0.358977 -0.04834,0.527347 -0.03249,0.168371 -0.08145,0.329866 -0.146486,0.483402 -0.06503,0.153535 -0.147011,0.299245 -0.24463,0.437991 -0.09762,0.138745 -0.211061,0.270045 -0.341311,0.394045 -0.12825,0.122 -0.266902,0.2294 -0.416018,0.320803 -0.149116,0.0914 -0.30906,0.166182 -0.479007,0.227052 -0.169947,0.06087 -0.349789,0.107294 -0.540531,0.137696 -0.190741,0.0304 -0.392019,0.04541 -0.603519,0.04541 h -1.709484 z"
         style="baseline-shift:baseline;display:inline;overflow:visible;vector-effect:none;enable-background:accumulate;stop-color:#000000;stop-opacity:1"
         id="path86" />
      <path
         d="m 44.083289,30.389636 v 23.505033 h 9.943422 v -2.516618 l 0.646001,1.069343 0.875982,1.447275 H 67.24701 l -0.587406,-0.918463 c -9.74e-4,-4.95e-4 -0.002,-9.34e-4 -0.0029,-0.0015 -3.94e-4,-2e-4 -0.0011,2e-4 -0.0015,0 -0.124863,-0.06351 -0.248413,-0.1293 -0.370608,-0.197755 -0.0015,-8.56e-4 -0.0029,-0.0021 -0.0044,-0.0029 -0.0044,-0.0025 -0.0088,-0.0049 -0.01318,-0.0073 -0.094,-0.05268 -0.184628,-0.112047 -0.276858,-0.168458 -0.09643,-0.05826 -0.193881,-0.114334 -0.288576,-0.175782 -0.114487,-0.07429 -0.229381,-0.14811 -0.34131,-0.227053 -5.55e-4,-3.91e-4 -9.11e-4,-0.0011 -0.0015,-0.0015 -0.224475,-0.157036 -0.44361,-0.323826 -0.657719,-0.499515 -0.0038,-0.0031 -0.0079,-0.0057 -0.01172,-0.0088 -0.05144,-0.04263 -0.102977,-0.0852 -0.15381,-0.128908 -0.264044,-0.225562 -0.52047,-0.463771 -0.767583,-0.719242 -0.266375,-0.275375 -0.516491,-0.560127 -0.750004,-0.855475 -0.233514,-0.295347 -0.449868,-0.601978 -0.650395,-0.916998 -0.200528,-0.315019 -0.384832,-0.639735 -0.55225,-0.974127 -0.167417,-0.334392 -0.318457,-0.677793 -0.452639,-1.031256 -0.134183,-0.353464 -0.252206,-0.716151 -0.35303,-1.088386 -0.100824,-0.372236 -0.184615,-0.753343 -0.251955,-1.144051 -0.06734,-0.390707 -0.117147,-0.790836 -0.15088,-1.199714 -0.03373,-0.408879 -0.05127,-0.827165 -0.05127,-1.253915 0,-0.395653 0.01819,-0.781035 0.04541,-1.161628 1.74e-4,-0.0024 -1.77e-4,-0.0049 0,-0.0073 0.0079,-0.11089 0.01911,-0.219981 0.0293,-0.329592 3.22e-4,-0.0034 0.0011,-0.0068 0.0015,-0.01025 0.02509,-0.265537 0.05664,-0.527238 0.09521,-0.785161 5.79e-4,-0.0039 8.9e-4,-0.0078 0.0015,-0.01172 0.0179,-0.119958 0.03487,-0.240582 0.05566,-0.358889 2.47e-4,-0.0014 -2.5e-4,-0.003 0,-0.0044 0.05904,-0.332819 0.127499,-0.66039 0.209474,-0.979987 2.7e-4,-0.001 0.0011,-0.0019 0.0015,-0.0029 1.17e-4,-4.58e-4 -1.16e-4,-0.001 0,-0.0015 0.03009,-0.117847 0.06788,-0.231133 0.101075,-0.34717 0.003,-0.01022 0.0058,-0.02051 0.0088,-0.03076 0.03831,-0.131917 0.08124,-0.261183 0.123048,-0.391116 0.02305,-0.0709 0.04313,-0.143681 0.06738,-0.213869 0.05548,-0.160573 0.11402,-0.319234 0.175783,-0.476077 2.29e-4,-5.82e-4 0.0012,-8.83e-4 0.0015,-0.0015 0.05982,-0.15129 0.12333,-0.300435 0.188966,-0.448245 0.0042,-0.0094 0.009,-0.01843 0.01318,-0.02783 0.06779,-0.151996 0.132577,-0.305843 0.206545,-0.454104 0.0016,-0.0033 0.0027,-0.0069 0.0044,-0.01025 0.04906,-0.09793 0.106467,-0.190811 0.158204,-0.287111 0.01055,-0.01966 0.02173,-0.03891 0.03223,-0.0586 0.07223,-0.132705 0.140885,-0.267427 0.218263,-0.396975 v -0.0015 c -0.773995,-2.353047 -2.953755,-5.18558 -8.960506,-5.18558 z m 3.000019,3.00002 h 6.249063 0.0015 c 4.248,0 6.372111,1.586772 6.372111,4.760772 0,0.61 -0.09425,1.174441 -0.281252,1.690441 -0.188,0.518 -0.451486,0.981469 -0.792486,1.397469 -0.342,0.414 -0.755265,0.774203 -1.239265,1.075203 -0.484,0.301 -1.023198,0.536059 -1.617198,0.706059 v 0.04981 c 0.26,0.082 0.513329,0.213975 0.757329,0.396975 0.244,0.183 0.479524,0.395141 0.707524,0.640141 0.228,0.244 0.445324,0.508091 0.653324,0.788091 0.207,0.281 0.395899,0.555247 0.566899,0.823247 l 3.307638,5.176791 h -4.527861 l -2.723162,-4.505888 c -0.204,-0.342 -0.398941,-0.645069 -0.585941,-0.914069 -0.188,-0.269 -0.374898,-0.499945 -0.566898,-0.689945 -0.191,-0.191 -0.392125,-0.338456 -0.599125,-0.439456 -0.208,-0.103 -0.432762,-0.152345 -0.676762,-0.152345 h -1.062019 v 6.701703 h -3.943384 z m 3.943384,2.954608 v 4.869172 h 1.709484 c 0.846,0 1.526075,-0.242962 2.039075,-0.730962 0.521,-0.496 0.780767,-1.109785 0.780767,-1.842785 0,-1.53 -0.9156,-2.295425 -2.7466,-2.295425 z"
         style="baseline-shift:baseline;display:inline;overflow:visible;vector-effect:none;enable-background:accumulate;stop-color:#000000;stop-opacity:1;fill:none"
         id="path85" />
      <path
         d="m 72.33298,33.096685 c -0.330625,0 -0.652456,0.01285 -0.966803,0.03955 -0.314347,0.0267 -0.62186,0.06671 -0.919927,0.120118 -0.298068,0.05341 -0.586871,0.120576 -0.868658,0.200685 -0.281788,0.08011 -0.556276,0.172975 -0.821783,0.279787 -0.265507,0.106812 -0.522752,0.228303 -0.771978,0.361818 -0.249225,0.133516 -0.490694,0.279238 -0.723637,0.439456 -0.232943,0.160219 -0.457173,0.334566 -0.673832,0.521488 -0.21666,0.186922 -0.425118,0.386965 -0.625493,0.60059 -0.2005,0.213625 -0.38855,0.434903 -0.563968,0.665043 -0.175418,0.230141 -0.338919,0.469653 -0.489261,0.716313 -0.150342,0.246661 -0.287818,0.501469 -0.413089,0.764654 -0.12527,0.263184 -0.238175,0.534744 -0.338381,0.814458 -0.100205,0.279714 -0.187063,0.566551 -0.262208,0.862798 -0.07515,0.296248 -0.13741,0.601283 -0.187502,0.914069 -0.05009,0.312785 -0.08775,0.634545 -0.112793,0.963873 -0.02504,0.329328 -0.03809,0.666338 -0.03809,1.012213 0,0.65525 0.04925,1.278789 0.14795,1.872083 0.04935,0.296647 0.110546,0.586017 0.184571,0.867193 0.07403,0.281176 0.160581,0.554601 0.259279,0.820317 0.0987,0.265717 0.210618,0.524638 0.333987,0.774908 0.123369,0.25027 0.25919,0.491732 0.407229,0.726567 0.148039,0.234834 0.307764,0.461745 0.480472,0.681157 0.172707,0.219411 0.357804,0.431746 0.555179,0.635746 0.197375,0.204 0.40194,0.395729 0.613773,0.574222 0.211834,0.178494 0.431416,0.343596 0.65772,0.496585 0.226303,0.15299 0.459413,0.292927 0.700199,0.420413 0.240786,0.127487 0.488866,0.242255 0.744146,0.344241 0.25528,0.101985 0.518305,0.191581 0.788091,0.268068 0.269786,0.07649 0.546268,0.140906 0.830571,0.191896 0.284304,0.05099 0.575684,0.08876 0.874518,0.114258 0.298833,0.02549 0.605087,0.03809 0.918462,0.03809 0.321375,0 0.635676,-0.01324 0.941901,-0.03955 0.306225,-0.02631 0.60396,-0.06603 0.895025,-0.118653 0.291065,-0.05263 0.575186,-0.118807 0.85108,-0.197755 0.275894,-0.07895 0.543493,-0.170119 0.804204,-0.275392 0.260712,-0.105274 0.51474,-0.224356 0.760259,-0.35596 0.245519,-0.131603 0.483068,-0.275657 0.713383,-0.433596 0.230315,-0.157939 0.452873,-0.329884 0.667973,-0.514164 0.215101,-0.184279 0.422688,-0.381175 0.622563,-0.5918 0.2,-0.2105 0.387519,-0.429074 0.562504,-0.656254 0.174984,-0.227181 0.337822,-0.46367 0.487796,-0.707524 0.149973,-0.243855 0.286657,-0.495343 0.411623,-0.755865 0.124967,-0.260521 0.238417,-0.529953 0.338381,-0.807134 0.09997,-0.277181 0.187243,-0.56164 0.262209,-0.855474 0.07497,-0.293834 0.137528,-0.596264 0.187501,-0.906744 0.04997,-0.31048 0.08634,-0.629431 0.111329,-0.956549 0.02499,-0.327118 0.03809,-0.662604 0.03809,-1.006354 0,-0.6695 -0.04864,-1.305941 -0.14502,-1.910169 -0.04819,-0.302113 -0.107896,-0.596019 -0.180177,-0.881841 -0.07228,-0.285822 -0.157044,-0.563954 -0.25342,-0.833501 -0.09638,-0.269548 -0.204728,-0.530406 -0.325197,-0.783697 -0.120469,-0.25329 -0.252413,-0.498305 -0.396975,-0.735356 -0.144563,-0.237051 -0.301562,-0.466187 -0.470218,-0.687016 -0.168656,-0.220829 -0.349246,-0.434051 -0.541996,-0.638676 -0.19275,-0.204375 -0.392859,-0.395364 -0.600589,-0.574223 -0.207731,-0.178859 -0.423302,-0.34618 -0.646001,-0.499514 -0.222698,-0.153335 -0.452291,-0.292613 -0.689945,-0.420413 -0.237654,-0.127801 -0.482759,-0.243448 -0.735357,-0.345706 -0.252597,-0.102258 -0.513237,-0.191361 -0.780766,-0.268068 -0.267529,-0.07671 -0.542264,-0.140749 -0.824713,-0.191895 -0.282448,-0.05115 -0.572767,-0.09015 -0.870122,-0.115724 -0.297356,-0.02558 -0.601819,-0.03809 -0.914069,-0.03809 z m -0.109864,3.3926 c 0.33575,0 0.653463,0.03204 0.95362,0.09521 0.300156,0.06317 0.582143,0.157912 0.846685,0.284182 0.264542,0.126269 0.512309,0.283851 0.741215,0.473147 0.228907,0.189296 0.439567,0.409864 0.632817,0.662114 0.19325,0.252 0.361839,0.529484 0.506839,0.832036 0.145,0.302553 0.266576,0.62993 0.363284,0.982917 0.09671,0.352986 0.168423,0.731959 0.216798,1.135261 0.04837,0.403302 0.07324,0.831176 0.07324,1.284676 0,0.4355 -0.02477,0.846901 -0.07471,1.234871 -0.04993,0.38797 -0.124337,0.752404 -0.224122,1.092781 -0.09979,0.340376 -0.225445,0.656505 -0.375003,0.949224 -0.149558,0.29272 -0.323702,0.562134 -0.522952,0.807134 -0.1995,0.24525 -0.415936,0.459207 -0.650395,0.643071 -0.234459,0.183864 -0.486377,0.337437 -0.755864,0.459964 -0.269487,0.122526 -0.55675,0.214153 -0.861334,0.275392 -0.304584,0.06124 -0.627053,0.09229 -0.966803,0.09229 h -0.0015 c -0.3295,0 -0.643843,-0.0308 -0.9419,-0.09375 -0.298057,-0.06295 -0.580151,-0.158157 -0.846685,-0.284181 -0.266535,-0.126024 -0.516538,-0.283942 -0.75147,-0.473148 -0.234932,-0.189205 -0.454469,-0.409613 -0.657719,-0.662113 -0.2035,-0.25225 -0.381982,-0.527106 -0.534672,-0.824713 -0.152689,-0.297607 -0.279025,-0.618092 -0.380861,-0.960943 -0.101836,-0.342851 -0.179043,-0.707728 -0.229982,-1.09571 -0.05094,-0.387982 -0.07617,-0.798942 -0.07617,-1.231942 0,-0.42725 0.02523,-0.833355 0.07617,-1.218758 0.05094,-0.385403 0.128146,-0.750791 0.229982,-1.094245 0.101836,-0.343454 0.228172,-0.6654 0.380861,-0.966803 0.15269,-0.301403 0.331172,-0.581576 0.534672,-0.840826 0.2035,-0.2595 0.424555,-0.486518 0.663578,-0.681156 0.239024,-0.194638 0.495898,-0.356564 0.770513,-0.486331 0.274615,-0.129768 0.567173,-0.228083 0.877447,-0.292971 0.310274,-0.06489 0.638381,-0.09668 0.984381,-0.09668 z"
         style="baseline-shift:baseline;display:inline;overflow:visible;vector-effect:none;enable-background:accumulate;stop-color:#000000;stop-opacity:1"
         id="path84" />
      <path
         d="m 72.33298,30.096666 c -3.495,0 -6.375601,1.181253 -8.560601,3.511253 -2.134,2.275 -3.216817,5.22368 -3.216817,8.76568 0,3.414 1.081422,6.260922 3.212422,8.463922 2.158,2.231 4.944744,3.361837 8.283744,3.361837 3.415,0 6.251695,-1.164447 8.431695,-3.461447 0.662137,-0.697443 1.222307,-1.460949 1.681651,-2.286636 -0.07595,-0.140533 -0.14409,-0.2861 -0.213868,-0.430667 -0.0027,-0.0055 -0.0061,-0.01059 -0.0088,-0.01611 -0.07246,-0.150556 -0.140713,-0.303636 -0.206544,-0.458499 -8.48e-4,-0.002 -0.0021,-0.0039 -0.0029,-0.0059 -0.05751,-0.135904 -0.116104,-0.270926 -0.168458,-0.410159 -0.0022,-0.0058 -0.0037,-0.01181 -0.0059,-0.01758 -0.09949,-0.264961 -0.190099,-0.53614 -0.270998,-0.812993 -5.57e-4,-0.0019 -9.09e-4,-0.0039 -0.0015,-0.0059 -0.0363,-0.125222 -0.06859,-0.25321 -0.101075,-0.380861 -1.16e-4,-4.59e-4 1.17e-4,-0.001 0,-0.0015 -0.05915,-0.230974 -0.111614,-0.465691 -0.158204,-0.704595 -0.0013,-0.0069 -0.003,-0.01365 -0.0044,-0.02051 -0.01823,-0.09505 -0.03942,-0.187882 -0.05566,-0.284181 -0.0015,-0.0087 -0.0029,-0.01766 -0.0044,-0.02637 -0.05543,-0.330796 -0.09689,-0.671304 -0.128907,-1.016608 -4.5e-5,-4.83e-4 4.4e-5,-9.83e-4 0,-0.0015 -0.0084,-0.09168 -0.01522,-0.18416 -0.02197,-0.276858 -2.84e-4,-0.0039 2.82e-4,-0.0079 0,-0.01172 -0.02739,-0.374438 -0.04687,-0.754285 -0.04687,-1.145515 0,-0.376848 0.01954,-0.7442 0.04687,-1.107429 5.29e-4,-0.0072 9.26e-4,-0.01475 0.0015,-0.02197 0.0092,-0.123921 0.01989,-0.246773 0.03223,-0.369143 0.02965,-0.288551 0.06726,-0.572818 0.114258,-0.852545 7.9e-5,-4.76e-4 -7.9e-5,-9.88e-4 0,-0.0015 0.02702,-0.163473 0.05943,-0.324388 0.09229,-0.484866 0.04682,-0.225199 0.09692,-0.448753 0.155274,-0.667973 0.05029,-0.19141 0.106513,-0.380062 0.165529,-0.566898 0.03196,-0.100075 0.06662,-0.198606 0.101074,-0.297365 0.0017,-0.005 0.0041,-0.0097 0.0059,-0.01465 0.152023,-0.438169 0.326114,-0.864068 0.527347,-1.275887 0.116883,-0.239198 0.24303,-0.472955 0.376467,-0.703129 -0.475432,-0.934539 -1.075577,-1.792345 -1.804699,-2.566423 -2.127,-2.254 -4.900658,-3.396994 -8.245658,-3.396994 z m 0,3.000019 c 2.498,0 4.519562,0.818629 6.061562,2.453629 1.542,1.637 2.313003,3.792256 2.313003,6.470256 0,2.75 -0.799429,4.967898 -2.399429,6.651898 -1.599,1.685 -3.685388,2.526871 -6.256388,2.526871 -2.507,0 -4.54848,-0.815769 -6.12748,-2.447769 -1.579,-1.632 -2.368667,-3.756971 -2.368667,-6.377971 0,-2.767 0.801288,-5.004421 2.405288,-6.713421 1.603,-1.709 3.727111,-2.563493 6.372111,-2.563493 z m -0.109864,3.3926 c -1.384,0 -2.481919,0.519138 -3.295919,1.557138 -0.814,1.037 -1.221688,2.411632 -1.221688,4.120632 0,1.732 0.407688,3.104308 1.221688,4.113308 0.813,1.01 1.879774,1.513193 3.197774,1.513193 h 0.0015 c 1.359,0 2.436396,-0.489713 3.234396,-1.470713 0.797,-0.98 1.196785,-2.34201 1.196785,-4.08401 0,-1.814 -0.387164,-3.22689 -1.160164,-4.23489 -0.773,-1.009 -1.831337,-1.514658 -3.174337,-1.514658 z m 0.0015,3.000019 c 0.495,0 0.640486,0.141846 0.792486,0.339846 0.348,0.455 0.54053,1.310683 0.54053,2.409683 0,1.012 -0.181417,1.77042 -0.524417,2.19142 -0.162,0.199 -0.341744,0.363284 -0.906744,0.363284 -0.459,0 -0.651798,-0.132511 -0.862798,-0.395511 -0.461,-0.571 -0.556645,-1.527971 -0.556645,-2.230971 0,-1.014 0.195547,-1.776592 0.581547,-2.267592 0.213,-0.272 0.416041,-0.410159 0.936041,-0.410159 z"
         style="baseline-shift:baseline;display:inline;overflow:visible;vector-effect:none;enable-background:accumulate;stop-color:#000000;stop-opacity:1;fill:none"
         id="path83" />
      <path
         d="m 93.504502,33.096685 v 0.0029 c -0.36825,0 -0.7267,0.01389 -1.076667,0.04102 -0.349968,0.02712 -0.690791,0.06736 -1.022468,0.121582 -0.331676,0.05422 -0.654891,0.122304 -0.968268,0.203615 -0.313376,0.08131 -0.617534,0.175799 -0.912603,0.284181 -0.295069,0.108383 -0.581652,0.230777 -0.858404,0.366214 -0.276752,0.135436 -0.544313,0.284306 -0.802739,0.44678 -0.258427,0.162474 -0.506983,0.337852 -0.747075,0.527347 -0.240093,0.189495 -0.471126,0.392879 -0.692876,0.609379 -0.22175,0.216875 -0.430019,0.441122 -0.624027,0.673832 -0.194009,0.23271 -0.374257,0.473621 -0.540531,0.722173 -0.166274,0.248552 -0.318489,0.504647 -0.457034,0.769048 -0.138546,0.2644 -0.262715,0.537131 -0.373538,0.817388 -0.110823,0.280256 -0.208398,0.568144 -0.291506,0.864263 -0.08311,0.29612 -0.15261,0.600614 -0.208009,0.912604 -0.0554,0.311989 -0.09682,0.631612 -0.124512,0.959478 -0.0277,0.327866 -0.04102,0.664069 -0.04102,1.007819 0,0.34175 0.01271,0.674215 0.03809,0.997565 0.02538,0.323351 0.06351,0.636938 0.114259,0.941901 0.05075,0.304962 0.114303,0.601115 0.19043,0.887701 0.07613,0.286585 0.165101,0.563816 0.266604,0.832036 0.101503,0.268221 0.215897,0.52797 0.342775,0.777837 0.126878,0.249867 0.265231,0.490648 0.417483,0.722173 0.152253,0.231525 0.317494,0.453314 0.495121,0.666508 0.177626,0.213194 0.368293,0.417433 0.571293,0.612308 0.202875,0.194875 0.415675,0.377356 0.637211,0.547856 0.221535,0.170499 0.45122,0.328484 0.69141,0.474612 0.24019,0.146128 0.489701,0.281073 0.74854,0.402835 0.258839,0.121762 0.528187,0.230726 0.805669,0.328127 0.277483,0.0974 0.563749,0.183306 0.859869,0.256349 0.296121,0.07304 0.600781,0.132951 0.915533,0.181642 0.314753,0.04869 0.639284,0.08552 0.972663,0.109864 0.333379,0.02434 0.676327,0.03662 1.028327,0.03662 0.63475,0 1.243786,-0.03081 1.826671,-0.09229 0.582886,-0.06148 1.138919,-0.153848 1.669933,-0.276857 0.531014,-0.123009 1.036987,-0.276828 1.516123,-0.461429 0.479135,-0.1846 0.932134,-0.39975 1.359384,-0.646 v -8.802302 h -7.447314 v 3.149434 h 3.503929 v 3.417502 c -0.1385,0.06675 -0.288429,0.125501 -0.451175,0.175783 -0.162745,0.05028 -0.338804,0.09231 -0.525882,0.125977 -0.374155,0.06733 -0.796563,0.101075 -1.268563,0.101075 -0.39275,0 -0.765411,-0.03073 -1.117683,-0.09229 -0.352272,-0.06155 -0.68432,-0.153786 -0.9961,-0.276857 -0.311779,-0.123072 -0.603245,-0.276875 -0.874517,-0.461429 -0.271272,-0.184553 -0.522184,-0.4 -0.752934,-0.646 -0.231,-0.24625 -0.433223,-0.517306 -0.60645,-0.814458 -0.173226,-0.297153 -0.318127,-0.620231 -0.433596,-0.968268 -0.115469,-0.348037 -0.201553,-0.72171 -0.259279,-1.120613 -0.05773,-0.398903 -0.08643,-0.823207 -0.08643,-1.272957 0,-0.4435 0.03233,-0.865175 0.09668,-1.264168 0.06436,-0.398994 0.161359,-0.77491 0.290041,-1.129402 0.128682,-0.354492 0.288956,-0.687571 0.481936,-0.997565 0.192981,-0.309994 0.418048,-0.597298 0.675298,-0.862798 0.2575,-0.2655 0.533864,-0.498074 0.829106,-0.697271 0.295243,-0.199196 0.608828,-0.365205 0.941901,-0.49805 0.333073,-0.132845 0.685167,-0.232383 1.056159,-0.29883 0.370992,-0.06645 0.761418,-0.09961 1.170418,-0.09961 0.48825,0 0.957136,0.02439 1.407724,0.07324 0.450587,0.04885 0.883445,0.122055 1.296394,0.219728 0.41295,0.09767 0.8068,0.21974 1.182137,0.366213 0.375337,0.146474 0.731593,0.317449 1.069343,0.512699 v -3.697289 c -0.354,-0.1285 -0.721526,-0.240587 -1.103035,-0.336917 -0.381508,-0.09633 -0.777561,-0.177511 -1.186531,-0.2417 -0.408969,-0.06419 -0.830714,-0.111477 -1.267098,-0.143556 -0.436383,-0.03208 -0.886844,-0.04834 -1.350594,-0.04834 z"
         style="baseline-shift:baseline;display:inline;overflow:visible;vector-effect:none;enable-background:accumulate;stop-color:#000000;stop-opacity:1"
         id="path82" />
      <path
         d="m 93.504502,30.096666 c -3.742,0 -6.82984,1.161659 -9.17584,3.452659 -2.366,2.312 -3.563987,5.29808 -3.563987,8.87408 0,3.576 1.129443,6.464082 3.357443,8.603082 2.193,2.106 5.132384,3.172871 8.736384,3.172871 3.061,0 5.708649,-0.630941 7.870658,-1.877941 l 0.15674,-0.09082 V 31.570308 l -1.450208,-0.525882 c -1.737,-0.63 -3.731725,-0.94776 -5.929725,-0.94776 z m 0,3.000019 c 1.855,0 3.491258,0.256513 4.907258,0.770513 v 3.697289 c -1.351,-0.781 -3.002598,-1.171883 -4.955598,-1.171883 -1.636,0 -2.967584,0.531761 -3.997584,1.593761 -1.029,1.062 -1.543956,2.479933 -1.543956,4.253933 0,1.799 0.461752,3.191296 1.385752,4.176296 0.923,0.984 2.170234,1.476572 3.741234,1.476572 0.944,0 1.69162,-0.135835 2.24562,-0.402835 v -3.417502 h -3.503929 v -3.149434 h 7.447314 v 8.802302 c -1.709,0.985 -3.833111,1.476572 -6.372111,1.476572 -2.816,0 -5.036222,-0.778906 -6.659222,-2.337906 -1.624,-1.559 -2.436051,-3.704029 -2.436051,-6.438029 0,-2.75 0.886173,-4.991605 2.660173,-6.726605 1.774,-1.732 4.1351,-2.600114 7.0811,-2.600114 z"
         style="baseline-shift:baseline;display:inline;overflow:visible;vector-effect:none;enable-background:accumulate;stop-color:#000000;stop-opacity:1;fill:none"
         id="path81" />
      <path
         d="M 103.88445,33.389656 V 50.89465 h 3.94339 v -6.701703 h 1.06201 c 0.122,0 0.23998,0.01287 0.35303,0.03809 0.11306,0.02521 0.2212,0.06276 0.3252,0.114259 0.1035,0.0505 0.20503,0.112672 0.30469,0.186036 0.0997,0.07336 0.19747,0.15792 0.29297,0.25342 0.192,0.19 0.38036,0.420945 0.56836,0.689945 0.187,0.269 0.38195,0.572069 0.58595,0.914069 l 2.72169,4.505888 h 4.41507 v -0.178712 l -3.19338,-4.998079 c -0.171,-0.268 -0.3599,-0.542247 -0.5669,-0.823247 -0.208,-0.28 -0.42532,-0.544091 -0.65332,-0.788091 -0.228,-0.245 -0.46353,-0.457141 -0.70753,-0.640141 -0.122,-0.0915 -0.24574,-0.169723 -0.37207,-0.235841 -0.12633,-0.06612 -0.25526,-0.120134 -0.38526,-0.161134 V 43.0196 c 0.297,-0.085 0.58007,-0.185585 0.84962,-0.303225 0.26955,-0.11764 0.52558,-0.252334 0.76758,-0.402834 0.242,-0.1505 0.46617,-0.315695 0.67237,-0.495121 0.2062,-0.179425 0.39443,-0.373082 0.56543,-0.580082 0.1705,-0.208 0.32174,-0.428031 0.45411,-0.660648 0.13236,-0.232618 0.24584,-0.477821 0.33984,-0.736821 0.0935,-0.258 0.164,-0.528204 0.21094,-0.810064 0.047,-0.28186 0.0703,-0.575377 0.0703,-0.880377 0,-0.39675 -0.0332,-0.769068 -0.0996,-1.116218 -0.0332,-0.173575 -0.0747,-0.341269 -0.12451,-0.502445 -0.0498,-0.161175 -0.10794,-0.315582 -0.17432,-0.464358 -0.0664,-0.148776 -0.14115,-0.29136 -0.22412,-0.427737 -0.083,-0.136377 -0.17436,-0.267138 -0.27393,-0.391116 -0.0996,-0.123978 -0.20757,-0.241451 -0.32373,-0.353029 -0.11616,-0.111579 -0.24078,-0.217228 -0.37354,-0.316409 -0.2655,-0.198361 -0.56314,-0.371255 -0.89502,-0.520023 -0.33188,-0.148768 -0.69746,-0.272895 -1.09571,-0.372072 -0.39826,-0.09918 -0.82884,-0.17307 -1.29347,-0.222658 -0.46462,-0.04959 -0.96315,-0.07471 -1.49415,-0.07471 h -0.001 z m 3.94485,2.954608 h 1.78126 c 0.22888,0 0.44276,0.01124 0.64307,0.03516 0.20031,0.02392 0.38638,0.06057 0.55811,0.108399 0.17173,0.04783 0.33001,0.106968 0.47315,0.178712 0.14314,0.07174 0.27218,0.156303 0.38672,0.251955 0.11454,0.09565 0.21437,0.202711 0.30029,0.322267 0.0859,0.119556 0.15805,0.252053 0.21534,0.395511 0.0573,0.143457 0.10025,0.298468 0.12891,0.465823 0.0287,0.167355 0.0425,0.346351 0.0425,0.537601 0,0.18325 -0.0157,0.358977 -0.0483,0.527347 -0.0326,0.168371 -0.0827,0.329866 -0.14795,0.483402 -0.0652,0.153535 -0.14688,0.299245 -0.24463,0.437991 -0.0978,0.138745 -0.21107,0.270045 -0.34132,0.394045 -0.12825,0.122 -0.2669,0.2294 -0.41601,0.320803 -0.14912,0.0914 -0.30906,0.166182 -0.47901,0.227052 -0.16995,0.06087 -0.34979,0.107294 -0.54053,0.137696 -0.19074,0.0304 -0.39202,0.04541 -0.60352,0.04541 h -1.70802 z"
         style="baseline-shift:baseline;display:inline;overflow:visible;vector-effect:none;enable-background:accumulate;stop-color:#000000;stop-opacity:1"
         id="path80" />
      <path
         d="m 100.8859,30.389636 v 23.505033 h 9.94342 v -2.516618 l 0.646,1.069343 0.87452,1.447275 h 6.10697 V 50.89465 h -4.41507 l -2.72169,-4.505888 c -0.204,-0.342 -0.39895,-0.645069 -0.58595,-0.914069 -0.188,-0.269 -0.37636,-0.499945 -0.56836,-0.689945 -0.191,-0.191 -0.39066,-0.338456 -0.59766,-0.439456 -0.208,-0.103 -0.43423,-0.152345 -0.67823,-0.152345 h -1.06201 v 6.701703 h -3.94339 V 33.389656 h 6.25053 0.001 c 4.248,0 6.37211,1.586772 6.37211,4.760772 0,0.61 -0.0943,1.174441 -0.28125,1.690441 -0.188,0.518 -0.45295,0.981469 -0.79395,1.397469 -0.342,0.414 -0.7538,0.774203 -1.2378,1.075203 -0.484,0.301 -1.0232,0.536059 -1.6172,0.706059 v 0.04981 c 0.26,0.082 0.51333,0.213975 0.75733,0.396975 0.244,0.183 0.47953,0.395141 0.70753,0.640141 0.228,0.244 0.44532,0.508091 0.65332,0.788091 0.207,0.281 0.3959,0.555247 0.5669,0.823247 l 3.19338,4.998079 v -5.569372 l -0.66651,-1.042975 c -0.117,-0.184 -0.24486,-0.376293 -0.38086,-0.571293 0.117,-0.124 0.23038,-0.252791 0.33838,-0.383791 0.26511,-0.322659 0.50061,-0.664639 0.70899,-1.022468 v -7.967336 c -1.14125,-1.939376 -3.49471,-3.769067 -8.32037,-3.769067 z m 6.9434,5.954628 v 4.869172 h 1.70802 c 0.846,0 1.52607,-0.242962 2.03907,-0.730962 0.521,-0.496 0.78224,-1.109785 0.78224,-1.842785 0,-1.53 -0.91707,-2.295425 -2.74807,-2.295425 z"
         style="baseline-shift:baseline;display:inline;overflow:visible;vector-effect:none;enable-background:accumulate;stop-color:#000000;stop-opacity:1;fill:none"
         id="path79" />
      <path
         d="M 121.45683,33.389656 V 50.89465 h 10.4986 v -3.197774 h -6.55522 v -4.003444 h 5.72465 v -3.197774 h -5.72465 v -3.895044 h 6.15239 v -3.210958 z"
         style="baseline-shift:baseline;display:inline;overflow:visible;vector-effect:none;enable-background:accumulate;stop-color:#000000;stop-opacity:1"
         id="path78" />
      <path
         d="m 118.45681,30.389636 v 23.505033 h 16.49864 v -0.522953 c -0.0105,-0.0038 -0.0203,-0.0079 -0.0308,-0.01172 -0.005,-0.002 -0.0107,-0.0039 -0.0161,-0.0059 -0.17128,-0.06331 -0.34068,-0.127427 -0.50391,-0.197755 -5.7e-4,-2.47e-4 -8.9e-4,-0.0012 -0.001,-0.0015 -0.19441,-0.08187 -0.38421,-0.16789 -0.56543,-0.260744 l -1.63185,-0.836431 V 39.886279 l 0.0879,0.07471 c -0.0535,-0.266 -0.0932,-0.537431 -0.12012,-0.814458 -0.0269,-0.277027 -0.041,-0.55965 -0.041,-0.84815 0,-0.35625 0.0195,-0.703572 0.0586,-1.04151 0.0391,-0.337939 0.0979,-0.66588 0.17578,-0.984382 0.0779,-0.318501 0.17525,-0.627848 0.29151,-0.925787 0.11626,-0.297938 0.25151,-0.585083 0.40576,-0.861333 0.12446,-0.222639 0.26225,-0.434256 0.40723,-0.640141 0.002,-0.0026 0.004,-0.0048 0.006,-0.0073 0.0636,-0.0913 0.13044,-0.179884 0.19776,-0.268069 0.001,-0.0014 0.002,-0.003 0.003,-0.0044 0.063,-0.08116 0.12866,-0.160296 0.19482,-0.238771 0.006,-0.0066 0.012,-0.01241 0.0176,-0.01904 0.20459,-0.244563 0.42295,-0.476319 0.65772,-0.694341 0.002,-0.0014 0.003,-0.003 0.004,-0.0044 v -2.219253 z m 3.00002,3.00002 h 10.09577 v 3.210958 h -6.15239 v 3.895044 h 5.72465 v 3.197774 h -5.72465 v 4.003444 h 6.55522 v 3.197774 h -10.4986 z"
         style="baseline-shift:baseline;display:inline;overflow:visible;vector-effect:none;enable-background:accumulate;stop-color:#000000;stop-opacity:1;fill:none"
         id="path77" />
      <path
         d="m 142.00579,33.096685 c -0.464,0 -0.91556,0.025 -1.35499,0.07471 -0.43944,0.04971 -0.86675,0.124123 -1.28175,0.224123 -0.2075,0.05 -0.40838,0.107502 -0.60352,0.171388 -0.19513,0.06388 -0.38422,0.13464 -0.5669,0.212403 -0.18267,0.07776 -0.35867,0.161785 -0.52881,0.25342 -0.17013,0.09164 -0.33469,0.1904 -0.49219,0.2959 -0.15775,0.106 -0.30705,0.219472 -0.44824,0.339846 -0.1412,0.120375 -0.2738,0.247494 -0.39844,0.382327 -0.12464,0.134833 -0.24203,0.276898 -0.3501,0.426272 -0.10808,0.149375 -0.20733,0.306218 -0.29883,0.470218 -0.0915,0.164 -0.17158,0.335773 -0.24024,0.515628 -0.0686,0.179856 -0.1256,0.368203 -0.17139,0.563969 -0.0458,0.195765 -0.0811,0.399113 -0.104,0.610843 -0.0229,0.211731 -0.0337,0.431434 -0.0337,0.659184 0,0.29125 0.0209,0.572493 0.063,0.842291 0.0421,0.269798 0.10492,0.528058 0.18896,0.776372 0.084,0.248314 0.18901,0.486586 0.31494,0.713383 0.12594,0.226798 0.27318,0.442216 0.44093,0.647466 0.168,0.2055 0.35705,0.403551 0.56836,0.593265 0.21131,0.189714 0.44549,0.371057 0.7002,0.544925 0.2547,0.173869 0.53092,0.340086 0.82911,0.49805 0.29818,0.157965 0.61772,0.30771 0.95947,0.44971 0.537,0.22 1.03748,0.435465 1.50148,0.647465 0.232,0.106 0.44876,0.213937 0.64893,0.323733 0.20017,0.109796 0.38375,0.221451 0.55225,0.335451 0.169,0.114 0.32041,0.233388 0.4541,0.357424 0.1337,0.124037 0.24967,0.252722 0.34717,0.386722 0.0975,0.135 0.17086,0.278283 0.21973,0.430666 0.0489,0.152384 0.0732,0.313867 0.0732,0.484867 0,0.126 -0.0149,0.247832 -0.0454,0.364748 -0.0305,0.116916 -0.0767,0.228916 -0.13769,0.336916 -0.061,0.108 -0.13744,0.209474 -0.22999,0.303225 -0.0925,0.09375 -0.20119,0.179779 -0.32519,0.259279 -0.1245,0.079 -0.26415,0.150261 -0.41895,0.212404 -0.1548,0.06214 -0.32477,0.115169 -0.50977,0.159669 -0.185,0.045 -0.38547,0.07863 -0.60205,0.101075 -0.21659,0.02244 -0.44927,0.03369 -0.69727,0.03369 -0.21175,0 -0.42363,-0.0093 -0.63429,-0.02783 -0.21065,-0.01854 -0.4203,-0.04639 -0.62988,-0.0835 -0.20958,-0.0371 -0.41843,-0.08349 -0.62696,-0.139161 -0.20853,-0.05567 -0.41653,-0.120575 -0.62403,-0.194825 -0.2075,-0.07425 -0.41095,-0.157729 -0.61084,-0.25049 -0.19989,-0.09276 -0.3966,-0.194849 -0.58887,-0.306154 -0.19227,-0.111306 -0.3808,-0.231933 -0.56544,-0.361819 -0.18463,-0.129886 -0.36499,-0.268983 -0.54199,-0.417483 v 3.905298 c 0.15875,0.08125 0.32486,0.157352 0.49805,0.228517 0.17318,0.07117 0.35291,0.136702 0.54053,0.197755 0.37524,0.122107 0.7799,0.224655 1.2129,0.306155 0.4335,0.081 0.87877,0.141101 1.33594,0.181641 0.45718,0.04054 0.92626,0.06152 1.40626,0.06152 0.4675,0 0.92392,-0.0225 1.36818,-0.06738 0.44425,-0.04488 0.87636,-0.11215 1.29786,-0.20215 0.21025,-0.0445 0.41338,-0.09609 0.61084,-0.155274 0.19746,-0.05918 0.38962,-0.125436 0.57422,-0.19922 0.18461,-0.07378 0.36297,-0.154859 0.53467,-0.243166 0.17171,-0.08831 0.33637,-0.184361 0.49512,-0.287111 0.1585,-0.1025 0.30905,-0.21265 0.45118,-0.331057 0.14212,-0.118406 0.2757,-0.245104 0.40137,-0.379397 0.12567,-0.134292 0.2439,-0.276115 0.35303,-0.426272 0.10912,-0.150157 0.20926,-0.308612 0.30176,-0.474612 0.0927,-0.16575 0.17359,-0.340693 0.24316,-0.525883 0.0696,-0.185189 0.12793,-0.381188 0.17432,-0.585941 0.0464,-0.204753 0.0808,-0.418631 0.10401,-0.64307 0.0232,-0.22444 0.0351,-0.45888 0.0351,-0.70313 0,-0.3545 -0.026,-0.686991 -0.0791,-0.997565 -0.0266,-0.155286 -0.0599,-0.305432 -0.0996,-0.44971 -0.0397,-0.144277 -0.0864,-0.282768 -0.13916,-0.416018 -0.106,-0.266 -0.23555,-0.517547 -0.38819,-0.754399 -0.15263,-0.236852 -0.32834,-0.459008 -0.52734,-0.666508 -0.1995,-0.2075 -0.4187,-0.40404 -0.65772,-0.590336 -0.23903,-0.186296 -0.49788,-0.362347 -0.77638,-0.527347 -0.2785,-0.165 -0.57497,-0.325069 -0.88916,-0.480472 -0.31419,-0.155403 -0.6461,-0.30614 -0.9961,-0.45264 -0.512,-0.212 -0.97289,-0.417703 -1.37989,-0.616703 -0.204,-0.0995 -0.39132,-0.200165 -0.56397,-0.30176 -0.17266,-0.101594 -0.33065,-0.204119 -0.47315,-0.307619 -0.1425,-0.104 -0.26947,-0.210882 -0.3794,-0.320803 -0.10992,-0.109921 -0.20278,-0.222881 -0.27978,-0.338381 -0.0775,-0.116 -0.13547,-0.23921 -0.17432,-0.370607 -0.0388,-0.131398 -0.0586,-0.270984 -0.0586,-0.417484 0,-0.135 0.0166,-0.262774 0.0513,-0.383791 0.0346,-0.121017 0.0872,-0.235276 0.15673,-0.342776 0.069,-0.108 0.15276,-0.207875 0.25049,-0.300295 0.0977,-0.09242 0.20946,-0.177384 0.33546,-0.254884 0.126,-0.077 0.26694,-0.144991 0.42187,-0.205079 0.15493,-0.06009 0.32384,-0.112275 0.50684,-0.155275 0.1835,-0.0425 0.3769,-0.07508 0.58008,-0.09668 0.20319,-0.0216 0.41615,-0.03223 0.64015,-0.03223 0.325,0 0.67072,0.02424 1.03272,0.07324 0.362,0.049 0.72531,0.125052 1.09131,0.227052 0.366,0.103 0.72188,0.229791 1.06788,0.383791 0.173,0.0775 0.33989,0.16084 0.49952,0.25049 0.15962,0.08965 0.31199,0.185612 0.45849,0.287112 v -3.648949 c -0.297,-0.1145 -0.6072,-0.214371 -0.93164,-0.298831 -0.32445,-0.08446 -0.66315,-0.153509 -1.01515,-0.208009 -0.352,-0.055 -0.72995,-0.09688 -1.13379,-0.124512 -0.40384,-0.02763 -0.83357,-0.04102 -1.28907,-0.04102 z"
         style="baseline-shift:baseline;display:inline;overflow:visible;vector-effect:none;enable-background:accumulate;stop-color:#000000;stop-opacity:1"
         id="path76" />
      <path
         d="m 142.00579,30.096666 c -1.159,0 -2.28194,0.128326 -3.33694,0.382326 -1.17,0.281 -2.23222,0.737919 -3.15822,1.357919 -1.028,0.691 -1.84931,1.580455 -2.44631,2.648455 -0.617,1.105 -0.93164,2.388012 -0.93164,3.813012 0,0.577 0.0541,1.130608 0.16113,1.662608 l -0.0879,-0.07471 v 12.171464 l 1.63185,0.836431 c 0.888,0.455 1.91993,0.794749 3.06593,1.010749 1.052,0.197 2.15892,0.2959 3.29592,0.2959 1.137,0 2.24899,-0.113451 3.29299,-0.335451 1.191,-0.252 2.27575,-0.68979 3.21975,-1.30079 0.26594,-0.171869 0.51826,-0.357954 0.75733,-0.558109 V 39.886279 l 0.0879,0.07471 c -0.0535,-0.266 -0.0932,-0.537431 -0.12012,-0.814458 -0.0269,-0.277027 -0.041,-0.55965 -0.041,-0.84815 0,-0.35625 0.0195,-0.703572 0.0586,-1.04151 0.0391,-0.337939 0.0979,-0.66588 0.17578,-0.984382 0.0779,-0.318501 0.17525,-0.627848 0.29151,-0.925787 0.11626,-0.297938 0.25151,-0.585083 0.40576,-0.861333 0.14075,-0.251793 0.29562,-0.49202 0.46143,-0.723638 0.004,-0.0057 0.008,-0.01189 0.0117,-0.01758 0.004,-0.0051 0.007,-0.01098 0.0102,-0.01611 0.0115,-0.01587 0.0236,-0.0311 0.0352,-0.04688 8.2e-4,-0.0011 0.002,-0.0018 0.003,-0.0029 0.16425,-0.223158 0.33901,-0.438047 0.52588,-0.641606 v -1.327157 l -1.92188,-0.739751 c -0.79,-0.304 -1.6525,-0.529902 -2.5635,-0.670902 -0.848,-0.133 -1.82029,-0.200685 -2.88429,-0.200685 z m 0,3.000019 c 0.911,0 1.71886,0.05553 2.42286,0.165528 0.704,0.109 1.35279,0.27784 1.94679,0.50684 v 3.648949 c -0.293,-0.203 -0.61201,-0.382602 -0.95801,-0.537602 -0.346,-0.154 -0.70188,-0.280791 -1.06788,-0.383791 -0.366,-0.102 -0.72931,-0.178052 -1.09131,-0.227052 -0.362,-0.049 -0.70772,-0.07324 -1.03272,-0.07324 -0.448,0 -0.85323,0.04391 -1.22023,0.128907 -0.366,0.086 -0.67671,0.206354 -0.92871,0.360354 -0.252,0.155 -0.44795,0.339179 -0.58595,0.555179 -0.139,0.215 -0.208,0.456567 -0.208,0.726567 0,0.293 0.0779,0.556091 0.23291,0.788091 0.154,0.231 0.37418,0.451184 0.65918,0.659184 0.285,0.207 0.62912,0.410379 1.03712,0.609379 0.407,0.199 0.86789,0.404703 1.37989,0.616703 0.7,0.293 1.32826,0.603112 1.88526,0.933112 0.557,0.33 1.0351,0.702683 1.4341,1.117683 0.398,0.415 0.70353,0.888907 0.91553,1.420907 0.211,0.533 0.31787,1.154293 0.31787,1.863293 0,0.977 -0.18564,1.795024 -0.55664,2.458024 -0.37,0.664 -0.87334,1.201338 -1.50734,1.611338 -0.635,0.411 -1.37385,0.706771 -2.21485,0.884771 -0.843,0.18 -1.73104,0.269533 -2.66604,0.269533 -0.96,0 -1.8752,-0.08116 -2.7422,-0.243165 -0.866,-0.163 -1.61648,-0.407427 -2.25148,-0.732427 v -3.905298 c 0.708,0.594 1.47714,1.038946 2.30714,1.335946 0.83,0.297 1.66816,0.445315 2.51516,0.445315 0.496,0 0.92932,-0.04477 1.29932,-0.134766 0.37,-0.089 0.67972,-0.214073 0.92872,-0.372073 0.248,-0.159 0.43318,-0.346504 0.55518,-0.562504 0.122,-0.216 0.1831,-0.449664 0.1831,-0.701664 0,-0.342 -0.098,-0.645533 -0.29297,-0.915533 -0.195,-0.268 -0.46327,-0.516146 -0.80127,-0.744146 -0.337,-0.228 -0.73718,-0.447184 -1.20118,-0.659184 -0.464,-0.212 -0.96448,-0.427465 -1.50148,-0.647465 -1.367,-0.568 -2.38514,-1.26395 -3.05714,-2.08595 -0.671,-0.821 -1.00782,-1.814512 -1.00782,-2.979512 0,-0.911 0.18332,-1.693624 0.54932,-2.349624 0.366,-0.656 0.86461,-1.194663 1.49561,-1.618663 0.63,-0.422 1.36142,-0.733111 2.19142,-0.933111 0.83,-0.2 1.70874,-0.29883 2.63674,-0.29883 z"
         style="baseline-shift:baseline;display:inline;overflow:visible;vector-effect:none;enable-background:accumulate;stop-color:#000000;stop-opacity:1;fill:none"
         id="path75" />
      <path
         d="m 157.26956,33.096685 c -0.928,0 -1.80674,0.09883 -2.63674,0.29883 -0.2075,0.05 -0.40839,0.107502 -0.60352,0.171388 -0.19513,0.06388 -0.38422,0.13464 -0.5669,0.212403 -0.18267,0.07776 -0.35868,0.161785 -0.52881,0.25342 -0.17013,0.09164 -0.33469,0.1904 -0.49219,0.2959 -0.15775,0.106 -0.30705,0.219472 -0.44824,0.339846 -0.1412,0.120375 -0.27381,0.247494 -0.39844,0.382327 -0.12464,0.134833 -0.24203,0.276898 -0.3501,0.426272 -0.10808,0.149375 -0.20733,0.306218 -0.29883,0.470218 -0.0915,0.164 -0.17159,0.335773 -0.24024,0.515628 -0.0687,0.179856 -0.1256,0.368203 -0.17139,0.563969 -0.0458,0.195765 -0.0811,0.399113 -0.104,0.610843 -0.0229,0.211731 -0.0337,0.431434 -0.0337,0.659184 0,0.29125 0.0209,0.572493 0.063,0.842291 0.0421,0.269798 0.10493,0.528058 0.18897,0.776372 0.084,0.248314 0.18901,0.486586 0.31494,0.713383 0.12594,0.226798 0.27317,0.442216 0.44092,0.647466 0.168,0.2055 0.35706,0.403551 0.56837,0.593265 0.21131,0.189714 0.44549,0.371057 0.7002,0.544925 0.2547,0.173869 0.53092,0.340086 0.8291,0.49805 0.29819,0.157965 0.61773,0.30771 0.95948,0.44971 0.537,0.22 1.03748,0.435465 1.50148,0.647465 0.232,0.106 0.44839,0.213937 0.64893,0.323733 0.20053,0.109796 0.38521,0.221451 0.55371,0.335451 0.169,0.114 0.32078,0.233388 0.45411,0.357424 0.13332,0.124037 0.2482,0.252722 0.3457,0.386722 0.19497,0.27 0.29297,0.573533 0.29297,0.915533 0,0.126 -0.0149,0.247832 -0.0454,0.364748 -0.0305,0.116916 -0.0767,0.228916 -0.13769,0.336916 -0.061,0.108 -0.13744,0.209474 -0.22999,0.303225 -0.0925,0.09375 -0.20119,0.179779 -0.32519,0.259279 -0.1245,0.079 -0.26415,0.150261 -0.41895,0.212404 -0.15481,0.06214 -0.32477,0.115169 -0.50977,0.159669 -0.185,0.045 -0.38547,0.07863 -0.60206,0.101075 -0.21658,0.02244 -0.44927,0.03369 -0.69727,0.03369 -0.21175,0 -0.42362,-0.0093 -0.63428,-0.02783 -0.21065,-0.01854 -0.4203,-0.04639 -0.62988,-0.0835 -0.20959,-0.0371 -0.41843,-0.08349 -0.62696,-0.139161 -0.20853,-0.05567 -0.41653,-0.120575 -0.62403,-0.194825 -0.2075,-0.07425 -0.41095,-0.157729 -0.61084,-0.25049 -0.19989,-0.09276 -0.3966,-0.194849 -0.58887,-0.306154 -0.19227,-0.111306 -0.3808,-0.231933 -0.56544,-0.361819 -0.18463,-0.129886 -0.36499,-0.268983 -0.54199,-0.417483 v 3.905298 c 0.15875,0.08125 0.32473,0.157352 0.49805,0.228517 0.17332,0.07117 0.35419,0.136702 0.54199,0.197755 0.37562,0.122107 0.7799,0.224655 1.2129,0.306155 0.4335,0.081 0.87914,0.141101 1.33595,0.181641 0.45681,0.04054 0.92479,0.06152 1.40479,0.06152 0.4675,0 0.92392,-0.0225 1.36818,-0.06738 0.44425,-0.04488 0.87636,-0.11215 1.29786,-0.20215 0.21025,-0.0445 0.41338,-0.09609 0.61084,-0.155274 0.19745,-0.05918 0.38961,-0.125436 0.57422,-0.19922 0.18461,-0.07378 0.36297,-0.154859 0.53467,-0.243166 0.17171,-0.08831 0.33637,-0.184361 0.49512,-0.287111 0.1585,-0.1025 0.30905,-0.21265 0.45118,-0.331057 0.14212,-0.118406 0.2757,-0.245104 0.40137,-0.379397 0.12566,-0.134292 0.2439,-0.276115 0.35303,-0.426272 0.10912,-0.150157 0.20926,-0.308612 0.30176,-0.474612 0.0844,-0.150856 0.15745,-0.310588 0.22265,-0.477542 v -3.112813 h 0.22559 c -0.0519,-0.258476 -0.11977,-0.504359 -0.20947,-0.730962 -0.212,-0.532 -0.51754,-1.005907 -0.91554,-1.420907 -0.1995,-0.2075 -0.41869,-0.40404 -0.65771,-0.590336 -0.23903,-0.186296 -0.49788,-0.362347 -0.77638,-0.527347 -0.2785,-0.165 -0.57497,-0.325069 -0.88916,-0.480472 -0.31419,-0.155403 -0.6461,-0.30614 -0.9961,-0.45264 -0.512,-0.212 -0.97289,-0.417703 -1.37989,-0.616703 -0.204,-0.0995 -0.39132,-0.200165 -0.56397,-0.30176 -0.17266,-0.101594 -0.33065,-0.204119 -0.47315,-0.307619 -0.1425,-0.104 -0.26948,-0.210882 -0.3794,-0.320803 -0.10992,-0.109921 -0.20278,-0.222881 -0.27978,-0.338381 -0.0775,-0.116 -0.13547,-0.23921 -0.17432,-0.370607 -0.0388,-0.131398 -0.0586,-0.270984 -0.0586,-0.417484 0,-0.135 0.0166,-0.262774 0.0513,-0.383791 0.0346,-0.121017 0.0872,-0.235276 0.15674,-0.342776 0.069,-0.108 0.15276,-0.207875 0.25049,-0.300295 0.0977,-0.09242 0.20945,-0.177384 0.33545,-0.254884 0.126,-0.077 0.26695,-0.144991 0.42188,-0.205079 0.15493,-0.06009 0.32384,-0.112275 0.50684,-0.155275 0.1835,-0.0425 0.3769,-0.07508 0.58008,-0.09668 0.20318,-0.0216 0.41614,-0.03223 0.64014,-0.03223 0.325,0 0.67073,0.02424 1.03273,0.07324 0.362,0.049 0.72531,0.125052 1.09131,0.227052 0.366,0.103 0.72334,0.229791 1.06934,0.383791 0.173,0.0775 0.33989,0.16084 0.49952,0.25049 0.15963,0.08965 0.312,0.185612 0.4585,0.287112 v -3.648949 c -0.297,-0.1145 -0.6083,-0.214371 -0.93311,-0.298831 -0.32482,-0.08446 -0.66315,-0.153509 -1.01515,-0.208009 -0.352,-0.055 -0.72995,-0.09688 -1.13379,-0.124512 -0.40384,-0.02763 -0.83357,-0.04102 -1.28907,-0.04102 z"
         style="baseline-shift:baseline;display:inline;overflow:visible;vector-effect:none;enable-background:accumulate;stop-color:#000000;stop-opacity:1"
         id="path74" />
      <path
         d="m 157.26956,30.096666 c -1.159,0 -2.28194,0.128326 -3.33694,0.382326 -1.17,0.281 -2.23222,0.737919 -3.15822,1.357919 -1.028,0.691 -1.84931,1.580455 -2.44631,2.648455 -0.617,1.105 -0.93164,2.388012 -0.93164,3.813012 0,0.577 0.0541,1.130608 0.16113,1.662608 l -0.0879,-0.07471 v 12.171464 l 1.63185,0.836431 c 0.888,0.455 1.91993,0.794749 3.06593,1.010749 1.052,0.197 2.15892,0.2959 3.29592,0.2959 1.137,0 2.24899,-0.113451 3.29299,-0.335451 1.191,-0.252 2.27721,-0.68979 3.22121,-1.30079 0.0332,-0.02144 0.0639,-0.0455 0.0967,-0.06738 v -4.541044 c -0.0652,0.166954 -0.13824,0.326686 -0.22265,0.477542 -0.37,0.664 -0.87334,1.201338 -1.50734,1.611338 -0.635,0.411 -1.37385,0.706771 -2.21485,0.884771 -0.843,0.18 -1.73104,0.269533 -2.66604,0.269533 -0.96,0 -1.87374,-0.08116 -2.74074,-0.243165 -0.866,-0.163 -1.61794,-0.407427 -2.25294,-0.732427 v -3.905298 c 0.708,0.594 1.47714,1.038946 2.30714,1.335946 0.83,0.297 1.66815,0.445315 2.51515,0.445315 0.496,0 0.92933,-0.04477 1.29933,-0.134766 0.37,-0.089 0.67972,-0.214073 0.92872,-0.372073 0.248,-0.159 0.43318,-0.346504 0.55518,-0.562504 0.122,-0.216 0.1831,-0.449664 0.1831,-0.701664 0,-0.342 -0.098,-0.645533 -0.29297,-0.915533 -0.195,-0.268 -0.46181,-0.516146 -0.79981,-0.744146 -0.337,-0.228 -0.73864,-0.447184 -1.20264,-0.659184 -0.464,-0.212 -0.96448,-0.427465 -1.50148,-0.647465 -1.367,-0.568 -2.38515,-1.26395 -3.05715,-2.08595 -0.671,-0.821 -1.00781,-1.814512 -1.00781,-2.979512 0,-0.911 0.18332,-1.693624 0.54932,-2.349624 0.366,-0.656 0.86461,-1.194663 1.49561,-1.618663 0.63,-0.422 1.36142,-0.733111 2.19142,-0.933111 0.83,-0.2 1.70874,-0.29883 2.63674,-0.29883 0.911,0 1.71886,0.05553 2.42286,0.165528 0.704,0.109 1.35426,0.27784 1.94826,0.50684 v 3.648949 c -0.293,-0.203 -0.61202,-0.382602 -0.95802,-0.537602 -0.346,-0.154 -0.70334,-0.280791 -1.06934,-0.383791 -0.366,-0.102 -0.72931,-0.178052 -1.09131,-0.227052 -0.362,-0.049 -0.70773,-0.07324 -1.03273,-0.07324 -0.448,0 -0.85322,0.04391 -1.22022,0.128907 -0.366,0.086 -0.67672,0.206354 -0.92872,0.360354 -0.252,0.155 -0.44794,0.339179 -0.58594,0.555179 -0.139,0.215 -0.20801,0.456567 -0.20801,0.726567 0,0.293 0.0779,0.556091 0.23292,0.788091 0.154,0.231 0.37418,0.451184 0.65918,0.659184 0.285,0.207 0.62912,0.410379 1.03712,0.609379 0.407,0.199 0.86789,0.404703 1.37989,0.616703 0.7,0.293 1.32826,0.603112 1.88526,0.933112 0.557,0.33 1.03509,0.702683 1.43409,1.117683 0.398,0.415 0.70354,0.888907 0.91554,1.420907 0.0897,0.226603 0.15762,0.472486 0.20947,0.730962 h 1.23927 v -5.400914 h -1.46486 v -8.696832 c -0.60802,-0.192859 -1.25037,-0.343074 -1.92042,-0.44678 -0.848,-0.133 -1.82029,-0.200685 -2.88429,-0.200685 z"
         style="baseline-shift:baseline;display:inline;overflow:visible;vector-effect:none;enable-background:accumulate;stop-color:#000000;stop-opacity:1;fill:none"
         id="path73" />
      <path
         d="m 165.07429,33.389656 v 3.052753 h 1.46486 v 11.400952 h -1.46486 v 3.051289 h 6.87309 v -3.051289 h -1.46485 V 36.442409 h 1.46485 v -3.052753 z"
         style="baseline-shift:baseline;display:inline;overflow:visible;vector-effect:none;enable-background:accumulate;stop-color:#000000;stop-opacity:1"
         id="path72" />
      <path
         d="m 162.07427,30.389636 v 9.052792 h 1.46486 v 5.400914 h -1.46486 v 9.051327 h 12.87313 v -2.935566 c -0.0408,-0.04096 -0.0827,-0.07985 -0.12304,-0.121582 -2.131,-2.203 -3.21096,-5.049922 -3.21096,-8.463922 0,-3.542 1.08282,-6.49068 3.21682,-8.76568 0.0383,-0.04085 0.0785,-0.07851 0.11718,-0.118653 v -3.09963 z m 3.00002,3.00002 h 6.87309 v 3.052753 h -1.46485 v 11.400952 h 1.46485 v 3.051289 h -6.87309 v -3.051289 h 1.46486 V 36.442409 h -1.46486 z"
         style="baseline-shift:baseline;display:inline;overflow:visible;vector-effect:none;enable-background:accumulate;stop-color:#000000;stop-opacity:1;fill:none"
         id="path71" />
      <path
         d="m 183.38935,33.096685 c -0.33062,0 -0.65249,0.01285 -0.9668,0.03955 -0.31431,0.0267 -0.62047,0.06671 -0.91846,0.120118 -0.298,0.05341 -0.58843,0.120576 -0.87013,0.200685 -0.2817,0.08011 -0.5549,0.172975 -0.82031,0.279787 -0.26542,0.106812 -0.52284,0.228303 -0.77198,0.361818 -0.24914,0.133516 -0.49077,0.279238 -0.72364,0.439456 -0.23287,0.160219 -0.45721,0.334566 -0.67383,0.521488 -0.21662,0.186922 -0.42512,0.386965 -0.62549,0.60059 -0.2005,0.213625 -0.38855,0.434903 -0.56397,0.665043 -0.17542,0.230141 -0.33892,0.469653 -0.48926,0.716313 -0.15035,0.246661 -0.28782,0.501469 -0.41309,0.764654 -0.12527,0.263184 -0.23818,0.534744 -0.33838,0.814458 -0.10021,0.279714 -0.18707,0.566551 -0.26221,0.862798 -0.0751,0.296248 -0.13741,0.601283 -0.1875,0.914069 -0.0501,0.312785 -0.0877,0.634545 -0.1128,0.963873 -0.025,0.329328 -0.0381,0.666338 -0.0381,1.012213 0,0.327625 0.012,0.647349 0.0366,0.959479 0.0246,0.31213 0.062,0.615957 0.11133,0.912604 0.0493,0.296647 0.11063,0.586017 0.18457,0.867193 0.0739,0.281176 0.16067,0.554601 0.25928,0.820317 0.0986,0.265717 0.20924,0.524638 0.33252,0.774908 0.12328,0.25027 0.25926,0.491732 0.40723,0.726567 0.14797,0.234834 0.3078,0.461745 0.48047,0.681157 0.17267,0.219411 0.3578,0.431746 0.55518,0.635746 0.19737,0.204 0.4019,0.395729 0.61377,0.574222 0.21188,0.178494 0.43135,0.343596 0.65772,0.496585 0.22637,0.15299 0.45933,0.292927 0.7002,0.420413 0.24087,0.127487 0.48878,0.242255 0.74415,0.344241 0.25537,0.101985 0.51822,0.191581 0.78809,0.268068 0.26987,0.07649 0.54766,0.140906 0.83203,0.191896 0.28438,0.05099 0.57565,0.08876 0.87452,0.114258 0.29888,0.02549 0.60509,0.03809 0.91846,0.03809 0.32138,0 0.63572,-0.01324 0.94191,-0.03955 0.30618,-0.02631 0.60402,-0.06603 0.89502,-0.118653 0.291,-0.05263 0.57527,-0.118807 0.85108,-0.197755 0.27581,-0.07895 0.54358,-0.170119 0.8042,-0.275392 0.26062,-0.105274 0.51337,-0.224356 0.7588,-0.35596 0.24543,-0.131603 0.48314,-0.275657 0.71338,-0.433596 0.23025,-0.157939 0.45291,-0.329884 0.66797,-0.514164 0.21507,-0.184279 0.42269,-0.381175 0.62257,-0.5918 0.2,-0.2105 0.38752,-0.429074 0.5625,-0.656254 0.17499,-0.227181 0.33782,-0.46367 0.4878,-0.707524 0.14997,-0.243855 0.28665,-0.495343 0.41162,-0.755865 0.12497,-0.260521 0.23842,-0.529953 0.33838,-0.807134 0.1,-0.277181 0.18724,-0.56164 0.26221,-0.855474 0.075,-0.293834 0.13753,-0.596264 0.1875,-0.906744 0.05,-0.31048 0.0864,-0.629431 0.11133,-0.956549 0.025,-0.327118 0.0381,-0.662604 0.0381,-1.006354 0,-0.33475 -0.0125,-0.661564 -0.0366,-0.979987 -0.0241,-0.318423 -0.0602,-0.628068 -0.1084,-0.930182 -0.0482,-0.302113 -0.1079,-0.596019 -0.18018,-0.881841 -0.0723,-0.285822 -0.15704,-0.563954 -0.25342,-0.833501 -0.0964,-0.269548 -0.20473,-0.530406 -0.3252,-0.783697 -0.12047,-0.25329 -0.25241,-0.498305 -0.39697,-0.735356 -0.14457,-0.237051 -0.30156,-0.466187 -0.47022,-0.687016 -0.16866,-0.220829 -0.34925,-0.434051 -0.542,-0.638676 -0.19275,-0.204375 -0.39286,-0.395364 -0.60059,-0.574223 -0.20773,-0.178859 -0.4233,-0.34618 -0.646,-0.499514 -0.22269,-0.153335 -0.45229,-0.292613 -0.68994,-0.420413 -0.23766,-0.127801 -0.48276,-0.243448 -0.73536,-0.345706 -0.2526,-0.102258 -0.51324,-0.191361 -0.78076,-0.268068 -0.26753,-0.07671 -0.54227,-0.140749 -0.82472,-0.191895 -0.28245,-0.05115 -0.57276,-0.09015 -0.87012,-0.115724 -0.29736,-0.02558 -0.60182,-0.03809 -0.91407,-0.03809 z m -0.10986,3.3926 c 0.16787,0 0.33175,0.0076 0.49072,0.02344 0.15898,0.0158 0.31282,0.04019 0.4629,0.07178 0.15008,0.03159 0.29535,0.07129 0.43652,0.118653 0.14118,0.04736 0.27789,0.102394 0.41016,0.165529 0.13227,0.06314 0.26043,0.133507 0.38379,0.212403 0.12337,0.0789 0.24297,0.166096 0.35743,0.260744 0.11445,0.09465 0.22405,0.197228 0.32959,0.307619 0.10554,0.110391 0.2066,0.22837 0.30322,0.354495 0.0966,0.126 0.1879,0.25833 0.27247,0.396975 0.0846,0.138645 0.16187,0.283785 0.23437,0.435061 0.0645,0.134474 0.12232,0.275976 0.17725,0.420413 0.0179,0.04704 0.0344,0.09546 0.0513,0.143556 0.0375,0.106921 0.0729,0.215988 0.10547,0.328127 0.0143,0.04917 0.0292,0.09778 0.0425,0.14795 0.0331,0.124945 0.0622,0.254096 0.0894,0.385256 0.0152,0.07365 0.0291,0.148514 0.0425,0.224123 0.024,0.135895 0.0465,0.273799 0.0644,0.416018 0.006,0.04775 0.0108,0.09656 0.0161,0.145021 0.0147,0.133003 0.0257,0.268859 0.0352,0.407229 0.005,0.06856 0.01,0.136666 0.0132,0.206544 0.009,0.188579 0.0161,0.380453 0.0161,0.578617 0,0.199839 -0.007,0.393198 -0.0176,0.583012 -0.003,0.04953 -0.007,0.09764 -0.0102,0.146485 -0.009,0.131359 -0.0207,0.260298 -0.0352,0.386721 -0.007,0.06239 -0.015,0.124844 -0.0234,0.186036 -0.0233,0.169813 -0.0491,0.336029 -0.082,0.496586 -0.0342,0.166525 -0.0741,0.326831 -0.11865,0.483401 -0.0113,0.03975 -0.0246,0.07808 -0.0366,0.117188 -0.0374,0.121853 -0.0777,0.240335 -0.12159,0.35596 -0.0126,0.03326 -0.0249,0.06686 -0.0381,0.09961 -0.0583,0.144913 -0.12015,0.287055 -0.18897,0.421877 -0.0747,0.14636 -0.156,0.287444 -0.24317,0.421878 -0.0872,0.134434 -0.18016,0.262756 -0.27978,0.385256 -0.0998,0.122625 -0.20349,0.236966 -0.31202,0.344241 -0.10852,0.107275 -0.22254,0.206898 -0.33984,0.29883 -0.1173,0.09193 -0.23868,0.176825 -0.36475,0.253419 -0.12607,0.0766 -0.25628,0.145281 -0.39112,0.206545 -0.13483,0.06126 -0.27388,0.115195 -0.41748,0.161134 -0.1436,0.04594 -0.29149,0.08364 -0.44385,0.114258 -0.30472,0.06124 -0.62705,0.09229 -0.9668,0.09229 h -0.001 c -0.16475,0 -0.32504,-0.0077 -0.48193,-0.02344 -0.1569,-0.01573 -0.31094,-0.03883 -0.45997,-0.07031 -0.14903,-0.03148 -0.29391,-0.07141 -0.43506,-0.118653 -0.14115,-0.04724 -0.27836,-0.102516 -0.41162,-0.165528 -0.13327,-0.06301 -0.26282,-0.133604 -0.38819,-0.212404 -0.12537,-0.0788 -0.24582,-0.166141 -0.36328,-0.260744 -0.11747,-0.0946 -0.23176,-0.1972 -0.34131,-0.307619 -0.10955,-0.110419 -0.21479,-0.228244 -0.31641,-0.354494 -0.10175,-0.126125 -0.19664,-0.258039 -0.28565,-0.395511 -0.089,-0.137471 -0.17275,-0.280398 -0.24902,-0.429202 -0.0694,-0.135407 -0.13159,-0.277093 -0.19043,-0.421877 -0.0154,-0.03795 -0.0292,-0.07713 -0.0439,-0.115724 -0.0431,-0.113104 -0.0833,-0.228541 -0.12012,-0.34717 -0.0132,-0.04236 -0.0272,-0.08438 -0.0396,-0.127442 -0.0447,-0.155648 -0.0858,-0.315637 -0.12012,-0.480472 -0.0339,-0.162629 -0.0611,-0.330883 -0.085,-0.502445 -0.007,-0.05309 -0.0141,-0.107186 -0.0205,-0.161133 -0.0161,-0.135494 -0.0281,-0.273672 -0.0381,-0.414554 -0.003,-0.04587 -0.008,-0.09125 -0.0103,-0.137696 -0.0107,-0.189223 -0.0176,-0.38139 -0.0176,-0.580082 0,-1.709 0.40622,-3.083632 1.22022,-4.120632 0.10175,-0.12975 0.20724,-0.251213 0.31787,-0.364748 0.11063,-0.113535 0.22619,-0.219089 0.34571,-0.316408 0.11951,-0.09732 0.24366,-0.186966 0.37207,-0.268068 0.1284,-0.0811 0.26113,-0.15338 0.39844,-0.218263 0.13731,-0.06488 0.27859,-0.121259 0.42481,-0.169923 0.14621,-0.04866 0.2975,-0.0906 0.45264,-0.123048 0.15513,-0.03244 0.31494,-0.05555 0.479,-0.07178 0.16407,-0.01622 0.33238,-0.0249 0.50538,-0.0249 z"
         style="baseline-shift:baseline;display:inline;overflow:visible;vector-effect:none;enable-background:accumulate;stop-color:#000000;stop-opacity:1"
         id="path70" />
      <path
         d="m 183.38935,30.096666 c -3.495,0 -6.37413,1.181253 -8.55913,3.511253 -2.134,2.275 -3.21682,5.22368 -3.21682,8.76568 0,3.414 1.07996,6.260922 3.21096,8.463922 2.158,2.231 4.9462,3.361837 8.2852,3.361837 3.415,0 6.2517,-1.164447 8.4317,-3.461447 0.52338,-0.551289 0.98175,-1.143666 1.37843,-1.775402 v -13.81503 c -0.37286,-0.586179 -0.79984,-1.139085 -1.28468,-1.653819 -2.127,-2.254 -4.90066,-3.396994 -8.24566,-3.396994 z m 0,3.000019 c 2.498,0 4.51956,0.818629 6.06156,2.453629 1.542,1.637 2.31301,3.792256 2.31301,6.470256 0,2.75 -0.79943,4.967898 -2.39943,6.651898 -1.599,1.685 -3.68393,2.526871 -6.25493,2.526871 -2.507,0 -4.54994,-0.815769 -6.12894,-2.447769 -1.579,-1.632 -2.3672,-3.756971 -2.3672,-6.377971 0,-2.767 0.80129,-5.004421 2.40529,-6.713421 1.603,-1.709 3.72564,-2.563493 6.37064,-2.563493 z m -0.10986,3.3926 c -1.384,0 -2.48192,0.519138 -3.29592,1.557138 -0.814,1.037 -1.22022,2.411632 -1.22022,4.120632 0,1.732 0.40622,3.104308 1.22022,4.113308 0.813,1.01 1.87977,1.513193 3.19777,1.513193 h 0.001 c 1.359,0 2.43786,-0.489713 3.23586,-1.470713 0.797,-0.98 1.19532,-2.34201 1.19532,-4.08401 0,-1.814 -0.38717,-3.22689 -1.16017,-4.23489 -0.773,-1.009 -1.83133,-1.514658 -3.17433,-1.514658 z m 0.001,3.000019 c 0.495,0 0.64049,0.141846 0.79249,0.339846 0.348,0.455 0.54053,1.310683 0.54053,2.409683 0,1.012 -0.18142,1.77042 -0.52442,2.19142 -0.162,0.199 -0.34174,0.363284 -0.90674,0.363284 -0.459,0 -0.65034,-0.132511 -0.86134,-0.395511 -0.461,-0.571 -0.55811,-1.527971 -0.55811,-2.230971 0,-1.014 0.19555,-1.776592 0.58155,-2.267592 0.213,-0.272 0.41604,-0.410159 0.93604,-0.410159 z"
         style="baseline-shift:baseline;display:inline;overflow:visible;vector-effect:none;enable-background:accumulate;stop-color:#000000;stop-opacity:1;fill:none"
         id="path69" />
      <path
         d="M 195.92117,33.389656 V 50.89465 h 3.72219 v -9.618225 c 0,-0.635 -0.007,-1.188887 -0.0234,-1.661144 -0.016,-0.472256 -0.0407,-0.862882 -0.0732,-1.171882 h 0.0483 c 0.0815,0.1625 0.19483,0.36563 0.34131,0.607914 0.14648,0.242283 0.3261,0.52372 0.5376,0.84522 l 7.2144,10.998117 h 3.97855 V 33.389656 h -3.7222 v 9.679749 c 0,0.5985 0.008,1.097722 0.0249,1.498544 0.008,0.200412 0.0185,0.376289 0.0308,0.527348 0.0122,0.151058 0.0262,0.277646 0.0425,0.379396 h -0.0483 c -0.269,-0.472 -0.56191,-0.948231 -0.87891,-1.428231 l -6.94634,-10.656806 z"
         style="baseline-shift:baseline;display:inline;overflow:visible;vector-effect:none;enable-background:accumulate;stop-color:#000000;stop-opacity:1"
         id="path68" />
      <path
         d="m 192.91969,30.389636 v 23.505033 h 9.72223 v -5.220736 l 2.53566,3.865747 0.88916,1.354989 h 8.60015 V 30.389636 h -9.72223 v 4.834016 l -2.26319,-3.471702 -0.88917,-1.362314 z m 3.00148,3.00002 h 4.24807 l 6.94634,10.656806 c 0.317,0.48 0.60991,0.956231 0.87891,1.428231 h 0.0483 c -0.065,-0.407 -0.0982,-1.208288 -0.0982,-2.405288 v -9.679749 h 3.7222 V 50.89465 h -3.97855 l -7.2144,-10.998117 c -0.423,-0.643 -0.71591,-1.128134 -0.87891,-1.453134 h -0.0483 c 0.065,0.618 0.0967,1.563026 0.0967,2.833026 v 9.618225 h -3.72219 z"
         style="baseline-shift:baseline;display:inline;overflow:visible;vector-effect:none;enable-background:accumulate;stop-color:#000000;stop-opacity:1;fill:none"
         id="path67" />
      <g
         id="g21"
         style="fill:#525051;fill-opacity:1">
        <polygon
           points="2.748 29.859 2.748 2.859 8.748 2.859 8.748 23.859 231.248 23.859 231.248 2.859 237.248 2.859 237.248 29.859 2.748 29.859"
           fill="#70839c"
           id="polygon20"
           style="fill:#525051;fill-opacity:1" />
        <path
           d="M235.748,4.359v24H4.248V4.359h3v21h225.5V4.359h3M238.748,1.359h-9v21H10.248V1.359H1.248v30h237.5V1.359h0Z"
           fill="#445060"
           id="path20"
           style="fill:#525051;fill-opacity:1" />
      </g>
    </g>
  </g>
</svg>
