<?xml version="1.0" encoding="UTF-8"?>
<svg xmlns="http://www.w3.org/2000/svg" width="14.1mm" height="19.1mm" version="1.1" viewBox="0 0 39.969 54.142">
  <!-- Generator: Adobe Illustrator 28.7.4, SVG Export Plug-In . SVG Version: 1.2.0 Build 166)  -->
  <g>
    <g id="Calque_1">
      <rect x="945.262" y="1145.372" width="25.045" height="25.045" fill="#00d200" fill-opacity=".2" stroke="#00d200" stroke-linecap="round" stroke-linejoin="round" stroke-width="3"/>
      <path d="M19.977,2.652h-.042s-2.982,2.479-7.295,3.992c-4.168,1.462-10.196,2.101-10.196,2.101,0,0-2.197,19.667,4.614,30.202,4.818,7.452,12.648,12.439,12.648,12.439,0,0,.137.064.26.064s.239-.064.239-.064c0,0,7.83-4.987,12.649-12.439,6.811-10.534,4.614-30.202,4.614-30.202,0,0-6.029-.639-10.196-2.101-4.313-1.513-7.295-3.992-7.295-3.992h0Z" fill="#171717" stroke="#3B3B3B" stroke-miterlimit="10"/>
    </g>
  </g>
</svg>