<?xml version="1.0" encoding="UTF-8"?>
<svg xmlns="http://www.w3.org/2000/svg" width="34.95mm" height="32.4mm" version="1.1" viewBox="0 0 99.071 91.843">
  <!-- Generator: Adobe Illustrator 28.7.4, SVG Export Plug-In . SVG Version: 1.2.0 Build 166)  -->
  <g>
    <g id="Calque_1">
      <g>
        <g>
          <path d="M22.071,73.719c-2.156,0-3.923-.956-5.111-2.763-.386-.586-.587-1.202-.72-1.672-.235-.833-.044-1.657.535-2.321,0,0,7.681-8.788,7.732-8.845V22.59c-.002-.234-.002-.371.006-.508.061-1.124.816-1.993,1.924-2.211.166-.033.34-.048.513-.053h53.539c.177.005.351.02.52.053,1.107.218,1.863,1.087,1.924,2.212.007.134.007.27.006.406v35.628c.051.059.837.952.837.952l6.892,7.89c.582.666.772,1.49.538,2.324-.132.469-.333,1.083-.72,1.672-1.188,1.808-2.955,2.764-5.112,2.764H22.071ZM21.459,68.903c.134.066.256.097.383.097.131-.003.238-.005.345-.005l.517.003,62.552-.003c.107,0,.323.005.324.005.149,0,.271-.031.406-.098.029-.014.057-.029.084-.044l-3.534-4.042c-1.009-1.152-2.018-2.305-3.021-3.463-8.013.003-27.546.006-27.546.006l-24.04-.006c-1.005,1.16-2.015,2.312-3.024,3.466l-3.531,4.04c.027.015.056.03.085.045ZM78.22,56.638l-.008-32.08c-3.026-.019-10.854-.03-21.127-.03h-6.725c-10.272,0-18.1.011-21.127.03l-.002,32.08h48.99Z" fill="#000000" fill-rule="evenodd"/>
          <path d="M80.227,21.314c.073,0,.145,0,.218.003.091.003.183.008.272.026.436.086.693.38.717.822.008.142.003.284.003.426,0,11.838,0,23.675,0,35.514,0,.121-.017.247.006.364.023.123.061.258.135.356.171.226.368.432.555.646,1.888,2.163,3.775,4.325,5.663,6.487.58.664,1.162,1.328,1.743,1.991.237.272.323.569.222.928-.125.443-.278.872-.53,1.256-.91,1.386-2.192,2.087-3.858,2.087-10.55,0-21.101,0-31.651,0s-21.101,0-31.651,0c-1.665,0-2.947-.701-3.858-2.087-.252-.384-.405-.813-.53-1.256-.101-.359-.015-.657.222-.928.582-.664,1.163-1.327,1.743-1.991,1.888-2.162,3.775-4.324,5.663-6.487.187-.214.383-.42.555-.646.074-.098.111-.233.135-.356.023-.118.006-.243.006-.364V22.59c0-.142-.004-.284.004-.426.024-.442.281-.736.717-.822.088-.018.181-.023.271-.026.073-.002.146-.003.219-.003.079,0,.159,0,.238,0h52.534c.079,0,.159,0,.238,0M51.969,23.028h0c-.548,0-1.093,0-1.636,0-11.866,0-22.387.016-22.539.049-.005.006-.012.013-.019.021-.006.007-.014.016-.016.024-.01.049-.027.099-.027.148-.002,11.523-.002,23.046-.002,34.57,0,.051.003.101.011.152.004.028.02.056.039.104.068.012.145.034.223.037.076.004.152.005.228.005.066,0,.132,0,.199,0h50.585c.066,0,.132,0,.198,0,.076,0,.152,0,.228-.005.077-.003.154-.025.222-.037.02-.049.035-.076.04-.104.008-.051.011-.101.011-.152,0-11.523,0-23.046-.002-34.57,0-.05-.016-.099-.027-.148-.002-.009-.01-.017-.016-.024-.006-.008-.014-.015-.019-.021-.151-.033-10.672-.049-22.539-.049-.542,0-1.089,0-1.636,0h0c-.584,0-1.169,0-1.753,0h-1.753M55.475,59.858c-.584,0-1.168-.001-1.753-.001s-1.169.001-1.753.001h0c-8.107-.001-16.215-.003-24.322-.006-.293,0-.484.093-.674.312-1.434,1.656-2.879,3.301-4.321,4.951-.988,1.129-1.976,2.26-2.962,3.391-.079.09-.145.191-.224.296.248.675.706,1.138,1.331,1.446.329.162.678.252,1.046.252.023,0,.047,0,.071-.001.092-.003.183-.004.275-.004.172,0,.345.003.517.003h62.035c.172,0,.345-.003.517-.003.092,0,.183,0,.275.004.024,0,.047.001.071.001.369,0,.717-.09,1.046-.252.624-.308,1.082-.771,1.331-1.446-.079-.105-.145-.206-.224-.296-.987-1.131-1.975-2.261-2.962-3.391-1.442-1.649-2.888-3.294-4.321-4.951-.19-.22-.381-.312-.674-.312-8.107.003-16.215.005-24.322.005h0M80.227,18.314h-.131s-.107,0-.107,0H27.349s-.131,0-.131,0c-.102,0-.203,0-.305.004-.202.006-.462.021-.768.082-1.774.35-3.032,1.798-3.13,3.603-.009.165-.01.333-.009.502v.086s0,34.958,0,34.958l-.594.681-5.024,5.755-1.739,1.987c-.915,1.049-1.224,2.402-.854,3.718.163.577.413,1.333.912,2.092,1.478,2.249,3.679,3.439,6.364,3.439h31.651s31.651,0,31.651,0c2.686,0,4.887-1.189,6.366-3.44.506-.771.762-1.562.91-2.091.371-1.317.061-2.671-.851-3.714l-.15-.172-1.592-1.819-5.023-5.754-.594-.681V22.59s0-.088,0-.088c.001-.168,0-.335-.008-.502-.097-1.802-1.356-3.25-3.132-3.6-.305-.06-.565-.075-.757-.081-.11-.003-.212-.004-.314-.004h0ZM51.969,26.028h5.142c9.793,0,16.233.009,19.6.022l.002,29.087H30.731c0-9.696,0-19.391.002-29.087,3.367-.013,9.808-.023,19.601-.023h1.636s0,0,0,0h0ZM24.554,67.498c.119-.136.238-.272.357-.408l1.123-1.284c.861-.984,1.722-1.967,2.58-2.954,7.785.003,15.571.005,23.356.005h1.17s.582,0,.582,0h.874s.879,0,.879,0h0c7.785,0,15.571-.002,23.356-.006.858.987,1.719,1.971,2.58,2.954l1.123,1.283c.119.136.238.272.357.408H24.554Z" fill="#3B3B3B"/>
        </g>
        <g>
          <path d="M26.34,69.251c-.111,0-.222-.003-.333-.013-1.037-.094-1.768-.913-1.743-1.947.021-.999.768-1.775,1.775-1.842.102-.008.213-.01.325-.01h55.645c.112,0,.224.003.335.011.994.066,1.741.841,1.765,1.842.024,1.034-.706,1.853-1.737,1.946-.117.01-.228.014-.339.014H26.34Z" fill="#000000" fill-rule="evenodd"/>
          <path d="M82.009,66.938c.075,0,.15.001.224.007.242.016.371.153.376.381.006.247-.122.395-.373.418-.068.006-.135.007-.203.007-.067,0-.134-.001-.202-.001H26.542c-.067,0-.134.001-.201.001-.068,0-.136-.001-.203-.007-.252-.023-.379-.171-.374-.418.005-.229.134-.365.376-.381.075-.006.15-.007.224-.007.078,0,.156.002.235.002,8.678,0,17.356,0,26.033,0h3.109c8.678,0,17.355,0,26.033,0,.078,0,.156-.002.235-.002M82.009,63.938h-.147s-.088.002-.088.002h-13.017s-13.016,0-13.016,0h-16.126s-13.017,0-13.017,0h-.088s-.147-.002-.147-.002c-.149,0-.297.004-.446.015-1.78.119-3.115,1.511-3.154,3.309-.043,1.81,1.29,3.305,3.101,3.469.166.014.321.02.475.02h.133s.068-.001.068-.001h55.357s.133.001.133.001c.154,0,.308-.005.463-.019,1.824-.166,3.157-1.661,3.113-3.478-.042-1.793-1.377-3.183-3.176-3.303-.125-.009-.274-.014-.423-.014h0Z" fill="#3B3B3B"/>
        </g>
        <g>
          <path d="M33.256,55.981c-.248,0-.43-.004-.608-.023-.882-.077-1.564-.749-1.664-1.669-.013-.107-.016-.236-.015-.362v-26.64c-.001-.139,0-.243.009-.346.077-.958.78-1.674,1.747-1.769.081-.009.171-.012.261-.012h41.473c.091,0,.181.003.272.013.955.093,1.658.808,1.738,1.779.008.098.009.198.008.298v26.642c.001.162-.001.29-.017.414-.103.907-.784,1.576-1.693,1.656-.149.017-.331.021-.511.021h-41ZM59.532,52.337c6.355,0,11.014-.009,13.241-.024v-23.448h-38.102v23.444c2.268.02,6.915.029,13.243.029h2.787v-.006h4.54s1.504-.003,1.504-.003v.008h2.787Z" fill="#000000" fill-rule="evenodd"/>
          <path d="M74.46,26.658c.038,0,.077.001.115.005.246.024.379.162.399.411.006.07.003.141.003.211v26.605c0,.077.004.158-.005.235-.023.207-.13.322-.335.34-.125.014-.252.015-.378.015-.024,0-.047,0-.07,0h-40.929c-.023,0-.047,0-.07,0-.126,0-.253-.001-.378-.015-.207-.018-.313-.134-.335-.34-.009-.077-.006-.158-.006-.235,0-8.869,0-17.737,0-26.605,0-.07-.003-.141.003-.211.02-.249.153-.387.398-.411.039-.004.077-.005.116-.005.041,0,.081.001.122.001h41.228c.041,0,.082-.001.123-.001M52.201,27.365c-6.087,0-12.175,0-18.264,0-.09,0-.181-.002-.271-.002-.059,0-.118,0-.177.003-.093.004-.186.025-.317.043v21.888c0,1.366-.001,2.73.001,4.095,0,.12.018.24.029.374.13.015.233.034.336.036,1.514.025,7.385.035,14.372.035,1.394,0,2.834,0,4.291-.001v-.003c.508.001,1.016.001,1.521.001s1.015,0,1.523-.001v.003c1.458,0,2.897.001,4.292.001,6.986,0,12.858-.011,14.371-.035.103-.002.205-.021.336-.036.01-.134.028-.254.028-.374.001-1.365,0-2.729,0-4.095v-21.888c-.13-.019-.222-.039-.315-.043-.059-.003-.118-.003-.177-.003-.091,0-.181.002-.272.002-6.088,0-12.176,0-18.264,0h-3.044M74.46,23.658h-.104s-20.633.001-20.633.001h-20.735c-.142-.001-.284.005-.426.02-1.668.163-2.942,1.461-3.078,3.154-.011.122-.015.277-.013.432v26.625c-.001.132-.003.338.027.59.172,1.583,1.41,2.811,3.013,2.97.251.026.474.03.679.03h.07s18.942,0,18.942,0h22.057c.205,0,.428-.004.68-.03,1.596-.158,2.833-1.381,3.015-2.988.028-.234.026-.442.025-.554v-26.624c.001-.167-.001-.313-.013-.458-.14-1.69-1.414-2.985-3.098-3.15-.122-.013-.264-.019-.407-.019h0ZM36.172,50.821c0-.204,0-.408,0-.612v-.911s0-18.933,0-18.933h6.898s9.131,0,9.131,0h12.176s6.896,0,6.896,0v19.964s0,.492,0,.492c-2.52.01-6.566.016-11.737.016h-1.292v-.01l-3.008.005h-1.515s-1.513,0-1.513,0l-3.008-.008v.012h-1.291c-5.171,0-9.216-.005-11.738-.016h0Z" fill="#3B3B3B"/>
        </g>
      </g>
    </g>
  </g>
</svg>