<?xml version="1.0" encoding="UTF-8"?>
<svg xmlns="http://www.w3.org/2000/svg" width="34.95mm" height="32.4mm" version="1.1" viewBox="0 0 99.071 91.843">
  <!-- Generator: Adobe Illustrator 28.7.4, SVG Export Plug-In . SVG Version: 1.2.0 Build 166)  -->
  <g>
    <g id="Calque_1">
      <g>
        <path d="M31.547,68.281v-6.374l6.281-.004c.925,0,1.849.002,2.774.011.153-.911.323-1.783.501-2.686-7.072-.015-14.144-.028-21.216-.038-2.474-.004-4.574-1.847-4.885-4.286-.06-.468-.065-.919-.065-1.378-.002-11.476-.003-22.952-.001-34.428,0-3.559,2.041-5.6,5.599-5.601h59.7c3.553,0,5.591,2.045,5.591,5.608v9.397c-.002,8.404-.003,16.808.01,25.211.003,2.399-.978,4.087-2.916,5.018-.755.363-1.582.441-2.143.443-5.488.023-10.978.034-16.468.044l-4.665.009c.167.915.331,1.796.515,2.664,1.08.016,2.156.02,3.232.02l5.835-.004v6.373H31.547ZM22.409,26.022c.002,7.006.004,14.012-.019,21.018,9.331-.013,18.661-.019,27.991-.019s18.659.006,27.988.019c-.023-7.071-.021-14.141-.019-21.211v-5.246s-55.943,0-55.943,0v5.439Z" fill="#000000" fill-rule="evenodd"/>
        <path d="M50.384,14.998c9.95,0,19.9,0,29.85,0,2.746,0,4.091,1.351,4.091,4.108,0,11.537-.009,23.074.01,34.611.002,1.648-.548,2.934-2.065,3.663-.446.214-.996.293-1.498.295-7.355.032-14.711.039-22.065.055-.24,0-.48.029-.853.053.332,1.78.614,3.459.99,5.115.05.224.565.483.87.487,1.226.022,2.452.027,3.678.027,1.062,0,2.124-.004,3.186-.004.031,0,.062,0,.094,0h1.055v3.373h-34.68v-3.373h.958c1.275,0,2.551-.005,3.826-.005,1.075,0,2.15.003,3.225.015.013,0,.026,0,.039,0,.571,0,.816-.176.913-.79.249-1.588.586-3.162.908-4.842-.377-.023-.668-.056-.96-.057-7.354-.016-14.709-.029-22.064-.04-1.695-.003-3.184-1.292-3.399-2.977-.05-.392-.053-.792-.053-1.188-.003-11.476-.003-22.952-.001-34.428,0-2.751,1.35-4.1,4.099-4.101,9.95,0,19.9,0,29.85,0M21.993,48.54h.003c9.462-.013,18.924-.019,28.386-.019s18.924.006,28.386.019h.003c.895,0,1.104-.269,1.102-1.131-.031-9.096-.019-18.192-.019-27.287v-1.039H20.908v1.042c0,9.096.012,18.192-.019,27.288-.003.867.212,1.128,1.104,1.128M50.366,54.595c1.124,0,1.995-.78,2.011-1.803.017-1.024-.857-1.852-1.97-1.868-.01,0-.02,0-.03,0-1.096,0-1.973.795-1.995,1.814-.021,1.025.855,1.852,1.97,1.858.005,0,.009,0,.014,0M50.384,11.998h-29.85c-4.379.001-7.099,2.722-7.099,7.101-.001,11.476-.001,22.952.001,34.428,0,.51.006,1.013.077,1.569.407,3.184,3.146,5.59,6.37,5.595,3.388.005,6.776.01,10.163.016v9.074h40.68v-9.075c3.353-.007,6.706-.017,10.059-.031.712-.002,1.777-.106,2.785-.591,1.408-.676,3.771-2.404,3.765-6.371-.014-8.424-.012-16.847-.011-25.271v-9.336c0-4.384-2.717-7.107-7.09-7.108h-29.85ZM23.908,22.082h52.944v3.729c-.003,6.465-.005,13.131.013,19.726-8.844-.011-17.664-.016-26.484-.016s-17.658.006-26.487.017c.018-6.526.016-13.124.014-19.524v-3.931h0Z" fill="#3B3B3B"/>
      </g>
    </g>
  </g>
</svg>