<?xml version="1.0" encoding="UTF-8" standalone="no"?>
<svg
   width="163.467mm"
   height="36mm"
   version="1.1"
   viewBox="0 0 463.37 102.047"
   id="svg12"
   sodipodi:docname="Sombre_SupportEntreeNonConnecte.svg"
   inkscape:version="1.4 (86a8ad7, 2024-10-11)"
   xmlns:inkscape="http://www.inkscape.org/namespaces/inkscape"
   xmlns:sodipodi="http://sodipodi.sourceforge.net/DTD/sodipodi-0.dtd"
   xmlns="http://www.w3.org/2000/svg"
   xmlns:svg="http://www.w3.org/2000/svg">
  <defs
     id="defs12" />
  <sodipodi:namedview
     id="namedview12"
     pagecolor="#ffffff"
     bordercolor="#000000"
     borderopacity="0.25"
     inkscape:showpageshadow="2"
     inkscape:pageopacity="0.0"
     inkscape:pagecheckerboard="0"
     inkscape:deskcolor="#d1d1d1"
     inkscape:document-units="mm"
     inkscape:zoom="2.8745864"
     inkscape:cx="308.91401"
     inkscape:cy="68.009784"
     inkscape:window-width="1920"
     inkscape:window-height="1009"
     inkscape:window-x="3832"
     inkscape:window-y="-8"
     inkscape:window-maximized="1"
     inkscape:current-layer="svg12" />
  <!-- Generator: Adobe Illustrator 28.7.4, SVG Export Plug-In . SVG Version: 1.2.0 Build 166)  -->
  <g
     id="g12">
    <g
       id="Calque_1">
      <g
         id="g1">
        <rect
           x="369.438"
           y="12.759"
           width="9.029"
           height="10.143"
           fill="#E5E5E5"
           id="rect1" />
        <path
           d="M377.468,13.759v8.143h-7.029v-8.143h7.029M379.468,11.759h-11.029v12.143h11.029v-12.143h0Z"
           fill="#525051"
           id="path1" />
      </g>
      <g
         id="g2">
        <rect
           x="382.996"
           y="12.759"
           width="9.035"
           height="10.143"
           fill="#E5E5E5"
           id="rect2" />
        <path
           d="M391.031,13.759v8.143h-7.035v-8.143h7.035M393.031,11.759h-11.035v12.143h11.035v-12.143h0Z"
           fill="#525051"
           id="path2" />
      </g>
      <g
         id="g7">
        <g
           id="g4">
          <path
             d="M21.551,101.269c-10.339,0-18.751-8.405-18.751-18.735v-49.648c0-10.337,8.412-18.747,18.751-18.747h320.077v7.675H21.551c-6.114,0-11.089,4.967-11.089,11.072v49.648c0,6.107,4.975,11.076,11.089,11.076h320.077v7.659H21.551Z"
             fill="#E5E5E5"
             id="path3" />
          <path
             d="M340.627,15.138v5.675H21.551c-6.664,0-12.089,5.413-12.089,12.072v49.648c0,6.656,5.425,12.076,12.089,12.076h319.076v5.659H21.551c-9.792,0-17.751-7.951-17.751-17.735v-49.648c0-9.785,7.959-17.747,17.751-17.747h319.076M342.627,13.138H21.551C10.66,13.138,1.8,21.997,1.8,32.885v49.648c0,10.882,8.86,19.735,19.751,19.735h321.076v-9.659H21.551c-5.563,0-10.089-4.52-10.089-10.076v-49.648c0-5.554,4.526-10.072,10.089-10.072h321.076v-9.675h0Z"
             fill="#525051"
             id="path4" />
        </g>
        <g
           id="g6">
          <path
             d="M419.742,101.269v-7.659h23.739c6.106,0,11.073-4.969,11.073-11.076v-49.648c0-6.105-4.967-11.072-11.073-11.072h-23.739v-7.675h23.739c10.335,0,18.743,8.41,18.743,18.747v49.648c0,10.331-8.408,18.735-18.743,18.735h-23.739Z"
             fill="#E5E5E5"
             id="path5" />
          <path
             d="M443.481,15.138c9.785,0,17.743,7.962,17.743,17.747v49.648c0,9.785-7.958,17.735-17.743,17.735h-22.739v-5.659h22.739c6.656,0,12.073-5.42,12.073-12.076v-49.648c0-6.66-5.417-12.072-12.073-12.072h-22.739v-5.675h22.739M443.481,13.138h-24.739v9.675h24.739c5.554,0,10.073,4.518,10.073,10.072v49.648c0,5.556-4.519,10.076-10.073,10.076h-24.739v9.659h24.739c10.886,0,19.743-8.853,19.743-19.735v-49.648c0-10.889-8.857-19.747-19.743-19.747h0Z"
             fill="#525051"
             id="path6" />
        </g>
      </g>
      <g
         id="g11">
        <g
           id="g8">
          <path
             d="M380.498,88.96c-5.764,0-10.454-4.689-10.454-10.453v-25.135c0-5.763,4.689-10.451,10.454-10.451s10.451,4.688,10.451,10.451v25.135c0,5.764-4.688,10.453-10.451,10.453Z"
             fill="#E5E5E5"
             id="path7" />
          <path
             d="M380.498,43.921c5.212,0,9.451,4.238,9.451,9.451v25.135c0,5.212-4.239,9.453-9.451,9.453s-9.454-4.241-9.454-9.453v-25.135c0-5.213,4.241-9.451,9.454-9.451M380.498,41.921c-6.316,0-11.454,5.137-11.454,11.451v25.135c0,6.315,5.138,11.453,11.454,11.453s11.451-5.138,11.451-11.453v-25.135c0-6.314-5.137-11.451-11.451-11.451h0Z"
             fill="#525051"
             id="path8" />
        </g>
        <g
           id="g10">
          <path
             d="M380.326,101.22c-12.838,0-23.282-10.446-23.282-23.287V31.492h5.122V2.338h36.663v29.154h4.781v46.442c0,12.84-10.445,23.287-23.283,23.287ZM380.498,42.823c-5.818,0-10.551,4.732-10.551,10.55v25.135c0,5.818,4.733,10.551,10.551,10.551s10.549-4.733,10.549-10.551v-25.135c0-5.817-4.732-10.55-10.549-10.55ZM394.286,30.217V6.88h-27.579v23.337h27.579Z"
             fill="#E5E5E5"
             id="path9" />
          <path
             d="M397.828,3.338v29.154h4.78v45.442c0,12.308-9.974,22.286-22.283,22.286s-22.282-9.979-22.282-22.286v-45.442h5.122V3.338h34.663M365.708,31.217h29.579V5.88h-29.579v25.337M380.498,90.058c6.37,0,11.549-5.181,11.549-11.551v-25.135c0-6.369-5.179-11.55-11.549-11.55s-11.551,5.18-11.551,11.55v25.135c0,6.37,5.18,11.551,11.551,11.551M399.828,1.338h-38.663v29.154h-5.122v47.442c0,13.392,10.893,24.286,24.282,24.286s24.283-10.895,24.283-24.286V30.492h-4.78V1.338h0ZM367.708,7.88h25.579v21.337h-25.579V7.88h0ZM380.498,88.058c-5.266,0-9.551-4.285-9.551-9.551v-25.135c0-5.266,4.285-9.55,9.551-9.55s9.549,4.284,9.549,9.55v25.135c0,5.266-4.284,9.551-9.549,9.551h0Z"
             fill="#525051"
             id="path10" />
        </g>
      </g>
    </g>
  </g>
</svg>
