<?xml version="1.0" encoding="UTF-8"?>
<svg xmlns="http://www.w3.org/2000/svg" width="84.549mm" height="19.6mm" version="1.1" viewBox="0 0 239.668 55.559">
  <!-- Generator: Adobe Illustrator 28.7.4, SVG Export Plug-In . SVG Version: 1.2.0 Build 166)  -->
  <g>
    <g id="Calque_1">
      <g>
        <g>
          <path d="M73.199,23.573l-1.245-3.894h-4.032l-1.233,3.894h-7.513l7.464-20.505h6.784l7.292,20.505h-7.518ZM70.092,13.652l-.185-.576-.185.576h.37Z" fill="#525051"/>
          <path d="M72.366,4.568l6.226,17.505h-4.297l-1.245-3.894h-6.226l-1.233,3.894h-4.272l6.372-17.505h4.675M67.666,15.151h4.48l-1.88-5.884c-.139-.439-.236-.964-.293-1.575h-.098c-.041.513-.143,1.021-.305,1.526l-1.904,5.933M74.483,1.568h-8.893l-.719,1.974-6.372,17.505-1.466,4.026h10.754l.663-2.094.57-1.8h1.838l.578,1.808.667,2.086h10.738l-1.424-4.005-6.226-17.505-.709-1.995h0Z" fill="#fff"/>
        </g>
        <g>
          <polygon points="92.984 23.573 87.249 14.831 87.249 23.573 80.526 23.573 80.526 3.068 87.087 3.068 92.55 11.45 92.55 3.068 99.273 3.068 99.273 23.573 92.984 23.573" fill="#525051"/>
          <path d="M97.773,4.568v17.505h-3.979l-7.214-10.999c-.423-.643-.716-1.127-.879-1.453h-.049c.065.619.098,1.562.098,2.832v9.619h-3.723V4.568h4.248l6.946,10.657c.317.48.61.957.879,1.428h.049c-.065-.407-.098-1.208-.098-2.405V4.568h3.723M100.773,1.568h-9.723v4.833l-2.263-3.471-.888-1.362h-8.874v23.505h9.723v-5.221l2.536,3.866.889,1.355h8.599V1.568h0Z" fill="#fff"/>
        </g>
        <g>
          <path d="M113.028,23.573l-1.245-3.894h-4.032l-1.233,3.894h-7.513l7.464-20.505h6.784l7.292,20.505h-7.518ZM109.921,13.652l-.185-.576-.185.576h.37Z" fill="#525051"/>
          <path d="M112.195,4.568l6.226,17.505h-4.297l-1.245-3.894h-6.226l-1.233,3.894h-4.272l6.372-17.505h4.675M107.495,15.151h4.48l-1.88-5.884c-.139-.439-.236-.964-.293-1.575h-.098c-.041.513-.143,1.021-.305,1.526l-1.904,5.933M114.312,1.568h-8.893l-.719,1.974-6.372,17.505-1.466,4.026h10.754l.663-2.094.57-1.8h1.838l.578,1.808.667,2.086h10.738l-1.424-4.005-6.226-17.505-.709-1.995h0Z" fill="#fff"/>
        </g>
        <g>
          <polygon points="120.355 23.573 120.355 3.068 127.298 3.068 127.298 17.375 133.78 17.375 133.78 23.573 120.355 23.573" fill="#525051"/>
          <path d="M125.798,4.568v14.307h6.482v3.198h-10.425V4.568h3.943M128.798,1.568h-9.943v23.505h16.425v-9.198h-6.482V1.568h0Z" fill="#fff"/>
        </g>
        <g>
          <polygon points="137.938 23.573 137.938 16.268 131.48 3.068 139.375 3.068 141.639 8.311 143.925 3.068 151.521 3.068 144.881 16.205 144.881 23.573 137.938 23.573" fill="#525051"/>
          <path d="M149.082,4.568l-5.701,11.279v6.226h-3.943v-6.152l-5.554-11.353h4.504l2.82,6.531c.049.122.183.598.403,1.428h.049c.105-.586.232-1.045.378-1.379l2.869-6.58h4.175M153.96,1.568h-11.017l-.785,1.801-.512,1.174-.503-1.164-.782-1.811h-11.284l2.113,4.318,5.249,10.729v8.458h9.943v-8.511l5.378-10.641,2.2-4.353h0Z" fill="#fff"/>
        </g>
        <g>
          <path d="M156.496,23.878c-1.047,0-2.062-.091-3.017-.27-1.005-.188-1.9-.482-2.66-.872l-.815-.418v-8.04l2.464,2.068c.568.477,1.189.837,1.848,1.073.664.238,1.339.358,2.009.358.376,0,.695-.031.947-.092.258-.062.401-.132.476-.18-.053-.157-.197-.286-.388-.415-.267-.18-.599-.361-.987-.538-.446-.203-.928-.411-1.446-.623-1.599-.666-2.825-1.515-3.652-2.526-.893-1.094-1.345-2.415-1.345-3.928,0-1.167.249-2.204.74-3.082.48-.859,1.143-1.577,1.969-2.131.776-.521,1.676-.906,2.676-1.147.942-.226,1.947-.34,2.988-.34.987,0,1.88.062,2.656.183.8.125,1.558.322,2.251.587l.963.369v7.547l-2.354-1.632c-.216-.15-.458-.285-.716-.401-.277-.123-.566-.228-.858-.309-.297-.082-.597-.145-.89-.184-.294-.04-.574-.06-.831-.06-.33,0-.627.03-.882.089-.257.06-.405.13-.483.178-.016.01-.03.019-.042.027.047.053.122.124.24.21.213.155.488.315.814.476.38.186.811.378,1.291.576.766.32,1.461.666,2.077,1.028.674.399,1.263.86,1.753,1.37.532.554.945,1.195,1.228,1.907.282.709.424,1.522.424,2.417,0,1.231-.251,2.305-.746,3.191-.489.875-1.163,1.596-2.002,2.139-.786.509-1.701.877-2.719,1.093-.943.2-1.945.301-2.979.301Z" fill="#525051"/>
          <path d="M158.303,4.275c.911,0,1.719.055,2.423.165.704.109,1.353.279,1.947.506v3.65c-.293-.203-.612-.382-.958-.537-.346-.154-.702-.283-1.068-.385-.366-.102-.73-.177-1.092-.226-.362-.049-.707-.073-1.032-.073-.448,0-.854.043-1.221.128-.366.086-.676.206-.928.36-.252.155-.448.34-.586.556-.139.215-.208.458-.208.726,0,.293.077.555.232.788.154.231.374.451.659.659.285.207.63.411,1.038.61.407.199.867.405,1.379.616.7.293,1.329.604,1.886.934.557.33,1.035.702,1.434,1.117.398.415.704.889.916,1.422.211.533.317,1.154.317,1.862,0,.977-.185,1.796-.556,2.459-.37.664-.873,1.201-1.507,1.611-.635.411-1.374.707-2.215.885-.843.179-1.732.269-2.667.269-.96,0-1.874-.082-2.741-.244-.866-.163-1.617-.407-2.252-.732v-3.906c.708.594,1.477,1.04,2.307,1.336.83.297,1.668.446,2.515.446.496,0,.93-.044,1.3-.134.37-.089.679-.214.928-.372.248-.159.433-.346.555-.562.122-.216.183-.45.183-.702,0-.342-.098-.647-.293-.916s-.462-.517-.8-.745c-.337-.228-.738-.447-1.202-.659-.464-.211-.964-.427-1.501-.647-1.367-.569-2.386-1.265-3.058-2.087-.671-.822-1.007-1.814-1.007-2.979,0-.911.183-1.695.549-2.35.366-.655.865-1.194,1.496-1.618.63-.423,1.361-.734,2.191-.934.83-.199,1.709-.299,2.637-.299M158.303,1.275c-1.159,0-2.282.128-3.337.382-1.175.283-2.238.74-3.162,1.36-1.024.687-1.846,1.577-2.443,2.645-.617,1.104-.931,2.387-.931,3.813,0,.575.054,1.128.161,1.659l-.087-.073v12.173l1.631.837c.889.456,1.921.796,3.068,1.012,1.046.196,2.155.296,3.294.296s2.245-.112,3.29-.334c1.198-.254,2.283-.692,3.224-1.302,1.046-.677,1.887-1.575,2.496-2.668.62-1.11.936-2.43.936-3.921,0-1.085-.178-2.083-.529-2.968-.073-.184-.154-.365-.24-.541V2.883l-1.927-.738c-.792-.303-1.652-.528-2.559-.669-.848-.133-1.82-.201-2.884-.201h0Z" fill="#fff"/>
        </g>
        <g>
          <polygon points="166.073 23.573 166.073 3.068 179.168 3.068 179.168 9.279 173.016 9.279 173.016 10.173 178.741 10.173 178.741 16.371 173.016 16.371 173.016 17.375 179.571 17.375 179.571 23.573 166.073 23.573" fill="#525051"/>
          <path d="M177.668,4.568v3.21h-6.152v3.894h5.725v3.198h-5.725v4.004h6.555v3.198h-10.498V4.568h10.095M180.668,1.568h-16.095v23.505h16.498v-9.198h-.83v-5.096h.427V1.568h0Z" fill="#fff"/>
        </g>
      </g>
      <g>
        <polygon points="231.248 53.044 231.248 32.044 8.748 32.044 8.748 53.044 2.748 53.044 2.748 26.044 237.248 26.044 237.248 53.044 231.248 53.044" fill="#525051"/>
        <path d="M235.748,27.544v24h-3v-21H7.248v21h-3v-24h231.5M238.748,24.544H1.248v30h9v-21h219.5v21h9v-30h0Z" fill="#fff"/>
      </g>
    </g>
  </g>
</svg>