<?xml version="1.0" encoding="UTF-8" standalone="no"?>
<svg
   width="37.794mm"
   height="38.066mm"
   version="1.1"
   viewBox="0 0 107.132 107.905"
   id="svg10"
   sodipodi:docname="CopierFichiersInactif.svg"
   inkscape:version="1.4 (86a8ad7, 2024-10-11)"
   xmlns:inkscape="http://www.inkscape.org/namespaces/inkscape"
   xmlns:sodipodi="http://sodipodi.sourceforge.net/DTD/sodipodi-0.dtd"
   xmlns="http://www.w3.org/2000/svg"
   xmlns:svg="http://www.w3.org/2000/svg">
  <sodipodi:namedview
     id="namedview10"
     pagecolor="#ffffff"
     bordercolor="#000000"
     borderopacity="0.25"
     inkscape:showpageshadow="2"
     inkscape:pageopacity="0.0"
     inkscape:pagecheckerboard="0"
     inkscape:deskcolor="#d1d1d1"
     inkscape:document-units="mm"
     inkscape:zoom="8.5701475"
     inkscape:cx="71.410673"
     inkscape:cy="71.935752"
     inkscape:window-width="2880"
     inkscape:window-height="1514"
     inkscape:window-x="-11"
     inkscape:window-y="-11"
     inkscape:window-maximized="1"
     inkscape:current-layer="g8" />
  <defs
     id="defs1">
    <clipPath
       id="clippath">
      <rect
         x="-.339"
         width="107.81"
         height="107.81"
         fill="none"
         id="rect1" />
    </clipPath>
  </defs>
  <!-- Generator: Adobe Illustrator 28.7.4, SVG Export Plug-In . SVG Version: 1.2.0 Build 166)  -->
  <g
     id="g10">
    <g
       id="Calque_1">
      <rect
         x="754.756"
         y="1107.576"
         width="25.045"
         height="25.045"
         fill="#00d200"
         fill-opacity=".2"
         stroke="#00d200"
         stroke-linecap="round"
         stroke-linejoin="round"
         stroke-width="3"
         id="rect2" />
      <g
         clip-path="url(#clippath)"
         id="g9">
        <g
           id="g8">
          <path
             d="M53.561,98.8c24.798,0,44.9-20.102,44.9-44.9S78.358,9,53.561,9,8.661,29.102,8.661,53.9s20.102,44.9,44.9,44.9Z"
             fill="#087bf9"
             id="path4"
             style="fill:#292929;fill-opacity:1" />
          <path
             d="M67.821,49.7c-8.64,0-15.66,7.03-15.66,15.66s7.01,15.66,15.66,15.66,15.64-7.01,15.64-15.66-6.99-15.66-15.64-15.66Z"
             fill="#fff"
             id="path5" />
          <path
             d="M51.191,72.57h-15.41c-1.33,0-2.41-1.08-2.41-2.4V28.52c0-1.32,1.08-2.41,2.41-2.41h16.29c.65,0,1.25.25,1.7.7l15.74,15.75c.45.46.7,1.07.7,1.7v3.15c.54.07,1.07.16,1.6.28v-3.43c0-1.07-.41-2.08-1.17-2.83l-15.74-15.75c-.76-.75-1.76-1.17-2.83-1.17h-16.29c-2.21,0-4,1.79-4,4v41.64c0,2.21,1.79,4,4,4h16.2c-.29-.52-.55-1.05-.79-1.6v.02Z"
             fill="#fff"
             id="path6" />
          <path
             d="M56.511,68.37l3.44,7.95,2.12-2.85.51.56c1.96,1.36,4.24,2.08,6.6,2.08,3.07,0,5.96-1.2,8.14-3.37l.19-.22-1.56-1.17c-1.83,1.83-4.22,2.82-6.77,2.82-1.61,0-3.18-.41-4.56-1.17l-1.51-.93,2.01-2.69-8.6-1.01h-.01Z"
             fill="#087bf9"
             id="path7"
             style="fill:#292929;fill-opacity:1" />
          <path
             d="M68.581,60.32l8.6,1-3.43-7.95-2.14,2.89-.58-.29c-1.36-.58-2.91-.9-4.44-.9-3.05,0-5.94,1.2-8.14,3.37h-.01l1.61,1.18c1.77-1.68,4.08-2.6,6.54-2.6.99,0,1.94.14,2.84.43l1.04.31-1.89,2.56Z"
             fill="#087bf9"
             id="path8"
             style="fill:#292929;fill-opacity:1" />
        </g>
      </g>
    </g>
  </g>
</svg>
