<?xml version="1.0" encoding="UTF-8"?>
<svg xmlns="http://www.w3.org/2000/svg" width="18.726mm" height="6.125mm" version="1.1" viewBox="0 0 53.081 17.362">
  <!-- Generator: Adobe Illustrator 28.7.4, SVG Export Plug-In . SVG Version: 1.2.0 Build 166)  -->
  <g>
    <g id="Calque_1">
      <rect x="945.262" y="1143.53" width="25.045" height="25.045" fill="#00d200" fill-opacity=".2" stroke="#00d200" stroke-linecap="round" stroke-linejoin="round" stroke-width="3"/>
      <path d="M46.102.984H8.046C5.073.984,2.657,3.401,2.657,6.374v4.261c0,2.973,2.417,5.389,5.389,5.389h38.057c2.973,0,5.383-2.416,5.383-5.389v-4.261c0-2.973-2.409-5.39-5.383-5.39ZM29.309,8.748c0,1.345-1.089,2.433-2.437,2.433H9.689c-1.341,0-2.431-1.088-2.431-2.433v-.773c0-1.342,1.09-2.434,2.431-2.434h17.182c1.348,0,2.437,1.092,2.437,2.434v.773ZM36.802,11.155c-1.545,0-2.806-1.257-2.806-2.806s1.262-2.809,2.806-2.809c1.553,0,2.809,1.257,2.809,2.809s-1.257,2.806-2.809,2.806ZM44.889,11.155c-1.545,0-2.809-1.257-2.809-2.806s1.264-2.809,2.809-2.809,2.806,1.257,2.806,2.809-1.261,2.806-2.806,2.806Z" fill="#171717" stroke="#3B3B3B" stroke-miterlimit="10"/>
    </g>
  </g>
</svg>