<?xml version="1.0" encoding="UTF-8" standalone="no"?>
<svg
   width="147.007mm"
   height="35.2mm"
   version="1.1"
   viewBox="0 0 416.712 99.78"
   id="svg3"
   sodipodi:docname="Furtif_ConfirmerRedemarrer.svg"
   inkscape:version="1.4 (86a8ad7, 2024-10-11)"
   xmlns:inkscape="http://www.inkscape.org/namespaces/inkscape"
   xmlns:sodipodi="http://sodipodi.sourceforge.net/DTD/sodipodi-0.dtd"
   xmlns="http://www.w3.org/2000/svg"
   xmlns:svg="http://www.w3.org/2000/svg">
  <defs
     id="defs3" />
  <sodipodi:namedview
     id="namedview3"
     pagecolor="#ffffff"
     bordercolor="#000000"
     borderopacity="0.25"
     inkscape:showpageshadow="2"
     inkscape:pageopacity="0.0"
     inkscape:pagecheckerboard="0"
     inkscape:deskcolor="#d1d1d1"
     inkscape:document-units="mm"
     inkscape:zoom="1.7651675"
     inkscape:cx="308.18605"
     inkscape:cy="70.531551"
     inkscape:window-width="1920"
     inkscape:window-height="1009"
     inkscape:window-x="1912"
     inkscape:window-y="-8"
     inkscape:window-maximized="1"
     inkscape:current-layer="Calque_1" />
  <!-- Generator: Adobe Illustrator 28.7.4, SVG Export Plug-In . SVG Version: 1.2.0 Build 166)  -->
  <g
     id="g3">
    <g
       id="Calque_1">
      <rect
         x="950.364"
         y="1145.372"
         width="25.045"
         height="25.045"
         fill="#00d200"
         fill-opacity=".2"
         stroke="#00d200"
         stroke-linecap="round"
         stroke-linejoin="round"
         stroke-width="3"
         id="rect1" />
      <path
         d="M39.772,94.307h-.504c-8.075-.32-15.706-8.305-15.706-19.59V28.547c0-11.53,7.941-19.6,16.21-19.6h353.14c8.259,0,16.21,8.08,16.21,19.6v46.16c0,11.53-7.942,19.6-16.21,19.6H39.772Z"
         fill="#5d6c82"
         stroke="#445060"
         stroke-width="10"
         id="path1"
         style="stroke:#292929;stroke-opacity:1;fill:#3b3b3b;fill-opacity:1" />
      <path
         d="M73.136,59.639c-1.184,0-2.176-.072-2.976-.216-.8-.16-1.456-.424-1.968-.792-.496-.368-.88-.864-1.152-1.488-.256-.64-.432-1.448-.528-2.424-.096-.976-.144-2.152-.144-3.528s.048-2.552.144-3.528c.096-.976.272-1.776.528-2.4.272-.64.656-1.144,1.152-1.512.512-.368,1.168-.624,1.968-.768.8-.16,1.792-.24,2.976-.24.464,0,.936.016,1.416.048.496.032.968.08,1.416.144.448.048.832.112,1.152.192v2.16c-.4-.048-.8-.088-1.2-.12-.384-.048-.76-.08-1.128-.096-.368-.016-.688-.024-.96-.024-.88,0-1.608.032-2.184.096-.576.064-1.04.208-1.392.432-.336.224-.592.56-.768,1.008-.16.432-.272,1.024-.336,1.776-.048.752-.072,1.696-.072,2.832,0,1.12.024,2.064.072,2.832.064.752.176,1.352.336,1.8.176.432.432.76.768.984.352.224.816.368,1.392.432.576.064,1.304.096,2.184.096.528,0,1.104-.024,1.728-.072.64-.048,1.192-.104,1.656-.168v2.208c-.352.064-.768.12-1.248.168-.464.048-.944.088-1.44.12-.48.032-.944.048-1.392.048ZM85.358,59.639c-1.024,0-1.88-.064-2.568-.192-.672-.128-1.208-.328-1.608-.6-.384-.288-.672-.672-.864-1.152-.176-.48-.296-1.08-.36-1.8-.048-.72-.072-1.584-.072-2.592,0-.992.024-1.848.072-2.568.064-.72.184-1.32.36-1.8.192-.48.48-.856.864-1.128.4-.288.936-.488,1.608-.6.688-.128,1.544-.192,2.568-.192,1.04,0,1.896.064,2.568.192.688.112,1.224.312,1.608.6.4.272.688.648.864,1.128.192.48.312,1.08.36,1.8.064.72.096,1.576.096,2.568,0,1.008-.032,1.872-.096,2.592-.048.72-.168,1.32-.36,1.8-.176.48-.464.864-.864,1.152-.384.272-.92.472-1.608.6-.672.128-1.528.192-2.568.192ZM85.358,57.503c.736,0,1.304-.048,1.704-.144.4-.096.68-.288.84-.576.176-.288.28-.712.312-1.272.048-.56.072-1.296.072-2.208s-.024-1.64-.072-2.184c-.032-.56-.136-.984-.312-1.272-.16-.288-.44-.472-.84-.552-.4-.096-.968-.144-1.704-.144-.72,0-1.28.048-1.68.144-.4.08-.688.264-.864.552-.16.288-.264.712-.312,1.272-.032.544-.048,1.272-.048,2.184s.016,1.648.048,2.208c.048.56.152.984.312,1.272.176.288.464.48.864.576.4.096.96.144,1.68.144ZM94.171,59.447v-12.24h2.352l.072,1.632h.192c.192-.4.448-.728.768-.984.32-.272.736-.48,1.248-.624s1.136-.216,1.872-.216c.864,0,1.56.104,2.089.312.528.192.928.488,1.2.888.272.4.456.896.552,1.488.112.592.168,1.288.168,2.088v7.656h-2.569v-6.648c0-.8-.032-1.432-.096-1.896-.048-.48-.16-.832-.336-1.056-.176-.24-.44-.392-.792-.456-.336-.064-.792-.096-1.368-.096-.64,0-1.152.08-1.536.24-.368.16-.648.4-.84.72-.176.32-.296.72-.36,1.2-.048.48-.072,1.04-.072,1.68v6.312h-2.544ZM109.571,59.447v-10.104h-2.424v-2.136h2.424v-1.488c0-.784.056-1.424.168-1.92.112-.512.296-.912.552-1.2.272-.288.624-.496,1.056-.624.448-.144.992-.232,1.632-.264.64-.048,1.392-.072,2.256-.072v1.92c-.672,0-1.216.024-1.632.072-.4.032-.712.104-.936.216-.208.112-.352.288-.432.528-.064.224-.096.52-.096.888v1.944h3.096v2.136h-3.096v10.104h-2.568ZM117.779,59.447v-12.24h2.544v12.24h-2.544ZM117.707,44.135v-2.52h2.664v2.52h-2.664ZM124.124,59.447v-12.24h2.328l.096,2.208h.192c.208-.64.496-1.136.864-1.488.368-.352.816-.592,1.344-.72.528-.128,1.128-.192,1.8-.192v2.496c-1.088,0-1.928.16-2.52.48-.576.32-.984.832-1.224,1.536-.224.688-.336,1.592-.336,2.712v5.208h-2.544ZM133.241,59.447v-12.24h2.352l.072,1.632h.168c.176-.384.416-.712.72-.984.32-.272.712-.48,1.176-.624.48-.144,1.056-.216,1.728-.216,1.024,0,1.792.152,2.304.456.512.288.872.744,1.08,1.368h.192c.176-.384.424-.712.744-.984.336-.272.744-.48,1.224-.624.496-.144,1.08-.216,1.752-.216,1.056,0,1.848.176,2.376.528s.88.888,1.056,1.608c.176.704.264,1.584.264,2.64v7.656h-2.544v-6.648c0-.8-.024-1.432-.072-1.896-.048-.48-.152-.832-.312-1.056-.144-.24-.376-.392-.696-.456-.304-.064-.704-.096-1.2-.096-.576,0-1.032.08-1.368.24-.336.144-.584.376-.744.696-.16.304-.264.696-.312,1.176s-.072,1.056-.072,1.728v6.312h-2.544v-6.648c0-.8-.032-1.432-.096-1.896-.048-.48-.152-.832-.312-1.056-.144-.24-.368-.392-.672-.456s-.712-.096-1.224-.096c-.56,0-1.008.08-1.344.24s-.592.4-.768.72c-.16.304-.264.704-.312,1.2-.048.48-.072,1.04-.072,1.68v6.312h-2.544ZM159.472,59.639c-1.04,0-1.904-.064-2.592-.192-.688-.144-1.24-.368-1.656-.672-.416-.32-.728-.72-.936-1.2-.208-.496-.344-1.088-.408-1.776-.064-.704-.096-1.52-.096-2.448,0-1.104.056-2.056.168-2.856s.344-1.456.696-1.968c.352-.528.896-.912,1.632-1.152.752-.24,1.752-.36,3-.36.976,0,1.776.08,2.4.24.624.144,1.112.376,1.464.696.368.32.632.736.792,1.248.176.496.288,1.096.336,1.8.048.688.072,1.472.072,2.352v.816h-7.992c0,.72.032,1.304.096,1.752.064.432.208.768.432,1.008.24.224.608.384,1.104.48.512.08,1.2.12,2.064.12.368,0,.768-.008,1.2-.024.448-.016.904-.048,1.368-.096.464-.048.88-.088,1.248-.12v1.992c-.352.064-.776.12-1.272.168-.496.064-1.016.112-1.56.144-.544.032-1.064.048-1.56.048ZM161.896,52.799v-.456c0-.72-.048-1.288-.144-1.704-.08-.432-.224-.752-.432-.96-.192-.224-.464-.368-.816-.432-.336-.08-.76-.12-1.272-.12-.64,0-1.152.048-1.536.144-.368.08-.648.24-.84.48-.192.24-.328.576-.408,1.008-.064.416-.096.968-.096,1.656h5.976l-.432.384ZM167.647,59.447v-12.24h2.328l.096,2.208h.192c.208-.64.496-1.136.864-1.488.368-.352.816-.592,1.344-.72.528-.128,1.128-.192,1.8-.192v2.496c-1.088,0-1.928.16-2.52.48-.576.32-.984.832-1.224,1.536-.224.688-.336,1.592-.336,2.712v5.208h-2.544ZM182.553,59.447v-17.832h2.544v17.832h-2.544ZM194.089,59.639c-1.04,0-1.904-.064-2.592-.192-.688-.144-1.24-.368-1.656-.672-.416-.32-.728-.72-.936-1.2-.208-.496-.344-1.088-.408-1.776-.064-.704-.096-1.52-.096-2.448,0-1.104.056-2.056.168-2.856s.344-1.456.696-1.968c.352-.528.896-.912,1.632-1.152.752-.24,1.752-.36,3-.36.976,0,1.776.08,2.4.24.624.144,1.112.376,1.464.696.368.32.632.736.792,1.248.176.496.288,1.096.336,1.8.048.688.072,1.472.072,2.352v.816h-7.992c0,.72.032,1.304.096,1.752.064.432.208.768.432,1.008.24.224.608.384,1.104.48.512.08,1.2.12,2.064.12.368,0,.768-.008,1.2-.024.448-.016.904-.048,1.368-.096.464-.048.88-.088,1.248-.12v1.992c-.352.064-.776.12-1.272.168-.496.064-1.016.112-1.56.144-.544.032-1.064.048-1.56.048ZM196.513,52.799v-.456c0-.72-.048-1.288-.144-1.704-.08-.432-.224-.752-.432-.96-.192-.224-.464-.368-.816-.432-.336-.08-.76-.12-1.272-.12-.64,0-1.152.048-1.536.144-.368.08-.648.24-.84.48-.192.24-.328.576-.408,1.008-.064.416-.096.968-.096,1.656h5.976l-.432.384ZM208.053,59.447v-12.24h2.328l.096,2.208h.192c.208-.64.496-1.136.864-1.488s.816-.592,1.344-.72c.528-.128,1.128-.192,1.8-.192v2.496c-1.088,0-1.928.16-2.52.48-.576.32-.984.832-1.224,1.536-.224.688-.336,1.592-.336,2.712v5.208h-2.544ZM222.261,59.639c-1.04,0-1.904-.064-2.592-.192-.688-.144-1.24-.368-1.656-.672-.416-.32-.728-.72-.936-1.2-.208-.496-.344-1.088-.408-1.776-.064-.704-.096-1.52-.096-2.448,0-1.104.056-2.056.168-2.856s.344-1.456.696-1.968c.352-.528.896-.912,1.632-1.152.752-.24,1.752-.36,3-.36.976,0,1.776.08,2.4.24.624.144,1.112.376,1.464.696.368.32.632.736.792,1.248.176.496.288,1.096.336,1.8.048.688.072,1.472.072,2.352v.816h-7.992c0,.72.032,1.304.096,1.752.064.432.208.768.432,1.008.24.224.608.384,1.104.48.512.08,1.2.12,2.064.12.368,0,.768-.008,1.2-.024.448-.016.904-.048,1.368-.096.464-.048.88-.088,1.248-.12v1.992c-.352.064-.776.12-1.272.168-.496.064-1.016.112-1.56.144-.544.032-1.064.048-1.56.048ZM224.685,52.799v-.456c0-.72-.048-1.288-.144-1.704-.08-.432-.224-.752-.432-.96-.192-.224-.464-.368-.816-.432-.336-.08-.76-.12-1.272-.12-.64,0-1.152.048-1.536.144-.368.08-.648.24-.84.48-.192.24-.328.576-.408,1.008-.064.416-.096.968-.096,1.656h5.976l-.432.384ZM234.324,59.639c-.816,0-1.504-.096-2.064-.288-.56-.208-1.008-.544-1.344-1.008-.336-.48-.584-1.128-.744-1.944-.144-.816-.216-1.832-.216-3.048,0-1.232.072-2.256.216-3.072.16-.816.4-1.456.72-1.92.336-.48.776-.824,1.32-1.032s1.216-.312,2.016-.312c.592,0,1.128.048,1.608.144.48.096.904.264,1.272.504.384.224.688.552.912.984h.168v-7.032h2.544v17.832h-2.352l-.096-1.608h-.144c-.24.512-.568.896-.984,1.152-.4.256-.848.424-1.344.504-.496.096-.992.144-1.488.144ZM235.356,57.383c.704,0,1.248-.088,1.632-.264.4-.192.68-.488.84-.888.16-.368.256-.792.288-1.272.048-.48.072-1.04.072-1.68,0-.608-.024-1.136-.072-1.584-.032-.464-.12-.856-.264-1.176-.176-.432-.464-.744-.864-.936-.384-.192-.928-.288-1.632-.288-.64,0-1.152.048-1.536.144-.368.08-.648.256-.84.528-.176.256-.296.656-.36,1.2-.064.528-.096,1.248-.096,2.16s.032,1.64.096,2.184c.064.528.192.928.384,1.2.192.272.472.456.84.552.384.08.888.12,1.512.12ZM249.73,59.639c-1.04,0-1.904-.064-2.592-.192-.688-.144-1.24-.368-1.656-.672-.416-.32-.728-.72-.936-1.2-.208-.496-.344-1.088-.408-1.776-.064-.704-.096-1.52-.096-2.448,0-1.104.056-2.056.168-2.856s.344-1.456.696-1.968c.352-.528.896-.912,1.632-1.152.752-.24,1.752-.36,3-.36.976,0,1.776.08,2.4.24.624.144,1.112.376,1.464.696.368.32.632.736.792,1.248.176.496.288,1.096.336,1.8.048.688.072,1.472.072,2.352v.816h-7.992c0,.72.032,1.304.096,1.752.064.432.208.768.432,1.008.24.224.608.384,1.104.48.512.08,1.2.12,2.064.12.368,0,.768-.008,1.2-.024.448-.016.904-.048,1.368-.096s.88-.088,1.248-.12v1.992c-.352.064-.776.12-1.272.168-.496.064-1.016.112-1.56.144-.544.032-1.064.048-1.56.048ZM252.154,52.799v-.456c0-.72-.048-1.288-.144-1.704-.08-.432-.224-.752-.432-.96-.192-.224-.464-.368-.816-.432-.336-.08-.76-.12-1.272-.12-.64,0-1.152.048-1.536.144-.368.08-.648.24-.84.48-.192.24-.328.576-.408,1.008-.064.416-.096.968-.096,1.656h5.976l-.432.384ZM247.378,45.335v-.12l2.352-3.312h2.64v.12l-3.12,3.312h-1.872ZM257.905,59.447v-12.24h2.352l.072,1.632h.168c.176-.384.416-.712.72-.984.32-.272.712-.48,1.176-.624.48-.144,1.056-.216,1.728-.216,1.024,0,1.792.152,2.304.456.512.288.872.744,1.08,1.368h.192c.176-.384.424-.712.744-.984.336-.272.744-.48,1.224-.624.496-.144,1.08-.216,1.752-.216,1.056,0,1.848.176,2.376.528.528.352.88.888,1.056,1.608.176.704.264,1.584.264,2.64v7.656h-2.544v-6.648c0-.8-.024-1.432-.072-1.896-.048-.48-.152-.832-.312-1.056-.144-.24-.376-.392-.696-.456-.304-.064-.704-.096-1.2-.096-.576,0-1.032.08-1.368.24-.336.144-.584.376-.744.696-.16.304-.264.696-.312,1.176-.048.48-.072,1.056-.072,1.728v6.312h-2.544v-6.648c0-.8-.032-1.432-.096-1.896-.048-.48-.152-.832-.312-1.056-.144-.24-.368-.392-.672-.456s-.712-.096-1.224-.096c-.56,0-1.008.08-1.344.24s-.592.4-.768.72c-.16.304-.264.704-.312,1.2-.048.48-.072,1.04-.072,1.68v6.312h-2.544ZM282.048,59.639c-.832,0-1.536-.112-2.112-.336-.56-.224-.984-.592-1.272-1.104-.288-.528-.432-1.24-.432-2.136,0-.944.112-1.688.336-2.232.224-.56.608-.96,1.152-1.2.544-.24,1.312-.36,2.304-.36.16,0,.392.008.696.024.32,0,.68.008,1.08.024.416,0,.824.008,1.224.024.416,0,.792.008,1.128.024v-.576c0-.624-.04-1.112-.12-1.464-.08-.352-.248-.608-.504-.768-.24-.176-.592-.288-1.056-.336-.464-.048-1.064-.072-1.8-.072-.352,0-.768.016-1.248.048-.464.016-.92.04-1.368.072-.448.032-.792.072-1.032.12v-2.016c.656-.128,1.376-.216,2.16-.264.784-.064,1.568-.096,2.352-.096.912,0,1.672.056,2.28.168.624.112,1.128.288,1.512.528s.672.552.864.936c.192.384.328.848.408,1.392.08.528.12,1.136.12,1.824v7.584h-2.352l-.096-1.584h-.144c-.272.512-.64.904-1.104,1.176-.448.256-.936.416-1.464.48-.528.08-1.032.12-1.512.12ZM283.176,57.575c.4,0,.76-.024,1.08-.072.336-.064.624-.16.864-.288.256-.144.456-.336.6-.576.144-.272.248-.584.312-.936.08-.352.12-.768.12-1.248v-.432h-3.504c-.528,0-.936.04-1.224.12-.272.08-.456.248-.552.504s-.144.648-.144,1.176c0,.496.056.872.168,1.128.112.24.344.408.696.504.368.08.896.12,1.584.12ZM292.522,59.447v-12.24h2.328l.096,2.208h.192c.208-.64.496-1.136.864-1.488.368-.352.816-.592,1.344-.72.528-.128,1.128-.192,1.8-.192v2.496c-1.088,0-1.928.16-2.52.48-.576.32-.984.832-1.224,1.536-.224.688-.336,1.592-.336,2.712v5.208h-2.544ZM301.639,59.447v-12.24h2.328l.096,2.208h.192c.208-.64.496-1.136.864-1.488.368-.352.816-.592,1.344-.72.528-.128,1.128-.192,1.8-.192v2.496c-1.088,0-1.928.16-2.52.48-.576.32-.984.832-1.224,1.536-.224.688-.336,1.592-.336,2.712v5.208h-2.544ZM313.642,59.639c-.832,0-1.536-.112-2.112-.336-.56-.224-.984-.592-1.272-1.104-.288-.528-.432-1.24-.432-2.136,0-.944.112-1.688.336-2.232.224-.56.608-.96,1.152-1.2.544-.24,1.312-.36,2.304-.36.16,0,.392.008.696.024.32,0,.68.008,1.08.024.416,0,.824.008,1.224.024.416,0,.792.008,1.128.024v-.576c0-.624-.04-1.112-.12-1.464-.08-.352-.248-.608-.504-.768-.24-.176-.592-.288-1.056-.336s-1.064-.072-1.8-.072c-.352,0-.768.016-1.248.048-.464.016-.92.04-1.368.072-.448.032-.792.072-1.032.12v-2.016c.656-.128,1.376-.216,2.16-.264.784-.064,1.568-.096,2.352-.096.912,0,1.672.056,2.28.168.624.112,1.128.288,1.512.528s.672.552.864.936c.192.384.328.848.408,1.392.08.528.12,1.136.12,1.824v7.584h-2.352l-.096-1.584h-.144c-.272.512-.64.904-1.104,1.176-.448.256-.936.416-1.464.48-.528.08-1.032.12-1.512.12ZM314.77,57.575c.4,0,.76-.024,1.08-.072.336-.064.624-.16.864-.288.256-.144.456-.336.6-.576.144-.272.248-.584.312-.936.08-.352.12-.768.12-1.248v-.432h-3.504c-.528,0-.936.04-1.224.12-.272.08-.456.248-.552.504s-.144.648-.144,1.176c0,.496.056.872.168,1.128.112.24.344.408.696.504.368.08.896.12,1.584.12ZM328.676,64.391c-.512,0-1.032-.016-1.56-.048-.528-.016-1.024-.048-1.488-.096-.464-.032-.856-.064-1.176-.096v-2.016c.336.032.72.056,1.152.072.432.016.864.024,1.296.024.432.016.832.024,1.2.024.864,0,1.544-.056,2.04-.168.512-.096.888-.28,1.128-.552.256-.256.416-.632.48-1.128.08-.496.12-1.136.12-1.92v-.6h-.144c-.224.432-.52.768-.888,1.008-.352.24-.768.408-1.248.504-.48.096-1.008.144-1.584.144-.832,0-1.528-.096-2.088-.288-.544-.208-.984-.544-1.32-1.008s-.584-1.096-.744-1.896c-.144-.8-.216-1.808-.216-3.024,0-1.232.072-2.248.216-3.048.16-.816.408-1.456.744-1.92.336-.48.784-.824,1.344-1.032s1.256-.312,2.088-.312c.48,0,.968.048,1.464.144.496.08.944.256,1.344.528.416.256.744.64.984,1.152h.144l.096-1.632h2.352v10.728c0,1.152-.056,2.136-.168,2.952-.112.816-.36,1.48-.744,1.992s-.96.888-1.728,1.128c-.752.256-1.784.384-3.096.384ZM329.036,57.311c.656,0,1.176-.08,1.56-.24.384-.176.664-.432.84-.768.192-.336.312-.744.36-1.224.048-.496.072-1.088.072-1.776,0-.656-.024-1.232-.072-1.728-.048-.496-.16-.912-.336-1.248-.192-.368-.488-.632-.888-.792-.384-.176-.896-.264-1.536-.264-.624,0-1.128.048-1.512.144-.368.08-.648.256-.84.528-.192.272-.32.672-.384,1.2-.064.528-.096,1.248-.096,2.16,0,.896.032,1.608.096,2.136.064.528.192.928.384,1.2.192.272.472.456.84.552.384.08.888.12,1.512.12ZM343.41,59.639c-1.04,0-1.904-.064-2.592-.192-.688-.144-1.24-.368-1.656-.672-.416-.32-.728-.72-.936-1.2-.208-.496-.344-1.088-.408-1.776-.064-.704-.096-1.52-.096-2.448,0-1.104.056-2.056.168-2.856s.344-1.456.696-1.968c.352-.528.896-.912,1.632-1.152.752-.24,1.752-.36,3-.36.976,0,1.776.08,2.4.24.624.144,1.112.376,1.464.696.368.32.632.736.792,1.248.176.496.288,1.096.336,1.8.048.688.072,1.472.072,2.352v.816h-7.992c0,.72.032,1.304.096,1.752.064.432.208.768.432,1.008.24.224.608.384,1.104.48.512.08,1.2.12,2.064.12.368,0,.768-.008,1.2-.024.448-.016.904-.048,1.368-.096.464-.048.88-.088,1.248-.12v1.992c-.352.064-.776.12-1.272.168-.496.064-1.016.112-1.56.144-.544.032-1.064.048-1.56.048ZM345.834,52.799v-.456c0-.72-.048-1.288-.144-1.704-.08-.432-.224-.752-.432-.96-.192-.224-.464-.368-.816-.432-.336-.08-.76-.12-1.272-.12-.64,0-1.152.048-1.536.144-.368.08-.648.24-.84.48-.192.24-.328.576-.408,1.008-.064.416-.096.968-.096,1.656h5.976l-.432.384Z"
         fill="#fff"
         id="path2"
         style="fill:#292929;fill-opacity:1" />
      <path
         d="M41.651,42.45l-2.249-1.295v.006l-22.44-12.96h-.001c-5.667-3.265-12.749.811-12.749,7.359v28.51c0,6.543,7.079,10.637,12.75,7.359,0,0,0,0,0,0l20.527-11.856h0s4.162-2.404,4.162-2.404c5.67-3.268,5.67-11.452-.002-14.719Z"
         fill="#087bf9"
         stroke="#fff"
         stroke-width="3"
         id="path3"
         style="fill:#171717;fill-opacity:1;stroke:#3b3b3b;stroke-opacity:1" />
    </g>
  </g>
</svg>
