<?xml version="1.0" encoding="UTF-8" standalone="no"?>
<svg
   width="116.916mm"
   height="35.2mm"
   version="1.1"
   viewBox="0 0 331.417 99.78"
   id="svg3"
   sodipodi:docname="ConfirmerQuitter.svg"
   inkscape:version="1.4 (86a8ad7, 2024-10-11)"
   xmlns:inkscape="http://www.inkscape.org/namespaces/inkscape"
   xmlns:sodipodi="http://sodipodi.sourceforge.net/DTD/sodipodi-0.dtd"
   xmlns="http://www.w3.org/2000/svg"
   xmlns:svg="http://www.w3.org/2000/svg">
  <defs
     id="defs3" />
  <sodipodi:namedview
     id="namedview3"
     pagecolor="#ffffff"
     bordercolor="#000000"
     borderopacity="0.25"
     inkscape:showpageshadow="2"
     inkscape:pageopacity="0.0"
     inkscape:pagecheckerboard="0"
     inkscape:deskcolor="#d1d1d1"
     inkscape:document-units="mm"
     inkscape:zoom="3.1388098"
     inkscape:cx="263.95356"
     inkscape:cy="53.045585"
     inkscape:window-width="2880"
     inkscape:window-height="1514"
     inkscape:window-x="-11"
     inkscape:window-y="-11"
     inkscape:window-maximized="1"
     inkscape:current-layer="Calque_1" />
  <!-- Generator: Adobe Illustrator 28.7.4, SVG Export Plug-In . SVG Version: 1.2.0 Build 166)  -->
  <g
     id="g3">
    <g
       id="Calque_1">
      <rect
         x="950.364"
         y="1145.372"
         width="25.045"
         height="25.045"
         fill="#00d200"
         fill-opacity=".2"
         stroke="#00d200"
         stroke-linecap="round"
         stroke-linejoin="round"
         stroke-width="3"
         id="rect1" />
      <path
         d="M39.772,92.499h-.504c-8.075-.32-15.706-8.305-15.706-19.59V26.739c0-11.53,7.941-19.6,16.21-19.6h268.101c8.259,0,16.21,8.08,16.21,19.6v46.16c0,11.53-7.942,19.6-16.21,19.6H39.772Z"
         fill="#5d6c82"
         stroke="#445060"
         stroke-width="10"
         id="path1"
         style="fill:#3b3b3b;fill-opacity:1;stroke:#292929;stroke-opacity:1" />
      <path
         d="M41.651,42.45l-2.249-1.295v.006l-22.44-12.96h-.001c-5.667-3.265-12.749.811-12.749,7.359v28.51c0,6.543,7.079,10.637,12.75,7.359,0,0,0,0,0,0l20.527-11.856h0s4.162-2.404,4.162-2.404c5.67-3.268,5.67-11.452-.002-14.719Z"
         fill="#087bf9"
         stroke="#fff"
         stroke-width="3"
         id="path2"
         style="fill:#171717;fill-opacity:1;stroke:#3b3b3b;stroke-opacity:1" />
      <path
         d="M79.23,60.899l-2.136-3.048,2.568-.672,2.664,3.672v.048h-3.096ZM74.886,58.331c-1.312,0-2.392-.072-3.24-.216-.848-.16-1.52-.424-2.016-.792-.496-.368-.856-.872-1.08-1.512s-.368-1.44-.432-2.4c-.064-.976-.096-2.152-.096-3.528s.032-2.544.096-3.504c.064-.976.208-1.784.432-2.424.224-.64.584-1.144,1.08-1.512s1.168-.624,2.016-.768c.848-.16,1.928-.24,3.24-.24s2.392.08,3.24.24c.864.144,1.544.4,2.04.768.496.368.856.872,1.08,1.512.24.64.392,1.448.456,2.424.064.96.096,2.128.096,3.504s-.032,2.552-.096,3.528c-.064.96-.216,1.76-.456,2.4-.224.64-.584,1.144-1.08,1.512-.496.368-1.176.632-2.04.792-.848.144-1.928.216-3.24.216ZM74.886,56.027c.8,0,1.456-.024,1.968-.072.528-.048.936-.168,1.224-.36.304-.192.528-.504.672-.936.144-.448.232-1.048.264-1.8.048-.768.072-1.76.072-2.976s-.024-2.2-.072-2.952c-.032-.768-.12-1.368-.264-1.8-.144-.448-.368-.768-.672-.96-.288-.192-.696-.312-1.224-.36-.512-.048-1.168-.072-1.968-.072-.784,0-1.432.024-1.944.072-.512.048-.92.168-1.224.36-.304.192-.528.512-.672.96-.128.432-.216,1.032-.264,1.8-.032.752-.048,1.736-.048,2.952s.016,2.208.048,2.976c.048.752.136,1.352.264,1.8.144.432.368.744.672.936.304.192.712.312,1.224.36.512.048,1.16.072,1.944.072ZM89.356,58.331c-.848,0-1.544-.096-2.088-.288-.528-.208-.936-.512-1.224-.912-.272-.4-.456-.896-.552-1.488-.096-.592-.144-1.288-.144-2.088v-7.656h2.544v6.648c0,.8.024,1.44.072,1.92.064.464.184.816.36,1.056.176.224.432.368.768.432.352.064.816.096,1.392.096.64,0,1.152-.08,1.536-.24s.664-.4.84-.72c.192-.32.312-.72.36-1.2.048-.48.072-1.04.072-1.68v-6.312h2.568v12.24h-2.352l-.096-1.632h-.168c-.176.384-.432.712-.768.984-.32.272-.736.48-1.248.624-.512.144-1.136.216-1.872.216ZM99.597,42.827v-2.52h2.664v2.52h-2.664ZM99.645,58.139v-12.24h2.544v12.24h-2.544ZM107.077,58.139v-10.104h-2.448v-2.136h2.448v-3.552h2.544v3.552h2.856v2.136h-2.856v10.104h-2.544ZM116.054,58.139v-10.104h-2.448v-2.136h2.448v-3.552h2.544v3.552h2.856v2.136h-2.856v10.104h-2.544ZM129.017,58.331c-1.04,0-1.904-.064-2.592-.192-.688-.144-1.24-.368-1.656-.672-.416-.32-.728-.72-.936-1.2-.208-.496-.344-1.088-.408-1.776-.064-.704-.096-1.52-.096-2.448,0-1.104.056-2.056.168-2.856s.344-1.456.696-1.968c.352-.528.896-.912,1.632-1.152.752-.24,1.752-.36,3-.36.976,0,1.776.08,2.4.24.624.144,1.112.376,1.464.696.368.32.632.736.792,1.248.176.496.288,1.096.336,1.8.048.688.072,1.472.072,2.352v.816h-7.992c0,.72.032,1.304.096,1.752.064.432.208.768.432,1.008.24.224.608.384,1.104.48.512.08,1.2.12,2.064.12.368,0,.768-.008,1.2-.024.448-.016.904-.048,1.368-.096s.88-.088,1.248-.12v1.992c-.352.064-.776.12-1.272.168-.496.064-1.016.112-1.56.144-.544.032-1.064.048-1.56.048ZM131.441,51.491v-.456c0-.72-.048-1.288-.144-1.704-.08-.432-.224-.752-.432-.96-.192-.224-.464-.368-.816-.432-.336-.08-.76-.12-1.272-.12-.64,0-1.152.048-1.536.144-.368.08-.648.24-.84.48-.192.24-.328.576-.408,1.008-.064.416-.096.968-.096,1.656h5.976l-.432.384ZM137.192,58.139v-12.24h2.328l.096,2.208h.192c.208-.64.496-1.136.864-1.488s.816-.592,1.344-.72c.528-.128,1.128-.192,1.8-.192v2.496c-1.088,0-1.928.16-2.52.48-.576.32-.984.832-1.224,1.536-.224.688-.336,1.592-.336,2.712v5.208h-2.544ZM152.098,58.139v-17.832h2.544v17.832h-2.544ZM157.682,47.267v-1.104c.416,0,.728-.032.936-.096.224-.08.376-.224.456-.432.08-.224.12-.544.12-.96v-.408h-1.128v-2.64h2.76v1.992c0,.752-.04,1.368-.12,1.848-.064.464-.208.832-.432,1.104-.208.256-.52.44-.936.552-.416.096-.968.144-1.656.144ZM167.382,58.331c-.832,0-1.536-.112-2.112-.336-.56-.224-.984-.592-1.272-1.104-.288-.528-.432-1.24-.432-2.136,0-.944.112-1.688.336-2.232.224-.56.608-.96,1.152-1.2.544-.24,1.312-.36,2.304-.36.16,0,.392.008.696.024.32,0,.68.008,1.08.024.416,0,.824.008,1.224.024.416,0,.792.008,1.128.024v-.576c0-.624-.04-1.112-.12-1.464-.08-.352-.248-.608-.504-.768-.24-.176-.592-.288-1.056-.336s-1.064-.072-1.8-.072c-.352,0-.768.016-1.248.048-.464.016-.92.04-1.368.072-.448.032-.792.072-1.032.12v-2.016c.656-.128,1.376-.216,2.16-.264.784-.064,1.568-.096,2.352-.096.912,0,1.672.056,2.28.168.624.112,1.128.288,1.512.528.384.24.672.552.864.936s.328.848.408,1.392c.08.528.12,1.136.12,1.824v7.584h-2.352l-.096-1.584h-.144c-.272.512-.64.904-1.104,1.176-.448.256-.936.416-1.464.48-.528.08-1.032.12-1.512.12ZM168.51,56.267c.4,0,.76-.024,1.08-.072.336-.064.624-.16.864-.288.256-.144.456-.336.6-.576.144-.272.248-.584.312-.936.08-.352.12-.768.12-1.248v-.432h-3.504c-.528,0-.936.04-1.224.12-.272.08-.456.248-.552.504-.096.256-.144.648-.144,1.176,0,.496.056.872.168,1.128.112.24.344.408.696.504.368.08.896.12,1.584.12ZM177.856,62.915v-17.016h2.352l.072,1.632h.168c.256-.512.584-.896.984-1.152.4-.272.84-.448,1.32-.528.496-.096,1-.144,1.512-.144.816,0,1.496.104,2.04.312.56.192,1.008.528,1.344,1.008.336.464.584,1.104.744,1.92.16.816.24,1.832.24,3.048,0,1.232-.08,2.256-.24,3.072-.144.816-.384,1.464-.72,1.944-.32.464-.752.8-1.296,1.008-.544.208-1.224.312-2.04.312-.576,0-1.104-.048-1.584-.144s-.904-.256-1.272-.48c-.368-.24-.672-.576-.912-1.008h-.168v6.216h-2.544ZM183.208,56.051c.64,0,1.144-.04,1.512-.12.384-.096.672-.272.864-.528.192-.272.32-.672.384-1.2.064-.544.096-1.272.096-2.184s-.032-1.632-.096-2.16c-.064-.544-.192-.952-.384-1.224-.192-.272-.48-.448-.864-.528-.368-.096-.872-.144-1.512-.144-.672,0-1.2.096-1.584.288s-.672.48-.864.864c-.16.336-.264.752-.312,1.248-.032.48-.048,1.032-.048,1.656,0,.64.016,1.2.048,1.68.048.464.144.856.288,1.176.192.416.48.72.864.912.4.176.936.264,1.608.264ZM191.942,62.915v-17.016h2.352l.072,1.632h.168c.256-.512.584-.896.984-1.152.4-.272.84-.448,1.32-.528.496-.096,1-.144,1.512-.144.816,0,1.496.104,2.04.312.56.192,1.008.528,1.344,1.008.336.464.584,1.104.744,1.92.16.816.24,1.832.24,3.048,0,1.232-.08,2.256-.24,3.072-.144.816-.384,1.464-.72,1.944-.32.464-.752.8-1.296,1.008-.544.208-1.224.312-2.04.312-.576,0-1.104-.048-1.584-.144s-.904-.256-1.272-.48c-.368-.24-.672-.576-.912-1.008h-.168v6.216h-2.544ZM197.294,56.051c.64,0,1.144-.04,1.512-.12.384-.096.672-.272.864-.528.192-.272.32-.672.384-1.2.064-.544.096-1.272.096-2.184s-.032-1.632-.096-2.16c-.064-.544-.192-.952-.384-1.224-.192-.272-.48-.448-.864-.528-.368-.096-.872-.144-1.512-.144-.672,0-1.2.096-1.584.288-.384.192-.672.48-.864.864-.16.336-.264.752-.312,1.248-.032.48-.048,1.032-.048,1.656,0,.64.016,1.2.048,1.68.048.464.144.856.288,1.176.192.416.48.72.864.912.4.176.936.264,1.608.264ZM206.028,58.139v-17.832h2.544v17.832h-2.544ZM212.308,42.827v-2.52h2.664v2.52h-2.664ZM212.356,58.139v-12.24h2.544v12.24h-2.544ZM223.268,58.331c-.944,0-1.728-.08-2.352-.24-.608-.176-1.096-.424-1.464-.744-.368-.336-.64-.752-.816-1.248-.176-.512-.296-1.104-.36-1.776-.048-.688-.072-1.464-.072-2.328,0-.848.032-1.608.096-2.28.064-.672.192-1.256.384-1.752.208-.512.496-.928.864-1.248.368-.336.848-.584,1.44-.744.592-.176,1.336-.264,2.232-.264.576,0,1.176.032,1.8.096.64.064,1.168.144,1.584.24v2.016c-.352-.064-.792-.112-1.32-.144-.512-.048-.984-.072-1.416-.072-.688,0-1.24.056-1.656.168-.4.112-.704.32-.912.624-.208.304-.352.728-.432,1.272-.064.544-.096,1.248-.096,2.112,0,.88.032,1.6.096,2.16.08.56.224.984.432,1.272.224.288.544.488.96.6.416.096.968.144,1.656.144.4,0,.848-.016,1.344-.048.512-.048,1-.104,1.464-.168v2.016c-.432.096-.968.176-1.608.24s-1.256.096-1.848.096ZM232.866,58.331c-.832,0-1.536-.112-2.112-.336-.56-.224-.984-.592-1.272-1.104-.288-.528-.432-1.24-.432-2.136,0-.944.112-1.688.336-2.232.224-.56.608-.96,1.152-1.2.544-.24,1.312-.36,2.304-.36.16,0,.392.008.696.024.32,0,.68.008,1.08.024.416,0,.824.008,1.224.024.416,0,.792.008,1.128.024v-.576c0-.624-.04-1.112-.12-1.464-.08-.352-.248-.608-.504-.768-.24-.176-.592-.288-1.056-.336-.464-.048-1.064-.072-1.8-.072-.352,0-.768.016-1.248.048-.464.016-.92.04-1.368.072-.448.032-.792.072-1.032.12v-2.016c.656-.128,1.376-.216,2.16-.264.784-.064,1.568-.096,2.352-.096.912,0,1.672.056,2.28.168.624.112,1.128.288,1.512.528s.672.552.864.936c.192.384.328.848.408,1.392.08.528.12,1.136.12,1.824v7.584h-2.352l-.096-1.584h-.144c-.272.512-.64.904-1.104,1.176-.448.256-.936.416-1.464.48-.528.08-1.032.12-1.512.12ZM233.994,56.267c.4,0,.76-.024,1.08-.072.336-.064.624-.16.864-.288.256-.144.456-.336.6-.576.144-.272.248-.584.312-.936.08-.352.12-.768.12-1.248v-.432h-3.504c-.528,0-.936.04-1.224.12-.272.08-.456.248-.552.504s-.144.648-.144,1.176c0,.496.056.872.168,1.128.112.24.344.408.696.504.368.08.896.12,1.584.12ZM244.327,58.139v-10.104h-2.448v-2.136h2.448v-3.552h2.544v3.552h2.856v2.136h-2.856v10.104h-2.544ZM252.152,42.827v-2.52h2.664v2.52h-2.664ZM252.2,58.139v-12.24h2.544v12.24h-2.544ZM263.52,58.331c-1.024,0-1.88-.064-2.568-.192-.672-.128-1.208-.328-1.608-.6-.384-.288-.672-.672-.864-1.152-.176-.48-.296-1.08-.36-1.8-.048-.72-.072-1.584-.072-2.592,0-.992.024-1.848.072-2.568.064-.72.184-1.32.36-1.8.192-.48.48-.856.864-1.128.4-.288.936-.488,1.608-.6.688-.128,1.544-.192,2.568-.192,1.04,0,1.896.064,2.568.192.688.112,1.224.312,1.608.6.4.272.688.648.864,1.128.192.48.312,1.08.36,1.8.064.72.096,1.576.096,2.568,0,1.008-.032,1.872-.096,2.592-.048.72-.168,1.32-.36,1.8-.176.48-.464.864-.864,1.152-.384.272-.92.472-1.608.6-.672.128-1.528.192-2.568.192ZM263.52,56.195c.736,0,1.304-.048,1.704-.144.4-.096.68-.288.84-.576.176-.288.28-.712.312-1.272.048-.56.072-1.296.072-2.208s-.024-1.64-.072-2.184c-.032-.56-.136-.984-.312-1.272-.16-.288-.44-.472-.84-.552-.4-.096-.968-.144-1.704-.144-.72,0-1.28.048-1.68.144-.4.08-.688.264-.864.552-.16.288-.264.712-.312,1.272-.032.544-.048,1.272-.048,2.184s.016,1.648.048,2.208c.048.56.152.984.312,1.272.176.288.464.48.864.576.4.096.96.144,1.68.144ZM272.332,58.139v-12.24h2.352l.072,1.632h.192c.192-.4.448-.728.768-.984.32-.272.736-.48,1.248-.624s1.136-.216,1.872-.216c.864,0,1.56.104,2.088.312.528.192.928.488,1.2.888.272.4.456.896.552,1.488.112.592.168,1.288.168,2.088v7.656h-2.568v-6.648c0-.8-.032-1.432-.096-1.896-.048-.48-.16-.832-.336-1.056-.176-.24-.44-.392-.792-.456-.336-.064-.792-.096-1.368-.096-.64,0-1.152.08-1.536.24-.368.16-.648.4-.84.72-.176.32-.296.72-.36,1.2-.048.48-.072,1.04-.072,1.68v6.312h-2.544Z"
         fill="#fff"
         id="path3"
         style="fill:#292929;fill-opacity:1" />
    </g>
  </g>
</svg>
