<?xml version="1.0" encoding="UTF-8" standalone="no"?>
<svg
   width="51.1mm"
   height="23mm"
   version="1.1"
   viewBox="0 0 144.85 65.197"
   id="svg8"
   sodipodi:docname="Sombre_BoutonScanSelectDesactive.svg"
   inkscape:version="1.4 (86a8ad7, 2024-10-11)"
   xmlns:inkscape="http://www.inkscape.org/namespaces/inkscape"
   xmlns:sodipodi="http://sodipodi.sourceforge.net/DTD/sodipodi-0.dtd"
   xmlns="http://www.w3.org/2000/svg"
   xmlns:svg="http://www.w3.org/2000/svg">
  <defs
     id="defs8" />
  <sodipodi:namedview
     id="namedview8"
     pagecolor="#ffffff"
     bordercolor="#000000"
     borderopacity="0.25"
     inkscape:showpageshadow="2"
     inkscape:pageopacity="0.0"
     inkscape:pagecheckerboard="0"
     inkscape:deskcolor="#d1d1d1"
     inkscape:document-units="mm"
     inkscape:zoom="9.195695"
     inkscape:cx="96.566926"
     inkscape:cy="43.444242"
     inkscape:window-width="1920"
     inkscape:window-height="1009"
     inkscape:window-x="3832"
     inkscape:window-y="-8"
     inkscape:window-maximized="1"
     inkscape:current-layer="Calque_1" />
  <!-- Generator: Adobe Illustrator 28.7.4, SVG Export Plug-In . SVG Version: 1.2.0 Build 166)  -->
  <g
     id="g8">
    <g
       id="Calque_1">
      <path
         d="M112.739,3.415c6.793.003,12.885,2.121,18.187,6.343,6.365,5.066,10.065,11.686,11.057,19.774.497,4.062.123,8.052-1.047,11.986-1.615,5.44-4.582,10.01-8.81,13.743-4.495,3.973-9.771,6.316-15.719,7.107-1.166.156-82.004.234-83.892.237-7.206.009-13.633-2.211-19.166-6.839-5.878-4.92-9.381-11.203-10.41-18.816-.836-6.173.149-12.066,3.04-17.585,3.572-6.821,9.018-11.573,16.249-14.23,3.208-1.179,6.533-1.739,9.968-1.734,16.82.02,63.722.003,80.542.014Z"
         fill="#445060"
         fill-rule="evenodd"
         stroke="#70839c"
         stroke-miterlimit="10"
         stroke-width="3"
         id="path1"
         style="fill:#1e1e1e;fill-opacity:1;stroke:#363636;stroke-opacity:1" />
      <g
         id="g7">
        <path
           d="M30.691,41.724v-2.975c2.05.199,3.8.3,5.25.3.85,0,1.512-.038,1.987-.112.475-.075.829-.204,1.062-.388.216-.167.354-.366.413-.601.058-.232.087-.566.087-1,0-.482-.034-.837-.1-1.062-.067-.225-.2-.391-.4-.5-.2-.107-.534-.188-1-.237l-3.675-.425c-1.1-.15-1.95-.438-2.55-.862s-1.012-.976-1.237-1.65-.337-1.513-.337-2.513c0-1.466.266-2.579.8-3.337.533-.758,1.25-1.254,2.15-1.487s2.058-.35,3.475-.35c2.183,0,4.05.167,5.6.5v2.9c-1.617-.216-3.242-.325-4.875-.325-1.5,0-2.492.125-2.975.375-.267.134-.434.309-.5.525-.067.217-.1.542-.1.975,0,.5.033.859.1,1.075.066.217.212.371.438.462.225.092.604.172,1.138.238l3.95.475c.767.084,1.4.237,1.9.463.5.225.892.596,1.175,1.112.4.717.6,1.825.6,3.325,0,1.583-.25,2.774-.75,3.574-.5.801-1.171,1.321-2.013,1.562-.842.242-1.946.363-3.312.363-2.45,0-4.55-.134-6.3-.4Z"
           fill="#70839c"
           id="path2"
           style="fill:#363636;fill-opacity:1" />
        <path
           d="M46.49,41.924v-17.201h11.825v3.075h-8.275v3.9h7.1v3.075h-7.1v4.075h8.275v3.075h-11.825Z"
           fill="#70839c"
           id="path3"
           style="fill:#363636;fill-opacity:1" />
        <path
           d="M61.79,41.924v-17.201h3.55v13.975h7.275v3.226h-10.825Z"
           fill="#70839c"
           id="path4"
           style="fill:#363636;fill-opacity:1" />
        <path
           d="M75.315,41.924v-17.201h11.825v3.075h-8.275v3.9h7.1v3.075h-7.1v4.075h8.275v3.075h-11.825Z"
           fill="#70839c"
           id="path5"
           style="fill:#363636;fill-opacity:1" />
        <path
           d="M99.577,42.011c-.825.075-1.587.113-2.288.113-2.117,0-3.679-.259-4.688-.775-1.009-.517-1.679-1.375-2.013-2.575s-.5-3.017-.5-5.45c0-2.4.167-4.204.5-5.413.333-1.208,1.004-2.075,2.013-2.6,1.008-.525,2.571-.788,4.688-.788.716,0,1.475.042,2.275.125.8.083,1.466.192,2,.325v2.875c-1.45-.166-2.575-.25-3.375-.25-1.517,0-2.567.113-3.15.338-.583.225-.958.704-1.125,1.438-.167.733-.25,2.05-.25,3.95s.083,3.217.25,3.95c.167.733.542,1.213,1.125,1.438.583.226,1.633.338,3.15.338,1.267,0,2.425-.083,3.475-.25v2.925c-.567.117-1.263.213-2.087.287Z"
           fill="#70839c"
           id="path6"
           style="fill:#363636;fill-opacity:1" />
        <path
           d="M108.365,41.924v-13.976h-5v-3.225h13.55v3.225h-5v13.976h-3.55Z"
           fill="#70839c"
           id="path7"
           style="fill:#363636;fill-opacity:1" />
      </g>
    </g>
  </g>
</svg>
