<?xml version="1.0" encoding="UTF-8" standalone="no"?>
<svg
   width="19.849mm"
   height="19.6mm"
   version="1.1"
   viewBox="0 0 56.266 55.559"
   id="svg3"
   sodipodi:docname="PlayActif.svg"
   inkscape:version="1.4 (86a8ad7, 2024-10-11)"
   xmlns:inkscape="http://www.inkscape.org/namespaces/inkscape"
   xmlns:sodipodi="http://sodipodi.sourceforge.net/DTD/sodipodi-0.dtd"
   xmlns="http://www.w3.org/2000/svg"
   xmlns:svg="http://www.w3.org/2000/svg">
  <defs
     id="defs3" />
  <sodipodi:namedview
     id="namedview3"
     pagecolor="#ffffff"
     bordercolor="#000000"
     borderopacity="0.25"
     inkscape:showpageshadow="2"
     inkscape:pageopacity="0.0"
     inkscape:pagecheckerboard="0"
     inkscape:deskcolor="#d1d1d1"
     inkscape:document-units="mm"
     inkscape:zoom="16.644451"
     inkscape:cx="37.489971"
     inkscape:cy="37.039371"
     inkscape:window-width="2880"
     inkscape:window-height="1514"
     inkscape:window-x="-11"
     inkscape:window-y="-11"
     inkscape:window-maximized="1"
     inkscape:current-layer="g3" />
  <!-- Generator: Adobe Illustrator 28.7.4, SVG Export Plug-In . SVG Version: 1.2.0 Build 166)  -->
  <g
     id="g3">
    <g
       id="Calque_1"
       style="fill:#3b3b3b;fill-opacity:1">
      <g
         id="g2"
         style="fill:#3b3b3b;fill-opacity:1">
        <path
           d="M28.31,54.011c-14.327,0-25.983-11.656-25.983-25.984S13.983,2.044,28.31,2.044s25.983,11.656,25.983,25.983-11.656,25.984-25.983,25.984ZM22.091,39.472l19.823-11.445-19.823-11.445v22.89Z"
           fill="#70839c"
           fill-rule="evenodd"
           id="path1"
           style="fill:#3b3b3b;fill-opacity:1" />
        <path
           d="M28.31,3.544c13.522,0,24.484,10.962,24.484,24.483s-10.962,24.483-24.484,24.483S3.827,41.549,3.827,28.028,14.788,3.544,28.31,3.544M20.591,42.07l24.323-14.043-24.323-14.043v28.086M28.31.544C13.156.544.827,12.873.827,28.028s12.329,27.483,27.483,27.483,27.484-12.329,27.484-27.483S43.465.544,28.31.544h0ZM23.591,36.874v-17.693l15.323,8.847-15.323,8.847h0Z"
           fill="#445060"
           id="path2"
           style="fill:#3b3b3b;fill-opacity:1" />
      </g>
    </g>
  </g>
</svg>
