<?xml version="1.0" encoding="UTF-8" standalone="no"?>
<svg
   width="210.583mm"
   height="213mm"
   version="1.1"
   viewBox="0 0 596.929 603.78"
   id="svg2"
   sodipodi:docname="ContainerSupportEntree.svg"
   inkscape:version="1.4 (86a8ad7, 2024-10-11)"
   xmlns:inkscape="http://www.inkscape.org/namespaces/inkscape"
   xmlns:sodipodi="http://sodipodi.sourceforge.net/DTD/sodipodi-0.dtd"
   xmlns="http://www.w3.org/2000/svg"
   xmlns:svg="http://www.w3.org/2000/svg">
  <defs
     id="defs2" />
  <sodipodi:namedview
     id="namedview2"
     pagecolor="#ffffff"
     bordercolor="#000000"
     borderopacity="0.25"
     inkscape:showpageshadow="2"
     inkscape:pageopacity="0.0"
     inkscape:pagecheckerboard="0"
     inkscape:deskcolor="#d1d1d1"
     inkscape:document-units="mm"
     inkscape:zoom="1.5316021"
     inkscape:cx="398.27576"
     inkscape:cy="402.51969"
     inkscape:window-width="2880"
     inkscape:window-height="1514"
     inkscape:window-x="-11"
     inkscape:window-y="-11"
     inkscape:window-maximized="1"
     inkscape:current-layer="g1" />
  <!-- Generator: Adobe Illustrator 28.7.4, SVG Export Plug-In . SVG Version: 1.2.0 Build 166)  -->
  <g
     id="g2">
    <g
       id="Calque_1">
      <g
         id="g1">
        <rect
           x="4.965"
           y="5.426"
           width="586.575"
           height="593.425"
           rx="12"
           ry="12"
           fill="#70839c"
           id="rect1"
           style="fill:#292929;fill-opacity:1" />
        <path
           d="M579.539,9.427c4.4,0,8,3.6,8,8v569.425c0,4.4-3.6,8-8,8H16.964c-4.4,0-8-3.6-8-8V17.427c0-4.4,3.6-8,8-8h562.575M579.539,1.427H16.964C8.142,1.427.964,8.604.964,17.427v569.425c0,8.822,7.178,16,16,16h562.575c8.822,0,16-7.178,16-16V17.427c0-8.822-7.178-16-16-16h0Z"
           fill="#445060"
           id="path1"
           style="fill:#232323;fill-opacity:1" />
      </g>
    </g>
  </g>
</svg>
